<?xml version="1.0" encoding="UTF-8" standalone="no"?>
<svg width="81px" height="61px" viewBox="0 0 81 61" version="1.1" xmlns="http://www.w3.org/2000/svg" xmlns:xlink="http://www.w3.org/1999/xlink" xmlns:sketch="http://www.bohemiancoding.com/sketch/ns">
    <!-- Generator: Sketch 3.3 (11970) - http://www.bohemiancoding.com/sketch -->
    <title>Boots</title>
    <desc>Created with Sketch.</desc>
    <defs></defs>
    <g id="Page-1" stroke="none" stroke-width="1" fill="none" fill-rule="evenodd" sketch:type="MSPage">
        <g id="summer-offer-page-copy-4" sketch:type="MSArtboardGroup" transform="translate(-896.000000, -2402.000000)" fill="#000000">
            <g id="Group-Copy" sketch:type="MSLayerGroup" transform="translate(63.125000, 2232.000000)">
                <g id="Group-+-Line-Copy-2-+-Line-Copy-3" transform="translate(93.000000, 64.000000)" sketch:type="MSShapeGroup">
                    <g id="Group">
                        <g id="Boots" transform="translate(740.000000, 106.000000)">
                            <path d="M66.2,54.9 C65.9,55.1 65.6,55.3 65.3,55.5 C65.2,55.6 65.1,55.6 65,55.6 C65,55.5 64.9,55.4 64.9,55.3 C64.9,55.1 64.9,54.9 64.8,54.8 C64.8,54.7 64.6,54.7 64.5,54.6 C64.4,54.7 64.4,54.8 64.3,54.9 C64.2,55.2 64.2,55.5 64.1,55.8 L64,55.9 C63.9,55.7 63.7,55.4 63.6,55.2 C62.6,56.4 61.1,56.9 59.8,57.5 C59.1,57.8 58.5,58 57.7,58.2 C56.8,58.5 56.1,58.7 55.2,59 C54.4,59.2 53.7,59.4 52.9,59.6 C52.8,59.6 52.6,59.6 52.4,59.5 C52.2,59.4 52.1,59.3 51.9,59.5 C51.8,59.6 51.6,59.7 51.4,59.9 C51,60.2 50.9,60.2 50.7,59.7 C50.4,59.9 50.1,60.1 49.8,60.3 C49.7,60.4 49.6,60.4 49.5,60.4 C49.5,60.3 49.4,60.2 49.4,60.1 C49.4,59.9 49.4,59.7 49.3,59.6 C49.3,59.5 49.1,59.5 49.1,59.5 C49,59.5 48.9,59.6 48.9,59.7 L48.9,60.3 C48.9,60.6 48.7,60.8 48.4,60.8 C48,60.8 47.6,60.7 47.3,60.7 L47.1,60.7 C46.5,60.8 46,60.9 45.4,60.9 C45,60.9 44.9,60.8 44.9,60.4 C44.9,59.9 44.6,59.6 44.1,59.7 C43.9,59.7 43.8,59.9 43.7,60 C43.3,61 43.6,61 42.4,60.8 C41.5,60.7 40.7,60.7 39.9,60.7 C39.3,60.7 39.3,60.6 39.2,60.1 C39.1,59.9 39,59.6 38.7,59.6 L38.6,59.6 C37.9,59.5 37.9,59.5 37.6,60.1 C37.4,60.5 37.1,60.3 36.8,60.3 C35.7,60 34.5,59.7 33.4,59.3 C33.3,59.3 33.3,59.3 33.2,59.2 C32.7,58.7 32.1,58.7 31.6,58.6 C31.5,58.6 31.4,58.5 31.3,58.4 C31.2,58.3 31.3,58.2 31.3,58.1 C31.3,58 31.2,57.9 31.1,57.8 C31,57.9 30.9,57.9 30.9,58 C30.7,58.4 30.7,58.4 30.3,58.3 C30.1,58.2 30,58.2 29.8,58.1 C29.7,58 29.6,57.9 29.5,57.8 C29.4,57.4 29,57.1 28.6,57.4 C28.1,57.7 27.6,57.7 27.2,57.7 C27,57.7 26.8,57.6 26.7,57.4 C26.7,57.2 26.6,57.1 26.4,57.3 C26.2,57.4 26,57.4 25.7,57.4 C25.5,57.4 25.3,57.5 25.1,57.5 C24.8,57.6 24.4,57.6 24.1,57.6 C24.1,57.6 24,57.4 24,57.3 C23.9,57.2 23.8,57.1 23.7,57.1 C23,57.4 22.5,57.7 22.4,58.4 C22.4,58.5 22.2,58.7 22.1,58.7 C21.8,58.7 21.7,58.9 21.7,59.2 C21.7,59.8 21.7,59.8 21.1,59.8 C20.3,59.8 19.7,59.7 18.9,59.7 C18.3,59.7 17.8,59.8 17.3,59.8 C16.8,59.8 16.4,59.7 16,59.7 C15.7,59.7 15.5,59.5 15.5,59.2 C15.4,58.9 14.9,58.7 14.7,58.9 C14.6,59 14.6,59.1 14.6,59.2 C14.6,59.7 14.5,59.8 14,59.8 C13.7,59.8 13.5,59.7 13.3,59.7 L12.8,59.7 L11.8,59.7 C11.7,59.7 11.7,59.7 11.6,59.6 C11.1,59 10.5,59.2 10,59.5 C9.6,59.7 9.2,59.7 8.8,59.7 C8.3,59.7 7.8,59.6 7.4,59.6 C7,59.6 6.6,59.5 6.3,59.5 C6.1,59.5 6,59.3 5.9,59.3 C5.5,59.3 5.1,59.4 4.8,59 L4.6,59 C4.3,59.2 4,59 3.8,58.8 C3.6,58.6 3.4,58.5 3.1,58.5 L3,58.5 C2.6,58.2 2.2,58 1.9,57.6 C1.5,57.2 1.2,56.8 0.9,56.4 C0.8,56.2 0.7,56 0.7,55.8 C0.6,55.2 0.3,54.8 0.3,54.3 C0.4,53.7 0.4,53.2 0.4,52.7 C0.4,52.4 0.5,52.1 0.6,51.8 C0.6,51.6 0.5,51.4 0.5,51.1 C0.5,51 0.5,50.9 0.6,50.8 L0.6,50.3 C0.6,50.1 0.5,49.9 0.7,49.7 C0.8,49.6 0.8,49.3 0.9,49.1 C1,48.8 1.1,48.5 0.9,48.1 C0.8,47.9 1,47.6 1,47.4 C1,47.2 1.1,47 1.1,46.8 C1.1,46.1 1.2,45.6 1.3,44.9 C1.5,44.1 1.6,43.5 1.7,42.7 C1.8,42.2 1.9,41.8 2,41.4 C2.1,40.9 2.2,40.3 2.4,39.9 C2.5,39.4 2.6,38.9 2.7,38.5 C2.7,38.4 2.8,38.2 2.8,38.1 C2.8,37.4 2.7,36.7 2.5,36 C2.4,35.6 2.5,35.1 2.8,34.8 C3,34.5 3,34.2 2.9,33.9 C2.7,33.3 3,32.7 3.4,32.3 C3.7,32 3.8,31.7 3.9,31.4 C4.2,30.4 4.1,29.5 4,28.5 C4,28.3 3.9,28.1 3.9,27.8 C3.8,26.4 3.8,24.9 3.7,23.5 C3.7,23.4 3.6,23.2 3.5,23.1 C3.4,23 3.3,22.9 3.3,22.8 C3.4,22.4 3.2,22.1 3.2,21.8 C3,21.1 2.9,20.5 2.8,19.8 C2.7,19.2 2.6,18.7 2.6,18.1 C2.6,17.4 2.5,16.8 2.5,16.1 C2.5,15.4 2.7,14.8 3,14.3 C3.2,14 3.7,13.8 4.1,13.5 C4.4,13.3 4.8,13.1 5.1,12.8 C5.6,12.4 6,11.8 6.4,11.5 C7.1,10.9 7.7,10.3 8.5,9.8 C9.4,9.2 10.3,8.8 11.4,8.5 C12.2,8.3 12.9,7.9 13.6,7.7 C14,7.5 14.5,7.4 14.8,7.2 C15,7.1 15.2,7.1 15.3,7.4 C15.4,7.6 15.8,7.6 15.6,8 L16.6,8 L17.2,8 C17.5,8.1 17.7,7.9 17.7,7.7 C17.8,7.4 17.9,7.3 18.2,7.4 C18.7,7.5 18.8,7.5 19,7 C19.2,6.5 19.4,6 20,6 C20.5,5.9 20.8,5.7 21.1,5.5 C21.6,5.1 22.2,5.1 22.8,5.4 C23,5.5 23.1,5.6 23.3,5.7 C24.2,5 25,4.6 26,4.3 C27.1,3.9 28.1,3.5 29.3,3.2 C29.7,3.1 30.1,2.9 30.4,2.8 C30.6,2.7 30.8,2.7 31,3 C31.1,3.2 31.5,3.2 31.3,3.6 L31.6,3.6 C31.9,3.6 32.2,3.5 32.5,3.6 C32.9,3.7 33.2,3.6 33.4,3.1 C33.4,3 33.6,2.9 33.7,3 C34.4,3.1 34.3,3.2 34.6,2.4 C34.9,1.7 35.2,1.5 35.9,1.4 C36,1.4 36.1,1.3 36.2,1.3 C37,0.2 38.3,0.6 39.1,1.3 C39.8,1.9 40.4,2.4 41.3,2.5 L41.7,2.5 C42.1,2.5 42.5,2.4 42.8,2.7 C43,2.9 43.4,3.1 43.6,3.3 C44,3.9 44.4,4.5 44.4,5.3 C44.4,5.8 44.5,6.3 44.5,6.7 C44.5,6.8 44.7,7 44.8,7.1 C44.8,7.5 44.9,8 44.9,8.3 L44.9,9.3 C44.9,9.9 45,10.4 45,10.9 L45,11.5 C45,11.6 45,11.7 45.1,11.8 C45.2,12.1 45.3,12.4 45.3,12.6 C45.3,12.8 45.4,12.9 45.6,13 C46.1,13.4 46.7,13.8 46.6,14.4 C46.6,14.7 46.4,14.9 46.3,15.2 C46.1,15.5 45.8,15.7 45.5,16 C45.2,16.3 45.4,16.7 45.4,17 C45.4,17.1 45.5,17.2 45.4,17.3 C45.1,17.6 45.3,17.6 45.5,17.8 C46.2,18.2 46.5,18.6 46.2,19.4 C46,19.9 45.8,20.4 45.6,20.9 L45.6,21.1 L45.6,21.3 C45.6,21.9 45.9,22.2 46.4,22.5 C46.8,22.8 47,23.3 47.1,23.8 C47.1,23.9 47,24 47,24.1 C47,24.2 46.9,24.4 47,24.5 C47.2,25.1 47.2,25.6 46.9,26 C46.8,26.2 46.9,26.2 47.1,26.3 C47.8,26.5 48.2,26.8 48.5,27.4 C48.7,27.8 48.8,28.2 48.9,28.5 C49,28.8 49.1,29.1 49.2,29.3 C49.3,29.5 49.3,29.6 49.2,29.7 C49,29.9 49.3,30.5 49.6,30.4 C50.6,30.3 51.2,30.8 51.8,31.5 C52,31.7 52.2,31.9 52.3,32.1 C52.4,32.2 52.6,32.4 52.6,32.6 C52.6,33 52.9,33.1 53.2,33.1 C53.9,33.1 54.3,33.3 54.9,33.7 C55.3,34 55.8,34.2 56.1,34.7 C56.2,34.9 56.6,34.9 56.8,35 C57.6,35.3 58.3,35.6 59.2,35.8 C59.5,35.9 59.9,35.9 60.3,36 C60.5,36 60.6,36.1 60.8,36.1 C61.1,36.2 61.3,36.2 61.5,35.9 C61.6,35.8 61.8,35.7 62,35.7 C62.2,35.8 62.5,35.9 62.5,36.2 C62.5,36.4 62.7,36.5 62.9,36.6 C63.4,36.8 64,36.9 64.3,37.5 C64.7,38.2 65.4,38.3 66,38.6 C66.5,38.8 67,38.9 67.5,39.1 C67.8,39.2 68.1,39.3 68.4,39.3 C69.9,39.4 71.4,39.4 72.9,39.5 C74,39.6 75.2,39.6 76.2,40 C77.3,40.4 78,41.1 78.7,41.9 C79.3,42.8 79.7,43.7 79.9,44.7 C79.9,44.8 79.9,45 80,45.1 C80.2,45.5 80.4,45.9 80.5,46.2 C80.6,46.4 80.5,46.5 80.5,46.7 L80.5,47.2 C80.4,47.6 80.3,48.1 80.2,48.4 C80.1,48.7 80.1,49 80,49.4 C79.8,50.3 79.5,51 78.9,51.6 C77.9,52.5 76.8,52.9 75.6,53.3 C74.4,53.8 73,54.3 71.7,54.6 C70.9,54.8 70.3,55 69.5,55.2 C69.3,55.2 69.2,55.3 69,55.3 C68.7,55.4 68.4,55.5 68.1,55.2 C68.1,55.1 67.8,55.2 67.7,55.3 C67.5,55.4 67.4,55.6 67.2,55.7 C66.5,55.5 66.4,55.4 66.2,54.9 L66.2,54.9 L66.2,54.9 Z M8.1,34.5 C8,34.4 7.8,34.3 7.7,34.2 C7.5,34 7.4,33.8 7.3,33.6 C7.2,33.7 7.2,33.7 7.1,33.8 C7.8,34.5 8.2,35.3 8.6,36.2 C8.5,36.1 8.4,36.1 8.3,36 C7.8,35 7.1,34.4 6.2,33.8 C6,33.7 5.8,33.6 5.6,33.5 C5.3,33.4 5,33.4 5,33 C4.8,33 4.6,33 4.5,33.1 C4.1,33.3 4,33.7 4.2,34.2 C4.3,34.4 4.7,34.6 5,34.6 C5.3,34.6 5.5,34.7 5.7,34.9 C5.8,35.1 6,35.2 6.2,35.3 C6.4,35.5 6.6,35.6 6.8,35.8 C6.9,35.9 6.9,36 6.9,36.1 C6.9,36.1 7,36.1 7,36 L7.1,36 C7.9,36.8 8.6,37.3 9.6,37.7 C9.6,37.6 9.7,37.5 9.8,37.4 C9.9,37.6 9.9,37.7 10,37.8 C10.1,37.9 10.1,38 10.2,38.1 C10.7,38.5 11.1,38.8 11.5,39.1 L11.6,39.1 C12,39.1 12.2,39.2 12.4,39.6 C12.4,39.3 12.4,39 12.3,38.7 C12.3,38.2 12.3,37.7 12.2,37.4 C12.1,37 11.9,36.6 11.8,36.3 C11.4,35.4 11,34.6 10.7,33.7 C10.6,33.5 10.5,33.3 10.4,33.1 L10.3,33 C10.2,32.8 10,32.7 10,32.5 C10,32.2 9.9,32.2 9.7,32.2 C9.6,32 9.6,31.9 9.5,31.7 C9.4,31.9 9.3,32 9.2,32.1 C8.9,31.8 8.7,31.5 8.4,31.1 C8.4,31 8.4,30.9 8.5,30.9 C8.6,30.8 8.6,30.7 8.7,30.6 C8.7,30.5 8.7,30.5 8.8,30.3 C9,30.6 9.1,30.8 9.2,31 C9.1,31.1 9,31.1 9,31.2 C8.9,31.5 9.1,31.7 9.3,31.9 C9.4,31.7 9.4,31.6 9.5,31.3 C9.9,31.9 10.2,32.4 10.5,32.8 C10.5,32.7 10.6,32.7 10.7,32.6 C10.7,32.9 10.8,33.2 10.8,33.4 C10.8,33.5 10.8,33.5 10.9,33.6 C11.4,34.1 11.6,34.7 11.9,35.2 C12.1,35.5 12.1,35.9 12.3,36.2 C12.4,36.4 12.4,36.5 12.5,36.7 C12.6,36.9 12.6,37.1 12.7,37.3 L12.8,37.3 C12.8,37.4 12.7,37.5 12.6,37.6 L13,37.6 C13,37.6 13,37.6 13.1,37.7 C13,37.8 12.9,38 12.8,38.1 C12.7,38.2 12.5,38.4 12.8,38.5 L12.8,38.8 C12.9,38.8 13,38.8 13.1,38.7 C13.1,38.7 13.2,38.7 13.2,38.8 C13.1,38.9 13.1,39 13,39.1 C12.9,39.2 12.9,39.3 12.9,39.4 C12.9,40.1 13.1,40.7 13.6,41.3 C14.1,41.9 14.6,42.5 14.9,43.3 C15.2,43.8 15.8,44.1 15.7,44.7 C15.7,44.8 15.8,44.9 15.8,44.9 C15.9,45.1 16.1,45.4 16.2,45.6 L16.2,45.6 C15.7,44.7 15.2,44 14.8,43.1 C14.4,42.2 13.7,41.5 13.2,40.7 C13.1,40.8 13,40.9 12.9,41.1 C12.8,40.9 12.8,40.7 12.8,40.5 C12.7,40.3 12.6,40.2 12.5,40.1 C12.5,39.9 12.6,39.8 12.6,39.7 C12.5,39.8 12.4,39.8 12.3,39.8 L11.7,39.8 C11.6,39.7 11.8,39.3 11.4,39.3 C11.4,39.4 11.3,39.5 11.3,39.6 C11.2,39.5 11.1,39.4 11,39.2 C11.1,39.1 11.2,39.1 11.3,39.1 C11,38.9 10.8,38.7 10.5,38.5 C10.3,38.3 10.1,38.1 9.8,38 C9.3,37.9 8.8,37.7 8.5,37.5 C8.4,37.4 8.2,37.3 8.1,37.2 C7.7,36.9 7.3,36.5 7,36.3 C6.3,35.9 5.6,35.7 4.9,35.4 C4.6,35.3 4.3,35.4 4.2,35.8 C4,36.3 4.2,36.7 4.5,36.9 C4.5,37 4.8,36.9 4.9,36.9 L4.9,36.6 C4.9,36.5 4.8,36.5 4.8,36.3 C5.1,36.3 5.4,36.3 5.7,36.4 C6.1,36.5 6.5,36.8 6.9,36.8 C7,36.8 7,36.9 7.1,36.9 L7.1,37 L6.4,37 C5.8,37 5.3,37.1 4.8,37.1 C4.6,37.1 4.5,37.3 4.6,37.5 C4.7,37.7 4.8,37.8 4.9,38 C4.9,37.9 5,37.8 5,37.7 C5,37.6 5.1,37.6 5.1,37.5 L5.2,37.6 L5.3,37.7 C5.4,37.5 5.4,37.4 5.4,37.3 C5.5,37.4 5.7,37.4 5.8,37.5 L5.8,37.2 C6.1,37.2 6.3,37.2 6.6,37.1 C6.8,37.5 7,36.8 7.2,37.1 C7,37.4 6.8,37.6 6.4,37.6 C5.8,37.6 5.3,37.7 4.8,37.9 C4.5,38 4.5,38.1 4.5,38.4 C4.5,38.9 4.4,39.4 4.3,39.8 C4.1,40.6 3.9,41.3 3.7,42.2 C3.5,43 3.4,43.8 3.2,44.6 C2.9,45.6 2.8,46.5 2.8,47.5 C2.8,47.7 2.7,47.8 2.7,48 C2.7,48.2 2.6,48.4 2.6,48.5 C2.5,49 2.5,49.6 2.4,50 C2.4,50.2 2.3,50.4 2.3,50.6 C2.2,51.8 2.2,53 2.1,54.2 C2.1,54.8 2.3,55.3 2.5,55.7 C2.7,56.2 3.1,56.7 3.5,57 C3.8,57.4 4.2,57.7 4.6,57.9 C4.9,58.1 5.3,58.2 5.6,58.3 C5.9,58.4 6.3,58.4 6.5,58.3 C6.8,58.2 6.9,58.1 7,58.4 C7.1,58.5 7.2,58.6 7.3,58.7 C7.4,58.8 7.5,58.8 7.6,58.8 C7.8,58.9 8,59 8.1,59 C8.6,59 9.1,59.1 9.5,59.1 L10.3,59.1 C10.4,59.1 10.6,59 10.6,58.9 C10.7,58.6 10.9,58.5 11.2,58.6 L11.9,58.6 C12.3,58.7 12.7,58.8 13,58.9 L13.1,58.9 C13.3,59 13.6,59.1 13.8,59.1 L14.5,59.1 C14.9,59.1 15,59 15,58.6 L15,58.3 L16.4,58.3 C16.7,58.3 16.8,58.4 16.9,58.6 C17,58.9 17.2,59.1 17.6,59.1 L21.8,59.1 C22.1,59.1 22.2,59 22.2,58.7 C22.2,58.5 22.3,58.2 22.5,58.1 C22.7,58 22.8,57.9 22.9,57.6 C23.1,56.9 23.6,56.5 24.2,56.4 C24.7,56.3 25.1,56.3 25.5,56.3 L25.5,56.6 C25.7,56.6 25.8,56.5 26,56.5 C26.2,56.5 26.3,56.5 26.5,56.4 C26.8,56.4 27.1,56.2 27.4,56.2 C27.7,56.2 28,56.2 28.2,56.4 C28.5,56.6 28.6,56.7 28.9,56.5 C29.1,56.4 29.2,56.2 29.3,56 C29.5,56.3 29.9,56.4 30.3,56.3 L31.3,56.3 L31.3,56.4 C31.2,56.5 31.1,56.5 31.1,56.6 C31.1,56.7 31.1,56.9 31.2,57 C31.2,57 31.3,57.1 31.4,57.1 C31.6,57.1 31.7,57 31.9,57 C31.9,56.8 32,56.6 32.3,56.9 L32.4,56.9 C32.9,56.7 33.1,57.2 33.2,57.4 C33.4,57.7 33.5,57.7 33.8,57.7 C34.2,57.8 34.5,57.8 34.8,58.1 C34.9,58.2 35.1,58.3 35.3,58.3 C36.2,58.5 37,58.8 37.9,59 C38.1,59 38.3,58.9 38.4,58.8 C38.6,58.7 38.7,58.6 38.9,58.5 C39.4,58.3 40,58.4 40.4,58.6 C40.8,58.7 40.9,58.8 40.9,59.2 C40.9,59.5 41,59.5 41.2,59.5 C42.1,59.5 42.8,59.6 43.7,59.6 C44,59.6 44.1,59.5 44.2,59.3 C44.3,59 44.4,58.6 44.9,58.5 L45.9,58.5 C46.5,58.5 46.6,58.6 46.7,59.2 C46.7,59.5 46.9,59.6 47.2,59.6 C47.9,59.5 48.6,59.5 49.3,59.4 C49.4,59.4 49.6,59.2 49.6,59.1 C49.7,58.9 49.8,58.6 49.9,58.3 C50.2,58.7 50.4,58.6 50.6,58.3 C50.7,58.4 50.8,58.5 50.9,58.6 C51,58.5 51.1,58.4 51.1,58.4 C51.2,58.5 51.3,58.7 51.4,58.7 C51.9,58.7 52.4,58.9 52.7,58.5 C52.8,58.4 53,58.4 53.1,58.4 C53.7,58.4 54.2,58.4 54.8,58.3 C55.5,58.2 56,57.9 56.7,57.7 C58.7,57.2 60.5,56.5 62.4,55.6 C62.9,55.4 63.5,55 63.8,54.6 C64.7,53.7 64.9,52.6 65,51.4 C65,51.3 64.9,51.2 64.8,51.1 C65.1,50.9 65.2,50.6 65.2,50.2 C65.2,49.7 65,49.5 64.5,49.7 C64.3,49.8 64,49.9 63.8,50 L63.5,50 L63.5,49.9 C63.7,49.8 63.9,49.7 64,49.6 C64.7,49.3 64.8,49.1 64.6,48.5 C64.4,47.8 64.1,47.3 63.8,46.7 C63.3,45.6 62.6,44.8 61.5,44.3 C60.5,43.8 59.5,43.7 58.4,43.6 C56.9,43.5 55.3,43.5 53.9,43.4 C52.8,43.3 51.9,43 50.9,42.6 C50.6,42.5 50.2,42.4 49.9,42.3 C49.9,42.6 49.9,42.8 50,43 C50.1,43.3 50.2,43.5 50.3,43.8 C50.4,43.9 50.7,44 50.9,44 C51.1,44.1 51.3,44.1 51.2,44.4 C51,44.3 50.9,44.3 50.7,44.2 C50.7,44.2 50.7,44.3 50.6,44.3 C50.7,44.4 50.8,44.5 50.9,44.7 C50.7,44.6 50.5,44.5 50.3,44.6 C50.2,44.6 50,44.8 49.9,44.9 C50.2,45.2 50.6,44.5 50.9,45.1 C51,44.9 51.1,44.7 51.1,44.6 L51.2,44.6 L51.2,45 C51.1,45.3 50.8,45.2 50.6,45.3 C50.4,45.4 50.2,45.4 50.1,45.1 C49.6,45.4 49.1,45.2 48.8,45.1 C48.4,45.1 48,44.9 47.7,45 C47.4,45 47.2,44.9 47,44.8 L47,44.7 C47.8,44.8 48.5,44.9 49.3,44.9 C49.3,44.8 49.2,44.7 49.2,44.5 C49.4,44.5 49.5,44.6 49.5,44.6 C49.6,44.6 49.7,44.6 49.8,44.5 L49.8,44.4 C49.7,44.4 49.6,44.3 49.5,44.3 C49.5,44 49.4,43.8 49.4,43.6 C49.4,43.4 49.4,43.1 49.3,42.9 C49.1,42.5 49,42.5 48.6,42.7 C48.8,42.7 48.9,42.7 49.1,42.8 C48.8,43.1 48.3,43.1 48.1,42.9 C48,42.8 48,42.7 48,42.6 C48,42.5 48.2,42.4 48.3,42.4 L49.1,42.4 C49,42.2 49,42 48.9,41.9 C48.5,41.2 47.9,40.8 47.3,40.8 C47.2,40.8 47.1,40.7 47,40.6 C46.7,40.2 46.6,40.2 46.4,40.6 C46.6,41 46.8,41.3 47.3,41.3 C47.1,41.9 46.7,42 46.2,41.8 C46.2,42.3 46.7,42.5 47.2,42.3 C47.3,42.2 47.4,42.2 47.6,42.2 C47.5,42.3 47.5,42.4 47.4,42.5 L47.3,42.6 C46.8,42.9 46.2,42.6 46,42.3 C45.8,42.1 45.7,41.9 45.6,41.7 C45.5,41.6 45.6,41.4 45.6,41.1 C45.7,41.2 45.8,41.2 45.8,41.3 C45.9,41.3 46.1,41.4 46.2,41.4 C46.3,41.4 46.3,41.2 46.4,41.1 C46.5,40.9 46.5,40.8 46.6,40.6 C46.6,40.5 46.6,40.3 46.5,40.3 C46.3,40.2 46,40.1 45.8,40.1 C44.8,40.1 43.9,39.7 42.9,39.4 C42.3,39.2 41.8,39 41.3,38.9 C41.3,38.9 41.3,38.9 41.2,38.9 C41.2,39.1 41.3,39.4 41.3,39.7 C41.3,40.1 41.4,40.1 41.7,39.9 C41.8,39.8 41.9,39.8 42,39.7 C42.1,39.9 42.2,40.2 42.3,40.4 C42.2,40.5 42.1,40.6 42,40.7 C41.9,40.8 41.7,40.8 41.5,40.8 C41.4,40.8 41.3,40.8 41.2,40.9 C41.3,41 41.3,41.1 41.4,41.1 C41.6,41.3 41.9,41.3 42.2,41.3 L42.2,41.3 C41.7,41.8 41,41.5 40.7,40.9 C40.9,41 41,41 41.1,41.1 C41.1,40.9 41.2,40.8 41.2,40.6 C41.2,40.6 41.1,40.5 41,40.5 C40.9,40.5 40.8,40.6 40.8,40.6 C40.6,40.7 40.5,40.6 40.5,40.4 C40.5,40.3 40.6,40.2 40.6,40 C40.7,40.2 40.8,40.3 40.8,40.3 C41.3,40 41.3,39.8 41,39.5 C40.9,39.4 40.8,39.3 40.8,39.1 C40.6,38.4 40,38.2 39.5,38 L39.5,38 C39.5,37.8 39.1,37.8 39.3,37.5 C39.2,37.5 39.1,37.4 39.1,37.4 C38.9,37.7 38.9,37.5 38.8,37.4 C38.7,37.3 38.6,37.2 38.5,37.2 C38,37.2 37.9,37.1 37.9,36.6 C37.9,36.4 37.8,36.2 37.4,36.1 C37.4,36.4 37.4,36.7 37.5,37 L37.5,37 C37.4,37.1 37.3,37.3 37.4,37.4 C37.5,37.5 37.7,37.6 37.9,37.6 C38.3,37.6 38.5,37.7 38.5,38.1 C38.5,38.3 38.4,38.5 38.3,38.6 C38,38.8 37.7,38.9 37.3,38.9 C37,38.9 36.7,38.7 36.4,38.3 C36.7,38.3 36.9,38.3 37.1,38.4 C37.5,38.7 37.9,38.7 38.2,38.2 L38.2,37.9 L38,37.9 C37.3,38.2 37,38.1 36.6,37.6 C36.5,37.7 36.4,37.7 36.2,37.8 C36.2,37.6 36.2,37.4 36.3,37.3 C36.3,37.3 36.5,37.2 36.6,37.3 C36.8,37.4 37,37.4 37.2,37.1 C37.4,36.8 37.5,36.3 37.3,36.1 C37.1,35.9 36.9,35.8 36.7,35.7 C36.4,35.5 36.2,35.3 35.9,35.1 C36.3,35.3 36.7,35.5 37,35.7 L37,35.7 C36.8,35.5 36.6,35.4 36.4,35.2 C36.4,35.2 36.4,35.1 36.5,35.1 C36.6,35.2 36.8,35.3 36.9,35.4 C37.1,35.6 37.2,35.6 37.3,35.4 C36.9,35.1 36.5,34.9 36.2,34.6 C35.9,34.4 35.6,34.3 35.4,34.5 C35.5,34.7 35.6,34.9 35.8,35.1 C35.7,35.1 35.6,35 35.5,35 C35.2,34.6 34.9,34.3 34.5,33.9 C34.6,33.3 34.6,33 34.4,32.8 C34.2,33 34,33.3 33.9,33.4 C33.9,33.6 33.8,33.7 33.8,33.8 C33.8,34 33.7,34.2 33.8,34.3 C33.9,34.5 34.1,34.5 34.2,34.4 L34.3,34.4 C34.3,34.5 34.2,34.6 34.2,34.7 C34.3,34.6 34.4,34.6 34.5,34.5 C34.6,35.1 34.5,35.3 34.1,35.5 C33.7,35.7 32.9,35.4 32.7,35.1 C32.8,34.9 32.9,34.7 32.9,34.5 C32.9,34.6 33,34.7 33.1,34.8 C33.2,35 33.3,35.2 33.5,35.4 C33.6,35.6 33.8,35.6 33.9,35.4 C34,35.3 34.1,35.2 34.2,35 C33.5,34.9 33.5,34.9 33.2,34.2 C33.1,34 32.9,34 32.7,34.2 C32.7,34.3 32.6,34.3 32.6,34.4 C32.4,33.9 32.5,33.6 32.9,33.4 C33,33.8 33.1,34 33.3,33.9 C33.5,33.8 33.7,33.7 33.8,33.5 C33.9,33.1 34,32.6 34.1,32.3 C34.2,32.3 34.3,32.4 34.4,32.4 C34.4,32.3 34.4,32.1 34.3,32 C34.1,31.6 33.8,31.1 33.6,30.8 C33.5,30.6 33.3,30.4 33.2,30.3 C33,30.4 32.9,30.4 32.7,30.5 C33.1,31.2 33.4,31.8 33.8,32.4 C33.8,32.4 33.7,32.4 33.7,32.5 C33.6,32.4 33.6,32.4 33.5,32.3 C33.1,31.5 32.7,30.9 32.4,30.1 C32.3,29.8 32.2,29.5 32.4,29.3 L32.4,29 L32.1,29 C32,29 31.9,29.1 31.8,29.1 C31.7,28.9 31.7,28.7 31.7,28.5 C31.6,28.2 31.4,27.8 31.3,27.5 C31,26.7 30.7,26 30.5,25.2 L30.5,25 L30.6,25 C31,26.1 31.3,27.2 31.8,28.3 L31.8,28 C31.5,27.2 31.2,26.4 30.8,25.6 C30.8,25.5 30.8,25.3 30.7,25.2 C31.3,26.3 31.6,27.6 32.1,28.6 L32.1,28.1 C31.9,27.5 31.7,26.9 31.4,26.3 C31,25.5 30.7,24.7 30.8,23.8 L30.8,23.7 L30.4,23.7 C30.4,23.5 30.4,23.4 30.5,23.3 C30.6,23 30.6,22.8 30.7,22.5 C30.7,22.3 30.6,22.1 30.9,22.2 L31,22 C30.9,21.9 30.8,21.7 30.7,21.7 C30.3,21.6 30.1,21.4 30.2,21.1 C30.3,20.9 30.4,20.8 30.6,20.7 C30.5,20.5 30.4,20.3 30.3,20 C30.7,19.7 30.5,19.1 30.7,18.7 C30.4,18.8 30.1,19 29.8,19.1 C30,18.8 30.1,18.5 30.2,18.3 C30.8,18.3 31.5,17.8 31.5,17.5 C31,17 30.5,17.2 30.2,17.5 C30.1,17.3 30,17.2 29.9,17 C29.8,16.8 29.8,16.7 29.8,16.5 C29.9,16.5 30.1,16.5 30.2,16.6 C30.5,16.7 30.7,16.8 31,16.9 C30.9,16.6 30.8,16.3 30.6,16.1 C30.5,16 30.3,15.9 30.2,15.9 C29.8,16 29.8,15.8 29.8,15.5 C29.9,15.5 30.1,15.4 30.2,15.4 L30.2,15.3 C30.1,15.3 30.1,15.2 30,15.2 L29.7,15.2 C30.1,15.1 30.3,14.9 30.1,14.5 C30,14.2 30,14 30,13.8 C30,13.6 30.1,13.5 30,13.3 C30,13.1 30,12.8 29.9,12.6 C29.8,12.5 29.8,12.4 29.8,12.2 C29.9,12 30.1,11.7 30.1,11.5 C30.1,11.2 29.9,10.8 29.8,10.5 C29.8,10.5 29.8,10.5 29.7,10.5 C29.6,11.6 29.5,12.9 29.4,14 C29.1,14.1 29,14.1 28.7,14.2 L28.7,15 L28.8,15 C28.9,14.9 29,14.8 29,14.7 C29.1,14.3 29.1,13.9 29.1,13.6 C29.1,13.4 29.2,13.2 29.2,13 C29.2,12.4 29.1,11.9 29.1,11.2 C29.1,11.1 29.1,11 29.2,10.8 C29.4,11.3 29.5,11.3 29.7,11.1 C29.6,11 29.5,11 29.4,10.9 C29.6,9.8 29.5,9.8 29.1,8.7 L28.9,8.7 L28.9,8.4 C28.9,8.3 29,8.2 28.9,8.1 C28.7,7.8 28.5,7.4 28.2,7.1 C28.1,7 27.9,6.9 27.8,6.8 L26.7,6.8 L26.7,6.9 C26.8,6.9 26.8,7 26.9,7 C27.7,7 27.9,7.6 28.1,8.1 C28.2,8.3 28.3,8.5 28.2,8.7 C28.1,8.9 27.8,8.7 27.7,8.7 C27.7,8.7 27.7,8.7 27.6,8.7 L27.6,9.2 C27.4,9 27.3,8.8 27.2,8.7 C27,8.3 26.7,8 26.2,7.9 C25.9,7.8 25.5,7.8 25.1,7.8 C25,7.8 25,7.6 24.9,7.6 C25,7.6 25.1,7.5 25.2,7.6 C25.5,7.8 25.7,7.7 26,7.5 C25.9,7.4 25.7,7.4 25.6,7.4 C25.1,7.4 24.6,7.3 24.2,7.3 L24.1,7.4 C24,7.7 23.9,7.5 23.7,7.3 C24.1,7.2 24.5,7 24.8,6.9 C23.8,6.9 23,7.2 22,7.1 C23.1,6.9 24.2,6.8 25.3,6.6 C25,6.3 24.7,6.1 24.4,5.9 C24.2,5.7 23.9,5.7 23.6,5.7 C23.3,5.7 23.1,5.8 22.8,5.8 C22.7,5.8 22.6,5.7 22.5,5.7 C22.6,5.6 22.6,5.5 22.7,5.5 C22.9,5.4 23.1,5.5 23.3,5.4 C23.5,5.4 23.6,5.3 23.8,5.2 C23.2,4.8 22.7,5 22.5,5.2 C22.2,5.6 22,6.1 21.8,6.4 C21.8,6.5 21.7,6.6 21.6,6.6 C21.6,6.5 21.5,6.4 21.5,6.3 C21.6,6.1 21.7,5.9 21.8,5.6 L21.6,5.6 C20.9,5.7 20.7,6.2 20.5,6.7 C20.4,6.8 20.5,6.9 20.7,7 C20.9,7 21,7.1 21.2,7.1 C21.2,7.1 21.2,7.1 21.2,7.2 C20.7,7.2 20.2,7.3 19.8,7.3 C19.8,7.7 19.9,8 19.9,8.3 C19.9,8.4 19.8,8.5 19.7,8.5 C19.7,8.4 19.6,8.3 19.6,8.2 L19.6,7.6 C19.3,7.7 19.1,7.8 18.9,7.8 C19.2,8.2 19.2,8.7 18.8,8.9 C18.8,8.7 18.7,8.5 18.7,8.2 C18.7,7.9 18.4,7.7 18.1,7.7 C18.2,8.2 18.3,8.7 18.4,9 C18.4,9 18.4,9 18.3,9 C18.3,8.9 18.2,8.8 18.2,8.7 C18.2,8.7 18.2,8.7 18.1,8.7 L18.1,9.3 L17.8,9.3 C17.3,9.3 16.8,9.5 16.6,9 L16.5,9 C16.3,8.9 16.1,8.9 15.9,8.8 C15.8,8.8 15.8,8.7 15.8,8.6 C15.8,8.5 15.9,8.4 15.9,8.3 L16.2,8.3 C16.2,8.1 16.1,8 16.1,7.9 C16.2,7.7 16.3,7.6 16.3,7.5 C16.2,7.5 16,7.7 15.8,7.7 C15.5,7.6 15.6,8 15.3,7.8 C14.8,7.9 14.3,8.2 13.8,8.3 C12.9,8.6 12.5,8.9 11.7,9.2 C11,9.5 10,9.8 9.5,10.3 C8.9,10.7 8.6,11 8.1,11.4 C7.7,11.8 7.3,12 6.9,12.4 C6.4,12.8 5.8,13.2 5.3,13.5 C4.8,13.8 4.6,14.3 4.4,14.7 C4.3,15.1 4.2,15.6 4.3,15.9 C4.3,16.7 4.3,17.4 4.6,18.1 C4.7,18.4 4.6,18.8 4.7,19.2 C4.8,19.6 4.9,20 5,20.4 C5.2,20.3 5.3,20.2 5.3,20.2 C5.3,20.4 5.2,20.7 5.2,20.9 C5.2,21 5.2,21 5.3,21.1 C5.3,21.1 5.4,21.1 5.5,21 C5.6,20.9 5.7,20.7 5.9,20.6 C6.3,20.2 6.9,20 6.9,19.5 C7.1,19.5 7.2,19.5 7.3,19.4 C7.8,19.1 8.3,18.8 8.7,18.4 C9,18.2 9.4,18 9.7,17.8 C10,17.6 10.3,17.4 10.7,17.2 C11,17.1 11.3,16.9 11.6,16.8 L11.6,17.4 C11.6,17.4 11.6,17.4 11.5,17.4 C11.5,17.3 11.4,17.2 11.4,17.1 C11.2,17.2 11,17.3 10.9,17.4 C10.7,17.5 10.4,17.6 10.2,17.7 C10,17.8 9.8,18 9.6,18.2 L9.5,18.2 C9.2,18.4 8.9,18.5 8.6,18.7 C8.4,18.8 8.3,19 8.2,19.1 C7.9,19.3 7.6,19.4 7.4,19.6 C7.1,19.8 6.9,20 6.7,20.3 C6.5,20.5 6.3,20.8 6.3,21 C6.4,21.7 6.5,22.3 6.7,23 C6.8,23.3 6.9,23.6 7.1,23.9 C7.1,24 7.2,24.1 7.3,24.2 C7.5,24.7 7.7,25.2 7.9,25.6 C8.1,26.1 8.3,26.5 8.5,26.8 C8.6,27.1 8.7,27.3 8.9,27.5 C9.4,28 9.4,28.2 8.8,28.6 C9,28.9 9.2,29.3 9.5,29.6 C9.5,29.7 9.6,29.9 9.6,30 C9.8,30.3 10,30.6 10.1,30.9 C10.6,31.8 11.1,32.5 11.4,33.4 C11.5,33.5 11.5,33.7 11.6,33.8 C11.6,33.8 11.5,33.8 11.5,33.9 L11.3,33.7 C11.1,33.3 11,33 10.8,32.6 C10.4,32 10,31.4 9.7,30.8 C9.3,30.1 8.8,29.4 8.5,28.7 C8.2,28.1 7.9,27.6 7.5,27 C7.4,26.8 7.4,26.5 7.1,26.4 L7.1,26.2 C7.2,26.2 7.3,26.1 7.3,26.2 C7.4,26.3 7.4,26.4 7.5,26.4 C7.8,26.9 8.1,27.4 8.3,27.9 C8.6,27.2 7.8,26.8 7.8,26.4 C7.7,26.3 7.6,26.3 7.5,26.2 C7.4,26.1 7.2,26 7.1,25.9 C6.8,25.9 6.8,25.7 6.7,25.5 L6.7,25.3 C6.5,24.9 6.4,24.5 6.2,24.2 C6.5,24.1 6.5,24.1 6.3,23.9 C6.2,23.8 6.1,23.6 6.1,23.5 C6.4,23.2 6.1,23 6,22.9 C5.9,22.3 5.8,21.8 5.8,21.1 L5.7,21.1 C5.6,21.4 5.5,21.7 5.5,22 C5.5,22.3 5.6,22.5 5.6,22.8 C5.6,23.2 5.6,23.6 5.7,23.9 C5.8,24.8 5.9,25.6 5.9,26.5 L5.9,28.3 C5.9,29 5.9,29.7 5.8,30.4 C5.8,30.6 5.8,30.7 6,30.8 C6.5,31 6.8,31.4 7.3,31.4 C7.4,31.4 7.4,31.5 7.5,31.6 C7.7,31.8 7.8,32.1 8,32.3 L8.2,32.3 C8.4,32.5 8.5,32.6 8.7,32.8 C8.1,34.1 8.1,34.3 8.1,34.5 L8.1,34.5 L8.1,34.5 Z M46,25.3 C46.1,25.4 46.2,25.5 46.3,25.6 L46.3,25.3 C46.1,24.6 45.9,24 45.6,23.3 C45.3,22.5 44.9,21.9 45,21 L45,20.6 L44.7,20.6 C44.7,20.5 44.6,20.5 44.7,20.4 C44.8,20 44.8,19.6 44.9,19.3 L45,19.2 C45.1,19.1 45.1,19.1 45.2,19 C45.1,18.9 45,18.7 44.9,18.7 C44.6,18.7 44.4,18.5 44.4,18.3 C44.4,18.1 44.6,17.9 44.7,17.6 C44.6,17.5 44.6,17.3 44.4,17 C44.6,16.7 44.8,15.9 44.7,15.7 C44.5,15.8 44.2,15.9 43.9,16.1 C44.1,15.8 44.2,15.5 44.3,15.2 C44.8,15.2 45.6,14.7 45.6,14.3 L44.2,14.3 C44.1,14.1 44,14 43.9,13.8 C43.8,13.7 43.9,13.5 43.8,13.3 C43.9,13.3 44.1,13.3 44.2,13.4 C44.5,13.5 44.8,13.6 45.1,13.8 L45.1,13.6 C44.9,13.4 44.7,13.2 44.7,12.9 C44.7,12.8 44.5,12.7 44.3,12.7 L44,12.7 L44,12.3 C44.2,12.3 44.3,12.2 44.4,12.2 L44.4,12.1 C44.2,12 44.1,12 43.8,11.9 C44,11.9 44.2,11.9 44.3,11.8 C44.3,11.6 44.4,11.4 44.3,11.3 C44.2,11.1 44.2,10.8 44.2,10.6 C44.2,10.4 44.3,10.2 44.3,10 C44.3,9.8 44.3,9.5 44.2,9.4 C43.9,9.1 44.1,8.9 44.2,8.8 C44.4,8.6 44.4,8.4 44.4,8.2 C44.3,7.9 44.2,7.6 44.1,7.3 C44.1,7.3 44.1,7.3 44,7.3 C43.9,8.5 43.8,9.7 43.7,10.8 C43.4,10.9 43.3,10.9 43,11 L43,11 L43.1,11 C43.2,10.9 43.3,10.8 43.3,10.7 C43.4,10.4 43.4,10 43.4,9.7 C43.4,9.5 43.5,9.2 43.5,9 C43.5,8.4 43.4,7.9 43.4,7.2 C43.4,7.1 43.4,7 43.5,6.9 C43.6,7 43.7,7.2 43.8,7.2 C43.8,7.2 44,7.1 44.1,7.1 C43.9,7 43.8,6.9 43.7,6.9 C43.8,6.2 43.8,5.7 43.6,5 C43.4,4.4 43.1,3.9 42.8,3.5 C42.7,3.2 42.4,3 42.1,3 L41,3 L41,3.1 C41.1,3.1 41.1,3.2 41.2,3.2 C41.8,3.2 42.2,3.6 42.3,4.1 C42.4,4.4 42.5,4.6 42.6,4.9 C42.6,4.9 42.6,5 42.5,5 C42.3,5 42.1,4.9 41.8,4.9 L41.8,5.3 C41.6,5.2 41.5,5 41.3,4.8 C41.1,4.4 40.8,4.1 40.4,4.1 C40.1,4 39.7,4 39.3,4 C39.2,4 39.1,3.9 39.1,3.8 C39.2,3.8 39.4,3.7 39.4,3.8 C39.7,4 39.9,3.8 40.2,3.7 C40.1,3.6 39.9,3.6 39.8,3.6 C39.3,3.6 38.8,3.5 38.4,3.5 L38.3,3.6 C38.2,3.8 38.1,3.8 37.9,3.5 C38.3,3.4 38.7,3.2 39,3.1 C38,3.1 37.1,3.4 36.1,3.3 C37.2,3.1 38.3,3 39.4,2.8 C39.3,2.7 39.3,2.7 39.3,2.6 C39.1,2.4 38.8,2.2 38.5,2.1 C38.3,2 38.1,1.9 37.9,1.9 C37.5,1.9 37.2,1.9 36.8,2 C36.7,2 36.7,1.9 36.6,1.9 C36.7,1.8 36.7,1.7 36.8,1.7 C37,1.6 37.2,1.6 37.4,1.6 C37.6,1.6 37.8,1.5 38,1.4 L38,1.3 C37.8,1.2 37.7,1.2 37.5,1.1 C37.1,1 36.7,1.2 36.5,1.6 C36.3,2 36.1,2.4 35.9,2.7 C35.9,2.7 35.8,2.8 35.7,2.8 L35.6,2.7 C35.6,2.6 35.6,2.5 35.7,2.3 C35.8,2.1 35.8,2 35.9,1.8 C35.1,1.8 34.9,2.4 34.7,2.8 C34.6,2.9 34.7,3 34.9,3.1 C35.1,3.1 35.2,3.2 35.4,3.2 C35.4,3.2 35.4,3.2 35.4,3.3 C34.9,3.3 34.4,3.4 34,3.4 C34,3.8 34.1,4.1 34.1,4.4 C34.1,4.5 34,4.6 34,4.6 L33.9,4.6 L33.9,4.4 L33.9,4 C33.6,4.1 33.4,4.2 33.2,4.2 C33.3,4.3 33.4,4.4 33.4,4.5 L33.4,5 C33.4,5.1 33.3,5.1 33.2,5.2 C33.2,5.2 33.1,5.2 33,5.1 C32.9,5 32.9,4.8 32.9,4.6 C32.9,4.2 32.7,4 32.3,4.1 C32.4,4.5 32.5,4.8 32.6,5.2 C32.5,5.2 32.4,5.3 32.3,5.3 L32.3,5.8 L31.2,5.8 C31.1,5.8 30.9,5.8 30.9,5.7 C30.8,5.4 30.5,5.4 30.3,5.3 C30.2,5.2 29.9,5.4 30,5.1 C30,4.9 30,4.6 30.4,4.8 C30.3,4.6 30.3,4.5 30.3,4.4 C30.4,4.3 30.5,4.2 30.5,4.1 C30.4,4.1 30.3,4 30.2,4 C30,4 29.8,4.1 29.6,4.1 C28.5,4.4 27.5,4.8 26.3,5.1 C25.3,5.4 24.6,5.8 23.7,6.3 C23.9,6.5 24.2,6.7 24.4,6.9 C24.3,6.3 24.6,6.1 25.3,6.2 L25.3,6.5 C25.2,7.3 25.4,7.5 26.2,7.5 L26.4,7.5 C27,7.3 27.4,7.7 27.6,8 C28,8.3 28.3,8.8 28.5,9.2 C28.6,9.4 28.7,9.5 28.9,9.4 C29.2,9.3 29.6,9.3 30,9.3 L30,9.5 C29.6,9.6 29.2,9.8 28.9,9.9 C29,10.5 29,11 29.1,11.6 C29.1,11.9 29.1,12.1 29.4,12.2 C29.4,12.6 29.5,13.1 29.5,13.4 C29.5,14 29.4,14.5 29.5,15 C29.6,15.6 29.6,16.1 29.6,16.6 C29.6,16.7 29.7,16.8 29.7,16.9 C29.8,17.2 29.9,17.5 30,17.8 C30,17.9 30.1,18 30.1,18.1 C30.3,18.3 30.6,18.5 30.8,18.7 C31.3,19.2 31.4,19.6 31,20.1 C30.8,20.5 30.4,20.8 30.1,21.1 C30,21.2 29.9,21.3 29.9,21.3 L29.9,22.2 L29.9,22.5 C29.7,22.7 29.8,22.7 30,22.8 C30.8,23.2 30.9,23.6 30.8,24.2 C30.8,24.4 30.6,24.7 30.6,24.9 C30.5,25.6 29.9,26.1 30.3,26.8 L30.3,26.8 C30.4,26.9 30.4,27.1 30.5,27.2 C30.7,27.5 31.1,27.7 31.2,27.9 C31.5,28.3 31.7,28.8 31.5,29.2 C31.4,29.3 31.5,29.5 31.5,29.7 C31.8,29.6 32,29.5 32.1,29.4 C32.3,29.1 32.6,29 32.9,28.9 C33.3,28.7 33.7,28.6 33.9,28.2 C34.1,28.2 34.2,28.2 34.5,28.3 C34.3,28.4 34.1,28.5 34,28.6 C33.7,28.8 33.5,28.9 33.3,29.1 C32.9,29.4 32.4,29.6 32.1,29.8 C31.9,29.9 31.8,30.1 31.8,30.4 C31.8,30.6 31.7,30.9 31.6,31.1 C31.5,31.3 31.5,31.4 31.7,31.4 C32.4,31.6 32.8,31.9 33.2,32.5 C33.3,32.8 33.4,33.1 33.7,33.2 L33.7,33.5 C33.7,33.6 33.6,33.8 33.6,33.9 C33.7,34.2 33.8,34.4 33.9,34.6 C34,34.8 33.7,35.1 34.1,35.3 C34.1,35.3 34.1,35.3 34.1,35.4 C34,35.7 34.2,35.7 34.4,35.7 L34.7,35.7 C35.1,35.8 35.4,35.9 35.8,36 L35.8,35.7 L35.8,35 L35.8,34.4 L35.8,34.1 C35.5,33.7 35.5,33.3 35.5,33 C35.5,32.8 35.6,32.7 35.6,32.5 C35.5,32.5 35.4,32.6 35.3,32.6 C35.3,31.8 35.3,31.2 35,30.4 L35.2,30.4 C35.1,30.2 35,30.1 35,29.9 C35,29.7 35,29.5 34.9,29.3 C34.9,29.1 34.9,28.8 34.8,28.6 C34.6,28.2 35.1,28.3 35.1,28.1 L35.1,28.1 L35.2,28.2 C35.1,28.9 35.3,29.4 35.4,30 L35.4,30.5 L35.4,30.9 L35.4,31.1 C35.8,31.1 35.6,31.4 35.7,31.7 C35.9,31.6 36,31.5 36.1,31.5 C36.2,31.6 36.3,31.8 36.4,31.9 C36.2,31.9 36.1,31.9 36,31.8 C35.9,31.8 35.7,31.8 35.7,31.9 L35.7,32.7 C35.7,33 35.9,33.4 35.9,33.7 L35.9,34.3 C36,34.6 35.9,35 36.1,35.3 L36.1,35.3 C36,35.6 36.1,35.9 36.2,36.2 C36.3,36.4 36.4,36.5 36.6,36.7 C36.8,36.9 37.1,37.1 37.2,37.2 C37.2,37.4 37.2,37.7 37.3,37.8 C37.5,37.9 37.8,38.1 38.1,37.8 C37.6,37.5 37.4,37 37.4,36.6 C37.1,36.5 36.9,36.5 36.6,36.4 C36.5,36.4 36.4,36.2 36.4,36.1 C36.4,36 36.6,35.9 36.6,35.8 C36.6,35.8 36.6,35.8 36.7,35.9 C36.7,36 36.6,36.1 36.6,36.2 C36.7,36.2 36.8,36.2 36.8,36.3 L37.2,36.3 L37.2,35.8 C37.2,35.4 37,35.1 37,34.7 C37,34.4 37,34.1 36.7,34.2 C36.8,34 36.8,33.8 36.9,33.5 C36.7,33.5 36.6,33.4 36.5,33.4 C36.6,33.2 36.7,33.1 36.7,33 C36.7,32.9 36.5,32.7 36.4,32.7 C36.5,32.6 36.6,32.4 36.6,32.3 C36.6,32.2 36.4,32.1 36.3,32 C36.4,31.9 36.5,31.7 36.5,31.5 C36.5,31.4 36.3,31.3 36.2,31.2 C36.3,31.1 36.4,31 36.4,30.9 C36.4,30.6 36.3,30.4 36.1,30.5 C36.2,30.4 36.3,30.3 36.3,30.1 C36.4,29.7 36.1,29.8 35.9,29.8 C36,29.6 36.1,29.4 36.1,29.3 C36.1,29 36,28.7 36,28.4 C36,28.1 35.9,27.8 35.9,27.5 C35.8,27.5 35.7,27.6 35.6,27.6 C35.9,27.2 36.4,26.8 35.8,26.3 C36.1,26.3 36.3,26.2 36.3,26.6 C36.3,26.9 36.3,27.2 36.4,27.5 C36.7,28.5 36.8,29.5 36.8,30.6 C36.8,30.7 36.8,30.7 36.9,30.8 C37.2,31.2 37,31.6 37,31.9 C37,31.9 37.1,32 37.2,32.1 C37.3,32.5 37.3,32.9 37.3,33.2 C37.4,33.8 37.5,34.3 37.6,34.9 C37.7,35.5 37.9,36 37.8,36.7 C37.8,36.8 38.2,37.6 38.3,37.6 L38.4,37.6 C38.7,37.8 39.1,37.9 39.4,38.1 C39.5,38.2 39.6,38.3 39.7,38.3 C40.1,38.4 40.4,38.7 40.7,39.1 C40.8,39.2 40.9,39.3 41,39.3 C41.8,39.6 42.5,39.7 43.2,40.1 C43.9,40.4 44.6,40.4 45.4,40.7 C45.5,40.7 45.7,40.6 45.8,40.6 C46,40.5 46.2,40.3 46.3,40.4 C46.5,40.5 46.8,40.6 46.8,41 C46.8,41.1 47,41.3 47.1,41.3 C47.3,41.4 47.4,41.4 47.6,41.5 C48.1,41.7 48.6,42 48.8,42.5 C48.9,42.6 49,42.8 49.1,42.8 C49.9,43.1 50.6,43.4 51.5,43.6 C52.4,43.8 53.3,43.9 54.2,44 C55.5,44.1 57,44.1 58.3,44.2 C58.9,44.2 59.5,44.3 60.1,44.5 C61.4,44.8 62.4,45.6 63.1,46.7 C63.4,47.2 63.7,47.7 63.9,48.1 C64.1,48.6 64.2,49.1 64.4,49.5 C64.5,49.8 64.5,50.1 64.8,50.4 C65,50.6 65,51 65.1,51.3 C65.1,51.5 65,51.8 65,52 C64.9,52.7 64.8,53.3 64.6,54 C65.1,54.2 65.6,54.3 66.1,54.5 L66.1,54.7 C65.6,54.6 65.1,54.4 64.7,54.3 C64.6,54.6 64.5,54.9 64.4,55.2 C64.6,55 64.8,54.9 65,54.8 C65,54.9 65.1,55 65.2,55.2 C65.3,55 65.4,54.9 65.4,54.9 C65.7,55 66,55.2 66.3,55.2 C66.6,55.2 66.9,55.2 67.1,55 C67.2,54.9 67.3,54.9 67.4,54.9 C68.3,54.9 69,54.9 69.9,54.6 C70.9,54.3 71.9,54.1 72.9,53.7 C74,53.3 75.2,52.8 76.2,52.4 C76.9,52.1 77.5,51.7 78.1,51.3 C78.9,50.7 79.2,50 79.3,49 C79.4,48.5 79.7,48 79.4,47.6 C79.9,47.2 79.6,46.7 79.6,46.4 C79,46.3 78.6,46.8 78.1,46.7 C78.3,46.6 78.4,46.5 78.6,46.4 C79.2,46.2 79.4,45.9 79.2,45.3 C79,44.6 78.7,44.1 78.4,43.4 C77.9,42.3 77.1,41.5 76.1,40.9 C75.1,40.4 74.1,40.3 73.1,40.3 C72.2,40.2 71.4,40.3 70.6,40.3 C69.2,40.3 67.7,40.1 66.3,39.7 C65.7,39.5 65.2,39.3 64.7,39.1 C64.7,39.4 64.8,39.6 64.8,39.8 C64.8,40.4 65,40.7 65.5,40.8 C65.8,40.9 65.9,41 66,41.3 C66.1,41.6 66.1,41.9 65.8,42 C65.6,42.1 65.3,42.1 65.1,42.1 C65,42.1 65,42 64.9,41.9 C64.8,42 64.7,42.1 64.6,42.1 C64.3,42.1 64,42 63.6,42 C63.2,41.9 62.8,41.8 62.5,41.9 C62.2,41.9 62,41.8 61.8,41.7 L61.8,41.6 C62.6,41.7 63.3,41.8 64,41.9 C64,41.8 63.9,41.7 63.9,41.6 C64,41.3 64.4,41.9 64.5,41.5 C64.4,41.4 64.2,41.3 64.2,41.2 C64.1,40.8 64.1,40.4 64.1,40.1 C64,39.6 63.8,39.5 63.3,39.7 C63.5,39.7 63.6,39.7 63.8,39.8 C63.6,40.1 63.1,40.1 62.9,39.9 C62.8,39.8 62.8,39.6 62.8,39.5 C62.8,39.4 63,39.3 63.1,39.3 L63.9,39.3 C63.8,39.1 63.8,38.9 63.7,38.8 C63.3,38.1 62.7,37.7 62,37.7 C61.9,37.7 61.8,37.6 61.8,37.5 C61.5,37.1 61.5,37 61.2,37.5 C61.3,37.6 61.4,37.8 61.5,37.9 C61.6,38 61.7,38.2 61.9,38.1 C62,38.1 62.1,38.2 62,38.4 C61.8,38.7 61.5,38.9 61.2,38.8 C61.1,38.8 61,38.8 60.9,38.7 C61,38.9 61,39.1 61.1,39.2 C61.5,39.5 61.9,39.2 62.2,39.1 C62.2,39.3 62.1,39.4 62,39.4 C61.5,39.8 60.9,39.6 60.5,39.2 C60.3,39.1 60.3,38.8 60.1,38.7 C59.9,38.5 59.8,38.3 60.2,38.1 C60.2,38.1 60.2,38.1 60.3,38.2 C60.4,38.3 60.6,38.3 60.7,38.3 C60.7,38.3 60.8,38.1 60.8,38 C60.9,37.8 60.9,37.7 61,37.5 C61,37.4 60.9,37.2 60.9,37.2 C60.6,37.1 60.3,37.1 60,37.1 C59.5,37 59,37 58.6,36.8 C58,36.6 57.5,36.4 56.9,36.2 C56.5,36.1 56.1,36 55.8,35.9 C55.8,35.9 55.6,36 55.6,36.1 C55.6,36.3 55.7,36.5 55.7,36.6 C55.7,37 55.8,37.1 56.2,36.9 C56.3,36.9 56.3,36.8 56.4,36.7 C56.5,36.9 56.6,37.2 56.7,37.4 C56.6,37.5 56.5,37.6 56.4,37.7 C56.3,37.8 56.1,37.8 55.9,37.8 C55.8,37.8 55.7,37.8 55.6,37.9 C55.7,38 55.7,38.1 55.8,38.1 C56,38.2 56.3,38.3 56.6,38.4 C56.3,38.4 56.1,38.8 55.7,38.5 C55.5,38.3 55.1,38.4 55,37.9 C55.2,38 55.3,38 55.4,38 C55.4,37.9 55.5,37.7 55.5,37.6 C55.5,37.5 55.4,37.5 55.3,37.5 C55.2,37.5 55.1,37.6 55,37.6 C54.8,37.7 54.7,37.6 54.7,37.4 C54.7,37.3 54.8,37.2 54.8,37 C54.9,37.2 55,37.2 55,37.3 C55.4,37 55.5,36.8 55.3,36.6 C55.1,36.4 55,36.2 54.9,35.9 C54.7,35.7 54.6,35.5 54.4,35.3 C54.2,35.1 53.9,35 53.6,34.9 C53.4,34.8 53.3,34.7 53.4,34.4 C53.1,34.6 52.9,34.5 52.8,34.3 C52.8,34.2 52.6,34.2 52.5,34.2 C52.1,34.2 51.9,34 51.9,33.6 C51.9,33.4 51.8,33.2 51.4,33.2 L51.4,34.2 C51.3,34.7 51.4,34.8 51.9,34.8 C52.1,34.8 52.3,34.9 52.4,35.1 C52.6,35.5 52.3,36 51.9,36.1 C51.7,36.1 51.5,36.2 51.4,36.2 C51.1,36.2 50.7,36 50.5,35.7 C50.7,35.7 51,35.7 51.1,35.8 C51.6,36.1 51.9,36.1 52.2,35.7 C52.3,35.6 52.2,35.5 52.3,35.4 L52,35.4 C51.4,35.6 51,35.6 50.7,35.1 C50.6,35.2 50.5,35.2 50.3,35.3 C50.3,35.1 50.3,35 50.4,34.8 C50.5,34.6 50.6,34.8 50.8,34.8 C50.9,34.8 51.1,34.8 51.2,34.7 C51.5,34.4 51.5,33.8 51.1,33.6 C51,33.5 50.8,33.4 50.6,33.3 C50.3,33.1 50.1,32.9 49.8,32.7 C50.2,32.9 50.6,33.1 50.9,33.3 C50.9,33.3 51,33.2 51,33.1 C51.3,33 51.2,32.9 51,32.8 C50.7,32.6 50.4,32.4 50.1,32.2 C49.8,32 49.5,31.9 49.3,32.1 C49.4,32.3 49.5,32.5 49.6,32.7 C49.5,32.7 49.4,32.7 49.4,32.6 C49,32.2 48.7,31.8 48.3,31.5 C48.3,31.2 48.5,30.8 48.2,30.4 C48,30.7 47.8,30.9 47.6,31.1 C47.6,31.2 47.6,31.4 47.5,31.5 C47.5,31.6 47.4,31.7 47.4,31.8 C47.5,32.1 47.7,32.2 48,32.1 C48,32.2 47.9,32.3 47.9,32.4 C48,32.4 48.1,32.3 48.2,32.3 C48.2,32.5 48.3,32.7 48.2,32.9 C48.1,33.2 47.8,33.4 47.5,33.3 C47,33.3 46.6,33.2 46.4,32.8 C46.5,32.7 46.6,32.7 46.7,32.6 L46.7,32.3 C46.8,32.4 46.9,32.5 46.9,32.7 C47.1,32.9 47.2,33.1 47.4,33.3 C47.5,33.2 47.7,33 47.8,32.9 L47.8,32.8 C47.1,32.7 47.1,32.7 46.8,32.1 C46.8,32 46.6,32 46.6,31.9 C46.5,31.9 46.4,32 46.4,32 C46.3,32.1 46.3,32.1 46.3,32.2 C46.1,31.7 46.2,31.4 46.5,31.3 C46.7,31.5 46.8,31.7 47,31.7 C47.2,31.7 47.4,31.5 47.5,31.3 C47.6,30.9 47.7,30.4 47.8,30.1 C47.9,30.2 48,30.2 48.1,30.3 C48.2,30 47.3,28.4 47,28.1 C46.9,28.1 46.8,28.2 46.6,28.3 C46.7,28.4 46.8,28.6 46.9,28.8 C46.9,29.3 47.3,29.7 47.6,29.9 C47.6,30 47.6,30.2 47.7,30.4 C47.6,30.3 47.5,30.3 47.5,30.3 C47.1,29.5 46.6,28.8 46.3,27.9 C46.2,27.7 46.3,27.4 46.3,27.1 L46.3,26.8 C46.2,26.8 46.1,26.8 46,26.9 C45.9,26.9 45.8,27 45.8,27 C45.8,26.8 45.7,26.6 45.7,26.5 C45.6,26.2 45.4,25.9 45.3,25.7 C45,24.8 44.7,24 44.4,23.2 C44.4,23.2 44.4,23.1 44.5,23 C44.5,23 44.6,23 44.6,23.1 C44.7,23.3 44.8,23.5 44.9,23.8 C45.3,24.8 45.6,25.7 46,26.7 L46.1,26.7 C46,25.4 46,25.3 46,25.3 L46,25.3 L46,25.3 Z M16.9,9 C16.7,9 16.5,8.9 16.3,8.9 C16.1,8.9 15.9,8.9 15.8,9 C15.7,9.1 15.8,9.3 15.8,9.4 C15.9,9.6 16,9.9 16.4,9.9 L16.9,9.9 C17,9.9 17.2,9.9 17.2,9.8 C17.2,9.6 17.2,9.5 17.1,9.3 C17.1,9.3 17,9.2 16.9,9 L16.9,9 L16.9,9 Z M32.2,5.3 C32.4,5.4 32.5,5.2 32.4,4.9 L32.1,4.3 C32,4.2 31.8,4.3 31.7,4.3 C31.6,4.3 31.5,4.2 31.4,4.2 C31,4.2 30.9,4.4 31,4.7 C31.1,5 31.2,5.3 31.6,5.3 C31.8,5.4 32,5.3 32.2,5.3 L32.2,5.3 L32.2,5.3 Z M64.3,41 C64.3,41 64.3,41.1 64.3,41 C64.5,41.1 64.6,41.1 64.7,41 C64.9,40.9 65.1,40.8 65.3,41.2 C65.4,41 65.5,40.8 65.4,40.6 C65.4,40.5 65.1,40.4 65,40.3 L64.9,40.4 C65,40.5 65.1,40.6 65.3,40.8 C65.1,40.7 64.9,40.6 64.8,40.6 C64.6,40.7 64.4,40.9 64.3,41 L64.3,41 L64.3,41 Z M38.6,38.4 C38.6,38.5 38.6,38.5 38.6,38.4 C38.6,38.6 38.6,38.8 38.8,38.9 C38.9,39 39.1,38.9 39.2,38.9 L39.2,38.8 C39,38.7 38.8,38.6 38.6,38.4 L38.6,38.4 L38.6,38.4 Z M53.6,33.7 L53.6,33.7 C53.7,34 53.9,34.2 54.1,34.3 L54.3,34.3 L54.3,34.2 C54.1,34 53.9,33.9 53.6,33.7 L53.6,33.7 L53.6,33.7 Z M7.9,29.1 L7.7,29.1 C7.7,29.3 7.8,29.5 7.8,29.8 L8,29.8 C8,29.7 8.1,29.5 8.1,29.4 L8,29.4 C8,29.5 7.9,29.5 7.9,29.6 C7.9,29.5 7.9,29.4 7.8,29.3 C7.8,29.2 7.9,29.2 7.9,29.1 L7.9,29.1 L7.9,29.1 Z M26.1,8.7 C26.1,9 26.4,9.2 26.6,9 C26.4,8.9 26.3,8.8 26.1,8.7 L26.1,8.7 L26.1,8.7 Z M41.3,4 C41.3,4.1 41.2,4.1 41.2,4.2 C41.4,4.3 41.6,4.4 41.7,4.5 C41.7,4.5 41.7,4.4 41.8,4.4 C41.6,4.2 41.5,4.1 41.3,4 L41.3,4 L41.3,4 Z M36.3,38.2 C36.3,38 36.2,37.7 36.5,37.5 C36.5,37.9 36.6,38.2 36.6,38.6 C36.6,38.6 36.5,38.6 36.5,38.7 C36.4,38.5 36.3,38.4 36.3,38.2 L36.3,38.2 L36.3,38.2 Z M38.2,39 C38.5,39.1 38.5,39.3 38.5,39.5 C38.5,39.6 38.4,39.6 38.4,39.6 L38.2,39.6 C38.1,39.4 38,39.2 38.2,39 L38.2,39 L38.2,39 Z M34,41.4 C33.8,41.2 33.5,41 33.2,40.8 C33.1,40.7 32.9,40.6 32.8,40.6 L32.4,40.6 L32.4,40.4 C32.4,40.3 32.4,40.2 32.3,40.2 C31.8,40.1 31.6,39.6 31.2,39.3 C30.9,39.1 30.5,38.8 30.3,38.5 C30,38.2 29.7,37.8 29.4,37.5 C29.2,37.3 29.1,37.2 28.9,37 C28.8,36.9 28.8,36.9 28.8,36.8 C28.8,36.7 28.7,36.6 28.7,36.5 C28.3,36.3 28.3,35.9 28,35.6 C27.9,35.5 27.7,35.5 27.5,35.4 C27.4,35.4 27.3,35.3 27.2,35.2 C27.2,35.2 27.2,35.1 27.3,35.1 C27.4,35.1 27.5,35.1 27.6,35.2 C27.6,35.2 27.7,35.2 27.8,35.3 C27.7,35.1 27.7,34.8 27.6,34.7 C26.9,33.8 26.5,32.8 26,31.8 C25.9,31.6 25.8,31.4 25.7,31.2 C25.6,31 25.5,30.7 25.2,30.8 C25.2,30.7 25.1,30.6 25.1,30.5 C25.1,30.4 25.2,30.4 25.3,30.3 L24.9,30.3 C25,30.2 25.1,30.1 25.2,29.9 C24.9,29.6 24.7,30 24.4,30 C24.3,30 24.2,30.1 24.1,30.1 C24,30.1 23.9,30 23.9,30 C24,29.9 24,29.9 24.1,29.8 C24.3,29.7 24.5,29.7 24.7,29.6 C24.8,29.5 24.8,29.3 24.8,29.2 C24.8,29.1 24.7,28.9 24.6,28.8 L24.5,28.8 C24.5,28.8 24.5,28.8 24.5,28.7 C24.7,28.2 24.2,27.8 24.3,27.3 C24.3,27.2 24.3,27.1 24.2,27.1 C23.9,26.8 23.9,26.6 24.1,26.3 C24.1,26.2 24,26 23.9,26 C23.6,25.8 23.6,25.7 23.8,25.4 C23.7,25.3 23.6,25.2 23.4,25.1 C23.5,24.9 23.7,24.8 23.9,24.5 C24.1,25 24.2,25.4 24.4,25.8 C24.7,26.9 24.9,27.9 25.3,28.9 C25.5,29.6 25.8,30.1 26.2,30.8 C26.7,31.8 27.2,32.7 27.7,33.7 C28.1,34.4 28.5,34.9 28.8,35.6 C29,35.9 29.3,36.1 29.5,36.4 C29.6,36.5 29.6,36.6 29.7,36.7 C29.8,36.8 29.8,36.9 29.9,37 C30.3,37.4 30.7,37.7 31,38.1 C31.6,38.7 32.1,39.2 32.8,39.6 C33.2,39.8 33.5,40 33.9,40.3 C34.8,40.8 35.5,41.4 36.4,41.7 C37.3,42.2 38.2,42.6 39.2,42.9 C39.7,43.2 40.3,43.3 40.4,43.9 C40.5,44.2 40.5,44.4 40.5,44.8 C40.3,44.7 40.2,44.7 40.2,44.6 L40.2,44.2 C39.9,43.5 39.2,43.3 38.6,43.1 C38.3,43 38,42.9 37.8,42.7 C37.8,42.7 37.8,42.7 37.7,42.7 C37.1,42.8 36.8,42.1 36.3,42 C36,41.9 35.6,41.9 35.4,41.5 C35.3,41.3 34.9,41.2 34.6,41.1 L34.5,41 C34.4,41.6 34.2,41.5 34,41.4 L34,41.4 L34,41.4 Z M17.8,19.9 C17.8,20.3 17.8,20.8 17.9,21.1 C18,21.5 17.9,21.9 18.2,22.2 L18.2,22.3 C18.2,22.6 18.3,22.9 18.3,23.2 L18.2,23.2 C18,22.4 17.7,21.8 17.5,21 C17.3,20.3 17.3,19.8 17.2,19.1 C17.1,18.6 17.2,18.2 17.1,17.8 C17.1,17.6 16.9,17.4 16.8,17.3 C16.7,17.2 16.5,17.3 16.2,17.3 C16.2,17.2 16.1,17.1 16.1,16.9 L16,16.9 C16,17 16,17.1 15.9,17.2 C15.8,16.9 15.7,16.7 15.6,16.6 C15.7,16.5 15.7,16.4 15.7,16.3 C15.7,16 15.6,15.7 15.6,15.4 C15.6,15.1 15.6,14.7 15.7,14.4 C15.7,14 15.7,13.7 15.2,13.6 C15.5,13.5 15.7,13.4 15.9,13.4 C16.1,13.4 16.3,13.5 16.3,13.7 L16.3,14.8 C16.3,15.4 16.4,15.9 16.4,16.5 C16.4,16.7 16.7,16.9 16.8,17.1 C17.1,16.7 17.5,16.8 17.8,16.7 C18.1,16.6 18.5,16.6 18.8,16.5 C19,16.4 19.1,16.3 19,16 C18.9,15.5 18.8,15 18.7,14.6 C18.6,14.3 18.5,13.9 18.5,13.6 L18.5,13.3 C18.7,13.2 18.9,13.2 19,13.2 C19,13.2 19.1,13.4 19.1,13.5 C19.1,13.7 19,13.9 19,14.1 C19,14.4 19.1,14.8 19.1,15.1 C19.2,15.4 19.3,15.8 19.3,16.1 C19.3,16.3 19.3,16.5 19.2,16.7 C19.2,16.9 19.1,17 19,17.2 C19,17.3 18.9,17.3 18.8,17.4 C18.9,17.5 19,17.7 19.1,18 C18.8,18.2 18.4,18.3 18.1,18.5 L18.1,18.7 C18.1,18.7 18.2,18.7 18.3,18.8 L18.3,18.9 C18.2,18.8 18,18.8 17.9,18.7 C18,18.5 18.2,18.4 18.3,18.2 C18.3,18.2 18.2,18.2 18.2,18.1 L18.3,18 C18.5,18.1 18.8,18.2 18.8,17.9 C18.8,17.7 18.7,17.5 18.4,17.5 C18.2,17.5 18,17.4 17.8,17.4 C17.5,17.4 17.4,17.6 17.3,17.7 C17.2,17.8 17.4,18.1 17.4,18.2 C17.4,18.3 17.5,18.3 17.5,18.4 C17.5,18.8 17.5,19.1 17.8,19.4 C17.7,19.4 17.7,19.4 17.6,19.3 C17.7,19.5 17.8,19.8 17.8,19.9 L17.8,19.9 L17.8,19.9 Z M22,40.8 C22.4,40.8 22.5,40.5 22.3,40.2 C22.3,40.1 22.3,40 22.2,39.9 C22.2,39.6 22.1,39.2 22,38.9 C22,38.8 21.8,38.8 21.7,38.8 C21.8,38.6 21.9,38.4 22,38.1 C21.8,38.1 21.7,38 21.6,38 C21.7,37.8 21.8,37.7 21.8,37.6 C21.8,37.5 21.6,37.4 21.6,37.3 C21.7,37.2 21.8,37 21.8,36.8 C21.8,36.7 21.6,36.6 21.5,36.5 C21.6,36.4 21.7,36.2 21.7,36.1 C21.7,36 21.5,35.9 21.4,35.8 C21.5,35.6 21.6,35.5 21.5,35.3 C21.5,35.2 21.3,35.1 21.2,34.9 C21.2,34.9 21.3,34.9 21.4,34.8 C21.5,34.2 21.4,34.2 21,34.3 L21,34.2 C21.3,34.1 21.3,33.9 21.2,33.6 C21.1,33.3 21.1,32.9 21.1,32.6 C21.1,32.4 21,32.3 21,32.1 C20.9,32.1 20.8,32.2 20.6,32.3 C21,31.8 21.5,31.4 20.9,31 C21.4,30.9 21.4,31 21.4,31.4 C21.4,31.7 21.5,32 21.5,32.3 C21.6,33.1 21.7,33.8 21.9,34.5 C22,34.9 21.8,35.3 22.1,35.6 C22.2,35.7 22.1,36 22.1,36.1 C22.2,37.2 22.4,38.1 22.6,39.1 C22.7,39.7 22.8,40.3 22.9,40.9 L22.9,41.2 C22.8,41.5 22.8,41.8 23.1,41.9 C23.2,41.9 23.2,42.1 23.2,42.4 C22.8,41.9 22.3,41.5 22.4,41.1 C22.2,40.9 22,40.9 22,40.8 L22,40.8 L22,40.8 Z M20,32.8 C20,32.9 20,33.1 20.1,33.2 C20.2,33.7 20.2,34.2 20.3,34.6 C20.3,34.9 20.4,35.1 20.4,35.4 C20.4,35.6 20.2,35.9 20.5,36.1 L20.5,36.5 C20.7,36.4 20.9,36.3 21,36.3 C21.1,36.4 21.2,36.5 21.4,36.7 C21.2,36.7 21.1,36.7 21,36.6 C20.7,36.4 20.7,36.6 20.7,36.8 C20.6,37.3 20.8,37.7 20.8,38 L20.8,38.6 C21.1,38.9 20.9,39.2 21,39.5 C21.1,39.7 21.2,39.9 20.9,40 C21,40.1 21.1,40.1 21.1,40.2 C21.1,40.6 21.2,41 21.2,41.4 C21.2,41.6 21.3,41.7 21.3,41.9 C21.3,42.4 21.4,42.8 21.4,43.1 C21.4,43.5 21.5,43.9 21.6,44.3 C21.3,44.3 21.1,44.1 21.1,43.8 C21,43 20.9,42.3 20.8,41.6 C20.7,41 20.7,40.4 20.6,39.8 L20.6,38.8 C20.6,38.6 20.3,38.5 20.4,38.2 C20.4,37.8 20.4,37.4 20.3,37 C20.3,37 20.2,37 20.1,37.1 C20.1,36.3 20.1,35.7 19.8,35 C19.9,35 20,35 20,34.9 L20,34.9 C19.7,34.7 19.8,34.4 19.7,34.1 C19.7,33.7 19.6,33.4 19.5,33 C19.5,32.9 19.6,32.8 19.6,32.8 C19.8,32.9 19.9,32.8 20,32.8 L20,32.8 L20,32.8 Z M23.2,22.5 C23.1,22.3 23,22.1 22.9,21.9 C22.9,21.9 23,21.8 23.1,21.8 C23.1,21.8 23.1,21.7 23,21.6 C22.7,21.3 22.8,21 22.8,20.6 C22.8,20.5 22.8,20.4 22.7,20.4 C22.6,20.2 22.5,20.1 22.7,19.9 L22.7,19.6 C22.5,19.1 22.3,18.6 22.2,18.1 C22.1,17.8 22.2,17.5 22.1,17.3 C22.1,17.1 22.1,16.8 22,16.6 C21.8,16.2 22.1,15.9 22.1,15.5 C21.9,15.3 21.7,15.1 21.5,14.9 C21.8,14.8 21.9,14.7 22,15 C22.1,15.4 22.2,15.9 22.3,16.2 C22.4,16.8 22.5,17.3 22.6,17.8 C22.8,18.9 23,19.9 23.1,21 C23.1,21.7 23.3,22.3 23.5,22.9 C23.6,23.4 23.7,23.8 23.8,24.2 C23.9,24.5 23.8,24.5 23.5,24.6 C23.5,24.2 23.4,23.4 23.2,22.5 L23.2,22.5 L23.2,22.5 Z M27.6,26.4 C27.8,26.4 27.9,26.5 28,26.5 C28,26.7 28.1,27 28.1,27.2 C28.1,27.3 28.5,27.4 28.3,27.5 C28.2,27.6 27.9,27.5 27.7,27.5 C27.6,27.5 27.6,27.3 27.5,27.3 C27.4,27.2 27.4,27.1 27.3,26.9 C27.1,27.3 27.3,27.9 27.6,28 C27.9,28.1 28.5,27.8 28.5,27.5 C28.5,27.4 28.6,27.3 28.7,27.3 C28.7,27.4 28.8,27.5 28.8,27.6 C28.8,28.2 28.3,28.5 27.8,28.5 C27.5,28.4 27.1,28.3 27,28 C26.9,27.8 26.9,27.6 26.9,27.4 L26.9,27 C26.8,26.6 27,26.2 27.5,26 L27.7,26 C27.6,26.1 27.6,26.2 27.6,26.4 L27.6,26.4 L27.6,26.4 Z M25.9,22 L25.9,22.4 C26,22.8 26.6,22.9 26.9,22.7 C27.1,22.5 27.4,22.4 27.6,22.2 C27.3,22.8 27.4,22.8 26.7,23.1 C26.4,23.2 26.1,23.2 25.8,22.9 C25.6,22.6 25.3,22.4 25.5,22 C25.5,21.9 25.6,21.8 25.5,21.7 C25.3,21.4 25.5,21.2 25.6,21.1 C25.8,20.9 26.1,20.9 26.3,20.8 C26.3,20.9 26.4,21 26.4,21 C26.3,21.1 26.1,21.2 25.9,21.3 C25.9,21.3 25.9,21.3 25.9,21.4 L25.9,21.6 L26.1,21.6 C26.3,21.4 26.5,21.4 26.8,21.5 C26.9,21.5 27.1,21.4 27.2,21.3 C27.1,21.7 26.6,21.8 26.4,22.2 C26.5,22.3 26.5,22.4 26.6,22.4 C26.4,22.7 26,22.5 25.8,22 L25.9,22 L25.9,22 L25.9,22 Z M25.5,17.1 C25.6,17.2 25.8,17.3 25.9,17.4 C25.5,17.4 25.4,17.3 25.2,16.7 C25.1,17 25.2,17.7 25.5,17.8 C25.7,17.8 25.9,17.7 26.1,17.6 C26.3,17.5 26.5,17.4 26.8,17.2 C26.7,17.7 26.3,18.1 25.9,18.1 C25.4,18.1 24.9,17.8 24.8,17.4 L24.8,17.1 C25.1,17 25,16.8 24.9,16.6 C24.7,16.2 24.9,16.1 25.1,15.9 C25.3,15.7 25.6,15.7 25.9,15.8 C25.5,15.9 25.3,16.1 25.3,16.4 C25.6,16.4 25.9,16.3 26.2,16.3 C26.5,16.3 26.8,16.4 27,16.4 L27,16.5 C26.7,16.5 26.4,16.7 26.2,16.6 C25.7,16.6 25.7,16.9 25.5,17.1 L25.5,17.1 L25.5,17.1 Z M10.6,10.8 L10.6,11.5 C10.6,12.1 10.6,12.6 10.8,13.1 C10.9,13.2 10.9,13.4 10.9,13.5 L10.9,14.2 C10.8,14.2 10.7,14.3 10.5,14.3 C10.5,14.2 10.4,14.1 10.4,13.9 C10.3,13.3 10.1,12.7 10,12.1 C10,12.1 10,12 9.9,12 C9.5,11.8 9.6,11.5 9.7,11.2 C9.9,10.9 10.2,10.8 10.6,10.8 L10.6,10.8 L10.6,10.8 Z M23.1,16.9 C23.1,17.2 23.1,17.4 23.2,17.7 L23.1,17.7 C23,17.3 23,17 22.9,16.6 C23,16.5 23.1,16.5 23.1,16.4 C23.1,16.3 23.2,16.1 22.9,16.2 C22.9,16.2 22.8,16.1 22.8,16 C22.9,15.8 22.9,15.7 23,15.5 C23.1,15.6 23.2,15.6 23.2,15.7 C23.3,16 23.3,16.3 23.3,16.6 C23.4,17 23.5,17.5 23.5,17.8 C23.6,18.4 23.7,19 23.8,19.6 C23.9,19.9 23.9,20.3 24,20.6 L24,21 L24,21.3 C24.1,21.8 24.1,21.8 23.6,22 L23.6,21.8 C24,21.8 23.8,21.5 23.8,21.3 C23.8,20.8 23.7,20.3 23.6,19.9 C23.5,19.9 23.4,19.9 23.3,20 C23.2,19.6 23.2,19.3 23.1,18.9 L23.2,18.9 C23.2,18.9 23.3,18.9 23.4,19 C23.4,18.8 23.4,18.6 23.3,18.5 L22.9,18.5 C23,18.3 23,18.1 23.1,18 C23.1,17.9 23.2,17.9 23.2,17.8 C23.3,17.5 23.3,17.2 23.1,16.9 L23.1,16.9 L23.1,16.9 Z M29.6,32.6 C29.5,32.7 29.4,32.8 29.4,32.7 C29,32.6 28.6,32.2 28.7,31.7 C28.8,31.4 28.6,31.1 28.9,30.8 C29,30.6 29.2,30.6 29.3,30.7 C29.5,31 29.8,31 30,31 C30.1,31.2 30.2,31.4 30.2,31.5 L30.2,32.1 C29.6,32.3 29.4,31.9 29.2,31.4 C28.9,31.9 29.1,32.4 29.6,32.6 L29.6,32.6 L29.6,32.6 Z M28.6,35.2 C28.1,34.4 27.6,33.7 27.1,32.9 C27.1,32.9 27.2,32.9 27.2,32.8 L27.5,32.8 C27.4,32.6 27.3,32.5 27.3,32.4 C26.9,32.6 26.9,32.3 26.8,32.1 C26.9,32.1 27,32.1 27.1,32 C26.9,31.7 26.8,31.4 26.6,31 C26.6,31 26.7,31 26.7,30.9 C26.8,30.9 26.9,30.9 26.9,31 C27.1,31.3 27.2,31.6 27.3,32 C27.3,32.1 27.3,32.1 27.4,32.2 C27.9,32.6 28.1,33.2 28.4,33.6 C28.7,34.1 28.9,34.6 29.2,35 L29.2,35.3 C29,35.4 28.8,35.3 28.6,35.2 C28.8,34.9 28.5,34.3 28.2,34.3 C28.2,33.7 27.7,33.4 27.4,33.1 C27.4,33.2 27.3,33.3 27.4,33.4 C27.7,33.8 27.9,34.1 28.2,34.4 C28.4,34.7 28.6,35 28.6,35.2 L28.6,35.2 L28.6,35.2 Z M25.5,28.3 C25.4,27.8 25.2,27.4 25.1,27 C24.9,26.1 24.7,25.3 24.5,24.5 C24.3,23.9 24.2,23.4 24.1,22.9 C24.1,22.7 24,22.5 24,22.2 C24,22.2 24,22.1 24.1,22 C24.2,22.1 24.2,22.1 24.2,22.2 C24.3,22.8 24.4,23.4 24.5,24 C24.6,24.4 24.8,24.8 24.9,25.1 C24.9,25.2 25,25.3 25,25.4 C25,25.5 25.1,25.6 25.1,25.7 C25.1,25.8 25.2,25.9 25.2,25.9 L25.2,26.8 L25.2,26.9 C25.4,27.2 25.4,27.5 25.6,27.9 C25.7,28 25.7,28 25.5,28.3 L25.5,28.3 L25.5,28.3 Z M15.2,13.8 C14.7,14 14.2,14.3 13.8,14.3 C13.1,14.3 12.4,14.4 11.7,14.8 C11.4,15 11.2,14.9 11.1,14.5 C12.4,14.2 13.7,13.8 15.2,13.8 L15.2,13.8 L15.2,13.8 Z M18.9,32.7 L19.3,32.7 L19.3,32.8 C18.5,33.3 17.8,33.7 17,34 C16.6,34.3 16.2,34.6 15.9,34.9 C15.7,35.1 15.4,35.2 15.2,35.4 C15.1,35.5 15.1,35.6 15,35.6 C14.8,35.8 14.5,36 14.3,36.2 L14.1,36.2 C14.2,36.1 14.2,36 14.2,36 C14.9,35.5 15.5,34.9 16.2,34.5 C16.4,34.4 16.6,34.3 16.8,34.2 C17,34.1 17.3,33.9 17.5,33.7 C17.9,33.5 18.3,33.3 18.6,33.1 C18.7,33 18.9,33 19.1,32.9 C19,32.8 19,32.8 18.9,32.7 L18.9,32.7 L18.9,32.7 Z M46.9,46.7 C48.1,46.8 49.5,46.6 50.7,47 C49.4,47.4 48.2,47 46.9,46.7 L46.9,46.7 L46.9,46.7 Z M28.2,20.9 C28.3,20.9 28.5,20.8 28.6,20.8 C28.6,20.8 28.6,20.9 28.7,20.9 C28.6,21 28.4,21.1 28.3,21.2 C28.3,21.2 28.2,21.1 28.1,21 C28.1,20.7 28,20.3 28,20 C28,19.8 28,19.6 28.2,19.6 C28.2,19.6 28.3,19.5 28.3,19.4 C28.1,19.4 28,19.4 27.9,19.5 L27.9,19 C28,19.1 28.1,19.2 28.1,19.2 C28.1,19.2 28.1,19.2 28.2,19.1 C28.1,19 28.1,18.9 28,18.8 C27.8,18.7 27.7,18.5 27.7,18.3 L27.7,17.9 C27.7,17.8 27.8,17.7 27.8,17.6 C27.8,17.7 27.9,17.8 27.9,17.8 C27.9,17.9 27.9,18 28,18.2 C28,18.1 28.1,18 28.1,17.9 C28.3,18 28.3,18.2 28.2,18.3 C28.2,18.5 28.2,18.7 28.3,18.8 C28.3,19 28.3,19.1 28.4,19.3 L28.4,19.8 C28.4,20 28.5,20.1 28.5,20.3 L28.4,20.3 C28.4,20.2 28.3,20.1 28.2,19.9 C28.2,20.4 28.2,20.6 28.2,20.9 L28.2,20.9 L28.2,20.9 Z M17.9,19.9 C18.1,19.7 18.4,19.6 18.6,19.4 C18.3,19.4 18,19.3 18.2,18.9 C18.4,18.8 18.7,18.7 19,18.5 C18.4,19.2 18.4,19.2 19.1,19.3 C18.8,19.5 18.6,19.6 18.4,19.8 C18.6,19.9 18.8,19.9 19.1,20 C19.1,20.3 18.8,20.3 18.6,20.5 C18.8,20.6 19,20.8 19.3,20.9 C19.1,21.1 18.9,21.2 18.7,21.3 C18.8,21.3 18.8,21.4 18.9,21.5 C18.5,21.6 18.5,21.6 18.5,21.2 C18.6,21.1 18.7,21.1 18.9,21 L18.9,20.9 C18.8,20.9 18.7,20.9 18.7,20.8 C18.6,20.7 18.4,20.7 18.4,20.6 C18.4,20.5 18.5,20.4 18.6,20.3 C18.6,20.2 18.7,20.2 18.7,20.1 L18.6,20 C18.3,20 18.1,20 17.9,19.9 C17.8,19.9 17.9,19.9 17.9,19.9 L17.9,19.9 L17.9,19.9 Z M25.4,11.3 C25.6,11.4 25.9,11.5 26.2,11.6 C26.1,11.9 25.9,12.2 25.7,12.5 C25.7,12.6 25.4,12.6 25.4,12.6 C25.2,12.4 25,12.3 24.9,12.1 C24.8,11.8 25.1,11.7 25.3,11.6 L25.1,11.4 C25.1,11.4 25.1,11.4 25.1,11.3 L25.4,11.3 L25.4,11.3 L25.4,11.3 Z M17.9,51.7 C17.8,51.8 17.6,51.8 17.5,51.9 L13.8,51.9 C13.7,51.9 13.6,51.8 13.5,51.8 L13.5,51.7 L15.7,51.7 C16.4,51.6 17.2,51.6 17.9,51.7 C17.9,51.6 17.9,51.7 17.9,51.7 L17.9,51.7 L17.9,51.7 Z M39,43 C38.9,42.9 38.7,42.8 38.6,42.7 C38,42.4 37.5,42.3 37,42 C36.3,41.7 35.8,41.2 35.2,40.9 C35.1,40.8 35,40.8 34.9,40.7 C34.9,40.7 34.9,40.6 35,40.6 C35.9,41.1 36.6,41.6 37.5,41.9 C38.4,42.3 39.2,42.7 40.1,43 C40.1,43.1 40,43.1 40,43.2 C39.8,43.1 39.6,43 39.3,42.9 C39.2,43 39,43 39,43 L39,43 L39,43 Z M28.9,25.6 C28.8,25.3 28.6,25 28.5,24.7 C28.4,24.1 28.3,23.6 28.2,22.9 C28.2,22.7 28.1,22.4 28.1,22.2 C28.1,22.1 27.9,22 27.8,21.9 C28,21.9 28.1,21.9 28.3,21.8 C28.3,22.1 28.3,22.4 28.4,22.6 C28.4,22.7 28.5,22.8 28.5,22.8 C28.9,22.8 28.8,23 28.8,23.2 C28.8,23.4 28.9,23.6 28.9,23.8 L28.8,23.8 C28.7,23.6 28.7,23.4 28.6,23.2 L28.5,23.2 L28.5,23.7 C28.6,24.2 28.8,24.7 28.9,25.1 C29,25.4 28.9,25.5 28.9,25.6 L28.9,25.6 L28.9,25.6 Z M3.4,49.7 C4.2,50.2 4.9,50.6 5.7,51 C5.1,51.1 3.6,50.5 3.4,49.7 L3.4,49.7 L3.4,49.7 Z M30.7,55.4 C31.1,55.3 34,56.6 34.4,57.1 C33,56.6 31.8,56 30.7,55.4 L30.7,55.4 L30.7,55.4 Z M19.8,21.2 C19.7,20.9 19.7,20.6 19.6,20.4 C19.6,20.1 19.5,19.8 19.5,19.5 C19.5,19.4 19.5,19.4 19.4,19.4 C19.1,19.2 19,19.1 19.3,18.8 C19.3,18.8 19.2,18.5 19.1,18.4 C19.1,18.3 19,18.2 19,18.2 C19.1,18.2 19.2,18.2 19.3,18.3 C19.3,18.3 19.4,18.4 19.4,18.5 C19.6,19.4 19.8,20.1 19.9,21 L19.9,21.3 L19.8,21.2 L19.8,21.2 L19.8,21.2 Z M34.6,57.1 C35.7,57.6 36.7,58.1 37.8,58.5 C37.2,58.8 35,57.7 34.6,57.1 L34.6,57.1 L34.6,57.1 Z M2.6,50.5 L2.6,49.9 L2.6,48.6 C2.6,48.5 2.6,48.4 2.7,48.3 C2.8,48.4 2.9,48.4 2.9,48.5 C2.9,49 3.3,49.4 3,49.8 C2.8,50 2.7,50.3 2.6,50.5 L2.6,50.5 L2.6,50.5 Z M23.1,55.9 C22.9,56.1 22.7,56.3 22.5,56.5 C22,56.9 21.5,57.4 21.2,57.7 C21.1,57.8 20.9,58 20.7,57.8 C21.4,57.1 22.1,56.5 23.1,55.9 C23,55.8 23,55.9 23.1,55.9 L23.1,55.9 L23.1,55.9 Z M11,18.1 C11.9,17.7 12.7,17.3 13.7,17 C13.7,17 13.7,17 13.8,17.1 C13.8,17.2 13.7,17.3 13.7,17.3 C13,17.3 12.6,18 11.9,18.2 C11.6,18.3 11.4,18.4 11.2,18.4 C11,18.2 11,18.2 11,18.1 L11,18.1 L11,18.1 Z M25.2,51.1 C26.2,51.2 27.1,51.3 28.1,51.4 L28.1,51.6 C27.1,51.5 26.2,51.4 25.2,51.3 L25.2,51.1 L25.2,51.1 Z M37.8,58.8 C38.3,58.2 38.9,58.4 39.5,58.2 L39.5,58.8 C39,58.4 38.5,58.9 37.8,58.8 L37.8,58.8 L37.8,58.8 Z M16.6,13.5 C17.7,13 17.7,13.2 18.2,13.2 C18,13.5 17.2,13.7 16.6,13.5 L16.6,13.5 L16.6,13.5 Z M21.7,11.4 C21.6,10.8 21.6,10.2 21.5,9.6 L21.5,9.5 C21.7,9.2 21.9,8.9 22.2,8.6 C22.2,8.6 22.3,8.6 22.3,8.7 C22.3,8.8 22.2,8.9 22.2,9 C21.9,9.4 21.8,10 21.8,10.4 C21.7,10.8 21.8,11 21.7,11.4 L21.7,11.4 L21.7,11.4 Z M24.6,12.5 C25.2,12.7 25.6,13.1 26,12.5 L26,12.5 L26,12.3 L26.2,12.3 C26.2,12.4 26.3,12.5 26.2,12.5 C26.1,13 25.1,13.3 24.7,12.9 C24.7,12.9 24.7,12.7 24.6,12.5 L24.6,12.5 L24.6,12.5 Z M7.8,37.9 C7.4,37.8 7.1,37.7 6.7,37.6 C7,37.4 7.2,37.2 7.4,37 C7.4,37.1 7.5,37.2 7.6,37.4 C7.8,37.3 8,37.3 8.2,37.2 C8.2,37.2 8.2,37.3 8.3,37.3 C7.9,37.5 7.7,37.6 7.8,37.9 L7.8,37.9 L7.8,37.9 Z M24.1,40.6 C24.1,40.2 25.3,38.7 25.7,38.6 C25.5,38.8 25.3,39.1 25.2,39.3 C25.2,39.4 25.1,39.5 25.1,39.5 C25,39.6 25,39.7 24.9,39.7 C24.7,39.8 24.6,39.9 24.7,40 C24.5,40.2 24.3,40.3 24.1,40.6 L24.1,40.6 L24.1,40.6 Z M45.3,58.5 C44.7,58.6 44.1,58.7 43.5,58.9 C43.5,58.7 44,58.2 44.2,58.4 C44.5,58.6 44.9,58.4 45.2,58.5 C45.1,58.4 45.2,58.4 45.3,58.5 C45.3,58.4 45.3,58.4 45.3,58.5 L45.3,58.5 L45.3,58.5 Z M22.2,13.8 C22,13.6 21.9,13.3 21.7,13.1 C21.6,12.9 21.6,12.7 21.8,12.6 C21.9,12.5 21.9,12.4 21.7,12.3 C21.6,12.3 21.6,12.2 21.6,12.1 L21.7,12 C21.8,12 21.9,12.1 21.9,12.2 C22.1,12.8 22.2,13.2 22.2,13.8 L22.2,13.8 L22.2,13.8 Z M24,40.7 C23.9,41 23.8,41.3 23.7,41.6 C23.7,41.6 23.8,41.7 23.9,41.8 L23.9,41.9 C23.8,41.9 23.7,41.9 23.7,41.8 C23.6,41.7 23.6,41.5 23.5,41.4 L23.5,40.9 L23.5,40.3 L23.6,40.3 C23.6,40.5 23.7,40.7 23.7,41 C23.8,40.8 23.9,40.7 24,40.7 C24,40.6 24,40.7 24,40.7 L24,40.7 L24,40.7 Z M43.1,58.9 C43,59.5 42.8,59.6 42.3,59.2 C42.2,59.1 42,59.1 41.9,59.1 L41.4,59.1 L41.4,59 C42,59 42.5,58.9 43.1,58.9 L43.1,58.9 L43.1,58.9 Z M46.7,59 C47,59 47.3,59 47.6,58.9 C47.8,58.8 48.1,58.7 48.3,58.6 C48.5,58.5 48.6,58.5 48.8,58.4 C48.3,59 47.2,59.3 46.7,59 L46.7,59 L46.7,59 Z M20.5,29.5 C20.3,29.6 20.1,29.7 19.9,29.9 C20.1,30 20.3,30.1 20.6,30.2 C20.6,30.2 20.6,30.2 20.6,30.3 C20.4,30.4 19.8,30.2 19.9,30 C19.9,29.9 20,29.8 20.1,29.7 L20.2,29.6 C20,29.5 19.8,29.4 19.7,29.3 C19.6,28.9 20.1,29 20.3,28.8 C20.2,28.9 20,29.1 19.9,29.2 C20.1,29.2 20.3,29.3 20.5,29.5 L20.5,29.5 L20.5,29.5 Z M23.1,55.7 C23.8,55.1 24.5,54.8 25.4,54.7 C24.6,55 23.9,55.4 23.1,55.7 L23.1,55.7 L23.1,55.7 Z M22.7,12.8 L22.3,12.8 C22.5,12.5 22.7,12.3 22.9,12.1 C23,12.1 23.2,12.2 23.1,12.4 C23,12.6 23,12.8 23.1,13 L23.1,13.2 L23,13.2 C22.8,13.1 22.8,13 22.7,12.8 L22.7,12.8 L22.7,12.8 Z M27.5,11.1 C27.4,10.9 27.4,10.8 27.3,10.7 L27.2,10.7 C27.2,10.9 27.3,11.2 27.3,11.4 L27.2,11.4 C27.1,11 27,10.6 26.8,10.3 C27.5,10.6 27.7,10.7 27.5,11.1 L27.5,11.1 L27.5,11.1 Z M19.8,24.4 C20.1,23.9 19.6,23.9 19.2,23.7 C19.6,23.6 19.6,23.3 19.6,23.1 C20,23.1 19.9,23.4 19.9,23.5 C19.9,23.6 19.9,23.7 20,23.8 C20.2,24.2 19.9,24.2 19.8,24.4 L19.8,24.4 L19.8,24.4 Z M23.3,43.9 L23.3,44.1 C23.3,44.2 23.2,44.2 23.1,44.3 C23.1,44.3 23,44.2 22.9,44.2 C22.8,44 22.8,43.7 22.7,43.5 C22.7,43.4 22.8,43.3 22.8,43.3 C22.9,43.3 23,43.3 23.1,43.4 C23.3,43.6 23.3,43.8 23.3,43.9 L23.3,43.9 L23.3,43.9 Z M30.1,32.1 C30.2,32.1 30.2,32 30.3,32 C30.4,32 30.4,31.9 30.5,31.9 C30.5,32 30.6,32.1 30.6,32.1 C30.5,32.3 30.3,32.6 30.1,32.7 C30,32.8 29.8,32.6 29.6,32.6 L29.6,32.6 C29.7,32.6 29.8,32.5 30,32.5 C30.1,32.4 30.1,32.3 30.1,32.1 L30.1,32.1 L30.1,32.1 Z M12.2,51.8 C11.4,51.7 10.7,51.7 10,51.6 L10,51.5 C10.8,51.6 11.5,51.6 12.2,51.8 C12.2,51.7 12.2,51.7 12.2,51.8 L12.2,51.8 L12.2,51.8 Z M4.9,19.9 C4.7,19.8 4.5,19.7 4.3,19.6 C4.3,19.6 4.3,19.4 4.4,19.4 L5.4,19.4 C5.2,19.6 4.8,19.6 4.9,19.9 L4.9,19.9 L4.9,19.9 L4.9,19.9 Z M56.6,55.9 C56.8,55.4 56.9,55 57.1,54.8 C57.2,54.7 57.3,54.6 57.4,54.5 C57.1,54.9 57.1,55.5 56.6,55.9 L56.6,55.9 L56.6,55.9 Z M14.6,10.3 C14.1,10.4 13.6,10.4 13.3,10.5 C13.4,10.1 14.4,10 14.6,10.3 L14.6,10.3 L14.6,10.3 Z M19.5,51.6 C19.4,51.6 19.2,51.7 19.1,51.7 C18.9,51.7 18.6,51.8 18.4,51.8 C18.3,51.8 18.2,51.7 18.1,51.7 C18.2,51.6 18.2,51.5 18.3,51.5 L19.3,51.5 C19.4,51.4 19.4,51.5 19.5,51.6 C19.5,51.5 19.5,51.5 19.5,51.6 L19.5,51.6 L19.5,51.6 Z M29.1,35.6 L29.1,35.6 C29.4,36 29.7,36.3 30,36.7 L29.9,36.8 C29.8,36.7 29.8,36.6 29.7,36.5 C29.6,36.3 29.5,36.1 29.3,36.2 C29.3,36.2 29.1,36.1 29.1,36 C29.1,35.9 29.1,35.7 29.1,35.6 L29.1,35.6 L29.1,35.6 Z M25.4,11.3 C25.4,11.2 25.3,11.1 25.3,11 C25.1,11 24.9,11.1 24.8,11.1 L24.8,11 C25,10.9 25.2,10.7 25.4,10.6 C25.6,11 25.7,11 25.4,11.3 L25.4,11.3 L25.4,11.3 Z M13.8,17 C14,16.9 14.2,16.8 14.3,16.8 C14.5,16.7 14.6,16.7 14.8,16.7 C14.9,16.7 14.9,16.8 15,16.8 L14.9,16.9 C14.6,17 14.2,17.1 13.8,17 C13.9,17.1 13.8,17.1 13.8,17 C13.8,17.1 13.8,17 13.8,17 L13.8,17 L13.8,17 Z M56.3,54.8 C55.8,54.9 55.3,55 54.9,55 L54.9,54.8 C55.3,54.7 55.8,54.7 56.3,54.8 L56.3,54.8 L56.3,54.8 Z M5.6,20.5 C5.6,20.4 5.5,20.3 5.5,20.3 L5.5,20 L5.7,20 C5.8,20 5.9,20.1 6,20.1 C6.1,20.1 6.1,20.2 6.2,20.3 C6.2,20.3 6.2,20.4 6.1,20.5 C6,20.5 6,20.4 5.9,20.4 C5.9,20.4 5.8,20.5 5.6,20.5 L5.6,20.5 L5.6,20.5 Z M19.2,29.8 C19.1,29.3 19,28.7 18.9,28.3 L18.9,28.1 L19,28.1 C19,28.1 19,28.2 19.1,28.2 C19.2,28.7 19.2,29.1 19.3,29.5 C19.4,29.6 19.3,29.7 19.2,29.8 L19.2,29.8 L19.2,29.8 Z M5.4,20.5 C5.6,20.6 5.7,20.7 5.8,20.8 C5.7,20.9 5.6,21 5.5,21.1 C5.4,21.2 5.4,21.3 5.3,21.4 C5.1,21.3 4.9,21.3 5,20.9 C5.5,21.1 5.5,21.1 5.4,20.5 L5.4,20.5 L5.4,20.5 Z M9.6,38.6 C9.2,38.6 8.6,38.4 8.5,38.1 C8.7,38 8.8,37.9 9,38.2 C9,38.3 9.2,38.3 9.2,38.3 C9.4,38.4 9.5,38.5 9.6,38.6 L9.6,38.6 L9.6,38.6 Z M22.4,9.1 C22.7,9.1 22.9,9.3 22.8,9.6 C22.8,9.8 22.8,9.9 22.9,10.1 L22.9,10.3 C22.9,10.3 22.8,10.4 22.8,10.3 C22.7,10.2 22.7,10.2 22.7,10.1 L22.7,9.6 C22.7,9.4 22.8,9.2 22.5,9.2 C22.4,9.2 22.4,9.1 22.4,9.1 L22.4,9.1 L22.4,9.1 Z M8.8,29.8 L8.8,30.1 C8.7,30.2 8.5,30.3 8.4,30.5 C8.4,30.4 8.3,30.4 8.3,30.3 C8.4,30.1 8.1,29.8 8.5,29.8 L8.8,29.8 L8.8,29.8 L8.8,29.8 Z M25.5,29.2 C25.6,29.3 25.6,29.4 25.7,29.5 C25.7,29.3 25.8,29.2 25.8,29.1 C26.1,29.1 26.1,29.4 26,29.6 C26,29.7 25.8,29.9 25.8,29.8 C25.6,29.7 25.5,29.6 25.5,29.2 L25.5,29.2 L25.5,29.2 Z M31.8,32.2 C32.1,32.7 32.4,33.2 32.7,33.6 L32.6,33.7 C32.3,33.2 32,32.8 31.8,32.2 C31.7,32.2 31.8,32.2 31.8,32.2 L31.8,32.2 L31.8,32.2 Z M33,39.6 C32.5,39.2 32,38.9 31.7,38.5 L31.8,38.4 C32.3,38.9 32.8,39.2 33,39.6 C33.1,39.5 33.1,39.5 33,39.6 L33,39.6 L33,39.6 Z M28.4,51.5 C28.9,51.6 29.5,51.7 29.9,51.8 L29.9,51.9 C29.4,51.8 28.8,51.7 28.4,51.5 L28.4,51.5 L28.4,51.5 Z M15.2,40.6 C15,40.7 14.9,40.9 14.8,40.9 C14.7,40.9 14.5,40.7 14.5,40.7 C14.5,40.6 14.7,40.4 14.8,40.4 C14.9,40.3 15,40.5 15.2,40.6 L15.2,40.6 L15.2,40.6 Z M21.5,51.3 C22.1,51.2 22.6,51.2 23.2,51.1 L23.2,51.2 C22.6,51.3 22,51.3 21.5,51.3 L21.5,51.3 L21.5,51.3 Z M3.9,57 C4.3,57.2 4.7,57.4 5,57.7 C4.8,57.9 4.1,57.4 3.9,57 L3.9,57 L3.9,57 Z M45.7,58.5 C46,58.4 46.2,58.6 46.3,58.8 C46.3,58.8 46.3,59 46.2,59 C46,59 45.7,58.7 45.7,58.5 L45.7,58.5 L45.7,58.5 Z M15.5,37.5 C15.7,37.3 15.8,37.2 15.9,37.2 C16,37.2 16.1,37.4 16.1,37.5 C16,37.6 15.9,37.7 15.8,37.7 C15.8,37.7 15.7,37.6 15.5,37.5 L15.5,37.5 L15.5,37.5 Z M30.8,37.5 C31.1,37.8 31.4,38.1 31.7,38.4 L31.6,38.5 C31.5,38.4 31.5,38.3 31.4,38.3 C31.3,38.1 31.2,37.8 30.9,38.1 C30.9,37.9 30.8,37.8 30.8,37.6 C30.7,37.5 30.8,37.5 30.8,37.5 L30.8,37.5 L30.8,37.5 Z M14.4,39.1 C14.2,39.2 14.1,39.3 14.1,39.3 C14,39.3 13.9,39.1 13.9,39 C13.9,38.9 14.1,38.8 14.1,38.7 C14.2,38.9 14.3,38.9 14.4,39.1 L14.4,39.1 L14.4,39.1 Z M6.3,18.7 C6.2,18.6 6.1,18.4 6,18.3 C6.1,18.3 6.2,18.1 6.2,18.2 C6.4,18.3 6.5,18.4 6.6,18.4 C6.5,18.5 6.4,18.6 6.3,18.7 L6.3,18.7 L6.3,18.7 Z M13.1,37 C13.4,36.7 13.7,36.4 14,36.2 C13.8,36.6 13.3,37 13.1,37 L13.1,37 L13.1,37 Z M22.3,15.3 C22.1,15 21.9,14.9 21.8,14.7 C21.9,14.6 22,14.5 22.1,14.4 C22.2,14.6 22.3,14.9 22.3,15.3 L22.3,15.3 L22.3,15.3 Z M16.8,39.2 C16.7,39.3 16.6,39.4 16.5,39.5 C16.4,39.4 16.3,39.3 16.3,39.2 C16.3,39.1 16.4,39 16.5,38.9 C16.6,39 16.7,39.1 16.8,39.2 L16.8,39.2 L16.8,39.2 Z M22.7,15.5 C22.8,15.3 22.9,15.1 23.1,14.9 C23.4,15.3 23.4,15.3 22.7,15.5 L22.7,15.5 L22.7,15.5 Z M27.5,15.5 C27.6,15.6 27.7,15.6 27.8,15.6 C27.7,15.9 27.6,16.1 27.5,16.4 L27.5,15.5 L27.5,15.5 L27.5,15.5 Z M41.2,42.1 C41.4,41.8 41.5,41.5 41.7,41.2 C41.8,41.7 41.6,42.1 41.2,42.1 L41.2,42.1 L41.2,42.1 Z M37.8,42.7 C37.3,42.5 36.9,42.3 36.5,42.1 C36.7,41.9 37.6,42.4 37.8,42.7 L37.8,42.7 L37.8,42.7 Z M17.2,57.9 C16.7,58.4 16.7,58.4 16.3,58.1 C16.7,58.1 16.9,58 17.2,57.9 L17.2,57.9 L17.2,57.9 Z M26.2,30.9 C26.4,30.8 26.5,30.7 26.6,30.6 C26.8,30.9 26.8,30.9 26.4,31.2 C26.3,31.1 26.2,31 26.2,30.9 L26.2,30.9 L26.2,30.9 Z M21.5,39.6 C21.6,39.8 21.6,39.9 21.7,40 C21.8,40.1 21.9,40.1 22,40.2 C22,40.2 22,40.3 21.9,40.3 C21.7,40.2 21.4,40.1 21.2,40 C21.4,39.8 21.5,39.7 21.5,39.6 L21.5,39.6 L21.5,39.6 Z M26.3,11.2 C26.6,11.3 26.7,11.8 26.6,11.9 C26.6,11.9 26.5,12 26.4,12 C26.3,12 26.3,11.9 26.3,11.8 C26.3,11.7 26.4,11.6 26.4,11.5 C26.4,11.5 26.3,11.4 26.3,11.2 L26.3,11.2 L26.3,11.2 Z M22.1,31.6 C22.2,31.5 22.2,31.4 22.3,31.3 C22.4,31.2 22.6,31.2 22.7,31.2 L22.7,31.3 C22.5,31.4 22.3,31.5 22.1,31.6 L22.1,31.6 L22.1,31.6 Z M49.3,58.2 C49.6,58.3 50,58.3 50.3,58.4 L50.3,58.5 C50,58.4 49.6,58.4 49.3,58.2 C49.3,58.3 49.3,58.3 49.3,58.2 L49.3,58.2 L49.3,58.2 Z M15.6,42 C15.7,42.2 15.8,42.3 15.8,42.4 C15.8,42.5 15.7,42.5 15.6,42.6 C15.5,42.5 15.4,42.4 15.4,42.3 C15.4,42.2 15.5,42.1 15.6,42 L15.6,42 L15.6,42 Z M38.9,42.9 L38.9,43.1 C38.5,42.9 38.1,42.7 37.8,42.6 L37.8,42.6 L38.2,42.6 C38.4,42.8 38.7,42.9 38.9,42.9 C39,43 38.9,42.9 38.9,42.9 L38.9,42.9 L38.9,42.9 Z M17.3,58.3 C17.7,58.2 17.9,58.2 18.2,58.1 L18.2,58.2 C17.8,58.4 17.6,58.5 17.3,58.3 L17.3,58.3 L17.3,58.3 Z M19.7,25.3 C19.6,25.4 19.5,25.4 19.5,25.5 C19.4,25.9 20.1,25.5 20,26 C19.8,25.7 19.3,25.8 19.4,25.3 C19.4,25.4 19.6,25.3 19.7,25.3 L19.7,25.3 L19.7,25.3 Z M20.6,30.9 C20.4,30.9 20.2,30.8 20.1,30.8 C20,30.8 20,30.7 20,30.6 C20,30.5 20,30.4 20.1,30.4 L20.2,30.4 C20.2,30.5 20.2,30.6 20.3,30.6 C20.3,30.6 20.5,30.8 20.6,30.9 L20.6,30.9 L20.6,30.9 L20.6,30.9 Z M20.5,31.9 C20.4,31.9 20.4,32 20.3,32.1 C20.4,32.1 20.5,32.2 20.6,32.2 L20.6,32.3 C20.5,32.3 20.3,32.4 20.2,32.3 C20.1,32.3 20.1,32.1 20.1,32 C20.1,31.9 20.3,31.9 20.5,31.9 C20.5,31.8 20.5,31.8 20.5,31.9 L20.5,31.9 L20.5,31.9 Z M20.6,32.6 C20.5,32.7 20.5,32.8 20.4,32.9 C20.6,33 20.8,33.1 21,33.2 C21,33.2 21,33.2 21,33.3 C20.9,33.3 20.8,33.2 20.7,33.2 C20.6,33.1 20.5,33 20.4,32.9 C20.3,32.7 20.4,32.6 20.6,32.6 C20.5,32.5 20.6,32.5 20.6,32.6 L20.6,32.6 L20.6,32.6 Z M21.4,41.3 C21.6,41.2 21.7,41.2 21.9,41.1 L21.9,41.2 C21.8,41.3 21.7,41.3 21.7,41.4 C21.8,41.5 21.9,41.5 21.9,41.6 L21.9,41.7 C21.7,41.6 21.6,41.5 21.4,41.5 L21.4,41.3 L21.4,41.3 Z M21.1,23.7 C20.8,23.3 20.7,22.8 20.8,22.6 C20.9,23 21,23.3 21.1,23.7 L21.1,23.7 L21.1,23.7 Z M22.7,14.7 C22.8,14.5 22.9,14.3 22.9,14.2 L23,14.2 C23,14.3 23.1,14.4 23.1,14.5 C23.1,14.6 22.9,14.7 22.7,14.7 C22.8,14.8 22.8,14.8 22.7,14.7 L22.7,14.7 L22.7,14.7 Z M9.6,38.6 C9.9,38.6 10,38.6 10.3,38.9 C10,39 9.8,39 9.6,38.6 L9.6,38.6 L9.6,38.6 Z M59.4,52.4 C59.1,52.5 58.9,52.7 58.6,52.8 C58.8,52.5 59.1,52.4 59.4,52.4 L59.4,52.4 L59.4,52.4 Z M19.7,25.3 C19.7,25.2 19.6,25.1 19.9,25 C20.1,25 20.3,24.7 20,24.5 C20.3,24.5 20.4,24.7 20.2,24.9 C20,25.1 19.8,25.2 19.7,25.3 L19.7,25.3 L19.7,25.3 Z M22,40.8 C21.9,40.8 21.9,40.9 21.8,40.8 C21.7,40.7 21.5,40.7 21.4,40.6 C21.4,40.5 21.5,40.4 21.6,40.3 C21.6,40.3 21.7,40.3 21.7,40.4 C21.7,40.5 21.6,40.6 21.6,40.7 C21.8,40.7 21.9,40.7 22,40.8 L22,40.8 L22,40.8 Z M20.8,34.5 C20.7,34.4 20.6,34.3 20.4,34.2 C20.5,34.1 20.6,34 20.7,33.9 C20.7,33.9 20.8,33.9 20.8,34 C20.4,34.2 20.7,34.3 20.8,34.4 C20.9,34.4 20.9,34.5 20.8,34.5 L20.8,34.5 L20.8,34.5 Z M19.7,14.1 C19.6,13.9 19.6,13.6 19.5,13.3 L19.8,13.3 C19.8,13.6 19.8,13.8 19.7,14.1 L19.7,14.1 L19.7,14.1 Z M17,41.2 C16.9,41 16.9,41 16.9,40.9 C16.9,40.8 17,40.8 17.1,40.7 C17.2,40.8 17.3,40.8 17.3,40.9 C17.2,41 17.1,41.1 17,41.2 L17,41.2 L17,41.2 Z M8.6,17.3 C8.4,17.4 8.4,17.5 8.3,17.5 C8.2,17.5 8.2,17.4 8.1,17.3 C8.2,17.2 8.2,17.1 8.3,17.1 C8.4,17.1 8.5,17.2 8.6,17.3 L8.6,17.3 L8.6,17.3 Z M20.6,33.2 C20.7,33.4 20.8,33.5 20.9,33.7 L20.6,33.7 C20.5,33.7 20.4,33.6 20.5,33.5 C20.4,33.4 20.5,33.3 20.6,33.2 L20.6,33.2 L20.6,33.2 Z M10.5,16.4 C10.4,16.3 10.3,16.2 10.3,16.1 C10.3,16 10.4,15.9 10.5,15.9 C10.6,15.9 10.7,16 10.7,16.1 C10.7,16.2 10.6,16.3 10.5,16.4 L10.5,16.4 L10.5,16.4 Z M28.9,25.6 C29,25.6 29.1,25.5 29.2,25.5 L29.4,25.5 L29.4,25.6 C29.2,25.7 29.1,25.9 28.8,26 C28.9,25.8 28.9,25.7 28.9,25.6 L28.9,25.6 L28.9,25.6 Z M23.2,39.9 C23.3,39.7 23.3,39.5 23.4,39.5 C23.7,39.5 23.7,39.6 23.5,39.8 C23.4,39.9 23.4,39.9 23.2,39.9 L23.2,39.9 L23.2,39.9 L23.2,39.9 Z M20,32.8 C19.6,32.8 19.6,32.8 19.5,32.4 C19.8,32.4 20,32.4 20,32.8 L20,32.8 L20,32.8 Z M27.9,17.3 C27.9,17.2 28,17.1 28,17 C28.1,17.1 28.1,17.1 28.2,17.2 L28.2,17.6 C28.1,17.5 28,17.4 27.9,17.3 L27.9,17.3 L27.9,17.3 Z M20.1,16.1 C19.8,15.6 20.4,15.6 20.3,15.3 C20.3,15.3 20.4,15.3 20.4,15.4 C20.4,15.6 20.3,15.8 20.1,16.1 L20.1,16.1 L20.1,16.1 Z M18.7,23.6 C18.9,23.5 19,23.4 19.2,23.3 L19.2,23.8 C19,23.7 18.9,23.6 18.7,23.6 L18.7,23.6 L18.7,23.6 Z M21.6,38.3 C21.2,38.4 21.4,38.6 21.6,38.7 L21.5,38.8 C21.4,38.8 21.3,38.7 21.2,38.6 C21.1,38.6 21.1,38.4 21.1,38.4 C21.2,38.3 21.3,38.3 21.4,38.2 C21.6,38.2 21.6,38.2 21.6,38.3 L21.6,38.3 L21.6,38.3 Z M10,38.2 C9.7,38.4 9.5,38.3 9.5,37.9 C9.7,38 9.8,38.1 10,38.2 L10,38.2 L10,38.2 Z M13.2,15 C13.1,15.1 13,15.2 12.9,15.2 C12.8,15.2 12.7,15.1 12.7,15 C12.7,14.9 12.8,14.8 12.9,14.8 C13,14.8 13.1,14.9 13.2,15 L13.2,15 L13.2,15 Z M25.7,34.3 C25.6,34.1 25.5,34 25.5,34 C25.5,33.9 25.6,33.8 25.7,33.7 C25.8,33.8 25.9,33.8 25.9,33.9 C25.8,34 25.8,34.1 25.7,34.3 L25.7,34.3 L25.7,34.3 Z M28.7,26.2 C28.5,26.3 28.3,26.4 28.1,26.5 C28.1,26.5 28.1,26.4 28,26.4 C28.2,26.3 28.4,26.2 28.6,26 C28.7,26 28.7,26.1 28.7,26.2 L28.7,26.2 L28.7,26.2 Z M22.9,45 C23.2,45.1 23.4,45.2 23.7,45.3 C23.6,45.4 23.6,45.4 23.5,45.5 C23.3,45.4 23.1,45.3 23,45.2 C23,45.1 23.1,45 23.1,44.9 C23,44.9 23,45 22.9,45 L22.9,45 L22.9,45 Z M6.8,19.8 C6.7,19.9 6.6,20 6.5,20.2 C6.4,20.2 6.4,20.1 6.3,20.1 C6.4,20 6.5,19.9 6.6,19.8 C6.6,19.7 6.6,19.8 6.8,19.8 L6.8,19.8 L6.8,19.8 Z M27.3,14.5 L27.3,14 C27.5,14.1 27.6,14.2 27.7,14.3 C27.7,14.3 27.7,14.4 27.6,14.4 C27.6,14.4 27.5,14.4 27.3,14.5 L27.3,14.5 L27.3,14.5 Z M18.5,58 L19.2,58 L19.2,58.1 C19,58.1 18.7,58.1 18.5,58.2 L18.5,58 L18.5,58 Z M21.1,35.3 C20.9,35.5 20.9,35.7 21.3,35.7 C21,35.8 20.8,35.7 20.8,35.5 C20.8,35.4 20.9,35.3 21,35.2 C21,35.3 21.1,35.3 21.1,35.3 L21.1,35.3 L21.1,35.3 Z M22.7,44.6 C22.5,44.7 22.4,44.8 22.2,44.9 L22.1,44.8 C22.1,44.8 22.1,44.7 22.2,44.7 C22.3,44.6 22.4,44.5 22.7,44.6 C22.6,44.5 22.7,44.5 22.7,44.6 L22.7,44.6 L22.7,44.6 Z M23.3,37.9 C23.2,38.2 23.2,38.5 23.1,38.8 L22.9,38.8 C23,38.5 23,38.2 23.1,37.9 L23.3,37.9 L23.3,37.9 Z M20.7,26.6 C20.3,26.1 20.3,26.1 20.4,25.9 C20.5,26.3 20.6,26.5 20.7,26.6 L20.7,26.6 L20.7,26.6 Z M26.3,35.5 C26.3,35.4 26.4,35.2 26.4,35.1 C26.4,35.1 26.5,35.1 26.6,35.2 C26.4,35.3 26.4,35.5 26.3,35.5 L26.3,35.5 L26.3,35.5 L26.3,35.5 Z M15.4,10.7 C15.4,10.9 15.5,11.2 15.5,11.4 L15.4,11.4 C15.4,11.2 15.3,10.9 15.4,10.7 C15.3,10.8 15.3,10.7 15.4,10.7 L15.4,10.7 L15.4,10.7 Z M21.5,37.9 C21.4,38 21.4,38 21,37.7 C21.1,37.6 21.1,37.5 21.2,37.5 C21.3,37.6 21.4,37.8 21.5,37.9 L21.5,37.9 L21.5,37.9 Z M19.8,57.8 L19.8,58.3 L19.6,58.3 C19.6,58.2 19.5,58.1 19.6,58 C19.6,57.8 19.8,57.8 19.8,57.8 L19.8,57.8 L19.8,57.8 Z M27.9,17.3 C27.8,17.4 27.7,17.5 27.6,17.4 C27.5,17.4 27.4,17.2 27.2,17.2 C27.2,17.2 27.2,17.1 27.3,17.1 L27.4,17.1 C27.6,17.4 27.8,17.3 27.9,17.3 L27.9,17.3 L27.9,17.3 Z M7.8,37.9 C8.2,37.7 8.3,37.7 8.5,38.1 C8.2,38 8,37.9 7.8,37.9 L7.8,37.9 L7.8,37.9 Z M21.4,38.9 C21.5,39.1 21.6,39.2 21.7,39.4 C21.6,39.4 21.4,39.4 21.4,39.3 C21.3,39.2 21.3,39.1 21.4,38.9 C21.3,38.9 21.4,38.9 21.4,38.9 L21.4,38.9 L21.4,38.9 Z M21.9,41.9 L21.9,42.1 C22,42.1 22.1,42.1 22.2,42.2 L22.2,42.3 C22.1,42.3 22,42.4 21.9,42.4 C21.8,42.3 21.7,42.2 21.7,42.1 C21.6,42 21.8,41.9 21.9,41.9 L21.9,41.9 L21.9,41.9 Z M17.6,42.9 C17.5,42.7 17.5,42.6 17.5,42.5 C17.5,42.4 17.6,42.4 17.7,42.3 C17.8,42.4 17.8,42.4 17.8,42.5 C17.6,42.6 17.6,42.7 17.6,42.9 L17.6,42.9 L17.6,42.9 Z M13.6,42.6 C13.5,42.4 13.6,42.2 13.7,42.1 L13.9,42.1 C13.9,42.2 13.9,42.2 13.8,42.3 C13.8,42.4 13.7,42.5 13.6,42.6 L13.6,42.6 L13.6,42.6 Z M20.7,34.8 C20.9,34.9 21,35 21.1,35.1 C21.1,35.1 21.1,35.1 21.1,35.2 C20.9,35.2 20.8,35.1 20.6,35.1 L20.6,35 C20.6,34.9 20.6,34.8 20.7,34.8 L20.7,34.8 L20.7,34.8 Z M6.8,56.4 C6.7,56.5 6.6,56.6 6.5,56.5 C6.4,56.5 6.3,56.4 6.3,56.3 C6.3,56.3 6.4,56.1 6.5,56.1 C6.6,56.2 6.6,56.3 6.8,56.4 L6.8,56.4 L6.8,56.4 Z M19,22.3 C18.9,22.3 18.7,22.3 18.6,22.2 C18.5,22.1 18.6,22 18.6,21.8 C18.8,22 18.9,22.1 19,22.3 L19,22.3 L19,22.3 Z M16.5,46.5 C16.4,46.2 16.3,46 16.2,45.7 L16.3,45.7 C16.4,46 16.5,46.2 16.5,46.5 L16.5,46.5 L16.5,46.5 Z M18.8,37.7 C18.7,37.7 18.6,37.8 18.6,37.8 C18.5,37.8 18.4,37.7 18.4,37.6 L18.5,37.4 C18.6,37.5 18.7,37.5 18.8,37.7 C18.7,37.6 18.8,37.6 18.8,37.7 L18.8,37.7 L18.8,37.7 Z M47.6,35.9 L47.6,35.7 C47.6,35.6 47.6,35.5 47.5,35.5 C47,35.4 46.8,34.9 46.4,34.6 C46,34.4 45.7,34.1 45.4,33.8 C45.1,33.5 44.8,33.1 44.5,32.8 C44.4,32.6 44.2,32.5 44,32.3 C43.9,32.2 43.9,32.1 43.8,32.1 C43.7,32 43.6,31.8 43.4,31.7 C43.3,31.5 43.1,31.3 43,31.1 C42.9,30.8 42.6,30.9 42.5,30.8 C42.4,30.7 42.3,30.7 42.3,30.6 L42.4,30.4 C42.5,30.4 42.6,30.5 42.7,30.5 L42.9,30.5 C42.8,30.2 42.7,29.9 42.5,29.7 C41.9,28.7 41.4,27.8 40.9,26.8 C40.8,26.6 40.8,26.4 40.7,26.3 C40.7,26.2 40.5,26.2 40.5,26.1 C40.4,26.1 40.3,26 40.2,26 C40.3,25.9 40.3,25.8 40.4,25.8 C40.4,25.8 40.5,25.8 40.5,25.7 L40.2,25.7 C40.3,25.6 40.4,25.5 40.5,25.4 C40.1,25.2 39.9,25.5 39.7,25.5 C39.6,25.5 39.5,25.6 39.4,25.6 C39.3,25.6 39.3,25.5 39.2,25.4 C39.2,25.4 39.3,25.3 39.3,25.2 C39.5,25.1 39.6,25.1 39.8,25 C40.1,24.9 40.1,24.7 40,24.5 C39.9,24.4 39.9,24.3 39.8,24.1 C39.8,24 39.7,23.9 39.7,23.8 C39.7,23.7 39.7,23.5 39.6,23.4 C39.6,23.2 39.5,23 39.4,22.8 C39.3,22.6 39.3,22.4 39.2,22.3 C39,22.1 39,21.9 39.1,21.7 C39.2,21.5 39.1,21.3 38.9,21.2 C38.6,21.1 38.6,20.9 38.9,20.7 C38.8,20.6 38.6,20.5 38.4,20.4 C38.6,20.2 38.7,20.1 38.9,19.8 C39.1,20.4 39.2,20.9 39.4,21.3 C39.7,22.3 39.9,23.2 40.2,24.2 C40.4,24.9 40.7,25.4 41,26 C41.6,27.1 42.1,28.2 42.8,29.3 C43.1,29.8 43.4,30.4 43.7,30.8 C43.9,31.1 44.1,31.5 44.5,31.7 C44.5,31.7 44.5,31.8 44.6,31.8 C44.8,32 45,32.2 45.1,32.5 C45.3,32.9 45.7,33 45.9,33.3 C45.9,33.3 46,33.3 46,33.4 C46.5,34.1 47.1,34.5 47.8,34.9 C48.2,35.2 48.7,35.4 49,35.6 C49.3,35.8 49.7,36 50,36.2 C51.1,36.9 52.1,37.4 53.3,37.9 C53.9,38.2 54.4,38.5 55,38.8 C55.4,39 55.6,39.7 55.4,40.1 C55.3,39.8 55.2,39.6 55.1,39.3 C55,39.2 55,39.1 54.9,39 C54.5,38.8 54,38.6 53.6,38.3 C53.3,38.2 53.1,38.1 52.8,37.9 L52.8,37.9 C52.3,37.9 52,37.5 51.7,37.3 C51.4,37.2 51.1,37.1 50.8,37 C50.7,37 50.7,36.9 50.6,36.9 C50.5,36.8 50.3,36.7 50.2,36.6 C49.9,36.4 49.7,36.3 49.5,36.1 C49.4,36 49.3,35.9 49.3,35.9 C49,36 48.9,35.7 48.7,35.6 C48.5,35.4 48.3,35.3 48,35.2 C48,35.2 47.9,35.2 47.9,35.1 C48,35.8 47.8,35.7 47.6,35.9 L47.6,35.9 L47.6,35.9 Z M31,12 C31.1,11.9 31.2,11.8 31.2,11.8 C31,11 31.2,10.4 31.1,9.6 C31.1,9.4 30.9,9.2 30.8,9 C30.9,9 31.1,8.9 31.2,8.8 C31.4,8.8 31.6,8.8 31.6,9.1 L31.6,10.2 C31.6,10.8 31.7,11.3 31.7,11.8 C31.7,12 31.9,12.2 32.1,12.4 C32.3,11.9 32.8,12.1 33.1,12 C33.4,11.9 33.8,11.9 34.1,11.8 C34.3,11.7 34.5,11.6 34.3,11.3 C34.2,10.9 34.1,10.5 34,10.2 C33.9,9.7 33.8,9.3 33.7,8.9 C33.7,8.8 33.7,8.6 33.8,8.6 C34,8.5 34.1,8.5 34.3,8.6 C34.3,8.6 34.4,8.8 34.4,8.9 L34.4,9.4 C34.3,9.6 34.3,9.7 34.3,9.8 C34.4,10.2 34.5,10.6 34.6,10.9 C34.7,11.3 34.7,11.7 34.5,12 C34.4,12.1 34.4,12.3 34.3,12.4 C34.2,12.5 34.2,12.5 34.1,12.6 C34.2,12.7 34.2,12.9 34.3,13.1 C34,13.3 33.6,13.4 33.3,13.6 L33.3,13.8 C33.3,13.8 33.4,13.9 33.5,13.9 L33.5,14 C33.4,13.9 33.2,13.9 33.1,13.8 C33.2,13.6 33.4,13.5 33.5,13.3 L33.7,13.3 C33.6,13.3 33.5,13.3 33.4,13.2 L33.5,13.1 C33.6,13.1 33.7,13.2 33.7,13.1 C33.8,13.1 33.9,13 34.1,12.9 C34,12.8 34,12.5 33.9,12.5 C33.6,12.4 33.3,12.4 33,12.4 C32.7,12.4 32.5,12.9 32.7,13.2 C32.9,13.6 32.8,14 32.9,14.3 C33,14.6 33,14.9 33,15.2 L33,15.3 C32.9,15.7 33,16.1 33.1,16.4 C33.2,16.8 33.1,17.2 33.4,17.5 L33.4,17.8 C33.3,17.7 33.2,17.7 33.1,17.6 C33,17.4 33,17.1 32.9,16.9 C32.8,16.6 32.7,16.2 32.6,15.9 C32.5,15.6 32.5,15.2 32.5,14.9 C32.4,14.2 32.4,13.5 32.3,12.8 C32.3,12.3 31.9,12.2 31.5,12.5 C31.5,12.3 31.4,12.2 31.4,12 L31.3,12 C31.3,12.1 31.3,12.1 31.2,12.3 C31.2,12.4 31.1,12.1 31,12 L31,12 L31,12 Z M38.9,20.4 C38.7,19.5 38.6,18.7 38.4,17.8 L38.3,17.8 C38.2,17.7 38.1,17.5 38.1,17.4 C38.1,17.3 38.2,17.2 38.2,17.2 L38.3,17.2 C38.2,17.1 38.1,17 38.1,16.8 C38,16.5 38,16.3 38,16 C38,15.9 38,15.8 37.9,15.8 L37.9,15.4 L37.9,15.1 C37.7,14.6 37.5,14.1 37.4,13.7 C37.3,13.4 37.4,13.1 37.3,12.8 C37.3,12.6 37.2,12.3 37.2,12.1 C37,11.7 37.3,11.4 37.3,11 C37.1,10.8 36.9,10.6 36.7,10.4 C37,10.2 37.1,10.2 37.2,10.5 C37.4,10.9 37.5,11.4 37.5,11.7 C37.5,12 37.6,12.2 37.6,12.5 C37.8,13.3 38,14.1 38.1,14.9 C38.2,15.5 38.2,16 38.3,16.5 C38.4,17 38.5,17.5 38.6,17.9 C38.6,18.1 38.7,18.4 38.7,18.7 C38.8,19.1 38.9,19.5 39,19.8 C39.2,20.2 39.2,20.4 38.9,20.4 L38.9,20.4 L38.9,20.4 Z M42.8,21.7 C42.9,21.7 43,21.8 43.1,21.8 C43.1,22.1 43.2,22.3 43.2,22.5 C43.2,22.5 43.3,22.5 43.3,22.6 C43.3,22.5 43.3,22.5 43.4,22.4 C43.5,22.6 43.5,22.9 43.2,22.9 C42.9,22.9 42.7,22.9 42.6,22.6 C42.6,22.5 42.5,22.3 42.4,22.2 C42.2,22.7 42.4,23.2 42.7,23.3 C42.9,23.4 43.5,23.1 43.6,22.8 C43.6,22.7 43.7,22.7 43.8,22.6 C43.8,22.7 43.9,22.8 43.9,22.9 C43.9,23.3 43.7,23.5 43.4,23.7 C43,23.9 42.6,23.8 42.3,23.6 C42,23.4 41.7,23.1 41.9,22.6 L41.9,22.4 C41.8,22 42.1,21.6 42.5,21.5 C42.8,21.2 42.8,21.3 42.8,21.7 L42.8,21.7 L42.8,21.7 Z M42.5,16.6 C42.4,17.1 41.8,17.2 41.7,17.6 C41.8,17.7 41.9,17.7 41.9,17.8 C41.7,18.1 41.3,17.9 41,17.4 C41,17.5 40.9,17.7 41,17.8 C41.1,18.2 41.7,18.3 42.1,18.1 C42.3,17.9 42.6,17.8 42.8,17.6 C42.6,18 42.4,18.4 41.9,18.5 C41.6,18.6 41.3,18.6 41,18.4 C40.7,18.1 40.5,17.9 40.7,17.5 L40.7,17.2 C40.6,16.7 41.1,16.2 41.6,16.3 L41.7,16.5 C41.6,16.6 41.4,16.7 41.2,16.7 C41.2,16.8 41.1,16.8 41.1,16.9 L41.1,17.1 L41.3,17.1 C41.5,16.9 41.8,16.9 42,17 C42.1,16.8 42.3,16.7 42.5,16.6 L42.5,16.6 L42.5,16.6 Z M41.8,12.6 C41.5,13.4 41.2,13.5 40.7,13.5 C40.3,13.5 40,13.2 39.8,12.8 C39.8,12.7 39.8,12.5 39.9,12.5 C40.1,12.4 40.1,12.2 40,12.1 C39.8,11.8 39.9,11.6 40.2,11.4 C40.5,11.2 40.7,11.1 41,11.2 C40.8,11.3 40.7,11.4 40.6,11.5 C40.5,11.6 40.5,11.8 40.4,11.9 C40.7,11.7 41,11.5 41.4,11.8 C41.5,11.8 41.6,11.7 41.7,11.8 C41.8,11.8 42,11.9 42.1,11.9 L42.1,12 C41.8,12 41.5,12.1 41.3,12.1 C41,12.1 40.9,12.2 40.8,12.4 C40.8,12.5 40.8,12.6 40.9,12.7 C40.9,12.8 41,12.8 41.1,12.9 C40.7,12.8 40.5,12.6 40.5,12.2 C40.3,12.5 40.4,13 40.8,13.3 C41,13.5 41.3,13.3 41.5,13.1 C41.5,12.8 41.6,12.7 41.8,12.6 L41.8,12.6 L41.8,12.6 Z M44.9,27.8 C45,27.8 45,27.9 45.1,27.9 L45.1,27.4 C44.5,27.5 44.4,27.1 44.2,26.8 C43.9,27 43.9,27.1 44.6,27.9 C44.2,28 43.6,27.5 43.7,27 L43.7,26.5 C43.8,26.3 43.9,26 44,25.8 L44.3,25.8 C44.4,26.1 44.7,26.1 44.9,26.1 L45.1,26.1 C45.1,26.2 45,26.3 45,26.4 C45.3,26.6 45.4,26.8 45.2,27.1 C45.4,27 45.6,26.9 45.6,27 C45.8,27.2 45.7,27.4 45.5,27.5 C45.4,27.6 45.2,27.7 45,27.8 C44.9,27.8 44.8,27.7 44.7,27.6 C44.9,27.9 44.9,27.8 44.9,27.8 L44.9,27.8 L44.9,27.8 Z M38.2,12.6 C38.5,12.6 38.5,12.6 38.5,12.2 C38.4,12.2 38.3,12.3 38.2,12.2 C38.1,12.2 38,12.1 38,12.1 L38,11.9 C38.2,11.9 38.2,11.8 38.2,11.7 C38.2,11.6 38,11.6 37.9,11.5 C38,11.3 38,11.1 38.1,10.9 L38.2,10.8 C38.2,10.9 38.3,11 38.3,11.1 C38.4,11.4 38.4,11.8 38.4,12.1 C38.5,12.4 38.5,12.8 38.6,13.1 C38.7,13.5 38.8,13.8 38.8,14.2 C38.9,14.9 39,15.4 39.1,16.1 C39.1,16.4 39.2,16.7 39.2,17 C39.2,17.1 38.9,17.2 38.7,17.3 L38.7,17 C39,17 38.9,16.7 38.9,16.5 C38.9,16 38.8,15.5 38.7,15.1 C38.6,15.1 38.5,15.1 38.4,15.2 L38.4,14.7 C38.5,14.7 38.6,14.7 38.7,14.8 L38.7,14.3 C38.6,14.2 38.2,14.4 38.3,14 L38.6,14 C38.6,13.8 38.6,13.7 38.5,13.6 C38.5,13.5 38.3,13.6 38.1,13.6 C38.1,13.5 38.1,13.3 38.2,13.1 C38.2,13 38.3,12.9 38.4,12.8 L38,12.8 C38.2,12.9 38.2,12.8 38.2,12.6 L38.2,12.6 L38.2,12.6 Z M42.7,28.7 C42.6,28.6 42.5,28.4 42.3,28.3 L42.4,28.2 C42.5,28.2 42.5,28.2 42.7,28.3 C42.6,28.1 42.6,28 42.5,27.9 L42.4,27.9 C42.4,28 42.3,28 42.3,28.2 C42.2,28 42.1,27.8 41.9,27.6 L42.3,27.6 C42.1,27.2 42,26.9 41.8,26.6 C41.8,26.6 41.9,26.6 41.9,26.5 C42,26.5 42.1,26.5 42.1,26.6 C42.3,26.9 42.4,27.2 42.5,27.6 L42.5,27.7 C42.8,27.9 42.9,28.3 43.1,28.6 C43.3,28.9 43.4,29.1 43.6,29.4 C43.8,29.7 43.9,30.1 44.1,30.4 C44.4,30.9 44.8,31.5 45.2,31.9 C45.3,32 45.3,32.1 45.3,32.2 C45,32.2 45.1,32.1 44.9,31.9 C44.8,31.8 44.7,31.5 44.5,31.7 C44.5,31.7 44.4,31.6 44.3,31.6 C44.3,31.5 44.4,31.5 44.5,31.4 C44.3,31 44.1,30.6 43.8,30.3 C43.7,30.1 43.6,29.9 43.4,29.8 L43.4,29.8 C43.4,29.7 43.3,29.5 43.3,29.4 C43.1,29.1 42.9,28.8 42.8,28.5 L42.7,28.5 L42.7,28.7 L42.7,28.7 L42.7,28.7 Z M40.7,23.6 C40.6,23.2 40.4,22.8 40.3,22.4 C40.1,21.5 40,20.7 39.7,19.8 C39.6,19.6 39.6,19.5 39.5,19.2 C39.4,19.4 39.4,19.4 39.4,19.6 C39.3,19.5 39.3,19.4 39.2,19.3 L39.3,19.2 C39.3,19 39.4,18.8 39.3,18.7 C39.3,18.3 39.2,17.9 39.1,17.6 C39.1,17.6 39.1,17.5 39.2,17.5 C39.2,17.6 39.3,17.7 39.3,17.8 C39.4,18.2 39.4,18.6 39.5,18.9 C39.6,19.3 39.7,19.8 39.9,20.1 C39.9,20.2 40.1,20.4 40.1,20.5 C40.2,20.8 40.2,21.2 40.3,21.5 C40.4,21.9 40.1,22.3 40.5,22.6 C40.6,22.6 40.5,22.8 40.6,22.9 C40.6,23 40.7,23.1 40.7,23.2 C40.7,23.3 40.7,23.4 40.7,23.6 C40.8,23.5 40.8,23.5 40.7,23.6 L40.7,23.6 L40.7,23.6 Z M33.3,14.4 C33.5,14.3 33.7,14.2 33.9,14.1 C33.8,14.3 33.7,14.5 33.7,14.6 C33.7,14.7 34,14.8 34.1,14.9 C33.9,15.1 33.7,15.2 33.4,15.4 C33.6,15.5 33.8,15.6 34.2,15.7 C34,15.9 33.8,16 33.6,16.1 C33.8,16.2 34,16.3 34.2,16.5 C34,16.7 33.8,16.8 33.7,16.9 C33.9,17 34.1,17.1 34.4,17.3 C34.3,17.4 34.2,17.4 34.1,17.4 C34,17.5 33.9,17.5 33.8,17.6 C33.9,17.7 34,17.8 34,17.8 C34,17.8 34,17.8 34,17.9 C33.9,17.8 33.7,17.8 33.6,17.7 C33.5,17.5 33.6,17.4 34,17.3 C33.9,17.2 33.7,17.1 33.6,17.1 C33.3,16.8 33.8,16.8 33.9,16.6 C33.7,16.5 33.5,16.3 33.4,16.2 C33.5,16.1 33.6,15.9 33.8,15.7 C33.6,15.6 33.4,15.5 33.1,15.4 C33.3,15.3 33.5,15.1 33.8,15 C33.4,14.8 33.2,14.7 33.3,14.4 L33.3,14.4 L33.3,14.4 Z M62,42 L65.3,42 C65.5,42 65.6,42.1 65.8,42.2 C64.5,42.7 63.4,42.3 62,42 L62,42 L62,42 Z M43.5,15.7 C43.5,15.6 43.4,15.5 43.4,15.4 C43.4,15.4 43.4,15.4 43.3,15.4 L43.3,16.2 C43.4,16.2 43.5,16.1 43.7,16.1 C43.7,16.1 43.7,16.2 43.8,16.2 C43.7,16.3 43.5,16.4 43.4,16.5 C43.4,16.5 43.2,16.4 43.2,16.3 C43.2,16 43.1,15.6 43.1,15.3 C43.1,15.1 43.1,14.9 43.3,14.9 C43.3,14.9 43.4,14.8 43.5,14.7 C43.3,14.7 43.2,14.8 43.1,14.8 L43.1,14.2 L43.2,14.2 C43.2,14.3 43.3,14.4 43.3,14.4 C43.3,14.4 43.4,14.4 43.4,14.3 C43.3,14.2 43.2,14.1 43.1,13.9 L43,13.8 C43,13.5 43,13.1 42.9,12.8 L43,12.8 C43,13 43.1,13.2 43.1,13.4 L43.2,13.4 C43.2,13.3 43.3,13.2 43.3,13.1 L43.4,13.1 C43.5,13.5 43.5,13.9 43.5,14.2 C43.5,14.5 43.6,15 43.7,15.4 C43.6,15.7 43.6,15.7 43.5,15.7 L43.5,15.7 L43.5,15.7 Z M55,38.5 C54.7,38.6 54.5,38.8 54.2,38.4 C54.4,38.5 54.5,38.5 54.6,38.5 C54.6,38.5 54.6,38.5 54.6,38.4 C53,37.6 51.4,36.8 49.8,36 C49.8,36 49.8,35.9 49.9,35.9 C50.5,36.1 51,36.5 51.5,36.8 C52,37.1 52.6,37.3 53.2,37.6 C53.9,37.9 54.5,38.2 55,38.5 L55,38.5 L55,38.5 Z M41.3,7.2 C41.2,7.4 41,7.6 40.9,7.8 L40.8,7.9 C40.6,8 40.3,7.8 40.1,7.4 C40,7.2 40,7 40.3,6.9 L40.4,6.8 C40.3,6.7 40.3,6.7 40.2,6.6 C40.2,6.6 40.2,6.6 40.2,6.5 C40.6,6.6 40.9,6.7 41.2,6.8 C41.3,6.9 41.3,7.1 41.3,7.2 L41.3,7.2 L41.3,7.2 Z M43.7,18.2 L44,18.2 C44.1,18.5 44.1,18.9 44.2,19.2 L44.1,19.2 C44,19 44,18.8 43.9,18.6 L43.8,18.6 C43.8,19.4 44.1,20 44.3,20.8 C44.4,20.7 44.6,20.7 44.7,20.7 C44.7,20.7 44.7,20.8 44.8,20.8 C44.7,20.9 44.5,21 44.3,21.2 C43.7,20.1 43.7,19 43.5,17.9 L43.6,17.9 C43.6,18 43.6,18 43.7,18.1 C43.6,18 43.7,18.1 43.7,18.2 L43.7,18.2 L43.7,18.2 Z M34.9,16.5 C34.8,16.3 34.8,16.1 34.7,15.8 C34.6,15.5 34.6,15.2 34.6,14.8 C34.6,14.7 34.5,14.5 34.4,14.5 C34.2,14.4 34.2,14.3 34.4,14.1 C34.6,13.9 34.5,13.7 34.4,13.6 C34.3,13.5 34.3,13.5 34.2,13.4 L34.3,13.3 C34.4,13.4 34.5,13.4 34.6,13.5 C34.7,13.8 34.8,14 34.8,14.3 C34.9,14.9 35,15.5 35.1,16.1 C35,16.4 35,16.4 34.9,16.5 L34.9,16.5 L34.9,16.5 Z M36.9,5.2 L36.9,6.7 L36.8,6.7 L36.8,6.5 C36.8,6 36.7,5.4 36.7,5 C36.7,4.8 36.8,4.6 36.9,4.5 C37,4.3 37.2,4.1 37.4,3.9 C37.1,4.4 36.8,4.9 37.2,5.4 L37.1,5.4 C37.1,5.3 37,5.3 36.9,5.2 L36.9,5.2 L36.9,5.2 Z M31.8,8.8 C32.1,8.5 32.5,8.4 32.9,8.4 L33.3,8.4 L33.4,8.5 C33.4,8.6 33.4,8.6 33.3,8.6 C33,8.9 32.3,8.9 31.8,8.8 L31.8,8.8 L31.8,8.8 Z M39.8,7.8 C40.3,8 40.8,8.4 41.2,7.8 L41.2,7.8 L41.2,7.6 L41.3,7.6 C41.3,7.7 41.4,7.7 41.4,7.8 C41.3,8.2 40.9,8.3 40.6,8.4 C40.4,8.5 40.1,8.3 39.8,8.2 C39.9,8.2 39.9,8 39.8,7.8 L39.8,7.8 L39.8,7.8 Z M37,7.3 C37.1,7.4 37.2,7.4 37.3,7.5 C37.4,8 37.5,8.5 37.5,9 L37.5,9.1 C37.3,8.9 37.1,8.6 37,8.4 C37,8.3 37.1,8.1 37.1,7.9 L37.1,7.6 C37.1,7.6 37,7.5 37,7.3 C36.9,7.4 36.9,7.3 37,7.3 L37,7.3 L37,7.3 Z M39,37.2 C38.9,37.1 38.7,37 38.7,36.9 L38.7,36.7 L38.7,36.2 L38.7,35.7 L38.8,35.7 C38.8,35.9 38.9,36.1 38.9,36.3 C39,36.2 39.1,36.2 39.3,36.1 C39.2,36.4 39.1,36.7 39,37 C39,37 39.1,37.1 39.2,37.2 C39.1,37.1 39.1,37.1 39,37.2 L39,37.2 L39,37.2 Z M39.3,35.7 C39.7,35.2 40.1,34.7 40.4,34.3 L40.5,34.3 L40.5,34.5 C40.3,34.7 40.4,35.1 40,35.1 L40,35.3 C39.8,35.5 39.6,35.7 39.4,35.8 C39.4,35.8 39.3,35.8 39.3,35.7 L39.3,35.7 L39.3,35.7 Z M38,7.4 C38,7.5 38.2,7.7 38.1,7.7 C38,7.9 38,8.1 38.1,8.3 L38.1,8.5 L38,8.5 C37.9,8.4 37.8,8.2 37.7,8.1 L37.3,8.1 C37.6,7.9 37.8,7.6 38,7.4 L38,7.4 L38,7.4 Z M42.8,6.5 C42.7,6.3 42.6,6.2 42.5,6.1 L42.4,6.1 C42.4,6.3 42.5,6.6 42.5,6.8 L42.4,6.8 C42.3,6.4 42.2,6 42,5.7 C42.6,5.8 42.8,6 42.8,6.5 L42.8,6.5 L42.8,6.5 Z M71.8,51.2 C72.1,50.7 72.2,50.1 72.7,49.9 C72.4,50.3 72.4,50.9 71.8,51.2 L71.8,51.2 L71.8,51.2 Z M35.2,19.6 C35,19.4 34.8,19.3 34.6,19.2 C34.6,19 34.7,18.8 34.8,18.7 L34.9,18.6 C34.9,18.6 35,18.6 35,18.7 C35,18.8 35,18.9 35.1,18.9 C35.1,19.1 35.2,19.3 35.2,19.4 C35.2,19.4 35.2,19.5 35.2,19.6 L35.2,19.6 L35.2,19.6 Z M71.6,50.1 C71,50.2 70.5,50.3 69.9,50.3 C70.2,50 70.9,50 71.6,50.1 L71.6,50.1 L71.6,50.1 Z M29.8,5.6 C29.3,5.7 28.9,5.7 28.5,5.8 C28.7,5.5 29.6,5.4 29.8,5.5 C29.7,5.5 29.7,5.5 29.8,5.6 L29.8,5.6 L29.8,5.6 Z M45.5,23.9 C45.4,23.8 45.3,23.8 45.3,23.7 C45.1,23.3 45,22.8 44.8,22.4 C44.8,22.3 44.8,22.2 44.9,22.1 C45.1,22.6 45.3,23.2 45.5,23.9 L45.5,23.9 L45.5,23.9 Z M43.5,29.7 C43.5,29.9 43.6,30 43.6,30.2 C43.2,29.8 42.8,29.4 42.7,28.9 L42.7,28.9 C42.8,29 42.9,29.1 43,29.2 C43.2,29.2 43.3,29.4 43.5,29.7 L43.5,29.7 L43.5,29.7 Z M47.5,28.8 L47.5,28.6 C47.4,28.3 47.2,28.1 47.1,27.8 C47.1,27.7 47,27.7 46.9,27.7 L46.9,27.4 L47,27.4 C47.3,27.9 47.6,28.4 47.9,28.8 C47.9,28.8 47.8,28.8 47.8,28.9 C47.7,28.9 47.6,28.9 47.5,28.8 L47.5,28.8 L47.5,28.8 Z M46.9,33.7 C47.4,34.1 47.9,34.5 48.3,34.8 L48.2,34.9 C47.7,34.5 47.2,34.1 46.8,33.8 C46.8,33.8 46.9,33.8 46.9,33.7 L46.9,33.7 L46.9,33.7 Z M40.9,24.8 C40.9,24.7 41,24.6 41,24.5 C41.3,24.5 41.3,24.8 41.2,24.9 C41.2,25 41.1,25.2 41,25.2 C40.7,25.1 40.7,24.9 40.6,24.6 C40.8,24.7 40.9,24.7 40.9,24.8 L40.9,24.8 L40.9,24.8 Z M42.7,11.6 C42.7,11.1 42.6,10.6 42.6,10.2 L42.7,10.2 C42.8,10.4 42.9,10.7 42.9,10.9 C42.9,11 42.8,11.3 42.7,11.6 L42.7,11.6 L42.7,11.6 Z M40.7,6.6 C40.6,6.4 40.6,6.4 40.5,6.3 C40.3,6.3 40.2,6.4 40,6.4 C40.1,6.1 40.5,5.9 40.6,6 C40.9,6.2 40.8,6.4 40.7,6.6 L40.7,6.6 L40.7,6.6 Z M35.4,24.6 C35.5,24.7 35.5,24.8 35.6,24.9 C35.4,25 35.3,25.1 35,25.2 C35.2,25.3 35.4,25.4 35.7,25.5 C35.7,25.5 35.7,25.5 35.7,25.6 C35.5,25.5 35.2,25.5 35,25.4 C35,25.3 35.1,25.1 35.1,25.1 C35.4,25 35.4,24.7 35.4,24.6 L35.4,24.6 L35.4,24.6 Z M34.3,23.8 C34.4,24.2 34.5,24.6 34.5,24.9 C34.5,25 34.4,25.1 34.3,25.2 C34.3,24.7 34.2,24.2 34.3,23.8 C34.2,23.8 34.3,23.8 34.3,23.8 L34.3,23.8 L34.3,23.8 Z M53,38 C52.7,37.8 52.4,37.7 52.1,37.5 C51.9,37.4 51.8,37.3 51.6,37.2 C51.7,37.2 51.8,37.2 51.9,37.3 C52.2,37.4 52.5,37.6 52.8,37.7 C52.9,37.8 52.9,37.9 53,38 L53,38 L53,38 Z M37.9,10.9 C38,10.7 38.1,10.5 38.3,10.3 C38.4,10.4 38.5,10.5 38.6,10.7 C38.3,10.8 38.1,10.9 37.9,10.9 L37.9,10.9 L37.9,10.9 Z M41.6,26 C41.9,26.3 41.9,26.3 41.4,26.6 C41.3,26.5 41.1,26.3 41.4,26.2 C41.6,26.2 41.6,26.1 41.6,26 L41.6,26 L41.6,26 Z M45.5,23.9 C45.7,24.4 45.9,24.9 46,25.3 L46,25.3 L45.9,25.3 C45.8,24.8 45.6,24.3 45.5,23.9 L45.5,23.9 L45.5,23.9 Z M37.9,4.7 C38,5 38,5.2 38.1,5.5 C38.1,5.6 38.1,5.6 38,5.7 C37.9,5.7 37.8,5.6 37.8,5.6 C37.7,5.2 37.7,4.9 37.9,4.7 L37.9,4.7 L37.9,4.7 Z M41.6,6.6 C41.8,6.7 42,7.1 41.9,7.3 C41.9,7.3 41.8,7.4 41.7,7.4 C41.6,7.4 41.6,7.3 41.6,7.2 C41.5,6.9 41.5,6.9 41.6,6.6 L41.6,6.6 L41.6,6.6 Z M56.8,36.5 C56.9,37 56.9,37.4 56.4,37.5 C56.5,37.2 56.6,36.9 56.8,36.5 L56.8,36.5 L56.8,36.5 Z M37.4,10.5 C37.4,10.4 37.3,10.3 37.3,10.2 C36.9,10 37,9.8 37.4,9.6 L37.4,10.5 L37.4,10.5 Z M37.2,35.6 C37,35.5 36.8,35.4 36.5,35.3 C36.6,35.2 36.7,35.1 36.7,35 C36.8,35.2 37,35.3 37.2,35.6 C37.2,35.5 37.2,35.5 37.2,35.6 L37.2,35.6 L37.2,35.6 Z M37.4,26.9 C37.5,26.8 37.5,26.7 37.6,26.6 C37.7,26.5 37.9,26.5 38.1,26.5 C38.1,26.5 38.1,26.6 38.2,26.6 C37.8,26.7 37.5,26.8 37.4,26.9 L37.4,26.9 L37.4,26.9 Z M38.1,34.1 C38.2,33.8 38.2,33.5 38.3,33.2 C38.6,33.4 38.5,33.8 38.1,34.1 L38.1,34.1 L38.1,34.1 Z M35.3,26 C35.5,26.1 35.6,26.2 35.8,26.2 L35.8,26.3 C35.6,26.2 35.4,26.2 35.3,26 L35.2,25.8 C35.2,25.8 35.3,25.8 35.4,25.7 C35.3,25.8 35.3,25.9 35.3,26 L35.3,26 L35.3,26 Z M53,38 C53.1,37.9 53.3,37.8 53.5,38 C53.6,38.1 53.8,38.1 53.9,38.2 C54,38.2 54.1,38.3 54.1,38.4 C53.7,38.3 53.3,38.2 53,38 L53,38 L53,38 Z M34.9,9.4 C34.8,9.1 34.8,8.9 34.7,8.6 L35,8.6 C35,8.9 35,9.1 34.9,9.4 L34.9,9.4 L34.9,9.4 Z M34.4,20.7 L34.7,20.7 C34.6,20.8 34.6,20.8 34.5,20.9 C34.6,21 34.7,21 34.8,21.1 C34.9,21.2 35,21.2 35,21.3 C34.9,21.1 34.3,21.2 34.4,20.7 L34.4,20.7 L34.4,20.7 Z M35.8,27.9 C35.7,28 35.7,28.1 35.6,28.1 C35.8,28.2 36,28.3 36.2,28.4 L36.2,28.5 C36.1,28.5 35.9,28.4 35.8,28.4 L35.5,28.1 C35.5,28 35.6,27.9 35.8,27.9 C35.7,27.8 35.7,27.9 35.8,27.9 L35.8,27.9 L35.8,27.9 Z M35.6,27.2 C35.5,27.2 35.5,27.3 35.4,27.4 C35.5,27.4 35.6,27.5 35.7,27.5 L35.7,27.6 C35.6,27.6 35.4,27.7 35.3,27.6 C35.2,27.6 35.2,27.4 35.2,27.3 C35.3,27.2 35.4,27.2 35.6,27.2 C35.6,27.1 35.6,27.2 35.6,27.2 L35.6,27.2 L35.6,27.2 Z M73.8,48 C74.1,47.9 74.3,47.7 74.6,47.6 L74.7,47.7 C74.3,47.8 74.2,48 73.8,48 C73.9,48.1 73.9,48.1 73.8,48 L73.8,48 L73.8,48 Z M43,17.3 C43.2,17.3 43.4,17.3 43.6,17.2 C43.6,17.4 43.5,17.5 43.5,17.7 C43.3,17.6 43.2,17.5 43,17.3 L43,17.3 L43,17.3 Z M38.1,9.5 C38.4,9.7 38.4,9.9 37.8,10.1 C38,9.9 38,9.7 38.1,9.5 L38.1,9.5 L38.1,9.5 Z M35.3,11.4 C34.9,10.9 35.6,10.9 35.5,10.7 C35.5,10.7 35.6,10.7 35.6,10.8 L35.3,11.4 L35.3,11.4 L35.3,11.4 Z M36,29 L35.6,29 C35.5,29 35.5,28.9 35.5,28.8 C35.5,28.7 35.6,28.6 35.6,28.5 C35.6,28.6 35.7,28.6 35.7,28.7 C35.8,28.7 35.9,28.8 36,29 L36,29 L36,29 Z M38.4,35.2 C38.5,35.1 38.6,34.9 38.7,34.8 C38.7,34.8 38.8,34.9 38.9,34.9 C38.8,35 38.7,35.2 38.6,35.3 C38.5,35.2 38.5,35.2 38.4,35.2 L38.4,35.2 L38.4,35.2 Z M35.8,22 C35.4,21.5 35.4,21.5 35.5,21.3 C35.6,21.6 35.7,21.8 35.8,22 L35.8,22 L35.8,22 Z M35.2,28.1 C34.8,28.1 34.8,28.1 34.7,27.7 C35,27.7 35.2,27.8 35.2,28.1 L35.2,28.1 L35.2,28.1 Z M41.5,30.9 C41.5,30.8 41.6,30.6 41.6,30.5 C41.7,30.5 41.8,30.6 41.9,30.6 C41.8,30.7 41.8,30.8 41.7,31 C41.6,30.9 41.6,30.9 41.5,30.9 L41.5,30.9 L41.5,30.9 Z M36.4,31.1 C36.1,31.2 36,31.1 35.9,30.9 C35.9,30.8 36,30.7 36.2,30.6 C36,30.9 36,31 36.4,31.1 L36.4,31.1 L36.4,31.1 Z M36.9,34.8 C36.7,34.7 36.6,34.7 36.5,34.6 C36.4,34.5 36.5,34.4 36.6,34.3 C36.7,34.4 36.7,34.6 36.9,34.8 L36.9,34.8 L36.9,34.8 Z M40.8,29.5 L40.8,29.1 L41,29.1 L41,29.5 L40.8,29.5 L40.8,29.5 Z M35.5,24.6 C35.3,24.7 35.1,24.8 35,24.6 C35,24.5 35,24.3 35.1,24.2 L35.2,24.2 C35.2,24.3 35.1,24.4 35.1,24.5 C35.2,24.5 35.3,24.5 35.5,24.6 C35.4,24.6 35.5,24.6 35.5,24.6 L35.5,24.6 L35.5,24.6 Z M33.8,18.9 C34,18.8 34.1,18.7 34.3,18.6 L34.3,19.1 C34.2,19 34,18.9 33.8,18.9 L33.8,18.9 L33.8,18.9 Z M43.3,13 C43.2,12.8 43.2,12.7 43.1,12.5 L43.1,12.4 L43.2,12.4 C43.2,12.6 43.3,12.8 43.3,13 L43.3,13 L43.3,13 Z M36.7,33.6 C36.6,33.6 36.6,33.7 36.4,33.7 C36.5,33.8 36.6,33.9 36.6,34 C36.6,34 36.6,34 36.6,34.1 C36.5,34.1 36.4,34 36.3,34 C36.2,33.9 36.2,33.8 36.2,33.7 C36.3,33.6 36.4,33.6 36.5,33.5 C36.7,33.5 36.7,33.6 36.7,33.6 L36.7,33.6 L36.7,33.6 Z M30.6,6 C30.6,6.2 30.7,6.5 30.7,6.7 L30.6,6.7 C30.6,6.5 30.5,6.2 30.6,6 C30.5,6.1 30.5,6.1 30.6,6 L30.6,6 L30.6,6 Z M43.4,21.8 C43.5,21.5 43.6,21.3 44,21.5 C43.8,21.6 43.6,21.7 43.4,21.8 L43.4,21.8 L43.4,21.8 Z M36.2,29.7 C35.9,29.8 35.7,29.7 35.7,29.5 C35.7,29.4 35.9,29.3 36,29.2 C35.7,29.4 35.7,29.6 36.2,29.7 L36.2,29.7 L36.2,29.7 Z M36.6,33.3 C36.4,33.4 36.3,33.1 36.2,33.1 L36.1,33 L36.3,32.8 C36.5,33 36.5,33.1 36.6,33.3 L36.6,33.3 L36.6,33.3 Z M45.9,33.2 C45.9,33 45.8,32.9 45.8,32.7 C45.8,32.7 45.9,32.7 45.9,32.6 C46,32.7 46.1,32.8 46.3,33 C46,33.1 46,33.1 45.9,33.2 L45.9,33.2 L45.9,33.2 Z M42.6,9.3 C42.8,9.5 42.9,9.6 43.1,9.7 C42.9,9.8 42.8,9.8 42.6,9.8 L42.6,9.3 L42.6,9.3 Z M35.7,30.2 C35.8,30.2 35.8,30.1 35.9,30.1 L36.2,30.4 C36.2,30.4 36.2,30.4 36.2,30.5 C36,30.5 35.9,30.4 35.7,30.4 L35.7,30.2 L35.7,30.2 L35.7,30.2 Z M38,26.5 C38.3,26.4 38.5,26.3 38.8,26.3 C38.8,26.3 38.8,26.3 38.8,26.4 C38.6,26.5 38.5,26.6 38.3,26.7 C38.2,26.6 38.1,26.5 38,26.5 L38,26.5 L38,26.5 Z M43.1,12.7 C42.9,12.8 42.7,12.6 42.6,12.5 C42.6,12.5 42.6,12.4 42.7,12.4 L42.8,12.4 C42.8,12.5 42.9,12.6 43.1,12.7 L43.1,12.7 L43.1,12.7 Z M35.2,19.9 C35.3,20 35.4,20 35.4,20.1 C35.4,20.3 35.3,20.5 35.2,20.6 L35.1,20.6 C35.2,20.3 35.2,20.1 35.2,19.9 L35.2,19.9 L35.2,19.9 Z M8.1,34.5 C8.2,34.5 8.4,34.5 8.4,34.6 C8.8,35.2 9.2,35.8 9.5,36.5 L9.4,36.6 C9.3,36.4 9.1,36.3 9,36.1 C8.7,35.7 8.4,35.2 8.2,34.9 C8.2,34.7 8.2,34.6 8.1,34.5 L8.1,34.5 L8.1,34.5 Z M9.6,32.2 C9.9,32.7 10.2,33.2 10.5,33.6 C10.2,33.4 9.5,32.5 9.6,32.2 L9.6,32.2 L9.6,32.2 Z M11.5,36.7 C11.5,36.9 11.6,37 11.6,37.2 L11.4,37.2 C11.4,37 11.3,36.9 11.3,36.7 L11.5,36.7 L11.5,36.7 Z M11.2,35.9 C11.3,36 11.3,36.1 11.4,36.3 C11.4,36.4 11.3,36.5 11.3,36.5 C11.3,36.4 11.2,36.4 11.2,36.3 C11.1,36.1 11.1,36 11.2,35.9 C11.1,35.9 11.2,35.9 11.2,35.9 L11.2,35.9 L11.2,35.9 Z M11.7,37.5 L11.7,38 C11.4,37.7 11.4,37.6 11.7,37.5 L11.7,37.5 L11.7,37.5 Z" id="Shape"></path>
                        </g>
                    </g>
                </g>
            </g>
        </g>
    </g>
</svg>