<?xml version="1.0" encoding="UTF-8" standalone="no"?>
<svg width="82px" height="53px" viewBox="0 0 82 53" version="1.1" xmlns="http://www.w3.org/2000/svg" xmlns:xlink="http://www.w3.org/1999/xlink" xmlns:sketch="http://www.bohemiancoding.com/sketch/ns">
    <!-- Generator: Sketch 3.3 (11970) - http://www.bohemiancoding.com/sketch -->
    <title>bike</title>
    <desc>Created with Sketch.</desc>
    <defs></defs>
    <g id="Page-1" stroke="none" stroke-width="1" fill="none" fill-rule="evenodd" sketch:type="MSPage">
        <g id="summer-offer-page-copy-4" sketch:type="MSArtboardGroup" transform="translate(-239.000000, -1572.000000)" fill="#000000">
            <g id="Group" sketch:type="MSLayerGroup" transform="translate(64.000000, 1393.000000)">
                <g id="bike" transform="translate(175.000000, 179.000000)" sketch:type="MSShapeGroup">
                    <path id="Shape" d="M32.3,2.4 C32.5,2.3 32.5,2.2 32.6,2.2 C32.4,1.9 32,2.3 32.3,2.4 L32.3,2.4 Z"></path>
                    <path id="Shape" d="M22.7,2.8 C22.5,2.8 22.7,3 22.7,2.8 C22.6,2.8 22.7,2.9 22.7,2.8 L22.7,2.8 Z"></path>
                    <path d="M31.5,2.9 C31.4,2.9 30.9,4 31,4.3 C31.1,4 31.6,3.2 31.5,2.9 C31.4,2.9 31.5,3 31.5,2.9 L31.5,2.9 Z" id="Shape"></path>
                    <path id="Shape" d="M22.4,3.5 C22.4,3.5 22.6,4.9 22.2,4.9 C22.2,5.2 22.5,5.1 22.5,4.8 C22.6,4.5 22.7,3.9 22.4,3.5 C22.4,3.5 22.6,3.8 22.4,3.5 L22.4,3.5 Z"></path>
                    <path id="Shape" d="M22.2,3.7 C22.2,3.9 22.1,4.1 22.2,4.3 C22.3,4.3 22.4,3.7 22.2,3.7 L22.2,3.7 Z"></path>
                    <path id="Shape" d="M22,4.1 C21.8,4.1 21.8,4.6 21.9,4.6 C22,4.5 22,4.3 22,4.1 C22,4.1 22,4.2 22,4.1 L22,4.1 Z"></path>
                    <path id="Shape" d="M31,4.2 C30.8,4.4 30.5,5 30.6,5.1 C30.8,5.2 31,4.4 31,4.2 C30.8,4.4 30.9,4.5 31,4.2 L31,4.2 Z"></path>
                    <path id="Shape" d="M22.3,4.5 C22,4.4 22.3,4.8 22.3,4.5 C22.2,4.5 22.3,4.5 22.3,4.5 L22.3,4.5 Z"></path>
                    <path id="Shape" d="M48.9,4.9 C49,5 49.1,4.9 49.1,4.8 C49.1,4.7 48.8,4.8 48.9,4.9 L48.9,4.9 Z"></path>
                    <path id="Shape" d="M21.9,4.9 L22.1,4.9 C22,4.8 21.9,4.8 21.9,4.9 L21.9,4.9 Z"></path>
                    <path id="Shape" d="M49.6,5.2 C49.6,5.4 49.8,5.3 49.8,5.2 C49.7,5.2 49.6,5.1 49.6,5.2 L49.6,5.2 Z"></path>
                    <path id="Shape" d="M25.4,5.2 C24.9,5 25.6,5.8 25.6,5.4 C25.6,5.3 25.5,5.2 25.4,5.2 C25.2,5.2 25.5,5.3 25.4,5.2 L25.4,5.2 Z"></path>
                    <path id="Shape" d="M50.1,5.3 C50.1,5.3 50.4,5.6 50.1,5.3 L50.1,5.3 L50.1,5.3 Z"></path>
                    <path id="Shape" d="M50.5,5.4 C50.5,5.5 50.6,5.5 50.7,5.5 C50.7,5.4 50.6,5.3 50.5,5.4 L50.5,5.4 Z"></path>
                    <path id="Shape" d="M51.1,5.5 C51.1,5.4 50.9,5.6 51.1,5.5 L51.1,5.5 L51.1,5.5 Z"></path>
                    <path id="Shape" d="M51.4,5.5 C51.4,6 51.8,5.2 51.4,5.5 C51.4,5.6 51.5,5.5 51.4,5.5 L51.4,5.5 Z"></path>
                    <path id="Shape" d="M51.8,5.6 C51.8,5.7 51.9,5.7 52,5.7 C52,5.5 51.9,5.5 51.8,5.6 L51.8,5.6 Z"></path>
                    <path id="Shape" d="M52.1,5.7 C52.1,5.8 52.3,5.9 52.4,5.8 C52.5,5.6 52.1,5.4 52.1,5.7 L52.1,5.7 Z"></path>
                    <path id="Shape" d="M25,5.6 C25,5.8 25.2,5.8 25.2,5.8 C25.3,5.7 25.1,5.5 25,5.6 L25,5.6 Z"></path>
                    <path id="Shape" d="M52.6,5.7 C52.7,5.9 55.2,6.3 55.3,6 C55.1,5.7 52.6,5.6 52.6,5.7 C52.6,5.8 52.6,5.7 52.6,5.7 L52.6,5.7 Z"></path>
                    <path id="Shape" d="M50.5,5.7 C50.5,5.8 50.7,5.8 50.7,5.8 C50.6,5.7 50.5,5.6 50.5,5.7 L50.5,5.7 Z"></path>
                    <path id="Shape" d="M21.7,5.8 C21.9,6 22,5.6 21.7,5.8 L21.7,5.8 L21.7,5.8 Z"></path>
                    <path id="Shape" d="M51.4,5.8 C51.3,6.2 51.7,5.8 51.4,5.8 C51.4,5.9 51.4,5.8 51.4,5.8 L51.4,5.8 Z"></path>
                    <path id="Shape" d="M51.7,5.9 C51.8,6 52,5.9 51.7,5.9 C51.7,6 51.8,5.9 51.7,5.9 L51.7,5.9 Z"></path>
                    <path id="Shape" d="M52.1,6 C52.1,6.2 54.7,6.4 54.7,6.2 C54.7,6.2 52.2,5.8 52.1,6 C52.1,6.2 52.2,5.9 52.1,6 L52.1,6 Z"></path>
                    <path d="M49.6,6 C49.5,6.4 49.6,6.7 49.8,6.9 C49.6,6.9 49.6,7 49.4,7 C49.2,7.3 50.5,7.5 50.6,7.5 C50.8,7.2 49.7,6 49.6,6 C49.5,6.3 49.6,6 49.6,6 L49.6,6 Z" id="Shape"></path>
                    <path id="Shape" d="M50.8,6.2 C50.8,6.3 51,6.4 51,6.2 C51.1,6.1 50.8,6 50.8,6.2 L50.8,6.2 Z"></path>
                    <path id="Shape" d="M51.3,6.2 C51.3,6.4 51.5,6.4 51.5,6.3 C51.6,6.2 51.3,6.1 51.3,6.2 L51.3,6.2 Z"></path>
                    <path id="Shape" d="M51.7,6.3 C51.7,6.5 51.8,6.5 51.9,6.4 C51.8,6.3 51.7,6.2 51.7,6.3 C51.7,6.3 51.7,6.2 51.7,6.3 L51.7,6.3 Z"></path>
                    <path id="Shape" d="M52,6.3 C52.1,6.5 54,6.7 54.1,6.5 C54.1,6.4 52.2,6.3 52,6.3 C52.1,6.5 52.3,6.3 52,6.3 L52,6.3 Z"></path>
                    <path id="Shape" d="M51,6.6 C51.2,6.8 53.3,7.1 53.5,6.9 C53.4,6.7 51,6.5 51,6.6 C51.1,6.6 51,6.5 51,6.6 L51,6.6 Z"></path>
                    <path id="Shape" d="M53.8,7 C53.9,7.1 54,7 54,6.8 C54,6.9 53.8,6.9 53.8,7 L53.8,7 Z"></path>
                    <path id="Shape" d="M51.4,7 C51.5,7.2 52.3,7.3 52.5,7.2 C52.3,7 51.4,6.9 51.4,7 C51.4,7.2 51.4,6.9 51.4,7 L51.4,7 Z"></path>
                    <path id="Shape" d="M52.5,7.2 C52.6,7.4 52.8,7.4 53,7.3 C52.9,7 52.6,7.1 52.5,7.2 L52.5,7.2 Z"></path>
                    <path id="Shape" d="M53.2,7.4 C53.4,7.4 53.5,7.2 53.7,7.2 C53.7,7.2 53.2,7.2 53.2,7.4 C53.4,7.4 53.2,7.2 53.2,7.4 L53.2,7.4 Z"></path>
                    <path id="Shape" d="M60.4,8 C60.4,8 60.3,8 60.4,8 C60.4,8.1 60.4,8 60.4,8 L60.4,8 Z"></path>
                    <path id="Shape" d="M60.2,8.8 C60.2,9.2 60.6,8.7 60.2,8.8 C60.2,8.9 60.3,8.8 60.2,8.8 L60.2,8.8 Z"></path>
                    <path id="Shape" d="M60.3,9.3 C60.4,9.4 60.5,9.3 60.5,9.2 C60.4,9.2 60.2,9.2 60.3,9.3 L60.3,9.3 Z"></path>
                    <path id="Shape" d="M16.6,18.4 L17.1,18.4 C17,18.2 16.6,18.3 16.6,18.4 C16.7,18.4 16.6,18.2 16.6,18.4 L16.6,18.4 Z"></path>
                    <path id="Shape" d="M18.1,18.4 C18.2,18.5 18.3,18.4 18.3,18.4 C18.2,18.3 18.1,18.3 18.1,18.4 L18.1,18.4 Z"></path>
                    <path d="M56.1,21.7 C56.3,21.8 60.2,19.6 60.4,19.5 C62.2,18.9 64.2,18.7 66,18.7 C67.9,18.8 69.7,19.2 71.4,20 C71.9,20.2 75.6,22.9 75.8,22.9 C76.1,22.1 72,20.1 71.3,19.8 C69.9,19.3 68.4,18.8 66.9,18.7 C65.2,18.5 63.4,18.6 61.7,19.1 C60.6,19.4 59.4,19.7 58.5,20.2 C58,20.3 56.2,21.1 56.1,21.7 C56.2,21.7 56.2,21.4 56.1,21.7 L56.1,21.7 Z" id="Shape"></path>
                    <path id="Shape" d="M14.5,18.6 C14.6,18.6 14.7,18.6 14.7,18.5 C14.6,18.5 14.5,18.5 14.5,18.6 L14.5,18.6 Z"></path>
                    <path id="Shape" d="M14.2,18.6 C14.1,18.9 14.5,18.3 14.2,18.6 C14.2,18.7 14.3,18.6 14.2,18.6 L14.2,18.6 Z"></path>
                    <path id="Shape" d="M21.1,18.8 L21.1,18.8 C21.1,18.7 21.1,18.7 21.1,18.8 L21.1,18.8 Z"></path>
                    <path id="Shape" d="M21.5,18.9 C21.5,19 21.6,19 21.7,19 C21.6,18.9 21.5,18.9 21.5,18.9 L21.5,18.9 Z"></path>
                    <path id="Shape" d="M22,19 C21.7,19 22,19.2 22,19 L22,19 L22,19 Z"></path>
                    <path id="Shape" d="M12.3,19.1 L12.3,19.1 C12.4,19 12.3,19 12.3,19.1 L12.3,19.1 Z"></path>
                    <path d="M22.4,19.3 C22.9,20.1 24.4,20.2 25,21 C25.2,20.8 25.3,20.6 25.3,20.3 C25.3,20.2 22.7,19 22.4,19.3 C22.6,19.4 22.6,19.2 22.4,19.3 L22.4,19.3 Z" id="Shape"></path>
                    <path id="Shape" d="M11.7,19.3 C11.8,19.7 12,18.8 11.7,19.3 C11.7,19.4 11.7,19.3 11.7,19.3 L11.7,19.3 Z"></path>
                    <path id="Shape" d="M11.6,19.4 C11.5,19.4 11.4,19.4 11.4,19.5 C11.4,19.6 11.5,19.4 11.6,19.4 L11.6,19.4 Z"></path>
                    <path id="Shape" d="M25.7,19.5 C25.6,19.9 26,19.2 25.7,19.5 C25.6,19.6 25.7,19.5 25.7,19.5 L25.7,19.5 Z"></path>
                    <path d="M14.4,20.1 C14.5,20.1 14.9,23.5 14.9,23.7 C15.1,25.1 15.4,26.3 15.6,27.7 C15.8,28.8 16,30 16.2,31 C16.3,31.5 16.4,32.1 16.5,32.7 C16.6,32.9 17,34.6 17,34.3 C17.1,33.7 16.5,32.1 16.4,31.4 C16.2,29.9 15.9,28.5 15.6,27 C15.5,26 15.1,20.4 14.4,20.1 L14.4,20.1 L14.4,20.1 Z" id="Shape"></path>
                    <path id="Shape" d="M66.2,20.2 C65.7,20.3 66,26.4 66,27 L66,30.5 C66,31 65.7,32.7 65.9,33.1 C65.7,33 66.1,26.7 66.1,25.9 C66.2,25.3 66.5,20.3 66.2,20.2 C66,20.2 66.2,20.2 66.2,20.2 L66.2,20.2 Z"></path>
                    <path d="M63.6,20.2 C63.4,21.4 64,23 64.2,24.2 C64.4,25.6 64.6,26.9 64.8,28.3 C64.9,28.8 65.3,33.1 65.6,33.2 C65.6,33.2 64.8,27.4 64.8,26.7 C64.7,25.9 64.1,20.3 63.6,20.2 C63.5,20.5 63.9,20.3 63.6,20.2 L63.6,20.2 Z" id="Shape"></path>
                    <path d="M17.7,33.5 C18.2,33.1 18.4,31.6 18.6,31 C19.1,29.7 19.5,28.4 20,27.1 C20.2,26.4 21.9,20.6 22.1,20.6 C21.4,21.4 21.3,22.9 20.9,23.9 C20.5,24.9 20.1,25.9 19.8,27 C19.4,28.1 19,29.3 18.6,30.4 C18.4,31.3 17.6,32.6 17.7,33.5 L17.7,33.5 L17.7,33.5 Z" id="Shape"></path>
                    <path d="M26.3,20.8 C26.7,21.5 28,22.2 28.6,22.8 C29.1,23.3 29.7,23.9 30.1,24.5 C31.4,26.2 32.3,28.3 32.9,30.4 C33.4,32 33.5,33.6 33.4,35.2 C33.4,36 33.3,36.6 33.2,37.4 C33.1,37.8 32.5,39.8 32.7,40.1 C32.9,40.3 33.5,36.5 33.5,36.1 C33.7,34 33.4,31.9 32.8,29.9 C32.2,27.9 31.3,25.8 29.9,24.3 C29.8,23.9 26.5,20.4 26.3,20.8 C26.3,21 26.3,20.7 26.3,20.8 L26.3,20.8 Z" id="Shape"></path>
                    <path id="Shape" d="M11.8,20.8 C11.8,20.9 12,21.8 12.2,21.7 C12.3,21.6 12,20.8 11.8,20.8 C11.9,21.1 11.8,20.8 11.8,20.8 L11.8,20.8 Z"></path>
                    <path d="M26.3,21.3 C26.5,21.5 27.1,22.1 27.4,22.2 C27.3,22 26.4,21.2 26.3,21.3 C26.4,21.5 26.3,21.3 26.3,21.3 L26.3,21.3 Z" id="Shape"></path>
                    <path id="Shape" d="M7.7,21.6 C7.7,21.7 7.8,21.7 7.7,21.6 L7.7,21.6 L7.7,21.6 Z"></path>
                    <path d="M12.3,21.8 C12.5,21.8 13.3,25.1 13.5,25.7 C14,27.3 14.6,28.9 15.2,30.4 C15.4,30.9 16.1,34 16.6,34.2 C16.8,33.1 15.5,30.8 15.1,29.8 C14.8,29 14.5,28.2 14.2,27.5 C13.9,26.6 13.6,25.7 13.3,24.8 C13.1,24.2 12.8,22.2 12.3,21.8 C12.2,21.8 12.3,21.9 12.3,21.8 L12.3,21.8 Z" id="Shape"></path>
                    <path id="Shape" d="M7.4,21.8 C7.3,21.8 7.2,21.8 7.2,21.9 C7.3,22 7.4,21.9 7.4,21.8 L7.4,21.8 Z"></path>
                    <path d="M25.8,22.3 C26,23.1 27.9,24.2 28.4,24.8 C29.2,25.9 30.1,27.4 30.7,28.7 C31.3,30.1 31.7,31.6 31.8,33.1 C31.9,34.4 31.9,35.6 31.8,36.9 C31.7,37.5 31.2,38.8 31.3,39.3 C31.8,40.7 32.1,38.1 32.2,37.7 C32.4,36.5 32.5,35.3 32.5,34.1 C32.4,32.4 32.1,30.6 31.4,28.9 C30.9,27.6 30.3,26.3 29.4,25.2 C29,24.7 26.4,21.4 25.8,22.3 C25.8,22.4 25.9,22.2 25.8,22.3 L25.8,22.3 Z" id="Shape"></path>
                    <path d="M9.4,22.1 C9.2,22.6 11.1,25.5 11.5,26.2 C12.2,27.5 12.9,28.8 13.7,30.1 C14.2,30.9 15.7,34.3 16.3,34.4 C16.5,33.9 15.1,32.3 14.8,31.8 C14.2,30.7 13.6,29.7 13,28.6 C12.5,27.6 11.9,26.6 11.3,25.6 C11.1,25.1 9.9,22.1 9.4,22.1 C9.3,22.3 9.4,22.1 9.4,22.1 L9.4,22.1 Z" id="Shape"></path>
                    <path id="Shape" d="M27.4,22.2 C27.2,22.3 27.3,22.4 27.6,22.4 C27.6,22.3 27.5,22.3 27.4,22.2 C27.4,22.2 27.5,22.3 27.4,22.2 L27.4,22.2 Z"></path>
                    <path d="M49.6,33.8 C49.7,33.8 50.6,29.1 50.8,28.7 C51.3,27.6 51.9,26.4 52.6,25.5 C53.1,24.9 55.3,23 55.3,22.3 C54.6,21.8 51.8,26.5 51.4,27.2 C51.1,27.9 48.7,33.3 49.6,33.8 C49.8,33.8 49.5,33.7 49.6,33.8 L49.6,33.8 Z" id="Shape"></path>
                    <path id="Shape" d="M27.7,22.5 C27.7,22.7 27.8,22.7 27.9,22.7 C27.8,22.6 27.8,22.5 27.7,22.5 C27.7,22.6 27.8,22.5 27.7,22.5 L27.7,22.5 Z"></path>
                    <path id="Shape" d="M6.4,22.7 L6.4,22.7 C6.4,22.8 6.5,22.7 6.4,22.7 L6.4,22.7 Z"></path>
                    <path id="Shape" d="M28.1,22.8 C28.1,22.9 28.5,23.3 28.6,23.2 C28.5,23.1 28.1,22.8 28.1,22.8 C28.1,22.9 28.2,22.8 28.1,22.8 L28.1,22.8 Z"></path>
                    <path id="Shape" d="M6,23.2 L6,23.2 C5.9,23.1 6,23.2 6,23.2 L6,23.2 Z"></path>
                    <path d="M76.4,23.2 C76.4,23.4 76.9,24 77.1,24 C77.1,24 76.6,23.2 76.4,23.2 C76.5,23.6 76.6,23.2 76.4,23.2 L76.4,23.2 Z" id="Shape"></path>
                    <path id="Shape" d="M5.9,23.3 C5.7,23.3 5.7,23.5 5.7,23.5 C5.8,23.5 5.9,23.4 5.9,23.3 L5.9,23.3 Z"></path>
                    <path d="M24.3,26.9 C24.5,26.9 26.6,23.7 26.6,23.4 C26.2,23.2 24.1,26.5 24.3,26.9 C24.4,26.9 24.3,26.8 24.3,26.9 L24.3,26.9 Z" id="Shape"></path>
                    <path id="Shape" d="M5.4,23.9 C5.5,23.9 5.4,23.6 5.4,23.9 L5.4,23.9 L5.4,23.9 Z"></path>
                    <path d="M7.2,23.9 C8.3,25.9 10.1,27.7 11.6,29.3 C12.2,30 12.9,30.7 13.5,31.4 C13.8,31.8 15.1,33.9 15.7,33.9 C15.6,33.1 14,31.7 13.4,31.1 C12.9,30.4 12.3,29.7 11.7,29.1 C10.7,28 9.8,26.8 8.8,25.7 C8.7,25.4 7.7,23.9 7.2,23.9 C7.4,24.2 7.5,23.9 7.2,23.9 L7.2,23.9 Z" id="Shape"></path>
                    <path id="Shape" d="M5,24.3 C4.9,24.3 4.9,24.3 5,24.3 C5,24.4 5.1,24.3 5,24.3 L5,24.3 Z"></path>
                    <path d="M23.2,30.2 C23.3,30.2 28.4,25.5 28.3,25 C28.3,24.9 26.1,27 25.9,27.3 C25.3,27.8 22.9,29.6 23.2,30.2 C23.4,30.2 23.1,30.2 23.2,30.2 L23.2,30.2 Z" id="Shape"></path>
                    <path d="M5.8,25.5 C5.6,25.7 14.9,34.4 16.1,34.6 C16.1,34.1 13.6,32.4 13.3,32.2 C12.3,31.4 11.4,30.5 10.4,29.6 C9.6,28.9 9,28.2 8.2,27.6 C7.6,27 6.6,25.8 5.8,25.5 C5.7,25.6 6.3,25.7 5.8,25.5 L5.8,25.5 Z" id="Shape"></path>
                    <path id="Shape" d="M30.6,26 C30.6,25.8 30.5,25.7 30.4,25.7 C30.5,25.9 30.5,26 30.6,26 L30.6,26 Z"></path>
                    <path d="M30.7,26.2 C30.8,26.5 30.9,26.7 31.2,27 C31.1,26.9 30.8,26.2 30.7,26.2 C30.8,26.5 30.7,26.2 30.7,26.2 L30.7,26.2 Z" id="Shape"></path>
                    <path d="M21.4,32.9 C21.7,33 22.5,32.1 22.8,31.9 C23.7,31.3 24.7,30.7 25.6,30.1 C25.8,30 29.9,27.3 29.7,27.1 C28.1,27.7 26.6,29.2 25.2,30.2 C24.5,30.7 21.4,32 21.4,32.9 C21.6,32.9 21.4,32.7 21.4,32.9 L21.4,32.9 Z" id="Shape"></path>
                    <path d="M53.2,27.5 C53.4,28.3 56.2,29.5 57,30 C58.8,31.1 60.6,32.2 62.5,32.9 C62.2,32 53.2,27.5 53.2,27.5 C53.2,27.6 53.2,27.4 53.2,27.5 L53.2,27.5 Z" id="Shape"></path>
                    <path d="M68.3,33.8 C68.8,34.1 72.2,31.2 72.7,30.8 C73.5,30.3 77.6,28.2 77.5,27.5 C77.1,27.2 72.8,30.5 72.2,31 C71.5,31.5 70.8,31.9 70.2,32.4 C69.9,32.6 68.6,33.3 68.3,33.8 C68.5,33.9 68.4,33.7 68.3,33.8 L68.3,33.8 Z" id="Shape"></path>
                    <path id="Shape" d="M31.4,27.6 C31.4,27.6 31.5,27.8 31.4,27.6 L31.4,27.6 L31.4,27.6 Z"></path>
                    <path d="M4.4,27.8 C4.8,28.4 5.9,28.9 6.5,29.2 C7.9,30.1 9.3,31 10.8,31.8 C11.9,32.4 13,33.1 14,33.7 C14.5,33.9 15.4,34.8 15.9,34.7 C15.7,34.1 13.5,33.2 13,32.9 C12.1,32.3 11.1,31.8 10.1,31.2 C9.5,31 4.6,27.6 4.4,27.8 C4.6,28.2 4.4,27.8 4.4,27.8 L4.4,27.8 Z" id="Shape"></path>
                    <path id="Shape" d="M31.8,28.5 C31.8,28.6 31.8,28.7 31.8,28.5 C31.9,28.6 31.9,28.5 31.8,28.5 L31.8,28.5 Z"></path>
                    <path id="Shape" d="M31.9,28.8 C32,29 32.1,29.1 32.1,29.3 C32.1,29.2 32,28.7 31.9,28.8 C32,28.9 31.9,28.7 31.9,28.8 L31.9,28.8 Z"></path>
                    <path d="M22,29 C21.2,29 18.5,33.4 18.1,34.2 C18.6,34.1 22.1,29.6 22,29 L22,29 L22,29 Z" id="Shape"></path>
                    <path d="M69.2,31.2 C69.6,31.1 70.6,29.5 70.7,29.3 C70.6,29.3 69.2,31.1 69.2,31.2 C69.3,31.1 69.4,30.7 69.2,31.2 L69.2,31.2 Z" id="Shape"></path>
                    <path id="Shape" d="M32.1,29.3 C32.1,29.3 32.5,30.7 32.5,30.8 C32.6,30.4 32.3,29.6 32.1,29.3 C32.1,29.3 32.2,29.5 32.1,29.3 L32.1,29.3 Z"></path>
                    <path d="M68,34.7 C69.9,34.5 72.1,32.9 73.9,32.1 C74.7,31.7 75.6,31.3 76.5,31 C77,30.8 78.3,30.5 78.6,29.9 C78.6,29.8 68,34 68,34.7 C68.3,34.6 68,34.5 68,34.7 L68,34.7 Z" id="Shape"></path>
                    <path d="M3.4,30.2 C3.6,30.6 5.5,31.1 5.9,31.3 C7.3,31.9 8.8,32.4 10.1,33 C11.8,33.7 13.6,34.7 15.4,34.9 C14.1,33.8 11.5,33.4 9.9,32.8 C9.4,32.5 3.7,29.9 3.4,30.2 C3.5,30.4 3.5,30.2 3.4,30.2 L3.4,30.2 Z" id="Shape"></path>
                    <path id="Shape" d="M32.6,30.9 C32.6,31.2 32.7,30.9 32.6,30.9 L32.6,30.9 L32.6,30.9 Z"></path>
                    <path id="Shape" d="M32.6,31.1 C32.5,31.1 32.6,31.3 32.6,31.3 C32.7,31.3 32.6,31.1 32.6,31.1 L32.6,31.1 Z"></path>
                    <path id="Shape" d="M69.1,31.2 C69,31.3 68.9,31.3 68.9,31.4 C69.1,31.4 69.1,31.4 69.1,31.2 L69.1,31.2 Z"></path>
                    <path id="Shape" d="M32.7,31.4 C32.5,31.5 32.8,32.2 32.9,32.2 C32.9,32 32.8,31.7 32.7,31.4 C32.7,31.4 32.8,31.7 32.7,31.4 L32.7,31.4 Z"></path>
                    <path id="Shape" d="M68.8,31.7 C68.6,31.8 68.6,31.9 68.5,32.1 C68.6,32 68.8,31.9 68.8,31.7 L68.8,31.7 Z"></path>
                    <path d="M68.5,32.1 C68.3,32.1 67.8,32.7 67.8,32.9 C68,32.8 68.5,32.3 68.5,32.1 L68.5,32.1 L68.5,32.1 Z" id="Shape"></path>
                    <path d="M68.3,34.7 C68.5,35.1 73.6,33.5 74.2,33.3 C75,33.1 75.6,33 76.3,32.8 C76.9,32.6 78.8,32.6 79.2,32 C79.2,32 75.2,32.8 74.6,32.9 C73.5,33.1 72.6,33.4 71.5,33.7 C70.8,34.1 68.8,34.3 68.3,34.7 C68.3,34.9 68.4,34.7 68.3,34.7 L68.3,34.7 Z" id="Shape"></path>
                    <path d="M51.4,32.3 C51.4,32.5 57.1,33.7 57.6,33.2 C56.5,33.1 55.4,32.8 54.4,32.7 C53.8,32.6 51.7,32 51.4,32.3 C51.4,32.5 51.5,32.2 51.4,32.3 L51.4,32.3 Z" id="Shape"></path>
                    <path d="M19,35.1 C19.2,35.4 31.4,32.7 31.4,32.4 C30.7,32.2 29.3,32.8 28.6,32.9 C27.3,33.2 26.1,33.4 24.8,33.7 C24.5,33.8 19.2,34.7 19,35.1 C19.1,35.3 19.1,35 19,35.1 L19,35.1 Z" id="Shape"></path>
                    <path id="Shape" d="M32.9,32.5 C32.7,32.5 33,33.9 33,33.9 C33.2,33.8 32.9,32.6 32.9,32.5 C32.9,32.5 33,32.8 32.9,32.5 L32.9,32.5 Z"></path>
                    <path d="M2.8,32.9 C3.6,33.6 5.8,33.6 6.8,33.7 C7.9,33.9 9.1,34.1 10.3,34.3 C11.3,34.5 12.2,34.7 13.2,34.8 C13.9,34.9 15.4,35.4 16.1,35.2 C16,34.9 3.5,32.7 2.8,32.9 C3.1,33 3.2,32.8 2.8,32.9 L2.8,32.9 Z" id="Shape"></path>
                    <path id="Shape" d="M67.8,32.9 C67.6,32.9 67.6,33.1 67.5,33.2 C67.7,33.2 67.8,33.1 67.8,32.9 L67.8,32.9 Z"></path>
                    <path id="Shape" d="M1.4,32.9 C1.4,32.9 1.4,33 1.4,32.9 C1.4,33.1 1.4,32.9 1.4,32.9 L1.4,32.9 Z"></path>
                    <path id="Shape" d="M1.4,33.2 C1.4,33.2 1.4,33.3 1.4,33.2 C1.4,33.3 1.4,33.3 1.4,33.2 L1.4,33.2 Z"></path>
                    <path id="Shape" d="M67.5,33.3 C67.4,33.3 67.3,33.4 67.3,33.5 C67.4,33.5 67.5,33.4 67.5,33.3 L67.5,33.3 Z"></path>
                    <path id="Shape" d="M1.4,33.8 C1.2,33.8 1.2,33.9 1.3,34.1 C1.4,34 1.4,33.8 1.4,33.8 L1.4,33.8 L1.4,33.8 Z"></path>
                    <path id="Shape" d="M33,33.9 C32.8,34 33,35.5 33,35.7 C33.2,35.5 33.2,34.1 33,33.9 C33,33.9 33.1,34 33,33.9 L33,33.9 Z"></path>
                    <path id="Shape" d="M1.4,34.4 C1.3,34.4 1.3,34.6 1.3,34.7 C1.4,34.7 1.4,34.5 1.4,34.4 L1.4,34.4 Z"></path>
                    <path id="Shape" d="M51,34.6 C51.1,34.8 51.4,34.8 51.4,34.6 C51.3,34.4 51.1,34.5 51,34.6 L51,34.6 Z"></path>
                    <path id="Shape" d="M1.4,34.8 C1.3,34.8 1.3,34.9 1.4,34.8 L1.4,34.8 L1.4,34.8 Z"></path>
                    <path id="Shape" d="M69.8,35.2 C70.8,35.5 79.5,35.1 79.5,35 C79.5,35.4 70.1,34.4 69.8,35.2 C70.1,35.3 69.8,35.1 69.8,35.2 L69.8,35.2 Z"></path>
                    <path d="M19.6,35.3 C19.9,35.8 23.3,35.3 23.9,35.3 C25.2,35.3 26.5,35.2 27.7,35.2 C28.3,35.2 31.2,35.5 31.5,35.1 C31.7,35 20.8,34.8 19.6,35.3 C19.7,35.4 20.1,35.1 19.6,35.3 L19.6,35.3 Z" id="Shape"></path>
                    <path id="Shape" d="M68.1,35.1 C68.3,35.4 69.5,35.2 69.8,35.2 C69.7,34.9 68.2,35.1 68.1,35.1 C68.2,35.4 68.3,35.1 68.1,35.1 L68.1,35.1 Z"></path>
                    <path id="Shape" d="M1.3,35.1 C1.2,35.1 1.2,35.6 1.3,35.6 C1.4,35.5 1.4,35.3 1.3,35.1 C1.2,35.1 1.4,35.3 1.3,35.1 L1.3,35.1 Z"></path>
                    <path id="Shape" d="M4.8,35.5 L10.8,35.5 L13.4,35.5 C14,35.5 15.6,35.8 16,35.5 C15.8,34.8 2.6,35.7 2.7,35.3 C2.6,35.5 4.8,35.5 4.8,35.5 C4.8,35.5 4.5,35.4 4.8,35.5 L4.8,35.5 Z"></path>
                    <path d="M50.4,35.7 C50.2,36.2 50.6,39.2 51.2,38.5 C51.5,38.1 51.1,35 50.4,35.7 C50.3,35.9 50.5,35.6 50.4,35.7 L50.4,35.7 Z" id="Shape"></path>
                    <path d="M18.2,35.6 C18.3,35.8 19.4,36.1 19.6,36.1 C19.6,35.9 18.3,35.5 18.2,35.6 C18.3,35.8 18.2,35.6 18.2,35.6 L18.2,35.6 Z" id="Shape"></path>
                    <path id="Shape" d="M54.3,35.7 C54.2,35.7 54.3,35.7 54.3,35.7 L54.3,35.7 L54.3,35.7 Z"></path>
                    <path d="M15.6,35.8 C14.8,37.4 12.5,39.1 11.1,40.5 C10.3,41.3 9.5,42 8.7,42.8 C8.2,43.2 6.3,44.5 6.4,45.1 C7,45.6 15,36.9 16.1,35.8 C15.9,35.7 15.7,35.7 15.6,35.8 C15.6,35.9 15.7,35.7 15.6,35.8 L15.6,35.8 Z" id="Shape"></path>
                    <path d="M45,35.8 C44.8,35.3 43.6,36.8 44,36.8 C44.1,36.8 45,35.9 45,35.8 C44.9,35.6 44.8,36.1 45,35.8 L45,35.8 Z" id="Shape"></path>
                    <path id="Shape" d="M49.6,35.7 C49.5,35.8 49.5,36.1 49.8,36 C49.9,36 49.8,35.7 49.6,35.7 L49.6,35.7 Z"></path>
                    <path d="M3,38.1 C3.2,38.6 8,37.2 8.7,37.1 C9.9,36.9 11.1,36.7 12.3,36.4 C12.8,36.3 14.3,36.2 14.7,35.8 C14.2,35.6 12.6,36.2 12.1,36.3 C11,36.5 9.8,36.7 8.6,36.9 C7.7,37.1 6.8,37.3 5.9,37.4 C5.3,37.5 3.5,37.5 3,38.1 C3.1,38.1 3.2,37.9 3,38.1 L3,38.1 Z" id="Shape"></path>
                    <path id="Shape" d="M15.3,36 C15.4,36.1 15.5,35.9 15.5,35.8 C15.4,35.8 15.3,35.9 15.3,36 L15.3,36 Z"></path>
                    <path d="M33,35.9 C33.2,35.9 32.2,39.7 32.2,40 C32.8,39.9 33,36.3 33,35.9 C33,35.9 33,36.5 33,35.9 L33,35.9 Z" id="Shape"></path>
                    <path d="M53.5,36 C53.3,36 51.2,36.8 51.2,36.8 C51.4,37 52.3,36.6 52.4,36.6 C53.1,36.5 53.5,36.7 53.5,36 C53.2,36 53.5,36 53.5,36 L53.5,36 Z" id="Shape"></path>
                    <path d="M15.2,36 C14.2,36.1 13.2,36.8 12.4,37.2 C11.3,37.7 10.1,38.3 8.9,38.7 C8.6,38.9 3.9,40.4 3.9,40.9 C4.2,41.2 15.2,36.4 15.2,36 C14.8,36 15.2,36.1 15.2,36 L15.2,36 Z" id="Shape"></path>
                    <path d="M15.3,36.1 C14.8,36.1 13.6,37.3 13.2,37.6 C12.4,38.2 11.5,38.8 10.6,39.4 C10.1,39.7 5,42.5 5.1,43 C5.6,43.3 9.2,40.4 9.6,40.2 C10.7,39.5 11.8,38.8 12.8,38.1 C13.5,37.6 15,36.9 15.3,36.1 C15.3,36.1 15,36.7 15.3,36.1 L15.3,36.1 Z" id="Shape"></path>
                    <path d="M67.8,36.4 C69.8,37 71.9,37.8 73.9,38.4 C74.5,38.6 75,38.8 75.6,39 C76.4,39.3 77.9,40.3 78.8,40.1 C78.9,39.6 72.7,37.8 72,37.5 C71,37.1 70,36.7 69,36.4 C68.9,36.5 67.7,35.9 67.8,36.4 C68.1,36.5 67.8,36.3 67.8,36.4 L67.8,36.4 Z" id="Shape"></path>
                    <path id="Shape" d="M19.8,36.2 C19.9,36.3 20.1,36.5 20.2,36.3 C20,36.3 19.9,36.1 19.8,36.2 L19.8,36.2 Z"></path>
                    <path id="Shape" d="M49.8,36.2 C49.6,36.4 49.6,36.9 49.7,37 C50,36.9 49.9,36.4 49.8,36.2 L49.8,36.2 Z"></path>
                    <path d="M8.4,46.6 C9.1,46.4 9.9,44.6 10.3,44 C11.1,42.9 11.9,41.8 12.7,40.7 C13.6,39.5 15.5,37.7 15.9,36.2 C15.2,36.3 14.1,38.6 13.6,39.2 C13,40 12.4,40.8 11.8,41.6 C11.4,42.3 8.1,46.3 8.4,46.6 C8.6,46.5 8.2,46.5 8.4,46.6 L8.4,46.6 Z" id="Shape"></path>
                    <path id="Shape" d="M63,36.3 C62.6,36.3 61.8,36.4 61.5,36.7 C61.7,36.9 62.9,36.3 63,36.3 C62.9,36.3 62.9,36.4 63,36.3 L63,36.3 Z"></path>
                    <path d="M13,48 C13.8,46.5 14,44.6 14.5,43 C15.2,40.9 16.2,38.5 16.4,36.3 C16,36.3 14.7,42.1 14.4,42.8 C14.2,43.3 12.5,49.1 12.6,49.1 C12.8,49.2 13,48.1 13,48 C13.2,47.5 13,48.3 13,48 L13,48 Z" id="Shape"></path>
                    <path d="M16.1,36.3 C15.5,36.3 13.8,40.9 13.5,41.6 C12.9,42.8 12.2,44 11.5,45.2 C11.2,45.8 10,47.4 10.1,48.1 C10.6,48.2 16.3,37.5 16.1,36.3 C16.1,36.3 16.1,36.4 16.1,36.3 L16.1,36.3 Z" id="Shape"></path>
                    <path d="M17.2,36.4 C16.7,36.9 19.8,49.7 19.9,49.7 C19.9,49.7 18.6,43.3 18.5,42.7 C18.4,41.8 17.5,36.4 17.2,36.4 C17.1,36.5 17.2,36.4 17.2,36.4 L17.2,36.4 Z" id="Shape"></path>
                    <path d="M16.6,36.4 C16.1,36.8 16.1,39.2 16.1,39.8 C15.9,40.9 15.9,42.1 15.7,43.2 C15.5,45.2 14.6,47.8 14.9,49.7 C14.9,49.7 16.9,36.4 16.6,36.4 C16.6,36.5 16.6,36.4 16.6,36.4 L16.6,36.4 Z" id="Shape"></path>
                    <path d="M18,36.5 C18.2,37.3 19.8,38.4 20.3,38.9 C21.1,39.8 21.9,40.6 22.7,41.5 C23,41.8 26.6,46.2 27,46 C26.8,45 18.1,36.4 18,36.5 C18,36.7 18,36.4 18,36.5 L18,36.5 Z" id="Shape"></path>
                    <path d="M17.7,36.6 C18.5,38.6 20.1,40.4 21.2,42.3 C21.5,42.8 24.1,47.9 24.7,47.8 C24.6,46.8 23.3,45.4 22.7,44.6 C22.2,43.8 21.8,43.2 21.3,42.4 C21,41.7 17.5,36.7 17.7,36.6 C17.8,36.9 17.7,36.5 17.7,36.6 L17.7,36.6 Z" id="Shape"></path>
                    <path d="M16.9,36.7 C16.8,37.6 17.6,49.9 17.6,49.9 C17.8,49.9 17.1,36.7 16.9,36.7 C16.8,37 16.9,36.7 16.9,36.7 L16.9,36.7 Z" id="Shape"></path>
                    <path d="M17.5,36.8 C18,39.1 19.5,41.5 20.4,43.7 C20.8,44.8 21.2,45.8 21.7,46.8 C21.9,47.1 22.5,49 22.7,48.8 C21.8,46.6 21,44.5 20.1,42.3 C19.7,41.6 18.1,36.8 17.5,36.8 C17.6,37.2 17.5,36.8 17.5,36.8 L17.5,36.8 Z" id="Shape"></path>
                    <path d="M19,36.9 C19.1,36.9 21,38.6 21.3,38.9 C22.1,39.5 22.9,40.2 23.7,40.8 C24.6,41.5 25.5,42.2 26.3,42.9 C26.5,43.1 28,44.5 28.3,44.4 C27.9,43.3 25.4,41.9 24.4,41.2 C22.6,39.7 20.8,38.3 19,36.9 L19,36.9 L19,36.9 Z" id="Shape"></path>
                    <path id="Shape" d="M1.5,37.1 C1.2,37.1 1.7,37.5 1.5,37.1 C1.4,37.1 1.5,37.1 1.5,37.1 L1.5,37.1 Z"></path>
                    <path id="Shape" d="M78.9,37.4 C78.9,37.6 79.2,37.6 79.4,37.6 C79.3,37.3 79,37.4 78.9,37.4 L78.9,37.4 Z"></path>
                    <path id="Shape" d="M2.8,37.5 C2.8,37.6 2.8,37.6 2.8,37.5 C2.9,37.6 2.9,37.5 2.8,37.5 L2.8,37.5 Z"></path>
                    <path d="M57.4,38.9 C58.3,39.1 60,38.1 60.9,37.8 C60.7,38.2 57.7,38.3 57.4,38.9 C57.5,39 57.4,38.7 57.4,38.9 L57.4,38.9 Z" id="Shape"></path>
                    <path id="Shape" d="M65.6,48.5 C65.5,48.6 65.4,49.9 65.6,49.9 C65.7,49.9 65.9,39.1 65.8,37.9 C66,38 65.6,42.8 65.6,43.4 C65.6,44.7 65.1,47.2 65.6,48.5 C65.5,48.7 65.5,48.3 65.6,48.5 L65.6,48.5 Z"></path>
                    <path d="M63.3,48.9 C63.1,48 63.8,46.5 64,45.6 C64.2,44.6 64.4,43.6 64.6,42.6 C64.8,41.2 64.9,39.2 65.3,38 C64.9,38.4 64.9,40 64.8,40.5 C64.6,41.6 64.3,42.8 64.1,43.9 C64,44.3 62.8,49.7 63,49.7 C63.2,49.7 63.1,49 63.3,48.9 C63.2,48.7 63.1,49 63.3,48.9 L63.3,48.9 Z" id="Shape"></path>
                    <path id="Shape" d="M48.6,38.3 C48.6,38.4 49.2,38.4 49.2,38.3 C49.3,38 49,38 48.6,38.3 C48.7,38.4 48.8,38.2 48.6,38.3 L48.6,38.3 Z"></path>
                    <path d="M58.4,48.1 C59.3,47.9 61.1,43.7 61.6,42.9 C62,42.2 63.6,38.3 64,38.2 C63.2,38.4 62,41.7 61.5,42.4 C61,43.2 60.5,44.1 60,45 C59.7,45.6 58.2,47.5 58.4,48.1 C58.7,48 58.3,47.8 58.4,48.1 L58.4,48.1 Z" id="Shape"></path>
                    <path id="Shape" d="M1.7,38.1 C1.6,38.1 1.6,38.2 1.7,38.3 L1.7,38.1 L1.7,38.1 Z"></path>
                    <path d="M66.9,38.5 C66.7,39.3 67.5,40.4 67.7,41.1 C68.1,42.2 68.5,43.3 68.8,44.4 C69,44.8 69.9,48.9 70.4,49 C70.7,48.4 67.2,38.5 66.9,38.5 C66.8,38.7 66.9,38.5 66.9,38.5 L66.9,38.5 Z" id="Shape"></path>
                    <path id="Shape" d="M46.5,38.7 L47.3,38.7 C47.1,38.4 46.7,38.6 46.5,38.7 C46.6,38.8 46.7,38.6 46.5,38.7 L46.5,38.7 Z"></path>
                    <path d="M52,39.7 C52.2,40 55.3,38.8 55.3,38.7 C55,38.7 52,39.6 52,39.7 C52.1,39.9 52,39.6 52,39.7 L52,39.7 Z" id="Shape"></path>
                    <path d="M47.1,39 C47,39 46.9,39.1 46.9,39.2 C47,39.7 47.7,38.7 47.3,38.8 C47.1,38.9 47.1,39 47.1,39 C47.1,39 47,38.7 47.1,39 L47.1,39 Z" id="Shape"></path>
                    <path d="M54.4,44.6 C55.2,44.6 57,42.6 57.7,42.1 C59,41 60.2,39.8 61.5,38.9 C61.5,38.8 59.6,40 59.3,40.3 C58.7,40.8 58.2,41.3 57.6,41.7 C57.4,42 54.2,44.1 54.4,44.6 C54.7,44.6 54.3,44.3 54.4,44.6 L54.4,44.6 Z" id="Shape"></path>
                    <path id="Shape" d="M1.8,39.2 C1.5,39.6 2.3,39.1 1.8,39.2 L1.8,39.2 L1.8,39.2 Z"></path>
                    <path d="M68.1,39.4 C67.9,40.1 72.7,47.9 72.8,47.9 C73,47.1 71.2,44.7 70.8,44 C70.2,43 69.7,42 69.1,41 C68.9,40.6 68.5,39.6 68.1,39.4 C68,39.7 68.3,39.5 68.1,39.4 L68.1,39.4 Z" id="Shape"></path>
                    <path id="Shape" d="M40.5,39.8 C40.7,39.7 40.7,39.6 40.8,39.4 C40.5,39.3 40.3,39.6 40.5,39.8 L40.5,39.8 Z"></path>
                    <path id="Shape" d="M2,39.5 C1.9,39.5 2,39.6 2,39.5 L2,39.5 L2,39.5 Z"></path>
                    <path d="M50.3,39.8 C50.2,39.9 50.4,40.7 50.5,40.8 C50.7,40.9 50.7,39.9 50.8,39.7 C50.6,39.6 50.5,39.6 50.3,39.8 C50.2,39.9 50.4,39.7 50.3,39.8 L50.3,39.8 Z" id="Shape"></path>
                    <path id="Shape" d="M2,39.7 C2,39.8 2,39.8 2,39.7 C2.1,39.8 2,39.7 2,39.7 L2,39.7 Z"></path>
                    <path id="Shape" d="M37.9,40.2 C38.1,40.1 38.2,40 38.3,39.8 C38.1,39.7 37.8,40 37.9,40.2 L37.9,40.2 Z"></path>
                    <path id="Shape" d="M2.1,40 C2.1,40.1 2,40.3 2.2,40.4 C2.3,40.2 2.1,40.1 2.1,40 L2.1,40 Z"></path>
                    <path id="Shape" d="M2.2,40.5 C2.1,40.6 2.3,40.7 2.3,40.7 C2.3,40.6 2.3,40.4 2.2,40.5 L2.2,40.5 Z"></path>
                    <path id="Shape" d="M39,40.6 C39,40.7 39.1,40.9 39.1,41.1 C39.9,41.6 39.3,40 39,40.6 C39,40.8 39.1,40.5 39,40.6 L39,40.6 Z"></path>
                    <path id="Shape" d="M40.7,40.6 C40.7,40.7 40.7,40.8 40.8,40.8 C40.9,40.8 40.8,40.4 40.7,40.6 L40.7,40.6 Z"></path>
                    <path d="M32,40.6 C31.7,40.8 31.3,41.7 31.4,42 C31.7,42 32,40.6 32,40.6 C31.8,40.8 32,40.6 32,40.6 L32,40.6 Z" id="Shape"></path>
                    <path id="Shape" d="M2.3,40.7 C2.2,40.7 2.3,40.9 2.3,40.9 C2.4,40.8 2.4,40.8 2.3,40.7 L2.3,40.7 Z"></path>
                    <path id="Shape" d="M37.9,41.1 C38.1,41.1 38.1,41 38,40.9 C37.8,40.8 37.8,40.9 37.9,41.1 C37.9,41.1 37.8,41.1 37.9,41.1 L37.9,41.1 Z"></path>
                    <path id="Shape" d="M2.4,40.9 C2.3,41.1 2.6,41.7 2.7,41.7 C2.7,41.6 2.6,40.9 2.4,40.9 C2.3,41 2.5,40.9 2.4,40.9 L2.4,40.9 Z"></path>
                    <path d="M2.8,41.8 C2.7,42 3.3,42.9 3.4,43 C3.3,42.8 2.7,42 2.8,41.8 C2.7,41.9 2.8,41.8 2.8,41.8 L2.8,41.8 Z" id="Shape"></path>
                    <path id="Shape" d="M31.3,42.4 C31.2,42.4 31.2,42.5 31.2,42.6 C31.3,42.6 31.4,42.5 31.3,42.4 L31.3,42.4 Z"></path>
                    <path d="M79.4,42.6 C79.2,42.6 78.3,44.3 78.3,44.4 C78.6,44.3 79.6,43 79.4,42.6 C79.4,42.6 79.5,42.9 79.4,42.6 L79.4,42.6 Z" id="Shape"></path>
                    <path id="Shape" d="M31,42.9 C30.9,42.9 30.6,43.6 30.6,43.6 C30.8,43.5 31.1,43.1 31,42.9 C31,42.9 31.1,43.1 31,42.9 L31,42.9 Z"></path>
                    <path d="M30.6,43.6 C30.6,43.6 30,44.4 30,44.6 C30.2,44.5 30.6,43.8 30.6,43.6 C30.6,43.6 30.6,43.8 30.6,43.6 L30.6,43.6 Z" id="Shape"></path>
                    <path id="Shape" d="M3.7,43.6 C3.5,43.7 3.9,44.1 4,44.1 C3.9,43.9 3.8,43.8 3.7,43.6 C3.6,43.7 3.9,43.7 3.7,43.6 L3.7,43.6 Z"></path>
                    <path id="Shape" d="M68.6,44.1 C68.5,44.1 68.6,44.3 68.6,44.1 L68.6,44.1 L68.6,44.1 Z"></path>
                    <path id="Shape" d="M4.1,44.2 C4.1,44.3 4.2,44.4 4.1,44.2 L4.1,44.2 L4.1,44.2 Z"></path>
                    <path d="M71.2,50.5 C72.7,50.2 74.2,49 75.4,48 C76,47.5 78.6,45.4 78.4,44.5 C78.2,44.5 77.3,46 77,46.2 C76.5,46.8 75.9,47.4 75.3,47.9 C74.1,49 72.3,49.4 71.2,50.5 C71.8,50.3 71.4,50.2 71.2,50.5 L71.2,50.5 Z" id="Shape"></path>
                    <path id="Shape" d="M29.6,45.2 C29.5,45.2 29.4,45.3 29.4,45.4 C29.5,45.3 29.6,45.3 29.6,45.2 L29.6,45.2 Z"></path>
                    <path id="Shape" d="M29.4,45.3 C29.4,45.3 29.3,45.3 29.4,45.3 C29.3,45.5 29.4,45.4 29.4,45.3 L29.4,45.3 Z"></path>
                    <path id="Shape" d="M28.7,46.1 C28.5,46.2 28.5,46.3 28.5,46.4 C28.6,46.3 28.7,46.2 28.7,46.1 L28.7,46.1 Z"></path>
                    <path id="Shape" d="M7.3,47.8 C7.2,47.9 7.4,48 7.5,48 C7.4,47.8 7.3,47.8 7.3,47.8 L7.3,47.8 Z"></path>
                    <path d="M7.5,48 C7.7,48.3 8.6,48.9 8.9,49 C8.8,48.7 7.5,48 7.5,48 C7.8,48.2 7.5,47.9 7.5,48 L7.5,48 Z" id="Shape"></path>
                    <path id="Shape" d="M9.1,49.1 C9.3,49.2 9.4,49.3 9.6,49.4 C9.6,49.3 9.3,49.1 9.1,49.1 L9.1,49.1 Z"></path>
                    <path id="Shape" d="M9.7,49.4 C9.7,49.5 9.8,49.6 9.9,49.5 C9.9,49.4 9.9,49.4 9.7,49.4 L9.7,49.4 Z"></path>
                    <path id="Shape" d="M10.1,49.6 C10.2,49.7 10.3,49.8 10.4,49.8 C10.4,49.6 10.2,49.7 10.1,49.6 L10.1,49.6 Z"></path>
                    <path id="Shape" d="M10.7,49.9 C10.7,50 10.8,50 10.9,49.9 L10.7,49.9 L10.7,49.9 Z"></path>
                    <path id="Shape" d="M11,50 C11,50.2 11.2,50.2 11.3,50.2 C11.2,50.1 11.1,50 11,50 L11,50 Z"></path>
                    <path id="Shape" d="M11.3,50.2 C11.3,50.3 11.4,50.3 11.5,50.3 C11.4,50.2 11.4,50.2 11.3,50.2 L11.3,50.2 Z"></path>
                    <path id="Shape" d="M22.4,50.4 C22.6,50.4 22.7,50.3 22.9,50.2 C22.7,50.2 22.5,50.3 22.4,50.4 L22.4,50.4 Z"></path>
                    <path id="Shape" d="M11.8,50.3 C11.8,50.4 11.9,50.5 12,50.5 C12,50.3 11.9,50.4 11.8,50.3 L11.8,50.3 Z"></path>
                    <path id="Shape" d="M21.9,50.5 C22,50.6 22.1,50.5 22.1,50.4 C22,50.5 22,50.5 21.9,50.5 L21.9,50.5 Z"></path>
                    <path id="Shape" d="M12,50.5 C12.1,50.6 12.2,50.7 12.4,50.7 C12.4,50.5 12.2,50.5 12,50.5 L12,50.5 Z"></path>
                    <path id="Shape" d="M71,50.5 C70.8,50.5 70.6,50.6 70.5,50.7 C70.7,50.7 70.9,50.6 71,50.5 L71,50.5 Z"></path>
                    <path id="Shape" d="M12.6,50.6 C12.6,50.7 12.8,50.7 12.8,50.7 C12.8,50.6 12.7,50.6 12.6,50.6 L12.6,50.6 Z"></path>
                    <path id="Shape" d="M13.3,50.8 C13.4,51 13.6,51 13.8,51 C13.7,50.8 13.5,50.8 13.3,50.8 L13.3,50.8 Z"></path>
                    <path id="Shape" d="M13.9,51 C14.1,51.2 15.5,51.4 15.5,51.2 C15.1,51.2 14.4,50.9 13.9,51 C14.1,51.1 14.1,50.9 13.9,51 L13.9,51 Z"></path>
                    <path id="Shape" d="M15.7,51.2 C15.9,51.3 16.1,51.4 16.2,51.3 C16.1,51.2 16,51.1 15.7,51.2 C15.8,51.3 16,51.2 15.7,51.2 L15.7,51.2 Z"></path>
                    <path id="Shape" d="M17.5,51.3 C17.6,51.3 17.7,51.4 17.7,51.2 C17.6,51.2 17.5,51.2 17.5,51.3 L17.5,51.3 Z"></path>
                    <path d="M68.8,32.7 C69.7,30.8 71.7,29 73.1,27.3 C73.6,26.5 74.3,25.9 74.8,25.1 C75.3,24.4 76.7,23.1 76.7,22.2 C76,22.4 75.9,23.4 75.3,23.7 C75.3,23.7 75.2,23.1 75,22.9 C74.6,22.4 73.9,22.1 73.3,21.7 C72.5,21.2 71.8,20.9 71,20.5 C69.3,19.7 67.7,19.4 65.9,19.3 C63.7,19.2 61.8,19.7 59.7,20.4 C58.9,20.7 58.2,21 57.5,21.5 C56.8,21.9 56.4,21.9 56.7,22.7 C56.5,22.8 55.6,21.3 55.6,21.1 C56.2,21.3 56.8,20.6 57.4,20.3 C58.7,19.6 60,19 61.4,18.6 C62.9,18.2 64.6,18.1 66.1,18.1 C68.1,18.2 69.9,18.7 71.7,19.5 C72.5,19.9 73.2,20.3 74,20.8 C74.5,21.2 75.5,22.4 76,22.4 C76.5,22.1 73,19.8 72.5,19.6 C71.1,18.8 69.5,18.3 68,18.1 C65,17.6 61.9,18 59.2,19.2 C58.2,19.6 56.6,20.9 55.7,20.7 C54.8,20.5 56.1,20 56.5,19.7 C57.1,19.3 57.7,19 58.4,18.8 C62.2,17.3 66.1,16.5 70.1,17.8 C72.6,18.6 74.7,20.1 76.6,21.8 C76.8,22 80.2,25.5 80.4,24.4 C80.5,24.1 78.4,22.3 78.1,21.9 C77.4,21.2 76.7,20.5 75.9,19.9 C74.1,18.5 72.1,17.4 70,16.7 C66.2,15.4 61.8,16.2 58.1,17.6 C56.5,18.2 54.9,19.3 53.6,18 C53,17.4 52.6,16.4 52.1,15.7 C51.9,15.5 51.3,14.9 51.3,14.6 C51.3,13.6 51.8,14.5 52.2,14.2 C52.9,13.7 52.2,14 52,13.5 C51.6,12.9 51.4,12.3 51.7,11.4 C52,10.6 52.2,10.3 53.2,10.3 C54.5,10.3 53.7,10.8 54,11.1 C54.2,11.3 54.6,11.9 55.1,11.6 C55.3,11.4 55,11 55.2,10.8 C56,10 56.8,11 57.6,10.6 C57.6,10.3 56.1,10.2 55.9,10.1 C56,9.9 56.4,10 56.6,10 C57.3,10 57.4,10.1 58.1,9.9 C58.8,9.7 59,9.6 59.4,9.1 C59.7,9.1 59.9,10.5 60.6,10.4 C61.3,10.2 61.1,9.3 61.1,8.7 C61.2,7.9 61.7,6.6 61,6.1 C60.5,5.7 59.3,5.7 58.7,5.6 C56.4,5.2 54,5.1 51.6,4.8 C51.2,4.7 47.3,4 47.4,4.8 C47.4,5 48.8,5.4 49.1,5.6 C49.7,5.9 50,6.1 50.5,6.7 C50.8,7 52.5,8.7 52.9,7.6 C52.8,7.4 51.8,7.5 51.5,7.4 C51,7.2 50.9,6.8 50.6,6.4 C50.4,6.1 48.2,4.7 48.2,4.6 C48.6,4.4 52.6,4.8 53,5.2 C52.8,5.2 52.5,5.3 52.2,5.2 C52.6,6 55.4,5.2 55.9,5.8 C55.8,6 55.2,5.9 55.2,6.2 C55.4,6.4 58.1,6.2 58.4,6 C58.3,5.6 56.9,6.1 56.7,5.8 C57.2,5.4 58.4,5.8 58.6,6.1 C58.4,6.6 55.4,6.2 55,6.3 C54.9,6.2 54,6.2 54.1,6.7 C54.4,6.7 54.4,6.4 54.9,6.4 C54.5,7.1 53,7.8 52.3,7.9 C51.4,8.1 50.4,7.5 49.4,7.5 C49.2,7.9 50.6,8.2 50.8,8.2 C50.6,8.6 50,7.9 50,8.6 C49.8,8.6 49.7,8 49.2,8.4 C49.4,8.3 49,9.1 49,9.1 C49.2,9.4 51.4,9.8 51.9,9.9 C51,10.5 51,11.1 50.7,12.1 C50.5,12.7 50.2,13.6 49.6,13.8 C49.4,13.9 48.5,13.6 48.2,13.6 C46.4,13.4 44.5,13.2 42.7,12.9 C40.5,12.5 38.3,12.1 36.2,11.8 C35.1,11.6 33.9,11.5 32.8,11.3 C31.8,11.1 30.8,10.7 29.9,10.6 C29.9,10.4 30,9.8 30,9.7 C30.2,8.9 29.9,9.4 30.6,8.9 C30.7,8.9 31.7,9.4 31.4,8.5 C31.3,8.3 30.6,7.9 30.4,8.1 C30.5,8.2 30.5,8.3 30.6,8.4 C30.7,8.2 29.5,9.1 29.7,9.1 C29.8,8.9 29.8,8.8 29.8,8.6 C29.4,9 29.7,9.5 29.5,9.7 C29.4,9.7 28.6,9.4 28.6,9.2 L29.1,9.2 C28.9,8.8 28.6,9.1 29,8.9 C29,8.8 29.6,7.1 29.8,8.2 C30.3,8 29.5,7.8 29.6,7.5 C30.4,7.6 30,8 30.4,7.6 L30.6,6.8 C30.8,5.9 31.1,3.6 31.9,3 C33.3,4.4 35.4,5.1 37,6.1 C37.7,6.5 38.2,7.1 38.9,7.5 C39.1,7.6 40.3,8.3 39.9,7.2 C39.8,7 39.1,6.7 38.9,6.7 C37.3,5.7 35.6,4.9 34.1,3.8 C33.6,3.5 31.8,2.6 33,2.4 C33.5,2.3 34.7,3.5 35.2,2.6 C35,2.4 33.2,2 32.9,1.9 C34.6,1.6 36.4,2.9 38,3.2 C38.5,3.3 40.9,3.9 41.2,3.4 C41.7,2.6 40.7,2.5 40.1,2.3 C38.5,1.8 36.9,1.8 35.2,1.6 C34,1.4 32.7,1.1 31.5,1 C31.5,1.2 31.6,1.5 31.7,1.7 C31.8,1.7 32.2,1.3 32.5,1.3 C33,1.3 33.6,1.5 34,1.7 C34.8,1.9 36.3,1.7 36.9,2.3 C36.5,2.8 32.2,1.2 32.2,1.8 C32.7,2.3 34,2 34.5,2.6 C33.9,2.8 31.6,1.7 32.8,3.1 C33.7,4.3 35.7,4.5 36.8,5.5 C36.3,5.9 32.2,3.3 32.1,2.8 C31.3,3.4 30.7,7.5 29.9,7.5 C29.9,6.7 30.6,6.1 30.6,5.3 C30,5.5 30.1,6.7 29.8,7 C28.9,8.1 28.2,7.5 27,7 C27.1,6.6 28.7,7.7 28.7,7.5 C28.7,7.3 28.2,7.5 28.3,7.1 C28.8,6.9 28.6,7.3 29,6.6 C29.2,6.2 29.4,5.5 29.5,5 C29.7,4.4 29.9,3.8 30.1,3.2 C30.2,3 30.3,2.3 30.5,2.1 C30.7,1.9 31.1,2.4 31.3,2.4 C31.3,2.2 30.2,1.4 30.8,1.4 C31.8,1.4 31.3,2.5 31.3,2.8 C32.8,2.2 29.6,0.2 32.7,0.8 C32.9,0.9 35.2,1.3 35.2,1.1 C35.2,0.3 33,0.5 32.5,0.5 C31.6,0.4 30.7,0.2 30.2,1.1 C29.8,1.8 29.6,3.1 29.3,3.8 C29.1,4.4 28.9,5 28.7,5.6 C28.5,6 28,6.6 28,6.9 C28.1,6.9 28.2,7 28.2,7.1 C28,7.1 26.9,6.6 26.8,6.4 C26.6,6 27,5.2 26.8,4.7 C26.7,4.5 26.4,4.5 26.3,4.4 C26.1,3.9 25.9,3.8 25.5,3.4 C25,3 24,3 23.6,2.6 C23,1.8 23.5,1.2 22.3,1 C20.4,0.7 20.7,1.8 20.4,3.1 C19.9,3.1 19.3,2.3 18.7,2.8 C18,3.3 18.8,3.7 19.1,4.4 C19.3,5 19.1,6 19.3,6.4 C19.8,7.2 19.8,6.5 20.5,6.4 C20.6,6.9 20.2,7.6 20.5,7.8 C20.7,8 22.2,8 22.5,7.9 C23.3,7.8 23.4,7.5 24.1,7.2 C24.8,6.9 24.9,7.4 25.5,7.4 C26.1,7.4 27.2,6.6 27.7,7.6 C28,8.1 26.9,10.2 26.7,10.7 C26,12.5 25,14.7 24.6,16.2 C24.5,16.6 24.5,17 24.1,17.5 C23.1,18.6 22.9,16.8 21.9,17.2 C21.6,18 22.7,18.6 23.3,18.8 C23.2,18.8 25.3,19.3 25,19.5 C24.5,19.9 22.7,18.8 21.9,18.5 C18.7,17.4 15.3,17.4 12,18.3 C7,19.8 3.1,24.1 1.3,29 C-2.5,39.7 5.1,51.5 16.5,51.8 C19.7,51.9 23,50.9 25.6,49.2 C28.4,47.3 31.7,44.1 32.4,40.6 C33.7,40.6 32.4,42.2 32.2,42.9 C32.1,43.2 31.7,45.5 32.7,45.4 C32.7,45.4 33.5,42.5 33.5,42.2 C34,40.8 34.4,39.6 34.6,38.2 C35.1,35.4 34.9,32.6 34.1,29.9 C33.5,27.6 32.4,25.4 30.9,23.5 C30.2,22.6 29.5,21.8 28.6,21 C28.1,20.5 27.7,20.1 27.2,19.7 C26,18.6 27,18.9 26.7,17.5 C27,17.5 28.8,19.9 29.1,20.2 C29.9,21 30.6,21.9 31.4,22.8 C33.3,25 35.2,27.2 37.1,29.4 C38.2,30.5 39.1,31.8 40.1,32.9 C40.6,33.4 42.3,34.8 42.4,35.5 C42.5,35.8 41.7,38 41.6,38.3 C41.3,38.9 41.5,38.6 40.9,38.8 C40.7,38.9 40.1,39 39.9,39 C39.4,38.9 39,38.3 38.7,38.3 C38.2,38.6 38.7,39.7 39.2,39.8 C39.2,39.4 38.7,39.3 38.7,38.9 C38.9,38.8 39,39.3 39.1,39.3 C38.9,39.3 39.9,39.5 39.6,39.5 C40,39.7 39.8,38.7 40.2,39.7 L40.4,39.5 C40.9,40 39.6,40.1 39.4,40.1 C39.2,40.1 39,40.2 38.8,40.1 C38.6,40 38.6,39.4 38.3,39.5 C38.1,39.6 38.1,40.3 37.8,40.3 C37.9,40.1 37.9,40 37.8,39.8 C37.8,39.8 37.3,40.5 37.3,40.6 C38.4,41.1 37.7,40.4 38.3,39.8 C38.6,40 38.5,40.5 38.9,40.6 C39.3,40.8 39.7,40.1 40.2,40.3 C41,40.6 39.4,41.1 39.6,41.1 C39.4,41.1 39.1,41.2 38.9,41.2 C38.7,41.4 38.6,41.7 38.4,41.9 C38.2,41.8 38.2,41.7 38.2,41.5 C38,41.3 37.7,41.3 37.4,41.4 C36.7,41 36.6,41.5 36.7,40.5 C36.7,40.3 36.5,40 36.8,39.7 C37,39.5 38.1,39.8 37.8,39.2 C36.1,39 35.6,41.5 37,41.8 C37.2,41.9 37.5,41.5 37.7,41.6 C38.1,41.8 37.9,41.9 38.1,42.1 C38.2,42.1 38.2,42.6 38.3,42.6 C39,42.8 38.3,42.2 38.8,42 C39.5,42 38.9,41.9 39.5,41.6 C39.6,41.6 40,41.2 40,41.2 C40.1,41.1 40.5,41 40.7,40.8 C41,40.6 40.9,39.7 41.6,40 C42.1,40.2 42.1,41.7 42.8,41.6 C43,41.1 42,39.6 42.9,39.7 C43.3,39.8 43.4,40.4 43.7,40.7 C44.1,41.2 44.6,41.5 45.1,41.8 C46.2,42.3 46.9,42.2 48,41.9 C49.3,41.6 49.5,41.6 50.1,42.8 C52.1,46.9 55.7,50.1 60.2,51.4 C69.9,54.3 80,47.2 81.1,37.3 C81.4,34.3 81,31.1 79.9,28.3 C79.4,27.2 78.8,26.3 78.2,25.4 C77.8,24.8 76.8,23 76,22.8 C75.9,22.9 78.4,26.2 78.6,26.6 C79.4,28.1 80.4,30.2 80.5,31.9 C80.3,31.8 78.9,27.5 78.6,27.1 C78.3,26.6 77.1,24.2 76.6,24.2 C76.8,25 77.8,25.9 78.2,26.6 C78.6,27.4 79,28.1 79.3,28.9 C79.8,30.2 80.1,31.5 80.3,32.8 C80.8,36.4 79.9,39.3 78.9,42.6 C79.7,42.8 80.6,37.3 80.6,36.6 C80.7,35.7 80.7,34.7 80.7,33.8 C80.7,33.6 80.3,32.1 80.5,31.9 C80.6,31.8 80.9,35.4 80.8,35.9 C80.6,37.5 80.6,39 80.1,40.5 C78.7,44.5 76,48.2 72.2,50.1 C68.4,52.1 63.3,52.4 59.3,50.8 C56.7,49.7 54.5,48.2 52.7,46.1 C51.9,45.2 51.1,44.2 50.6,43.2 C50.4,42.9 49.5,41.2 49.5,41.2 C49.8,41.1 50,41 50.3,40.9 C50.2,40.7 48.5,41.1 48.4,41.4 C48.6,41.6 48.9,41.2 49.1,41.5 C49.1,41.7 47.7,42.1 48.2,41.2 C48.5,40.6 49,41 49.4,40.9 C49.2,40.7 49.2,40.4 49.1,40.2 C49.3,40.4 49.4,40.4 49.6,40.6 C49.8,40.2 49.4,39.9 49.1,40 C49.1,39.5 54.9,38.5 55.7,38.3 C56.5,38.1 64,36.7 64,37.3 C63.9,37.5 63.8,37.5 63.7,37.5 C63.3,37.2 65.4,37.8 63.2,37.3 C63,38.1 58.5,38.7 57.3,39 C56,39.3 54.7,39.7 53.5,39.9 C53,40 51.6,40.6 51.2,40.4 C50.7,40.1 51.3,39.8 51.3,39.6 C51.2,39.5 50.2,39.8 50.1,39.8 C50.3,40.4 50.3,40.6 50.9,40.8 C50.8,41 50.4,40.8 50.3,41 C50.8,41.6 49.8,41.2 49.8,41.5 C49.8,41.9 50,42 50.1,42.3 C50.3,42.8 50.8,43.5 51.1,44 C52.5,46.4 54.6,48.4 57,49.8 C60.6,51.8 65.7,52.7 69.6,51 C69.1,50.7 67.3,51.5 66.7,51.6 C65.6,51.8 64.3,51.8 63.2,51.6 C61.1,51.3 59.1,50.7 57.1,49.7 C55.7,48.9 54.5,48 53.4,46.9 C52.5,46 51.7,44.9 51.1,43.7 C50.9,43.4 50,42 50,41.7 C50,40.9 51.4,42.9 51.5,43.1 C52.1,44.2 52.7,45.2 53.5,46 C55.1,47.7 57,49.1 59.2,49.9 C63,51.3 67,51.2 70.7,49.6 C77.2,46.7 80.5,39.2 79.3,32.4 C79.1,31.2 78.8,30.1 78.3,29 C78,28.2 76.1,24 75.1,24 C74.1,24.1 75.3,25.3 75.4,25.5 C76.1,26.3 76.8,27.3 77.2,28.3 C78.1,30.1 78.6,32 78.8,34 C79.3,39.6 76.7,45.3 71.9,48.3 C70.1,49.4 68.1,50 66.1,50.2 C64.7,50.4 61.4,50.7 60.2,49.6 C59.4,48.9 61.3,45.6 61.7,44.5 C62.2,43.4 62.5,42.2 62.9,41.2 C63.1,40.5 64,39.1 63.9,38.4 C63.5,38.3 60.6,46.7 60.3,47.6 C60,48.3 60,49.3 59.3,49.3 C58.9,49.3 57.9,48.6 57.6,48.5 C56.2,47.6 54.9,46.5 53.8,45.3 C53.2,44.6 51.8,43.2 52.4,42.5 C52.8,42 54.1,41.7 54.7,41.4 C55.9,40.8 57,40.1 58.3,39.7 C59.2,39.4 61.1,38.6 62.1,38.7 C61.5,40.1 60.1,41.1 59.1,42.2 C58.5,42.8 55.1,46.1 55.4,46.6 C56.4,46.1 57.1,44.8 57.8,44 C58.5,43.2 59.2,42.5 59.9,41.7 C60.6,40.9 61.3,39.5 62.2,38.8 C62.8,38.3 63.7,38.1 64.5,38 C65.1,37.9 64.9,37.5 65.3,38 C65.6,38.3 65.6,39.8 65.7,40.3 C65.9,41.1 66,42.1 66.1,42.9 C66.2,43.5 67.1,50 67.2,49.9 C67.7,49.7 65.2,37.7 65.5,37.7 C65.7,37.7 65.6,38.4 65.9,38.3 C65.8,38.1 65.7,37.8 65.7,37.6 C65.9,37.4 66.8,39.4 67.1,39.6 C67.1,39.3 65.7,37.3 66,37.3 C66.5,37.2 67.8,39.3 68.1,39.6 C68.7,40.4 69.4,41.1 69.9,41.9 C70.4,42.5 72.9,46.7 73.7,46.6 C73.7,46 72.4,44.8 72,44.3 C71.3,43.4 70.6,42.5 69.9,41.6 C69.1,40.7 68.5,39.8 67.8,39 C67.6,38.7 66.4,37.6 66.5,37.2 C67.1,37.4 68.2,38.6 68.7,39.1 C69.4,39.7 70,40.3 70.7,40.9 C71.1,41.2 75.1,45 75.4,44.9 C75.5,44.5 73.7,43.2 73.4,43 C72.5,42.2 71.5,41.4 70.6,40.6 C69.9,40 69.3,39.4 68.6,38.8 C68.2,38.5 67.8,38 67.5,37.7 C67.3,37.5 66.7,37.2 66.6,36.9 C67.7,36.7 70.7,39.2 71.6,39.8 C72.5,40.4 73.5,41 74.4,41.6 C74.8,41.8 76.4,43.1 76.7,43 C76.8,42.8 72.5,40.2 72,40 C71.3,39.5 66.4,36.9 66.4,36.7 C67.1,35.8 70.2,36.7 71.3,36.9 C72.1,37 72.7,37.1 73.5,37.3 C74.1,37.4 77.2,38.3 77.8,37.9 C77.6,37.4 75.1,37.4 74.6,37.3 C73.4,37.1 72.2,36.9 71.1,36.8 C70,36.6 68.4,36.7 67.5,36.3 C67.3,36.2 67,36.1 66.9,36 C66.8,36 67,35.5 66.7,35.2 C66.7,35.4 66.6,35.4 66.5,35.4 C66.2,35.3 67.4,33.9 67.6,33.7 C68.6,32.7 69.6,31.9 70.6,30.9 C71.7,29.9 72.7,28.9 73.8,28 C74.2,27.6 75.6,26.7 75.6,26.2 C74.3,26.4 72.4,29 71.5,29.9 C71,30.4 70.6,30.8 70.1,31.3 C70.7,30.9 68.8,32.3 68.8,32.7 C69,32.3 68.8,32.7 68.8,32.7 L68.8,32.7 Z M34.2,0.8 C34.3,0.9 34.4,1 34.5,1 C34.1,0.9 33.4,0.9 33.1,0.7 C33.5,0.8 33.8,0.8 34.2,0.8 C34.3,0.9 33.8,0.8 34.2,0.8 L34.2,0.8 Z M31.1,0.9 C31.2,1 31.2,1.3 31,1.3 C30.9,1.2 31.1,0.9 31.1,0.9 L31.1,0.9 Z M30.6,1.4 C30.6,1.6 30.5,1.7 30.4,1.6 C30.3,1.3 30.4,1.3 30.6,1.4 C30.6,1.5 30.5,1.3 30.6,1.4 L30.6,1.4 Z M22.2,1.5 C22.4,1.6 22.7,1.6 23,1.6 C23,2.1 22.1,1.7 21.9,1.7 C21.5,1.8 21.6,2.2 21.3,2.4 C20.8,1.8 21.8,1.5 22.2,1.5 C22.4,1.5 21.7,1.5 22.2,1.5 L22.2,1.5 Z M22,1.9 C22.4,1.8 23.7,2.1 23.1,2.4 C22.6,2.7 21,2.4 22,1.9 C22.3,1.8 21.9,1.9 22,1.9 L22,1.9 Z M37.7,2.2 C37.8,1.7 40.3,2.4 40.6,2.6 C40.1,2.7 37.6,2.7 37.7,2.2 C37.8,2 37.7,2.4 37.7,2.2 L37.7,2.2 Z M37.5,2.4 C37.6,2.6 37.6,2.7 37.3,2.7 C37.1,2.5 37.4,2.2 37.5,2.4 C37.5,2.4 37.4,2.2 37.5,2.4 L37.5,2.4 Z M30,3.4 C29.8,3.7 28.9,7 28.5,7 C28.5,6.6 30.1,2.3 30.2,2.3 C30.2,2.7 30.2,3 30,3.4 C29.9,3.6 30,3 30,3.4 L30,3.4 Z M23.2,2.6 C23,3 21.2,3.2 21.2,2.6 C21.9,2.5 22.6,2.7 23.2,2.6 C23.2,2.7 22.6,2.7 23.2,2.6 L23.2,2.6 Z M23.5,3.1 C23.4,3.3 23.5,7.6 23.3,7.6 C22.9,7.5 23.1,3 23.5,2.7 L23.5,3.1 C23.5,3.2 23.5,3 23.5,3.1 L23.5,3.1 Z M21.2,3.1 C20.7,3.7 21.3,6.4 21.1,7.2 C20.9,7.3 20.9,2.7 20.9,2.8 C21.1,3 21.2,3 21.2,3.1 C21.1,3.3 21.2,3 21.2,3.1 L21.2,3.1 Z M23.8,3.2 C24,2.8 24.5,2.9 24.4,3.4 C24.2,3.4 24.2,3.1 24,3.3 C24.2,3.4 24.3,3.5 24.4,3.5 C24.3,4 23.8,3.5 23.8,3.2 C23.9,2.8 23.8,3.4 23.8,3.2 L23.8,3.2 Z M21.7,3.3 C22.7,2.1 23.4,4.2 22.9,5 C22.7,5.3 22.5,5.5 22.1,5.2 C21.3,5 21.5,4.1 21.7,3.3 C21.8,3.2 21.6,3.9 21.7,3.3 L21.7,3.3 Z M20.1,3.9 C20.1,4.2 20.3,6.1 20.1,6.2 C19.6,5.6 20.3,3.5 20.2,3.3 C20.1,3.4 20.1,3.6 20.1,3.9 C20.1,4.2 20,3.5 20.1,3.9 L20.1,3.9 Z M24.9,3.5 C25.1,3.6 25.2,3.7 25.3,3.9 C25.1,3.9 24.5,3.7 24.5,3.4 C24.7,3.3 24.8,3.3 24.9,3.5 C25.1,3.6 24.8,3.4 24.9,3.5 L24.9,3.5 Z M19.6,3.4 C19.7,3.6 19.7,3.8 19.6,4 C19.7,4 19.2,3 19.6,3.4 C19.6,3.6 19.6,3.3 19.6,3.4 L19.6,3.4 Z M20.4,3.4 C21,4 20.7,5 20.3,5.2 C20.2,5.1 20.3,3.4 20.4,3.4 C20.5,3.6 20.3,3.4 20.4,3.4 L20.4,3.4 Z M25.3,4.1 C25.5,4.3 25.8,4.6 25.8,4.8 C25.6,4.9 25.5,5 25.4,5 C25.9,5.5 25.7,4.5 26.1,4.8 C25.9,5.4 25.9,6.1 26.3,6.5 C26.2,6.8 25.8,6.5 25.8,6.7 L26,6.9 C25.8,7.4 25.8,6.4 25.8,6.4 C25.1,6.6 24.2,5.9 24,5.3 C23.9,5.1 23.9,4.2 24.1,3.9 C24.4,3.6 24.7,3.9 25.3,4.1 C25.4,4.2 24.8,4 25.3,4.1 L25.3,4.1 Z M25.6,4.1 C25.8,3.3 26.4,4.6 26.1,4.4 C25.9,4.3 25.5,4.5 25.6,4.1 C25.6,3.9 25.6,4.2 25.6,4.1 L25.6,4.1 Z M26.3,4.8 C26.2,4.7 26.3,4.6 26.5,4.6 C26.5,4.7 26.4,4.8 26.3,4.8 L26.3,4.8 Z M26.6,5.2 C26.7,5.7 26.7,6 26.7,6.5 C26.3,6.5 26.6,5.2 26.6,5.2 C26.7,5.6 26.6,5.2 26.6,5.2 L26.6,5.2 Z M53.3,5.4 C53.2,5.4 53.1,5.4 53.1,5.3 C53.2,5.3 53.4,5.3 53.3,5.4 L53.3,5.4 Z M53.8,5.4 C53.7,5.4 53.6,5.5 53.6,5.3 C53.7,5.3 53.8,5.4 53.8,5.4 L53.8,5.4 Z M53.9,5.4 C53.9,5.6 53.9,5.2 53.9,5.4 L53.9,5.4 L53.9,5.4 Z M21.7,6.3 C21.2,6.2 21.5,5.6 21.7,5.5 C22.2,5.3 22.3,6.3 21.7,6.3 L21.7,6.3 L21.7,6.3 Z M20.9,6 C20.7,6.1 20.5,6.2 20.4,6.2 C20.4,5.9 20.9,5.9 20.9,5.7 L20.9,6 C20.8,6.1 20.9,5.9 20.9,6 L20.9,6 Z M56.4,5.9 C56.6,5.8 56.7,5.9 56.8,6 L56.1,6 C56.2,5.8 56.2,5.8 56.4,5.9 C56.5,5.7 56.3,5.8 56.4,5.9 L56.4,5.9 Z M37.8,5.9 C38.1,6.1 39.3,6.7 39.3,7 C38.7,7 37.8,5.9 37.8,5.9 C38,6 37.8,5.9 37.8,5.9 L37.8,5.9 Z M22.9,6.6 C23.1,7 23,7.2 22.7,7.2 C22.7,7.1 22.7,7 22.6,7 C22.4,7.2 22.8,7.4 22.3,7.4 C22.3,7.2 22.2,6.6 22.5,6.5 L22.6,7 C22.8,6.9 22.7,6.2 23.1,6.3 C23,6.3 22.9,6.5 22.9,6.6 C22.8,6.7 22.9,6.5 22.9,6.6 L22.9,6.6 Z M60,6.6 C60,5.9 61,6.4 60.8,6.6 C60.4,6.4 60.2,6.8 60,6.6 C60,6.3 60,6.6 60,6.6 L60,6.6 Z M55.6,7.3 C55.3,7.3 55.1,7.2 54.8,7.1 C54.8,6.5 58.2,6 58.2,6.7 C58.2,7.1 55.8,7.4 55.6,7.3 C55.3,7.3 55.9,7.4 55.6,7.3 L55.6,7.3 Z M59.2,6.6 C58.9,6.9 59.2,6 59.2,6.6 C59.2,6.6 59.2,6.5 59.2,6.6 L59.2,6.6 Z M21.8,6.6 C21.7,6.8 21.7,6.9 21.6,7.1 C21.5,7.2 21.4,6.4 21.8,6.6 C21.7,6.7 21.7,6.6 21.8,6.6 L21.8,6.6 Z M22.1,7.2 C21.7,7.4 21.9,6.7 22.1,6.7 C22,6.9 22,7 22.1,7.2 C22,7.2 22.1,6.9 22.1,7.2 L22.1,7.2 Z M60.4,6.9 C60.6,7 60.8,7.7 60.9,7.9 C60.5,8.4 60.9,9.1 60.5,9.6 C60,10.3 60,8.3 60,8.2 C59.9,8.4 59.8,8.6 59.8,8.8 C59.8,8.8 59.6,7.1 60,6.8 C60,7 60,7.5 60.3,7.5 C60.6,7.6 60.2,7 60.4,6.9 C60.7,7 60.4,6.9 60.4,6.9 L60.4,6.9 Z M59.1,7 C59.3,7 59.6,6.8 59.6,7.2 C59.4,7.2 59.1,7.2 58.9,7.1 C58.8,7 58.9,6.9 59.1,7 C59.2,6.9 58.9,7 59.1,7 L59.1,7 Z M58,7.3 C58.1,7.2 58.7,7.1 58.5,7.4 C58.1,7.6 57.9,7.5 57.8,7.2 C57.8,7.2 57.9,7.2 58,7.3 C58,7.2 57.8,7.3 58,7.3 L58,7.3 Z M59.5,7.6 C59.4,7.7 58.9,7.5 58.8,7.4 C58.9,7.5 59.5,7.2 59.5,7.6 C59.4,7.7 59.5,7.2 59.5,7.6 L59.5,7.6 Z M22.4,7.5 C22.5,7.3 22.9,7.7 22.9,7.7 C22.7,7.8 21.6,7.9 21.5,7.8 C21.4,7.4 22.3,7.5 22.4,7.5 C22.5,7.4 22.1,7.5 22.4,7.5 L22.4,7.5 Z M52.9,8.1 C53.9,7.7 54.1,7.6 55.2,7.7 C56,7.8 58.1,7.2 58.7,7.8 C58.5,7.9 57.8,7.9 57.8,8.1 C57.9,8.3 58.6,8.1 58.7,8.4 C58.5,8.4 57.7,8.3 57.7,8.7 C57.7,9.2 58.5,8.8 58.7,9 C58.5,9.6 54.3,9.5 53.9,9.5 C53.5,9.5 50.7,8.9 50.7,8.7 C51,8.4 52.3,8.1 52.9,8.1 C53.1,8.1 52.3,8.1 52.9,8.1 L52.9,8.1 Z M29.1,8.3 C28.9,8.5 28.9,8.6 28.9,8.8 C28.3,8.7 28.1,9 28.3,9.5 C28.6,9.7 28.7,9.9 28.5,10.1 C28.4,10.4 28.3,10.7 28.2,11 C28,11.9 27.8,12.7 27.5,13.6 C27.3,14.4 27,15.1 26.6,15.9 C26.4,16.4 26.2,16.8 26,17.2 C25.6,17.2 25.5,17.4 25.5,17.7 C25.7,17.9 25.6,18.2 25.4,18.3 C24.9,18.1 25.7,16.3 25.6,16.3 C25.7,15.8 26.6,14.3 26.7,13.7 C27,12.9 27.2,12.1 27.5,11.3 C27.7,10.9 27.8,10.5 27.9,10.1 C28.1,9.6 28.2,9 28.5,8.6 C28.7,8.3 28.3,8.4 28.6,8.1 C28.7,8 29,8.1 29.1,8.3 C29.1,8.4 29.1,8.1 29.1,8.3 L29.1,8.3 Z M59.6,8.1 C59.5,8.3 59.2,8.2 59.1,8.1 C59.2,8.1 59.6,8 59.6,8.1 L59.6,8.1 Z M59.7,8.8 C59.5,9 59,8.7 58.8,8.8 C58.6,8.7 59.5,8.5 59.7,8.8 C59.5,9 59.5,8.5 59.7,8.8 L59.7,8.8 Z M27.9,9 C27.6,9.7 26.8,14.3 26,14.5 C26,13.9 27.7,8.7 28,8.7 C28.1,8.7 28,8.9 27.9,9 C27.8,9.2 28,8.9 27.9,9 L27.9,9 Z M50.5,8.9 C51,9 53.1,9.1 53.4,9.6 C52.8,9.8 50.5,9.1 49.9,8.8 C50.1,8.8 50.2,8.8 50.5,8.9 C50.5,9 50.2,8.9 50.5,8.9 L50.5,8.9 Z M58,9.5 C57.8,9.7 56.2,10.2 56,9.8 C56.2,9.6 58.1,9.4 58.3,9.3 C58.3,9.4 58.1,9.4 58,9.5 C57.8,9.6 58.2,9.5 58,9.5 L58,9.5 Z M29,9.6 C29.3,9.7 29.5,9.8 29.8,10.1 C29.6,10.2 29.4,10.2 29.2,10.2 C29.4,11.9 27.2,14.1 27.5,15.9 C27.4,16 27.3,16 27.2,16 C27.2,16.2 26.8,18 26.8,18 C26.6,17.9 25.9,17.8 26,17.5 C26.3,17.4 26.6,17.9 26.9,17.7 C26.5,17.1 26.4,17.3 26.7,16.5 C26.9,16 27.1,15.7 27.2,15.2 C27.4,14.7 27.6,14.2 27.7,13.7 C27.9,13.2 28.2,12.7 28.2,12.3 C28.3,11.8 28.1,11.9 28,11.5 C28.3,11.2 28.7,10.4 28.9,10 C29.1,10 28.7,9.4 29,9.6 L29,9.6 L29,9.6 Z M55.1,9.8 C55.3,10.2 54.3,9.9 54.3,9.8 L55.1,9.8 C55.2,9.9 54.9,9.9 55.1,9.8 L55.1,9.8 Z M53.1,9.9 C53.3,9.8 53.5,9.8 53.7,9.9 C52.9,10.2 52.2,10.2 51.7,10.9 C51.4,11.3 51.6,12.5 51.2,12.7 C50.8,12.6 51.5,10.9 51.7,10.6 C52,10.1 53,9.9 53.1,9.9 L53.1,9.9 L53.1,9.9 Z M54.7,10.8 C54.5,10.6 54.7,10.5 54.9,10.4 C55,10.5 54.8,10.8 54.7,10.8 L54.7,10.8 Z M30.6,10.8 C30.8,11.3 29.8,11 29.8,10.9 C29.9,10.6 30.4,11 30.6,10.8 C30.6,10.9 30.4,11.1 30.6,10.8 L30.6,10.8 Z M29.7,11 C29.6,11.2 29.5,11.2 29.5,11.1 C29.5,10.8 29.6,10.8 29.7,11 C29.6,11.1 29.6,10.9 29.7,11 L29.7,11 Z M31.1,11.1 C33.2,11.8 35.8,11.8 38,12.2 C39.3,12.4 40.6,12.7 41.8,13 C42.5,13.2 45.1,13.2 45.4,13.6 C45,14.1 41.6,13.1 41,12.9 C39.6,12.6 38.3,12.4 36.9,12.2 C35.8,12 34.8,11.9 33.8,11.7 C33.1,11.6 32.4,11.5 31.7,11.3 C31.4,11.2 30.7,10.9 31.1,11.1 C31.2,11.1 31.1,11 31.1,11.1 L31.1,11.1 Z M43.6,34.4 C43.1,33.3 41.6,32.1 40.7,31.1 C39.7,29.9 38.7,28.8 37.6,27.6 C35.9,25.7 34.4,23.8 32.6,22 C31.2,20.4 29.7,18.8 28.5,17.3 C27.6,16.2 28.1,15.2 28.6,13.9 C28.8,13.4 29.1,11.9 29.5,11.6 C30,11.4 31.6,11.9 32.3,12 C33.4,12.2 34.3,12.3 35.4,12.5 C37.6,12.8 39.8,13.2 42,13.6 C43.4,13.8 44.9,14.1 46.3,14.3 C47.1,14.4 49.9,14.5 50.1,15.1 C50.3,15.6 49.6,17.6 49.5,18.1 C49.3,19 49.1,19.9 48.8,20.8 C48.2,22.9 47.8,25.2 47.4,27.3 C47.1,28.9 45.7,32.9 46.3,34.2 C46.4,34.4 45.3,34.5 45.3,34.5 C45.1,34.6 44.6,34.9 44.3,34.9 C43.8,34.7 44.1,34.6 43.6,34.4 C43.5,34.3 43.8,34.4 43.6,34.4 L43.6,34.4 Z M51.1,13.2 C50.8,13.3 50.7,13.2 50.7,13 C50.9,12.8 51.4,12.9 51.1,13.2 C51.1,13.1 51.3,13 51.1,13.2 L51.1,13.2 Z M45.6,13.5 C45.5,13.5 45.4,13.5 45.4,13.3 C45.6,13.3 45.7,13.3 45.6,13.5 L45.6,13.5 Z M50.9,13.6 C50.5,13.8 51.1,14.4 50.6,14.5 C50.4,14.3 50.4,13.1 50.8,13.3 C50.9,13.5 50.9,13.6 50.9,13.6 C50.6,13.8 51,13.2 50.9,13.6 L50.9,13.6 Z M46.8,13.5 C47.3,13.6 48.4,13.5 48.8,13.9 C48.4,13.9 46.4,13.9 46.3,13.5 C46.4,13.4 46.5,13.4 46.8,13.5 C46.9,13.5 46.5,13.5 46.8,13.5 L46.8,13.5 Z M51.6,13.9 C51.6,13.7 51.9,13.7 51.9,13.9 C51.7,14 51.6,14.1 51.6,13.9 L51.6,13.9 Z M49.6,13.9 C49.7,13.9 50.1,14.1 50.3,14.1 C50.3,14.3 48.9,14.3 48.9,14 C49.2,13.9 49.4,13.9 49.6,13.9 C49.7,13.9 49.4,14 49.6,13.9 L49.6,13.9 Z M52.3,14 C52.3,14.4 52,13.7 52.3,14 L52.3,14 L52.3,14 Z M51,14.6 C51.3,15.1 52.4,16.3 52.4,16.9 C51.7,16.6 51.1,14.7 51,14.6 C51.1,14.8 50.9,14.6 51,14.6 L51,14.6 Z M25.9,14.9 C25.7,14.5 26.2,14.9 25.9,14.9 C25.8,14.8 26,14.9 25.9,14.9 L25.9,14.9 Z M50.2,16 C50,15.8 50.3,15.2 50.4,15.2 C50.5,15.4 50.4,15.7 50.2,16 C50,15.7 50.5,15.8 50.2,16 L50.2,16 Z M51,16.1 C51.4,16.8 51.6,17.5 52.3,18.2 C53,19 53.7,19.5 54.2,20.4 C53.2,20.5 51.4,23.4 50.9,24.2 C50.4,24.9 50,25.7 49.6,26.5 C49.3,27 46.8,33.9 47.6,34.1 C48.7,34.4 48.6,32.6 48.7,31.8 C48.9,30.4 49.4,29.1 49.9,27.8 C50.4,26.5 51.2,25.3 52.1,24.2 C52.3,23.9 54.8,21.6 54.6,21.2 C54.7,21.2 55.1,21.8 55.1,21.9 C53.5,22.2 51.6,25.6 51,26.9 C50.5,27.9 50,28.9 49.7,30.1 C49.4,31.1 48.6,33.1 48.9,34.2 C49.1,34.4 49.7,31 49.9,30.5 C50.4,29.1 51,27.6 51.7,26.4 C52.6,25 53.8,23.2 55.2,22.3 C56.7,23.7 57.8,25.8 59,27.5 C60,28.9 61.9,30.7 62.3,32.4 C61.7,32.3 60.3,30.4 59.8,30.1 C59,29.3 58.1,28.6 57.2,27.8 C56.7,27.3 54.9,26.1 54.9,25.5 C54.9,25.3 56.8,23.6 55.7,23.4 C54.9,23.7 54.4,24.8 53.9,25.4 C53.4,25.9 53,26.6 52.6,27.3 C51.8,28.5 51.2,29.9 50.9,31.2 C50.8,31.6 49.8,35.3 51,34.4 C51.4,34.1 51.2,33 51.3,32.4 C51.5,31.7 51.7,31 51.9,30.4 C52.4,29 53.1,27.7 54,26.6 C54.7,25.8 54.6,25.6 55.4,26.4 L56.8,27.8 C57.6,28.5 63.1,33.1 62.7,33.8 C61.1,33.9 60.6,33.7 59.2,33.2 C58.3,32.8 57.3,32.5 56.4,32.1 C55.9,31.9 52.1,30 51.8,30.4 C53.2,31.5 55.4,31.9 57,32.6 C57.4,32.8 60.2,33.6 60.2,33.8 C60,34.1 57.9,34 57.5,34 C56,34.1 54.5,34.2 53,34.3 C51.7,34.4 50.4,34.6 49.1,34.6 C48.8,34.6 46.4,35 46.2,34.8 C46.3,34.6 46.9,34.6 47.1,34.3 C47.3,34 47.3,33.1 47.3,32.7 C47.4,32 47.6,31.3 47.8,30.6 C48.2,29 48.5,27.4 48.9,25.8 C49.3,24.1 49.7,22.3 50,20.5 C50.2,19.7 50.4,18.8 50.5,18.1 C50.7,17.2 51.1,15.4 51,16.1 C51.1,16.3 51,16 51,16.1 L51,16.1 Z M50.1,16.9 C50.3,18 49.5,19.7 49.3,20.7 C49,22.1 48.7,23.6 48.5,25.1 C48.3,25.9 46.8,34 46.6,34 C46.4,34 48,25.8 48.1,25.6 C48.3,24.6 49.8,16.2 50.3,16.2 C50.2,16.5 50.2,16.7 50.1,16.9 C50.2,17.2 50.2,16.8 50.1,16.9 L50.1,16.9 Z M52,17.3 C51.9,17.2 51.1,16.3 51.7,16.3 C51.9,16.3 52.2,17 52.2,17 C52,16.8 51.8,16.7 51.7,16.5 C51.5,16.8 52.5,17.3 52.5,17.6 C52.2,17.7 52,17.5 52,17.3 C51.7,17.2 52,17.5 52,17.3 L52,17.3 Z M55.4,19.8 C56.2,19.7 57.1,18.8 57.9,18.4 C59,17.9 59.9,17.6 61.1,17.3 C63.5,16.7 66,16.4 68.5,16.8 C70.3,17.1 72.1,18 73.7,18.9 C74.8,19.5 75.7,20.3 76.6,21 C77.3,21.6 78.9,22.7 79.1,23.6 C78.2,23.3 77.4,21.9 76.6,21.3 C75.9,20.8 75.3,20.2 74.6,19.8 C72.7,18.5 70.6,17.5 68.4,17.2 C66,16.8 63.7,17.1 61.3,17.6 C60.3,17.8 59.4,18.1 58.5,18.5 C57.5,19 56.2,20.1 55.1,20.2 C55.3,20 55.3,19.9 55.4,19.8 C55.6,19.7 55.3,19.9 55.4,19.8 L55.4,19.8 Z M27.9,16.9 C28,17.1 28.7,18.2 28.3,18.2 C28.2,18.1 27.5,16.8 27.5,16.8 C27.7,16.6 27.8,16.7 27.9,16.9 C28,17.2 27.8,16.8 27.9,16.9 L27.9,16.9 Z M52.6,17.2 C52.5,17.2 52.4,17.1 52.4,17 C52.6,16.9 52.6,17.1 52.6,17.2 L52.6,17.2 Z M27.2,17.4 C27.1,17.4 27,17.3 27,17.2 C27,17.1 27.3,17.2 27.2,17.4 L27.2,17.4 Z M52.3,17.4 C52.1,17.4 52.1,17.4 52.1,17.2 C52.2,17.2 52.3,17.2 52.3,17.4 C52.3,17.5 52.3,17.3 52.3,17.4 L52.3,17.4 Z M25,17.3 C24.8,17.3 25,17.2 25,17.3 C25,17.3 25,17.2 25,17.3 L25,17.3 Z M52.9,17.6 C52.7,17.6 52.7,17.5 52.7,17.4 C52.8,17.3 52.9,17.5 52.9,17.6 L52.9,17.6 Z M59.2,17.7 L59.2,17.7 C59.1,17.6 59.2,17.6 59.2,17.7 L59.2,17.7 Z M58.9,17.7 C58.9,17.7 59,17.6 58.9,17.7 L58.9,17.7 L58.9,17.7 Z M24.9,17.8 C25,18 25.1,18.1 25.2,18.3 C24.9,18.4 24.5,17.8 24.9,17.8 C25,17.8 24.7,17.8 24.9,17.8 L24.9,17.8 Z M28.8,17.8 C31.1,20.9 33.9,23.7 36.5,26.7 C37.7,28.1 39,29.4 40.2,30.8 C40.7,31.5 41.3,32.1 41.9,32.8 C42.3,33.3 43.6,34.4 43.6,35 C42.8,34.9 41.2,32.5 40.6,31.8 C39.3,30.2 37.8,28.7 36.5,27.2 C35,25.5 33.5,23.7 32,22 C31.3,21.2 28.4,18.5 28.5,17.9 C28.6,17.8 28.7,17.8 28.8,17.8 C29,18.1 28.7,17.8 28.8,17.8 L28.8,17.8 Z M23.3,18.1 C23.7,18.3 25.3,18.4 25.3,18.7 C25.1,18.6 22.4,19 22.7,17.9 C23,17.8 23.2,17.9 23.3,18.1 C23.5,18.1 23.2,18 23.3,18.1 L23.3,18.1 Z M32,41.9 C31.4,42.2 30.7,44.2 30.3,44.8 C29.3,46.2 28,47.4 26.8,48.5 C24.9,49.9 22.6,51 20.3,51.4 C14.4,52.5 8.4,50.3 4.7,45.5 C-1.9,36.9 1.2,23.9 10.9,19.5 C13.5,18.3 16.5,17.8 19.2,18.1 C20.5,18.3 21.8,18.6 23.1,19.2 C23.7,19.4 24.7,20.3 25.3,20.1 C25.3,20.1 25.5,20.2 25.6,20.2 C25.8,20.1 25.6,19.4 26,19.5 C26.2,19.5 24.4,25 24.3,25.4 C24.1,26.1 23.6,28.5 23,28.9 C23,27.7 23.8,26.1 24.1,24.9 C24.3,24.2 25.3,22.1 25.2,21.4 C24.7,19.8 20.6,19.4 19.2,19.1 C14.7,18.4 9.5,20.2 6.4,23.8 C2.4,28.3 0.9,34.8 3,40.6 C5.2,46.3 10.4,50.7 16.7,50.8 C19.3,50.8 21.8,50.3 24.2,49.1 C25.9,48.3 27.3,47.1 28.6,45.7 C29.9,44.3 30.7,42.4 31.8,41 C31.8,40.7 31.7,41.2 31.8,40.5 C31,40.1 30.2,42.6 29.8,43.2 C29,44.3 28.3,45.4 27.3,46.4 C25.2,48.4 22.2,49.7 19.3,50.1 C12.2,50.9 5.8,46.7 3.7,40.1 C2.3,35.9 2.6,31.8 4.6,28 C5,25.5 8.5,22.4 10.8,21.3 C15.2,19.3 21,18.5 25.2,21.8 C24.6,24.1 23.7,27 22.5,29 C22.8,29.1 21.4,31.6 21.1,31.9 C20.6,32.6 19.1,34.8 18.2,34.6 C18.6,32.5 20.5,30.1 21.5,28.1 C22.2,26.8 22.9,25.5 23.5,24.3 C23.8,23.7 24.8,22.4 24.8,21.8 C24,21.8 22.3,26.2 21.9,27.1 C21.1,28.5 20.5,29.8 19.7,31.2 C19.3,31.9 18.6,34.2 18,34.5 C17.6,34.2 18.2,32.2 18.2,31.8 C18.4,30.4 18.7,28.9 18.9,27.4 C19.1,26.4 19.3,25.4 19.4,24.4 C19.6,23.7 20.5,20.5 20.2,20 C19.7,20.4 19.6,22.7 19.5,23.3 C19.2,25.1 18.9,26.8 18.6,28.6 C18.4,29.7 18.3,30.9 18.1,32 C18,32.7 18.2,33.8 17.7,34.4 C17.4,34.8 16.8,34.6 16.8,35.3 C16.8,36.4 18.5,36 19.4,36.3 C20.8,36.8 22.3,37.7 23.6,38.4 C24.4,38.8 30.2,42.2 30.6,41.9 C30.5,41.3 27.1,40 26.5,39.7 C25.7,39.3 25,38.9 24.2,38.6 C23.7,38.4 21,37.4 20.9,36.9 C21.3,36.6 23.8,37.7 24.4,37.9 C25.4,38.2 26.4,38.5 27.3,38.8 C28.1,39.1 29,39.3 29.9,39.6 C30.7,39.9 32.7,40.1 33.3,40.7 C32.3,41 32.1,41.4 32,41.9 C31.9,41.9 32.2,41.4 32,41.9 L32,41.9 Z M26.2,18 C26.4,18.2 27,18.1 27,18.5 C26.8,18.6 26.2,18.3 25.9,18.3 C26,18.1 26.1,18.1 26.2,18 C26.4,18.1 26,18 26.2,18 L26.2,18 Z M53.3,18.3 C53.1,18.4 53.4,17.9 53.3,18.3 C53.2,18.3 53.4,18.2 53.3,18.3 L53.3,18.3 Z M26.3,18.4 C26.5,18.6 27,18.6 26.8,18.9 C26.7,19 25.9,18.5 26,18.6 C26,18.4 26.1,18.4 26.3,18.4 C26.3,18.4 26.2,18.3 26.3,18.4 L26.3,18.4 Z M53.6,18.7 C53.5,18.7 53.5,18.7 53.6,18.7 C53.5,18.6 53.6,18.6 53.6,18.7 L53.6,18.7 Z M26.3,19.3 C26.2,19.3 25.5,19.1 25.8,18.8 C26.1,18.9 26.4,19 26.6,19.3 C26.5,19.4 26.3,19.3 26.3,19.3 C26,19.2 26.4,19.3 26.3,19.3 L26.3,19.3 Z M55,19.3 C55.2,19 54.5,19.6 54.5,19.5 C54.4,19.3 54.3,19.2 54.3,19 C54.6,19.2 54.8,19.3 55,19.3 C55,19.4 54.8,19.3 55,19.3 L55,19.3 Z M27.3,19.6 C28.5,20 30,21.9 30.8,22.9 C32.2,24.6 33.3,26.6 33.9,28.8 C33.3,28.5 33.1,26.8 32.8,26.2 C32.3,25.2 31.5,24.2 30.8,23.3 C30,22.3 29.1,21.3 28.1,20.6 C27.9,20.4 26.7,19.8 26.7,19.6 C26.9,19.5 27.2,19.5 27.3,19.6 C27.4,19.7 27.1,19.6 27.3,19.6 L27.3,19.6 Z M26.6,20 C26.6,20.1 26.3,20.5 26.2,20.2 C26.3,20.4 26.6,19.6 26.6,20 C26.5,20.1 26.6,19.9 26.6,20 L26.6,20 Z M63.4,31.3 C62.8,31.4 59.5,25.8 59.1,25.3 C58.6,24.7 57.7,23.9 57.5,23.2 C57.3,22.4 57.3,22.6 58.1,22.1 C59.2,21.4 60.2,21 61.5,20.7 C64.1,20 67,19.7 69.6,20.7 C70.7,21.1 71.6,21.5 72.5,22 C73.1,22.4 74.5,24 75.1,24 C75,24.2 74.8,24.5 74.6,24.6 C74.7,24.4 74.8,24.3 74.8,24.1 C74.6,23.9 74.5,24.4 74.2,24.4 C74.2,24.2 74.6,24.1 74.4,23.9 C73.7,24.4 73.3,25.4 72.8,26.1 C72.1,27.1 71.2,27.9 70.5,28.8 C69.4,30.1 68.3,31.8 67,32.9 C66.8,32.4 68.1,30.9 68.3,30.6 C68.8,29.7 69.4,28.8 69.8,27.8 C70.4,26.7 71,25.5 71.7,24.5 C71.9,24.1 72.9,22.8 72.8,22.4 C72.3,22.7 71.8,23.9 71.5,24.4 C71,25.4 70.4,26.3 69.9,27.3 C69.6,27.8 67.2,32.9 66.6,32.9 C66.6,31.9 67.4,30.6 67.7,29.7 C68.1,28.8 68.4,27.8 68.8,26.9 C69.1,26.1 71.1,21.6 70.8,21.3 C70,21.5 68.8,26.3 68.5,27.2 C68.1,28.3 67.7,29.2 67.3,30.1 C67.1,30.6 66.6,32.8 66.2,33 C65.8,32.2 68.6,20.5 68.4,20.5 C67.6,22.2 67.5,24.9 67.2,26.7 C67,27.8 66.7,29 66.6,30.2 C66.5,30.8 66.4,31.3 66.3,31.9 C66.2,32.5 66.2,32.9 66.3,33.3 C66.4,33.5 65.2,33.3 65.1,33.2 C64.8,33 64.6,32.3 64.5,31.8 C64,30.5 63.7,29.3 63.2,28 C62.7,26.6 62.3,25.2 61.8,23.9 C61.6,23.3 61.2,21 60.7,20.9 C60.3,21.4 62.4,26.1 62.6,26.8 C63,27.9 63.4,29.1 63.7,30.1 C63.9,30.7 64.9,32.7 64.6,33.1 C64.3,33.1 63.5,31.9 63.5,31.6 C63.6,31.7 63.7,31.8 63.8,31.8 C63.6,30.8 58.9,21.8 58.5,21.9 C58.6,21.9 63.5,31.4 63.5,31.6 C63.5,31.6 63.5,31.4 63.4,31.3 C63.3,31.3 63.4,31.4 63.4,31.3 L63.4,31.3 Z M54.7,20.4 C54.7,20.4 54.5,20.2 54.6,20.2 C54.7,20.2 54.8,20.3 54.7,20.4 L54.7,20.4 Z M20.6,33.5 C23.2,31.1 24.1,27.1 25.1,23.8 C25.3,23 25.8,20.3 26.8,20.2 C28,20.1 30,22.8 30.6,23.7 C32.6,26.3 33.8,29.4 34.2,32.7 C34.4,34.3 34.4,35.9 34.1,37.6 C34,38.1 33.9,38.5 33.9,39 C33.8,39.3 33.8,39.5 33.7,39.8 C33.5,40.3 33.3,40 33.1,40.1 C33.2,40.2 33.3,40.3 33.3,40.4 C33.3,40.2 26.1,38.3 25.4,38.1 C24,37.7 22.5,37.2 21,36.7 C20.2,36.5 18.3,36.3 17.8,35.6 C18.5,34.8 21.6,36.4 22.7,36.7 C24,37.2 25.3,37.5 26.5,37.9 C27.3,38.1 28.1,38.4 28.8,38.7 C29,38.8 30.5,39.5 30.8,39.4 C31.3,39.2 29.6,38.6 29.4,38.6 C28.6,38.4 27.8,38.1 27,37.8 C25.3,37.3 23,37 21.7,36.1 C22.9,36.3 31.2,37.2 31.2,37.5 C30.4,36.9 28.3,37 27.4,36.8 C26.3,36.6 25.1,36.4 23.9,36.3 C22.2,36.1 20.1,36 18.6,35.1 C19.2,33.7 22.8,32.9 24.2,32.4 C25.2,32 26.2,31.6 27.2,31.2 C27.8,31 30.4,30.4 30.7,29.7 C30.6,29.5 26.1,31.4 25.7,31.5 C25,31.8 24.3,32.1 23.6,32.3 C23.1,32.5 22.6,32.7 22.2,32.9 C22.1,33.2 20.3,33.8 20.6,33.5 C20.8,33.4 20.6,33.6 20.6,33.5 L20.6,33.5 Z M55.3,21.1 C55.1,20.9 54.8,20.7 54.8,20.4 C55,20.7 55.2,20.8 55.3,21.1 L55.3,21.1 Z M54.4,20.6 C54.5,20.8 54.6,20.8 54.6,21 C54.6,21 54.1,20.6 54.4,20.6 C54.4,20.8 54.4,20.6 54.4,20.6 L54.4,20.6 Z M53.9,21.1 C53.9,21 53.9,20.9 54.1,20.9 C54.1,21.1 54.1,21.1 53.9,21.1 L53.9,21.1 Z M53.6,21.4 C53,21.9 52.5,23.2 51.7,23.6 C51.7,23.1 53.5,21.2 53.9,21.1 C53.9,21.3 53.8,21.4 53.6,21.4 C53.5,21.5 53.8,21.3 53.6,21.4 L53.6,21.4 Z M55.5,21.4 C55.3,21.5 55.3,21.4 55.3,21.2 C55.4,21.2 55.5,21.3 55.5,21.4 C55.5,21.5 55.6,21.3 55.5,21.4 L55.5,21.4 Z M55.8,21.8 C55.7,21.8 55.6,21.7 55.6,21.6 C55.8,21.6 55.9,21.7 55.8,21.8 L55.8,21.8 Z M56,22.1 C55.9,22.1 55.8,22.1 55.8,21.9 C55.9,21.9 56.1,22 56,22.1 L56,22.1 Z M56.1,22.1 C56.3,22.3 56.4,22.5 56.6,22.7 C56.4,22.7 56,22.1 56.1,22.1 C56.2,22.3 56.1,22.1 56.1,22.1 L56.1,22.1 Z M56.6,22.9 C56.6,22.9 56.5,22.8 56.5,22.7 C56.6,22.8 56.7,22.9 56.6,22.9 L56.6,22.9 Z M57.3,23.6 C57.2,23.4 57,23.4 57.1,23.2 C57.2,23.2 57.3,23.4 57.3,23.6 L57.3,23.6 Z M57.3,23.9 C57.2,23.8 57.1,23.8 57.1,23.7 C57.2,23.6 57.2,23.8 57.3,23.9 L57.3,23.9 Z M51.5,24 C51.6,23.8 51.7,23.7 51.8,23.6 C51.7,23.9 51.6,23.9 51.5,24 L51.5,24 Z M51.1,24.5 C51.1,24.3 51.4,24 51.4,24 C51.4,24.2 51.3,24.3 51.1,24.5 C51.1,24.3 51.4,24.3 51.1,24.5 L51.1,24.5 Z M74.1,24.7 C74.2,24.6 74.2,24.5 74.3,24.5 C74.3,24.6 74.2,24.7 74.1,24.7 L74.1,24.7 Z M50.9,24.8 C50,26.2 49.4,27.7 48.7,29.1 C49.2,27.7 49.8,25.4 51.1,24.4 C51.1,24.7 51.1,24.8 50.9,24.8 C50.8,25 51,24.8 50.9,24.8 L50.9,24.8 Z M74.4,24.9 C74.5,25.6 73,26.9 72.6,27.5 C72,28.3 71.4,29 70.8,29.7 C70.1,30.6 67.9,34.3 66.8,33.8 C66.6,33.3 68.9,31.2 69.2,30.7 C69.8,30 70.4,29.3 70.9,28.7 C71.4,28.3 74.4,24.8 74.4,24.9 C74.4,25.2 74.4,24.9 74.4,24.9 L74.4,24.9 Z M58.8,26 C58.7,26 58.6,25.9 58.6,25.8 C58.8,25.8 58.8,25.9 58.8,26 L58.8,26 Z M60.1,27.5 C60,27.5 59.9,27.5 59.9,27.4 C60.1,27.4 60.2,27.4 60.1,27.5 L60.1,27.5 Z M60.1,27.8 C60,27.8 60,27.7 59.9,27.6 C60.1,27.7 60.1,27.8 60.1,27.8 L60.1,27.8 Z M60.7,28.6 C60.6,28.6 60.6,28.5 60.6,28.4 C60.6,28.5 60.7,28.5 60.7,28.6 L60.7,28.6 Z M61.1,28.7 C61.2,28.9 61.3,29 61.3,29.2 C61.5,29.3 60.8,28.6 61.1,28.7 C61.2,29 61.1,28.7 61.1,28.7 L61.1,28.7 Z M34.1,29.7 C33.9,29.6 33.9,28.7 33.9,28.8 C34,28.8 34.1,29.6 34.1,29.7 C33.9,29.6 34.1,29.4 34.1,29.7 L34.1,29.7 Z M22.7,29.6 C22.4,29.8 22.5,29.1 22.6,29.1 C22.7,29.3 22.8,29.5 22.7,29.6 C22.6,29.7 22.8,29.5 22.7,29.6 L22.7,29.6 Z M48.6,29.7 C48.5,29.5 48.6,29.2 48.8,29.2 C48.7,29.4 48.7,29.6 48.6,29.7 L48.6,29.7 Z M61.2,29.5 C61,29.5 61.1,29.3 61,29.3 C61.2,29.3 61.3,29.3 61.2,29.5 L61.2,29.5 Z M22.5,29.8 C22.6,29.9 22.7,30 22.7,30.2 C22.5,30.2 22.4,29.9 22.3,30 C22.4,30.2 22.5,30.3 22.6,30.4 C22.2,31 18.2,36 17.5,35.3 C17.6,34.8 19.9,33.4 20.4,33 C21.2,32.1 22.1,31 22.2,29.8 C22.3,29.7 22.3,29.7 22.5,29.8 C22.6,29.9 22.3,29.8 22.5,29.8 L22.5,29.8 Z M34.1,29.8 C34,29.6 34.4,30.7 34.3,30.8 C34.3,30.6 34.1,29.8 34.1,29.8 C34.2,30 34.1,29.8 34.1,29.8 L34.1,29.8 Z M62.8,30.8 C63.1,31.1 62.7,30.9 62.6,31 C62.9,31.5 63.3,32 63.7,32.3 C63.8,32.6 64,33 64.1,33.4 C63.9,33.3 61.9,30.3 62,30.2 C62.3,30.2 62.3,30.8 62.8,30.8 C62.8,30.8 62.3,30.8 62.8,30.8 L62.8,30.8 Z M48.4,30.4 C48.4,30.3 48.4,30.1 48.5,30.1 C48.6,30.2 48.5,30.4 48.4,30.4 L48.4,30.4 Z M48.3,31.1 C48.3,31 48.4,30.6 48.5,30.6 C48.4,30.8 48.4,30.9 48.3,31.1 C48.2,30.9 48.3,31 48.3,31.1 L48.3,31.1 Z M34.4,30.9 C34.6,31 34.6,32 34.6,32 C34.6,32.3 34.4,30.9 34.4,30.9 C34.5,31 34.4,30.9 34.4,30.9 L34.4,30.9 Z M48.2,31.5 C48.3,31.3 48.2,31.3 48.3,31.1 C48.3,31.2 48.3,31.4 48.2,31.5 L48.2,31.5 Z M62.5,31.3 C62.8,31.6 63,32 63.3,32.4 C62.9,32.3 62.6,31.3 62.5,31.3 C62.8,31.6 62.4,31.3 62.5,31.3 L62.5,31.3 Z M63.5,32 C63.3,32 63.3,31.8 63.3,31.8 C63.4,31.9 63.5,31.9 63.5,32 L63.5,32 Z M48,32.4 C48,32.3 47.9,32.1 48.1,32 C48.2,32.2 48,32.3 48,32.4 L48,32.4 Z M64,32.6 C63.9,32.6 63.8,32.4 63.8,32.3 C63.8,32.5 64,32.5 64,32.6 L64,32.6 Z M63.4,32.7 C63.3,32.6 63.2,32.6 63.2,32.5 C63.3,32.4 63.3,32.6 63.4,32.7 L63.4,32.7 Z M47.9,33.5 C47.9,33.3 47.9,32.8 48.1,32.6 C48,32.9 48,33.2 47.9,33.5 L47.9,33.5 Z M81,32.9 C81,32.8 81,32.8 81,32.9 C81.1,32.8 81,32.9 81,32.9 L81,32.9 Z M54.7,34 C56.3,33.9 57.9,33.8 59.5,33.7 C60.3,33.6 62.6,33.1 63.3,33.5 C62.5,33.7 54.1,34.1 54.1,34 C54.3,34 54.4,33.9 54.7,34 C54.8,34 54.4,34 54.7,34 L54.7,34 Z M65.9,33.8 C66,33.9 66.1,33.9 66.1,34 C65.9,34.2 65.5,34.1 65.5,33.8 C65.7,33.7 65.9,33.7 65.9,33.8 C66.1,33.8 65.9,33.7 65.9,33.8 L65.9,33.8 Z M63.7,33.8 C63.5,33.8 63.6,33.7 63.7,33.8 C63.6,33.8 63.7,33.8 63.7,33.8 L63.7,33.8 Z M61.5,33.9 C62.1,33.8 62.8,33.7 63.4,33.7 C63.3,33.7 62.1,33.9 62,33.9 C62.3,34.1 62.6,34.1 62.9,33.9 C63.1,34.2 62.1,34.2 61.9,34.2 C61.9,34.1 61.9,34 62,33.9 C61.7,33.7 60.9,34.2 60.8,33.9 L61.5,33.9 C61.6,33.9 61.2,34 61.5,33.9 L61.5,33.9 Z M65.2,34 C65,34.1 65,34.2 65,34.5 C64.8,34.3 64.7,34.2 64.7,33.9 C64.8,33.9 65.2,33.7 65.2,34 C65,34 65.2,33.7 65.2,34 L65.2,34 Z M67,34.2 C67,34.3 66.9,34.6 66.8,34.6 C66.8,34.4 66.5,34.2 66.5,34.1 C66.6,34 66.8,34.1 67,34.2 C67,34.3 66.8,34.1 67,34.2 L67,34.2 Z M44.3,35.8 C44.8,35.7 45.5,35.2 46.1,35.1 C46.6,35 47.2,34.9 47.8,34.9 C49.5,34.8 51,34.2 52.8,34.3 C54.4,34.4 55.8,34.3 57.4,34.2 C58,34.1 60.2,33.7 60.6,34 C60.4,34.3 58.2,34 58.1,34.4 C58.3,34.3 58.5,34.4 58.6,34.5 C58.4,34.6 58.3,34.7 58.2,34.7 C58.8,34.8 59.8,34.5 60.4,34.8 C60.2,35 58.3,35 57.9,34.9 C57.8,34.8 58,34.5 57.9,34.4 C56.7,34.3 55.3,34.6 54.1,34.7 C53.5,34.8 50.8,35.2 50.3,34.9 C50.4,34.7 50.8,35 50.8,34.7 C50.7,34.6 48,35.2 47.9,35.2 C48.1,35.2 48.2,35.2 48.4,35.3 C48.7,35.7 47.5,35.2 47.6,35.3 C47.4,35.3 46.9,36.2 46.3,35.9 C46.2,35.4 47.3,35.7 47.3,35.4 C47.1,35.1 45.4,35.8 45.1,35.9 C44,36.5 44.1,37.2 43.7,38.1 C43.5,38.7 43.1,39.4 42.9,38.4 C42.8,37.5 43.8,36.4 44.3,35.8 C44.4,35.8 44.1,36.1 44.3,35.8 L44.3,35.8 Z M63.2,34.1 C63.4,33.9 63.5,33.9 63.7,34.2 C63.5,34.4 63.3,34.4 63.2,34.1 C63.2,33.9 63.2,34.2 63.2,34.1 L63.2,34.1 Z M64.1,34.4 C64.1,34.7 64.3,35.2 64.3,35.4 C64.4,35.6 64.5,35.1 64.6,35.4 C64.6,35.5 64.8,36 64.6,36 C64.1,35.6 63.8,35.2 64,34.2 C64.1,34.1 64.1,34.2 64.1,34.4 C64.1,34.7 64.1,34.2 64.1,34.4 L64.1,34.4 Z M66.5,34.3 L66,34.7 C65,34.8 65.6,34.1 66.5,34.3 C66.5,34.4 66.1,34.2 66.5,34.3 L66.5,34.3 Z M61.1,34.4 C61.3,34.3 61.5,34.3 61.6,34.4 C61.5,34.6 60.6,34.8 60.6,34.5 C60.7,34.3 60.9,34.3 61.1,34.4 C61.1,34.4 60.9,34.4 61.1,34.4 L61.1,34.4 Z M45.6,34.8 C46,34.3 48.8,34.6 48.8,34.3 C48.7,34.5 45.3,35 45.1,34.9 C45.3,34.9 45.4,34.8 45.6,34.8 C45.7,34.7 45.4,34.8 45.6,34.8 L45.6,34.8 Z M60,34.4 C60.2,34.1 59.1,34.8 59.3,34.3 C59.5,34.3 59.8,34.4 60,34.4 C60,34.4 59.8,34.3 60,34.4 L60,34.4 Z M64.8,34.7 C64.6,34.8 64.6,34.7 64.6,34.5 C64.7,34.6 64.7,34.7 64.8,34.7 C64.7,34.7 64.8,34.6 64.8,34.7 L64.8,34.7 Z M62,34.6 C62.2,34.6 63.6,34.4 63.7,34.6 C64.3,35.4 61.4,35.4 61.2,35.4 C60.6,35.5 56.8,35.9 56.8,36.3 C57.3,36.6 59.1,35.9 59.7,35.8 C60.1,35.7 62.7,35 62.9,35.4 C61.6,36.2 59.4,36.2 58,36.5 C56.3,36.8 54.8,37.3 53.1,37.6 C52.9,37.7 51,38 51.7,38.4 C52,38.6 53.6,37.9 53.9,37.9 C55.9,37.4 58.1,37.1 60,36.8 C60.6,36.3 63.4,35.4 64.4,35.7 C64.1,36.2 64.5,36.1 64,36.4 C63.6,36.6 63,36.6 62.6,36.7 C62,36.9 61.3,37 60.6,37.1 C59.1,37.3 57.6,37.6 56.2,37.9 C55.3,38.1 54.3,38.3 53.3,38.4 C53,38.5 50.4,39.2 50.1,39 C49.9,38.7 50.4,38.5 50.3,38.2 C50.3,38 50,37.9 49.9,37.7 C49.7,37 50,37.1 49.2,36.6 C49.7,36.4 49.1,36.4 49.1,36.1 C49.1,36 49.7,35.7 49.3,35.6 C49.2,35.6 48.2,35.8 48.2,35.5 C48.7,34.8 50.3,35.6 50.4,35.2 C50.2,35.2 50.1,35.2 49.9,35.1 C50.2,34.6 50.4,34.9 50.4,35.2 C51.2,35.5 52.3,35 52.8,34.8 C52.8,34.9 52.8,35 52.7,35.1 C53.2,35.2 54.2,35.2 54.7,34.9 C54.6,34.8 54.5,34.7 54.6,34.6 C54.9,34.7 56.4,34.3 56.6,34.6 C56.4,34.8 55.2,35.1 55.1,35 C55.1,34.9 55.1,34.9 55.2,34.8 C54.8,34.6 55.1,35.1 54.7,35.2 C54.2,35.3 53.7,35.1 53.3,35.2 C52.5,35.4 52.8,35.4 52.4,35.8 C51.9,36.6 53.4,35.3 53,35.3 C53,35.5 53.1,35.5 53.2,35.6 C53.3,35.5 53.3,35.4 53.3,35.2 C53.8,35.2 54,35.3 54.7,35.1 C54.7,35.2 54.9,35.4 54.9,35.3 C54.6,35.5 54,35.5 53.9,36 C54.1,36.2 54.3,36.2 54.6,36.2 C54.5,36 54.4,35.9 54.5,35.7 C54.7,35.3 54.8,35.9 54.7,36.2 L55.3,36.2 C54.5,36.8 52.4,35.7 51.9,36.9 C52.2,37.1 56.7,36.5 56.7,36.2 C56.5,35.8 56.5,36.6 56.5,36 C56.8,36.1 56.7,36.2 57,35.9 C56.8,35.9 55,35.1 55,35.1 C55.5,34.5 62.3,34.8 62.4,34.6 C62.1,34.5 60.9,34.7 60.7,34.4 C61,34.7 61.5,34.7 62,34.6 C62,34.6 61.4,34.7 62,34.6 L62,34.6 Z M66.3,34.7 C66.2,34.8 66.1,34.7 66.1,34.5 C66.2,34.5 66.3,34.6 66.3,34.7 L66.3,34.7 Z M57.1,34.6 C57.3,34.5 57.6,34.5 57.7,34.8 C57.5,34.9 56.9,35.1 56.8,34.7 C56.8,34.7 56.9,34.6 57.1,34.6 C57.3,34.6 56.9,34.6 57.1,34.6 L57.1,34.6 Z M17.2,34.8 C17,34.9 16.8,35 16.7,35 C16.6,34.7 17.2,34.6 17.2,34.8 C17.2,34.8 17.2,34.6 17.2,34.8 L17.2,34.8 Z M53.9,34.8 C54.2,34.9 53.4,35.3 53.2,35 C53.5,34.7 53.7,34.7 53.9,34.8 C54,34.8 53.7,34.7 53.9,34.8 L53.9,34.8 Z M17.4,34.9 C17.4,35.1 17.2,35.1 17.2,34.9 L17.4,34.9 L17.4,34.9 Z M51.7,35.1 C51.7,35.3 51,35.3 50.9,35.1 C51.1,35 51.7,34.8 51.7,35.1 C51.7,35.2 51.7,34.9 51.7,35.1 L51.7,35.1 Z M44.1,35.3 C44,35.3 45,34.9 45,35.1 C44.8,35.1 44.1,35.6 44.1,35.3 C44.4,35.2 44.1,35.4 44.1,35.3 L44.1,35.3 Z M16.9,35.3 C17.1,35.3 17.1,35.4 17.1,35.5 C16.4,35.5 17.2,34.8 16.9,35.3 C16.9,35.3 17,35.2 16.9,35.3 L16.9,35.3 Z M65.9,36.3 C65.7,36 65.2,35.5 65.8,35.3 C66.7,35 66.2,35.8 66.3,35.9 C66.2,35.7 65.8,36 65.9,36.3 C66.1,36.6 66.8,36.5 67.2,36.4 C67.3,36.6 66,36.6 65.9,36.3 C65.8,36 65.9,36.4 65.9,36.3 L65.9,36.3 Z M63.4,35.3 C63.8,35.2 63.7,35.5 63.2,35.5 C63.2,35.3 63.2,35.3 63.4,35.3 C63.5,35.3 63.3,35.3 63.4,35.3 L63.4,35.3 Z M16.5,35.4 C16.5,35.3 16.5,35.3 16.5,35.4 C16.6,35.3 16.6,35.4 16.5,35.4 L16.5,35.4 Z M63.1,35.4 C63.1,35.5 62.9,35.5 62.9,35.4 C62.9,35.4 63.1,35.3 63.1,35.4 L63.1,35.4 Z M67.1,35.4 C67.1,35.6 67,35.2 67.1,35.4 L67.1,35.4 L67.1,35.4 Z M43.7,35.9 C43.6,36.1 43.5,36.2 43.3,36.3 C43.3,36 43.7,35.5 44,35.5 C44,35.7 43.8,35.8 43.7,35.9 C43.6,36 43.8,35.7 43.7,35.9 L43.7,35.9 Z M17.2,35.7 C16.8,35.9 17.2,35.4 17.2,35.7 C17.1,35.7 17.2,35.7 17.2,35.7 L17.2,35.7 Z M63.1,35.7 C62.8,35.7 63.2,35.5 63.1,35.7 C63,35.7 63.1,35.7 63.1,35.7 L63.1,35.7 Z M62.8,35.7 C62.8,35.8 62.6,35.8 62.6,35.7 L62.8,35.7 L62.8,35.7 Z M65,35.9 C64.9,35.9 64.8,35.9 64.8,35.7 C65,35.7 65.1,35.8 65,35.9 L65,35.9 Z M67.4,35.9 C67.4,35.7 67.4,35.9 67.4,35.9 C67.4,35.8 67.4,35.9 67.4,35.9 L67.4,35.9 Z M45.6,36 C45.8,35.8 45.9,35.8 46.1,35.9 C46.1,36.1 45.3,36.4 45.2,36.4 C45.2,36.1 45.3,36 45.6,36 C45.7,35.9 45.4,36 45.6,36 L45.6,36 Z M61.7,36 L61.7,36 L61.7,36 L61.7,36 Z M61.4,36 C61.5,36 61.5,35.9 61.6,35.9 C61.7,36 61.5,36.1 61.4,36 L61.4,36 Z M55,36.4 C54.8,36.3 54.9,36 55.1,36 C55.2,36.2 55.1,36.3 55,36.4 L55,36.4 Z M55.9,36.3 C55.9,36.5 55.9,36.5 55.8,36.7 C55.6,36.7 55.3,36.6 55.2,36.4 C55.2,36.5 55.7,36 55.6,36.1 C55.8,36.1 55.9,36.2 55.9,36.3 C55.9,36.4 55.9,36.2 55.9,36.3 L55.9,36.3 Z M48.2,36.3 C48.5,36.5 49.1,37.5 48.7,37.4 C48.8,37.4 48.9,37.3 48.9,37.3 C49.3,37.5 47.8,38.2 47.8,38.2 C47.8,38.1 48.9,36.7 48.1,36.6 C48.1,36.8 48,36.8 47.9,37 C47.7,36.8 47.7,36.5 47.5,36.3 C47.8,36 48,36.1 48.2,36.3 C48.4,36.4 48,36.2 48.2,36.3 L48.2,36.3 Z M60.9,36.2 C60.7,36.2 60.7,36.4 60.4,36.4 C60.4,36.2 60.8,36.2 60.9,36.2 L60.9,36.2 Z M45.4,36.9 C45.5,36.7 46.5,36.1 46.8,36.3 C47.1,36.5 46.9,37.6 46.8,37.6 C46.6,37.4 47,36.5 46.6,36.4 C46.2,36.3 46.3,36.9 46.1,36.9 C45,36.7 45.9,37.4 45.9,38 C45.8,38 45.1,37.4 44.8,37.4 C44.7,37.2 45.3,36.9 45.4,36.9 C45.5,36.7 45.2,36.9 45.4,36.9 L45.4,36.9 Z M65,36.6 C64.9,36.6 64.8,36.5 64.7,36.4 C64.8,36.2 65,36.3 65,36.6 L65,36.6 Z M43.4,36.5 C43.3,36.7 43,37.6 42.8,37.7 C42.6,37.2 43.4,36.4 43.4,36.5 C43.3,36.5 43.4,36.4 43.4,36.5 L43.4,36.5 Z M59.5,36.5 C59.6,36.5 59.6,36.4 59.7,36.4 C59.8,36.5 59.6,36.5 59.5,36.5 L59.5,36.5 Z M59.2,36.5 C59.3,36.4 59.4,36.4 59.6,36.4 C59.5,36.6 58.7,36.6 59.2,36.5 C59.3,36.5 59.2,36.6 59.2,36.5 L59.2,36.5 Z M47.4,37.2 C47.4,37.4 47.4,37.4 47.2,37.5 C47.2,37.5 47.2,36.4 47.4,36.4 L47.4,37.2 C47.4,37.4 47.4,37 47.4,37.2 L47.4,37.2 Z M45.1,36.6 C45,36.8 44.9,37.1 44.6,37.2 C44.2,37 44.9,36.3 45.1,36.6 C45,36.9 45,36.4 45.1,36.6 L45.1,36.6 Z M58.6,36.6 C58.7,36.5 58.8,36.5 58.9,36.5 C58.9,36.7 58.6,36.8 58.6,36.6 L58.6,36.6 Z M46.4,37.2 C46.3,37.1 46.3,36.8 46.4,36.7 C46.5,36.6 46.5,37.1 46.4,37.2 L46.4,37.2 Z M58.3,36.8 C58.1,36.8 58.1,36.9 57.9,36.9 C58,36.7 58.3,36.6 58.3,36.8 C58.3,36.8 58.3,36.7 58.3,36.8 L58.3,36.8 Z M20,36.8 C19.9,36.8 19.8,36.8 19.8,36.7 C19.9,36.7 20.1,36.7 20,36.8 L20,36.8 Z M66.7,36.8 C66.9,37.1 66.3,37.3 66.1,37 C66.2,36.9 66.5,36.8 66.7,36.8 L66.7,36.8 Z M63.4,36.8 C63.4,37 63.2,36.6 63.4,36.8 L63.4,36.8 L63.4,36.8 Z M57.8,36.9 C57.5,37 57.2,37.1 57,37.1 C57,37 58,36.7 57.8,36.9 C57.6,36.9 57.8,36.9 57.8,36.9 L57.8,36.9 Z M63,36.9 C63,37.1 62.8,37.1 62.8,36.9 C62.9,36.9 63,36.8 63,36.9 L63,36.9 Z M65,36.9 C64.9,37 64.7,37 64.7,36.8 C64.7,36.9 65,36.8 65,36.9 L65,36.9 Z M62.4,36.9 C62.5,36.9 62.6,36.8 62.6,36.8 C62.4,37 62.2,37 62,37 C62.2,37 62.3,37 62.4,36.9 C62.5,36.9 62.3,36.9 62.4,36.9 L62.4,36.9 Z M48,37.5 C47.9,37.4 47.9,37.1 48,37 C48.1,37.2 48,37.3 48,37.5 L48,37.5 Z M62,37 C61.9,37.2 61.7,37.2 61.5,37.1 C61.7,37.1 61.9,37 62,37 L62,37 Z M56.6,37.1 C56.6,37 56.8,37 56.8,37.1 C56.8,37.1 56.6,37.2 56.6,37.1 L56.6,37.1 Z M56.5,37.2 C56.3,37.3 55.8,37.4 55.5,37.4 C55.9,37.2 56.2,37.1 56.5,37.2 L56.5,37.2 Z M60.6,37.3 C60.9,37.2 61.2,37.1 61.6,37.1 C61.4,37.2 59.6,37.6 59.6,37.4 C59.8,37.4 60.2,37.4 60.6,37.3 C60.8,37.2 60.2,37.4 60.6,37.3 L60.6,37.3 Z M65.7,37.4 C65.5,37.5 65.3,37.5 65.1,37.6 C65,37.3 65.6,37 65.7,37.4 C65.6,37.5 65.6,37 65.7,37.4 L65.7,37.4 Z M55.5,37.3 C55.4,37.4 55.3,37.5 55.1,37.4 C55.2,37.4 55.3,37.2 55.5,37.3 L55.5,37.3 Z M54.1,37.7 C53.7,37.9 52.1,38.3 51.8,38.2 C52.9,38 53.8,37.7 54.9,37.5 C54.6,37.6 54.4,37.7 54.1,37.7 C54,37.7 54.4,37.6 54.1,37.7 L54.1,37.7 Z M44.3,37.5 C44.3,37.6 44.1,38.4 44,38.2 C43.8,38.1 44.1,37.5 44.3,37.5 C44.3,37.7 44.2,37.5 44.3,37.5 L44.3,37.5 Z M64.6,37.5 C64.9,37.8 63.8,37.8 63.8,37.8 C63.9,37.5 64.4,37.5 64.6,37.5 C64.7,37.5 64.3,37.5 64.6,37.5 L64.6,37.5 Z M59.3,37.5 C59.3,37.5 59.2,37.6 59.1,37.5 L59.3,37.5 L59.3,37.5 Z M58.5,37.7 C58.5,37.6 58.6,37.6 58.7,37.6 C58.6,37.7 58.5,37.7 58.5,37.7 L58.5,37.7 Z M48.3,38.3 C48.5,38.2 49.1,37.7 49.2,37.8 C49.7,38 49.4,39.2 49.2,39.6 C49,40.1 48.9,39.7 48.9,39.7 C49.6,40.1 48.6,38.6 48.7,39 C48.8,38.8 49.2,39 49.2,38.6 C49,38.4 47.8,38.8 47.9,38.5 C48.1,38.4 48.3,38.3 48.3,38.3 C48.4,38.2 48.2,38.4 48.3,38.3 L48.3,38.3 Z M45.2,37.9 C45.7,38.4 45.5,38.4 45,38.5 C44.1,38.7 44.6,37.4 45.2,37.9 C45.3,38 45,37.8 45.2,37.9 L45.2,37.9 Z M63.5,37.9 C63.4,38.1 62.9,38.3 62.7,38.1 C62.9,38 63.2,37.7 63.5,37.9 L63.5,37.9 Z M62,38.2 C62.5,38.2 61.5,38.5 61.5,38.5 C61.6,38.3 61.7,38.2 62,38.2 C62,38.2 61.8,38.2 62,38.2 L62,38.2 Z M41.9,39.3 C43,38.8 44.4,39.2 45.5,38.9 C46,38.7 46.7,38.1 47.2,38.4 C48.2,38.9 47.1,39.5 46.6,39.5 C46.4,39.5 45.8,39.3 45.5,39.3 C45,39.3 44.5,39.4 44.1,39.5 C43.6,39.6 43,39.7 42.4,39.7 C42.2,39.7 41.4,39.9 41.3,39.6 C41.4,39.3 41.5,39.2 41.9,39.3 C42.3,39.1 41.7,39.2 41.9,39.3 L41.9,39.3 Z M61,38.7 C60.8,38.8 60.4,38.9 60.3,38.7 C60.4,38.7 61,38.3 61,38.7 L61,38.7 Z M44.1,38.5 C44.3,38.7 44.3,38.8 44,38.8 C43.8,38.7 43.9,38.6 44.1,38.5 C44.2,38.6 44,38.5 44.1,38.5 L44.1,38.5 Z M59.8,38.7 C60,38.8 59.4,39.1 59.3,38.9 C59.5,38.8 59.6,38.7 59.8,38.7 C59.9,38.7 59.7,38.7 59.8,38.7 L59.8,38.7 Z M58,39.1 C58.2,39 58.4,39 58.6,39 C58.8,39.3 57.9,39.4 57.8,39.2 C57.8,39.1 57.9,39.1 58,39.1 C58.2,39 58,39.1 58,39.1 L58,39.1 Z M48.5,39.3 L48.7,39.5 C48.6,39.7 48,39.3 48.1,39.1 C48.3,39.1 48.4,39.2 48.5,39.3 C48.6,39.3 48.4,39.2 48.5,39.3 L48.5,39.3 Z M56.8,39.6 C56.8,39.4 57.4,39.4 57.5,39.4 C57.8,39.6 56.8,39.9 56.8,39.6 C56.8,39.4 56.8,39.6 56.8,39.6 L56.8,39.6 Z M48,39.6 C48.1,39.7 48.8,40.2 48.9,40.4 C48.4,40.5 47.7,41.8 47.2,40.9 C46.5,39.5 48.1,40.5 48.2,40.1 C48.3,39.9 47.8,39.6 48,39.6 C48.2,39.7 48,39.6 48,39.6 L48,39.6 Z M44.3,39.6 C44.5,39.8 44.5,40 44.5,40.2 C44.1,40.4 44.1,39.6 44.3,39.6 C44.4,39.9 44.2,39.6 44.3,39.6 L44.3,39.6 Z M55.9,39.9 C56.1,39.7 56.1,39.7 56.3,39.9 C56.1,40.1 55.9,40.1 55.7,40.1 C55.7,39.8 55.8,39.8 55.9,39.9 C55.9,39.8 55.8,39.8 55.9,39.9 L55.9,39.9 Z M46.2,39.8 C47,40.6 46.5,40.5 46.7,41.5 C45.7,41.4 44.4,39.6 46.2,39.8 C46.4,39.9 45.7,39.7 46.2,39.8 L46.2,39.8 Z M45.1,39.9 C45.1,40 45,40.1 44.9,40 C45,39.9 45,39.8 45.1,39.9 L45.1,39.9 Z M52.9,40.9 C53.7,40.4 56.5,39.6 57.3,39.8 C57.3,40.5 53.2,41.3 52.8,42.1 C52,41.9 52.4,41.2 52.9,40.9 C53,40.8 52.8,41 52.9,40.9 L52.9,40.9 Z M54.9,39.9 C55.1,39.8 55.1,39.8 55.2,40 C55.1,40.2 54.9,40.2 54.6,40.2 C54.6,40 54.7,39.9 54.9,39.9 C55.1,39.9 54.7,40 54.9,39.9 L54.9,39.9 Z M41.4,40.3 C41.2,40.2 41.2,40.1 41.3,39.9 C41.5,39.9 41.5,40.2 41.4,40.3 C41.3,40.3 41.6,40.2 41.4,40.3 L41.4,40.3 Z M53.7,40.2 C53.9,40.1 54,40 54.2,40.2 C54.2,40.5 53.4,40.5 53.3,40.4 C53.4,40.3 53.5,40.3 53.7,40.2 C53.9,40.2 53.5,40.3 53.7,40.2 L53.7,40.2 Z M52.1,40.7 C52.3,40.6 52.4,40.6 52.5,40.5 C52.7,40.8 52,40.9 51.8,40.9 C51.9,40.8 52,40.8 52.1,40.7 C52.3,40.7 52,40.8 52.1,40.7 L52.1,40.7 Z M47,41.4 C47,41.3 47,40.7 47.2,40.7 C47.2,41 47.1,41.2 47,41.4 C46.9,41.2 47.2,41.4 47,41.4 L47,41.4 Z M45.2,41.1 C45.3,41.3 45.4,41.3 45.5,41.5 C45.4,41.7 44.9,41 44.8,41 C45,40.7 45.2,40.8 45.2,41.1 C45.3,41.1 45.3,40.8 45.2,41.1 L45.2,41.1 Z M78.4,42.3 C78.6,42.1 78.6,41.8 78.8,41.5 C78.7,41.7 78.6,42 78.4,42.3 C78.4,42 78.6,42 78.4,42.3 L78.4,42.3 Z M46.7,41.7 C46.7,41.9 46.2,41.8 46.2,41.5 C46.3,41.5 46.7,41.6 46.7,41.7 L46.7,41.7 Z M48,41.7 C48,41.9 47.5,41.8 47.4,41.8 C47.4,41.6 48,41.5 48,41.7 L48,41.7 Z M78.1,42.9 C78.1,43 78,43.1 77.9,43.1 C78,42.8 78.1,42.6 78.4,42.3 C78.3,42.5 78.3,42.6 78.1,42.9 C78,42.9 78.2,42.6 78.1,42.9 L78.1,42.9 Z M4.1,42.7 C4.1,42.6 4,42.6 3.9,42.5 C4,42.4 4.2,42.6 4.1,42.7 L4.1,42.7 Z M30.2,42.6 L30.2,42.6 L30.2,42.6 L30.2,42.6 Z M30,43.1 C30,42.9 30.1,42.8 30.2,42.7 C30.2,42.9 30.2,43 30,43.1 L30,43.1 Z M4.4,43.2 C4.2,42.9 4.5,43.2 4.4,43.2 L4.4,43.2 L4.4,43.2 Z M77.8,43.4 C77.8,43.3 77.9,43.3 77.8,43.4 C77.9,43.3 77.8,43.4 77.8,43.4 L77.8,43.4 Z M29.6,43.8 C29.7,43.6 29.7,43.5 29.8,43.4 C29.8,43.6 29.7,43.7 29.6,43.8 L29.6,43.8 Z M77.3,44.4 C77.1,44.6 74.8,47.7 74.4,47.4 C74.7,46.7 75.9,46 76.4,45.4 C76.8,44.9 77.2,44 77.7,43.7 C77.6,43.8 77.4,44.1 77.3,44.4 C77.1,44.5 77.4,44.1 77.3,44.4 L77.3,44.4 Z M29.2,44.4 C29.1,44.5 29,44.6 29,44.7 C29,44.6 29.5,43.9 29.6,43.9 C29.4,44.2 29.3,44.4 29.2,44.4 C29.1,44.5 29.3,44.3 29.2,44.4 L29.2,44.4 Z M5.2,44.2 C5.3,44.3 5.9,44.9 5.8,45 C5.6,44.9 5.1,44.2 5,44 C5.1,44 5.1,44.1 5.2,44.2 C5.2,44.2 5.1,44.1 5.2,44.2 L5.2,44.2 Z M6.4,45.7 C6.2,45.7 6.2,45.5 6.2,45.4 C6.2,45.6 6.3,45.6 6.4,45.7 L6.4,45.7 Z M28.4,45.6 C28.1,45.6 28.4,45.3 28.4,45.6 C28.3,45.6 28.4,45.5 28.4,45.6 L28.4,45.6 Z M27.9,45.9 C28,45.9 28,45.8 28.1,45.8 C28.1,45.9 27.9,45.9 27.9,45.9 L27.9,45.9 Z M27.8,46 C27.7,45.9 27.9,45.8 28,45.9 C27.8,45.9 27.8,46 27.8,46 L27.8,46 Z M6.9,46 C7,46.2 7.1,46.4 7.2,46.5 C6.9,46.4 6.7,46.2 6.6,46 L6.9,46 C6.9,46.3 6.8,46 6.9,46 L6.9,46 Z M27.3,46.4 C27.5,46.3 27.5,46.2 27.6,46.1 C27.6,46.2 27.5,46.4 27.3,46.4 C27.3,46.3 27.5,46.4 27.3,46.4 L27.3,46.4 Z M27.2,46.5 C27.2,46.6 27.1,46.6 27,46.6 C27,46.5 27.1,46.5 27.2,46.5 L27.2,46.5 Z M56.6,47.3 C56.3,47.1 56.1,47 55.8,46.7 C55.9,46.6 56.7,47.4 56.6,47.3 C56.4,47.2 56.5,47.1 56.6,47.3 L56.6,47.3 Z M7.5,46.9 C7.4,47 7.3,46.8 7.3,46.7 C7.4,46.8 7.5,46.8 7.5,46.9 L7.5,46.9 Z M15.1,50.3 C17.2,50.5 19.6,50.4 21.6,49.7 C22.1,49.5 26.7,46.9 26.7,46.9 C26.7,47.7 22.9,49.4 22.2,49.6 C20.3,50.4 16.6,51.1 14.6,50.3 C14.8,50.2 15,50.2 15.1,50.3 C15.3,50.3 15,50.2 15.1,50.3 L15.1,50.3 Z M8,47.1 C7.9,47.1 7.9,47 8,47.1 L8,47.1 L8,47.1 Z M57.5,47.9 C60.4,49.4 63.4,50.6 66.9,50.4 C68.1,50.3 69.2,50 70.4,49.6 C71,49.4 73.9,47.3 74.3,47.5 C74.5,48 70.9,49.6 70.6,49.7 C69.5,50.1 68.3,50.4 67.2,50.5 C64.9,50.7 62.5,50.2 60.3,49.4 C59.9,49.2 57,47.4 56.8,47.4 C57,47.5 57.2,47.8 57.5,47.9 C57.6,47.9 57.1,47.8 57.5,47.9 L57.5,47.9 Z M8.9,47.9 C8.8,47.9 8.7,47.7 8.7,47.7 C8.7,47.8 8.8,47.8 8.9,47.9 L8.9,47.9 Z M9.4,48.3 C9.2,48.3 9,48.1 8.9,48 C9.1,48.1 9.3,48.1 9.4,48.3 L9.4,48.3 Z M24.9,48.4 C24.8,48.7 24.7,48.3 24.9,48.4 C24.9,48.4 24.8,48.4 24.9,48.4 L24.9,48.4 Z M10.2,48.7 C10.6,49.2 14.6,50.4 14.6,50.3 C13.5,50.3 10.8,49.4 10.2,48.7 C10.3,48.8 10.2,48.7 10.2,48.7 L10.2,48.7 Z" id="Shape"></path>
                    <path d="M16.9,29.8 C16.9,30.3 16.5,33.4 17.1,33.9 C17.6,33.4 17.1,31 17.1,30.1 C17.1,28.8 17.1,27.6 17,26.3 C17,25.6 17.3,19.7 16.8,19.6 C16.3,20.2 16.7,22.5 16.7,23.4 C16.7,24.4 16.8,25.4 16.8,26.4 C16.9,27.5 16.8,28.8 16.9,29.8 C16.9,29.8 16.9,29.9 16.9,29.8 L16.9,29.8 Z" id="Shape"></path>
                    <path d="M28.6,23.3 C28.6,23.5 30.3,25.6 30.5,25.6 C30.2,25.4 28.9,23.2 28.6,23.3 C28.5,23.5 28.7,23.3 28.6,23.3 L28.6,23.3 Z" id="Shape"></path>
                    <path id="Shape" d="M31.1,27 C31.1,27.2 31.2,27.2 31.3,27.3 C31.3,27.2 31.2,27 31.1,27 L31.1,27 Z"></path>
                    <path id="Shape" d="M31.2,42.6 C31.1,42.7 31.1,42.8 31,42.8 C31.1,42.8 31.2,42.6 31.2,42.6 L31.2,42.6 Z"></path>
                    <path d="M4.2,44.4 C4.6,45.3 6.3,47.5 7.2,47.7 C6.8,46.9 5.6,46.2 5.1,45.4 C4.8,45.1 4.5,44.7 4.2,44.4 C4.4,44.7 4.3,44.5 4.2,44.4 L4.2,44.4 Z" id="Shape"></path>
                </g>
            </g>
        </g>
    </g>
</svg>