<?xml version="1.0" encoding="UTF-8" standalone="no"?>
<svg width="126px" height="58px" viewBox="0 0 126 58" version="1.1" xmlns="http://www.w3.org/2000/svg" xmlns:xlink="http://www.w3.org/1999/xlink" xmlns:sketch="http://www.bohemiancoding.com/sketch/ns">
    <!-- Generator: Sketch 3.3 (11970) - http://www.bohemiancoding.com/sketch -->
    <title>car</title>
    <desc>Created with Sketch.</desc>
    <defs></defs>
    <g id="Page-1" stroke="none" stroke-width="1" fill="none" fill-rule="evenodd" sketch:type="MSPage">
        <g id="summer-offer-page-copy-4" sketch:type="MSArtboardGroup" transform="translate(-542.000000, -1571.000000)" fill="#000000">
            <g id="Group" sketch:type="MSLayerGroup" transform="translate(64.000000, 1393.000000)">
                <g transform="translate(93.000000, 169.000000)" id="car" sketch:type="MSShapeGroup">
                    <g transform="translate(385.000000, 9.000000)">
                        <g id="Group">
                            <path d="M125.6,28.4 C125.4,27.8 124.9,27.5 124.4,27.2 C124.3,26.9 124.4,26.7 124.4,26.4 C125.1,25.3 125.4,23.7 124.7,22.4 C124.5,21.9 123.5,21.8 123.6,21 C123.5,20.6 123.1,20.4 122.8,20.3 C120.3,19.7 114,18.6 113.3,18.5 C112.3,18.4 111.3,18.3 110.6,17.6 C110.3,17.4 109.7,17.3 109.8,16.8 C109.7,16.3 109.1,16.2 108.8,16.2 C108.4,15.4 107.8,14.7 107.4,13.9 C107.2,12.3 107.2,10.2 105.7,9 C103.1,5.3 99.2,4 95.4,2.8 C91,1.8 86.5,1.3 82,0.9 L80.7,0.9 C76.9,0.7 72.6,0.7 68.6,0.8 C63.4,1.2 58.6,1.2 53.9,2.6 C53.5,3.5 52.5,3 51.9,3.6 C51.7,3.8 51.7,4.2 51.9,4.4 C48.5,8 45.4,12.3 42.3,16.1 C40.9,16.4 39,16.5 37.5,17.1 C35,17.2 32.2,17.2 29.7,17.3 C27.4,17.4 25.2,17.9 23,18 C22.5,18 21.8,18.1 21.2,18.3 C21,18.2 21,18 20.9,17.8 C18.8,17.9 16.5,17.9 14.2,18.5 C14,18.3 13.9,17.8 13.5,17.8 C12.9,18.2 12.1,18.5 11.5,19.1 L11.3,18.9 C10.4,19.1 9.6,19.7 9.1,20.5 C7.6,20.9 6.2,21.4 4.9,22.2 C3.3,24.1 3.9,27 4.8,28.6 C5.2,29.3 6.4,29.7 5.9,30.7 C4.7,32.2 4.1,34.1 3.1,35.7 C2.9,35.6 2.6,35.7 2.4,35.8 C1.4,37.2 0.2,38.9 0.9,40.7 C2.2,42.5 4.7,42.5 6.7,42.8 C7.2,43.4 7.9,43.9 8.7,44 C9,44.5 9.7,44.6 10.2,44.7 C10.5,44.7 11.4,44.8 11.5,44.8 C11.6,44.8 11.7,44.8 11.7,44.9 C12.3,47.4 13.5,49.8 15.3,51.7 C16.9,53.2 19.2,53.3 21.2,53.6 C22.2,53.6 23.3,53.4 24.1,53.1 C26.4,52.2 27.4,49.7 28.3,47.7 C37.3,48.9 47,49.6 56,48.2 C56.8,50.3 57.7,52.5 59.3,54.3 C60.7,56.1 62.9,56.7 65,57 C67.2,57.3 70.8,57.3 73,56 C75.2,54 76.1,51.1 76.7,48.3 C77.7,44.1 77.6,38.7 76.2,34.7 C76.3,34.6 76.3,34.6 76.4,34.6 C76.8,35.8 77.3,36.9 77.4,38.3 C77.6,39.9 77.7,41.5 77.6,43.3 C78.5,43.6 79.5,44 80.3,44.5 C80,45.1 79.6,45.7 79.3,46.4 C79.1,46.8 79.2,47.5 79.7,47.4 C88.8,45.5 97.9,43.6 106.8,41.1 C107.1,42.1 107.4,43.1 107.9,44.1 C108.5,45.5 110.1,45.5 111.2,45.8 C113.2,46 115.5,45.8 116.5,44 C116.8,43.6 118.1,40.1 118,36.7 C119.1,36.8 121.7,35.1 123.2,33.7 L123.5,33.7 C124.2,33.3 124.9,32.7 125.4,32.1 C125.8,31 125.6,29.6 125.6,28.4 L125.6,28.4 Z M124.2,25.6 C118.8,26.2 113.5,26.6 108.2,27.2 C107.7,27.4 106.8,27.5 106.2,27.5 C106.1,26.4 106,25.4 106,24.3 C106.8,24.3 108.3,24.3 108.3,24.2 C113.7,24.3 119.1,24.5 124.4,24.8 C124.2,25.1 124.3,25.3 124.2,25.6 L124.2,25.6 Z M103.1,38.3 C103.9,35.5 104.6,32.9 105.2,30 C105.3,28.6 104.7,27.2 103.4,26.5 C102.8,26.4 102.4,26 101.8,25.9 C97.4,25.4 93.7,25.2 89.3,25.2 C89.3,25 89.2,24.7 89.2,24.5 C92.4,24.3 95.4,24.2 98.6,24.3 C98.6,24.5 98.5,24.9 98.8,24.9 C100.6,24.8 102,25.1 103.6,25.3 C104.5,25.7 105.1,26.6 105.2,27.6 C105.3,27.8 105.5,27.9 105.7,27.8 L105.8,27.8 C106,31.6 105.6,35.2 105.2,38.9 C104.5,39.3 103.7,39.3 102.9,39.6 C98.3,40.9 93.4,41.9 88.7,42.7 C89.7,36.9 89.8,31.2 89.3,25.5 C93.4,25.6 98,25.5 102.3,26.3 C103.2,26.7 104.1,27.1 104.6,28.1 C105.6,30.5 104,32.9 103.7,35.3 C103.5,36.3 103.1,37.5 102.8,38.5 C103,38.9 103,38.4 103.1,38.3 L103.1,38.3 Z M84.2,8.6 C85,8.5 85.5,8.5 86.3,8.5 C85.9,10.4 84.4,14.9 84.3,14.3 C84.4,12.2 84.2,10.5 84.2,8.6 L84.2,8.6 Z M85.2,4.1 C83.6,4 82.2,3.7 80.5,3.6 C71.8,2.8 62.3,3.3 53.4,4 C53.1,4.2 52.6,4.2 52.3,4.1 C52.3,4.1 52.3,4 52.4,4 C52.7,3.9 53.2,3.9 53.4,3.8 C63.9,2.8 75.8,2.4 86,3.8 C86.1,4.5 85.4,4.1 85.2,4.1 L85.2,4.1 Z M84.7,14.5 C85.6,11.9 86.6,9.3 87.3,6.7 C87.4,6.3 87.2,5.8 87.1,5.4 C86.9,4.9 85.7,5.1 86.3,4.3 C86.4,4.2 86.3,4 86.4,3.9 C87.6,4.1 88.6,4.3 89.8,4.4 C88.7,8.3 87.5,12.2 86.3,16 C85.7,15.7 85.2,15.5 84.6,15.3 C84.4,15.1 84.3,14.6 84.7,14.5 L84.7,14.5 Z M104.9,18.8 C104.6,18.9 104.4,18.8 104.1,18.7 C104.1,15.8 104.2,12.5 103.4,9.9 C101.7,6.9 97.9,7 95,5.9 C93.4,5.5 91.7,5.1 90,4.8 C89.9,4.3 90.5,4.7 90.7,4.7 C94.6,5.7 98.7,6.3 102.2,8 C104.9,9.7 104.8,12.9 105,15.6 C105,16.7 105,17.7 104.9,18.8 L104.9,18.8 Z M88,16.4 C89,16.4 90.1,16.5 90.9,16.5 C91,16.5 90.9,16.6 90.9,16.6 C90,16.6 89,16.5 88.1,16.5 C88.1,16.5 88,16.5 88,16.4 L88,16.4 Z M88.1,14.9 C87.5,14.9 87.3,14.8 88.1,14.8 C88.4,14.8 90.1,14.7 90.5,14.8 C90.7,14.8 90.9,14.9 91.1,14.9 L88.1,14.9 L88.1,14.9 Z M87.5,14.5 C88,12.5 88.8,10.4 89.3,8.5 C89.9,8.6 90.7,8.5 91.3,8.6 C91.4,8.6 91.3,8.7 91.4,8.7 C91.4,10.6 91.1,12.6 91.1,14.5 C89.7,14.6 88.9,14.5 87.5,14.5 L87.5,14.5 Z M92,5.6 C92.1,5.5 92.2,5.5 92.3,5.6 C92.3,8.9 92,12.1 91.8,15.3 C91.7,15.9 91.6,16 91.4,16.3 C91.6,12.6 91.9,9.2 92,5.6 L92,5.6 Z M94.4,14.9 C97,14.8 100,15.2 102.6,15.5 L102.6,15.7 C100,15.4 94.3,15.1 94.4,14.9 L94.4,14.9 Z M102.5,17.8 C100.1,17.5 98,17.1 95.6,17 C95.4,16.9 95.6,16.9 95.6,16.8 C97.8,17 100.2,17.2 102.5,17.5 L102.5,17.8 L102.5,17.8 Z M92.2,14.5 C92.4,12.5 92.4,10.7 92.6,8.6 C96,8.6 98.4,8.7 101.4,8.9 C102.9,10.8 102.4,13 102.6,15.2 C99.1,14.9 95.5,14.6 92.2,14.5 L92.2,14.5 Z M91.8,16.1 C91.9,16 92,15.9 92.1,16.1 C92.2,16.3 92.6,16.8 92.9,17 C93.1,17.2 92.9,17.3 92.8,17.5 C92.6,17.6 92.4,18.1 92,17.7 C91.6,17.4 91.6,16.4 91.8,16.1 L91.8,16.1 Z M92,18.5 C92.3,18.1 92.8,17.7 93.3,17.4 C94.3,17.5 92.8,17.8 92.7,18.3 C92.3,18.8 91.7,19.4 91.4,20 C90.7,19.9 90.1,19.8 89.4,19.7 C90.2,19.2 91.4,19.6 92,18.5 L92,18.5 Z M93.8,17.3 C93.6,17.2 93.3,17 93.1,17.2 C93.2,17 92.9,17 92.9,16.9 C92.6,16.9 92.9,16.1 92.5,16.4 C92.5,16 92.1,16 92.1,15.8 C92.1,15.6 92.5,15.4 92.7,15.3 C93.2,15.1 92.5,15.7 93,15.6 C93.1,15.7 92.8,15.9 93,15.9 C93.4,15.9 92.8,16.4 93.3,16.4 C93.2,16.6 93.4,16.8 93.5,16.9 C93.8,16.6 93.9,16 93.9,15.6 C94,15.6 94.1,15.8 94.2,15.7 C94.6,15.5 93.7,15.1 94.3,15.4 C94.4,15.3 94.3,15.2 94.4,15.2 C94.9,15.5 95.3,15.9 95.3,16.5 C95.1,16.5 94.8,16.5 94.8,16.8 C94.6,17.1 93.8,17.3 94,17.8 C94.4,17.7 94.9,17.4 95.2,17.3 C95.1,18 94.3,18.4 93.8,18.6 C93.5,18.6 93.2,18.6 93,18.4 C93.1,17.9 94.1,17.9 93.8,17.3 L93.8,17.3 Z M94.9,18.1 C97.8,18.4 101.8,18.7 104.6,19 C105.1,19.1 105.1,19.2 104.6,19.1 C101.6,18.9 97.3,18.6 94.1,18.5 C94.4,18.5 94.6,18.4 94.9,18.1 L94.9,18.1 Z M102.8,15.7 C102.8,15.4 103,15.4 103,15.6 C103,16 103.1,18.1 103.1,18.3 C103.1,18.6 102.9,18.6 102.9,18.4 C102.9,18.2 102.8,16 102.8,15.7 L102.8,15.7 Z M90.1,5.4 C89.1,9.1 87.7,12.8 86.7,16.4 C86.6,16.4 86.5,16.3 86.4,16.3 C87.5,12.6 88.8,8.8 89.9,5.1 C90.1,5 90.1,5.2 90.1,5.4 L90.1,5.4 Z M84.4,15.8 C84.7,15.7 84.9,15.9 85.2,16 C86.7,16.6 88,17.4 89.6,17.7 C90.2,18 91.2,17.7 91.8,17.9 C91.8,18.2 91.6,18.4 91.3,18.6 C88.9,18.5 86.6,17.6 84.4,16.8 C84.4,16.5 84.5,16.1 84.4,15.8 L84.4,15.8 Z M84.5,17.1 C86.2,17.6 87.8,18.5 89.6,18.7 C90.1,18.8 90.7,18.8 91.1,18.9 C90.5,19.2 89.6,19.2 88.9,19.5 C87.6,19.2 85.9,19.5 84.9,18.5 C84.9,18 84.4,17.5 84.5,17.1 L84.5,17.1 Z M88.4,19.7 C88.9,19.9 90.1,20 90.3,20.1 C90.9,20.2 91.6,20.7 91.9,19.8 C95.8,19.7 99.7,19.6 103.5,19.7 C104,20.2 104.6,20.8 104.7,21.4 C103.9,21.5 103,21.3 102.5,22.1 C102.4,22.5 102.8,22.5 103,22.5 C103.4,22.4 103,22.1 103.4,22.1 C104.3,21.7 104.3,23.1 105.1,22.5 C105.2,22.5 105.3,22.7 105.3,22.9 C99.8,22.8 95.2,22.9 89.4,23.1 C88,22.4 88.9,20.6 87.7,19.7 C87.9,19.6 88.2,19.6 88.4,19.7 L88.4,19.7 Z M102.8,22.1 C103.4,21.1 104.7,21.8 105.6,21.7 L105.6,21.8 C104.6,22 103.4,21.6 102.8,22.1 L102.8,22.1 Z M105,22.2 C104.8,22.4 104.7,22.4 104.5,22.3 C104.3,22.2 104.5,22.1 104.6,22.1 C104.7,22.1 105.2,22.1 105,22.2 L105,22.2 Z M89.8,23.9 C90,23.7 89.7,23.5 89.6,23.3 C95,23.1 99.8,23.1 105.6,23.2 C105.7,23.4 105.8,23.5 105.9,23.7 C100.2,23.7 95.3,23.8 89.8,23.9 L89.8,23.9 Z M105.9,27.5 C105.5,27.4 105.7,26.8 105.5,26.5 C104.4,23.9 101.3,24.8 99.2,24.5 C99.1,24.5 99.1,24.3 99.2,24.3 C101.5,24.2 103.6,24.3 105.7,24.3 C105.7,25.3 105.9,26.5 105.9,27.5 L105.9,27.5 Z M89.1,23.3 C89.3,23.4 89.4,23.5 89.5,23.7 C89.5,23.8 89.4,23.8 89.4,23.9 C86.3,24.3 83.3,24.1 80.2,24.6 C74.1,25.1 68.5,25.7 62.7,26.9 C62.6,26.4 63.2,26.2 63.5,26.1 C72,24.4 80.5,23.6 89.1,23.3 L89.1,23.3 Z M124.4,24.4 C118.9,24.2 113.7,23.8 108.2,23.7 C108.1,23.7 106.8,23.8 106.2,23.7 C106.2,23.5 105.9,23.4 106,23.1 C111.9,23.1 118.5,23.4 124.4,23.8 C124.5,24 124.4,24.2 124.4,24.4 L124.4,24.4 Z M124,22.5 C124.1,22.9 124,23.2 124.1,23.6 C118.6,23.3 113.7,22.9 108.2,22.8 C107.5,22.9 106.6,22.8 105.7,22.7 C105.8,22.4 105.3,22.3 105.4,22.1 C105.7,22.1 105.8,22.2 105.9,21.9 C106,21.5 105.7,21.3 105.4,21.3 C105.1,21.3 104.8,21.4 104.9,21 C104.7,20.5 104.2,20.1 103.8,19.7 C105.4,19.6 106.8,19.8 108.4,19.7 C113.3,20.1 118.3,20.4 122.9,21.4 C123,22.1 123.9,21.9 124,22.5 L124,22.5 Z M122.8,20.9 C122.8,21 123,21 122.9,21.1 C118,20.2 113.5,19.7 108.4,19.4 C108.4,19 108,19 107.8,18.6 C107.8,18.5 107.9,18.5 108,18.5 C113.1,19 118.2,19.6 122.8,20.9 L122.8,20.9 Z M108.3,17.2 C108.2,17.4 107.9,17.4 107.7,17.3 C106.7,16.6 107,15.2 106.9,14.2 C107.3,15.2 107.9,16.2 108.3,17.2 L108.3,17.2 Z M106.6,14.9 C106.7,15.9 106.6,17 107.6,17.6 C108,17.8 108.3,17.4 108.7,17.4 C108.9,17.3 108.3,16.4 108.9,16.8 C109.1,17 109.1,17.3 109.1,17.6 C108.6,17.9 108,18.2 107.3,17.9 C105.9,16.9 106.5,15.2 106.2,13.7 C106,12.7 106.1,11.5 105.7,10.5 C106.9,11 106.5,13.5 106.6,14.9 L106.6,14.9 Z M54.3,2.9 C58.5,1.8 63.2,1.6 67.8,1.3 C71.8,1.2 81.8,0.6 86,1.7 C90.8,2.4 95.6,3 99.8,4.9 C102.3,6.1 105,8.1 105.6,10.5 C105.9,12.6 105.9,14.7 106.3,16.9 C106.6,17.4 107,18 107.6,18.2 C108.2,18 108.9,18.2 109.3,17.6 C109.9,17.9 110.5,18.1 111.1,18.5 C109.8,18.3 108.8,18.3 107.5,18.4 C107.2,18.7 106.8,19 106.6,19.4 C102.9,19.3 96.7,19.4 91.8,19.4 C91.9,19.1 92.5,18.6 93.1,18.7 C97.2,18.9 101.4,19 105.5,19.3 L105.6,19.3 C105.7,16.5 105.5,13.3 105.1,10.4 C103.8,7.5 101.2,6.5 98.4,5.8 C96.5,5.3 94.7,4.9 92.9,4.4 C88.3,3.2 81.2,2.5 80.6,2.6 C71.3,1.9 62.7,2.4 53.7,3.2 C53.9,3 54.1,3 54.3,2.9 L54.3,2.9 Z M53.4,3.5 C63.3,2.5 74,2.2 84.1,3.1 C89.9,3.8 95.4,5.1 100.8,6.9 C102.4,7.5 104.2,8.5 104.9,10.3 C105.6,13.2 105.5,16 105.5,18.9 C105.4,19 105.3,19 105.3,18.9 C105.3,16.5 105.3,14.2 105.1,12 C104.9,11.4 104.7,9.5 103.7,8.9 C102.1,6.9 98.8,6.6 96.4,5.7 C89.4,3.8 81.7,2.7 74.4,2.7 C67.9,2.5 60.3,3 53.4,3.6 C53.1,3.7 52.7,3.8 52.3,3.8 C52.5,3.6 53.1,3.8 53.4,3.5 L53.4,3.5 Z M52.1,4.7 C52.5,4.3 53,4.4 53.4,4.3 C62.4,3.7 71.9,3.1 80.6,3.9 C81.7,3.9 84,4.2 85.8,4.4 C85.8,4.7 85.6,5 85.4,4.8 C81.7,4.3 78,4.1 74.5,4 C67.2,3.8 60.4,4.2 53.3,4.6 C52.8,4.7 52.6,4.9 52.3,5.1 C50.8,6.1 46.3,12.1 45.2,14 C45.2,14.5 45.8,14.5 46.1,14.4 C47,14.3 48,14.1 48.8,14.2 C48.7,14.3 48.6,14.6 48.7,14.7 C47.2,14.7 43.9,15.2 43.6,15.2 C46.3,11.7 49.3,8.1 52.1,4.7 L52.1,4.7 Z M75.7,14.1 C77.7,14 79.5,14.8 81.5,14.8 C82.3,15 83.2,15.1 83.8,15.6 L83.8,16.5 C82.9,16.3 81.8,16.1 80.8,15.8 L80.7,15.9 C79.1,15.5 77.5,15.3 75.9,15 C75.8,14.7 75.9,14.4 75.7,14.1 L75.7,14.1 Z M75.5,14.4 C75.4,14.6 75.1,14.7 75,14.5 C75,14.4 74.9,14.4 74.8,14.3 C72.4,13.5 69.8,12.8 67.2,12.4 C67,12.4 67,12.8 66.7,12.6 C67.5,11.9 68.5,12.4 69.4,12.6 C71.4,13 73.5,13.3 75.4,14.1 C75.5,14.1 75.5,14.3 75.5,14.4 L75.5,14.4 Z M49.8,14.1 C50.9,13.8 52.3,14.1 53.4,13.7 C56,13.3 59.4,13.4 62,13.4 C62.2,13.2 62.4,13.4 62.6,13.4 C62.7,13.4 62.6,13.5 62.7,13.5 C66,13.5 69.5,13.7 72.7,13.9 C73.3,14.1 73.8,14.3 74.4,14.4 C74.4,14.4 74.4,14.6 74.3,14.7 C67.2,13.9 60.2,14 53.5,14.3 C52.4,14.6 51.2,14.5 49.9,14.6 C49.9,14.4 50,14.2 49.8,14.1 L49.8,14.1 Z M49.6,14.7 C49.4,14.9 49.1,14.8 48.9,14.6 C48.8,14.4 49.1,14.5 49.1,14.4 C48.7,13.9 49.4,13.8 49.6,13.4 C50.8,13.2 52.1,12.9 53.3,12.7 C53.4,12.7 53.4,12.6 53.4,12.6 C54.9,12.7 56.5,11.9 57.9,12.6 C57.5,12.8 57.1,12.4 56.7,12.4 C55.6,12.6 54.6,12.8 53.5,12.9 C53.4,13 53.4,13.1 53.3,13.1 C52,13.3 50.7,13.7 49.5,14.1 C49.5,14.2 49.8,14.4 49.6,14.7 L49.6,14.7 Z M77,11.7 C75.6,11.8 74.3,12.3 73.1,13.2 C72.7,13.1 72.3,12.9 71.9,12.9 C72.7,11.1 74.3,9.9 76.2,9.4 C76.6,9.3 77.9,9.1 78.1,9.1 C79.9,9 81.7,8.6 83.6,8.7 C83.6,8.7 83.8,12.7 83.8,14.8 C83.6,14.8 83.4,14.9 83.3,14.9 C82,12.2 79.6,11.5 77,11.7 L77,11.7 Z M82.8,14.8 C82.5,14.9 82.2,14.8 82,14.6 C81.6,14.3 81.1,13.6 79.3,12.8 C77.7,12.1 75.5,12.4 74.1,13.3 C73.9,13.3 73.8,13.2 73.7,13.2 C74.8,12.3 76,11.9 77.3,11.9 C78.8,12 82,13 82.8,14.8 L82.8,14.8 Z M72.6,4.8 C72.3,5.3 72,5.8 71.8,6.2 C71.7,6.4 71.7,6.5 71.5,6.5 C70.3,6.5 69.1,6.5 67.9,6.4 C67.5,5.8 67.9,5 68.3,4.5 C69.6,4.3 71.2,4.4 72.5,4.4 C72.6,4.4 72.6,4.6 72.6,4.8 L72.6,4.8 Z M68.6,9.9 C68.5,10.7 68.2,11.4 68,12.1 C68,12.2 67.7,12 67.6,12 C67.9,11.2 68.2,10.4 68.4,9.6 C68.4,9.5 68.6,9.8 68.6,9.9 L68.6,9.9 Z M68.1,9.3 C67.9,10.2 67.6,11.1 67.3,11.9 C67,12.1 66.6,12.1 66.4,12.4 C65.1,12.4 64,12.3 62.8,12.3 C62.5,12.4 62.4,12.8 62.6,13 C62.4,13.1 62.2,13.1 62,13 C62.1,12.7 62.2,12.5 62,12.2 C60.3,12.2 58.6,12.7 57.1,11.8 C56,12 54.6,12 53.4,12.2 C53,12.6 52.4,12.5 51.8,12.6 C52.7,10.7 53.6,8.8 54.4,7 C59.1,6.6 64.2,6.9 68.1,9.3 L68.1,9.3 Z M62.9,12.6 C64.1,12.6 66.1,12.5 66.5,12.7 C65.2,12.9 64.2,12.7 62.9,12.6 C62.8,12.6 62.9,12.6 62.9,12.6 L62.9,12.6 Z M61.8,12.7 C60.5,12.6 59.4,12.8 58,12.7 C58,12.5 58.3,12.7 58.4,12.6 C59.6,12.7 60.6,12.5 61.8,12.7 L61.8,12.7 L61.8,12.7 Z M50.8,12.9 C50.3,12.8 49.9,13.2 49.4,13.1 C49.1,13.4 48.8,13.6 48.6,13.9 C47.9,14 47.1,14.2 46.4,14.1 C47.7,12.1 49.1,10.2 50.4,8.3 C50.9,7.7 51.6,7.4 52.3,7.3 C52.6,7.2 53.5,7.2 53.6,7.1 C52.9,9 51.9,11.1 50.8,12.9 L50.8,12.9 Z M57.3,12.8 C56.4,12.7 55.7,12.9 54.9,12.9 C55.6,12.7 56.6,12.4 57.3,12.8 L57.3,12.8 Z M53.2,13.6 C52.5,13.7 52,13.7 51.3,13.8 C51.9,13.6 52.5,13.5 53.1,13.4 C53.2,13.4 53.1,13.5 53.2,13.6 L53.2,13.6 Z M74.5,13.5 C76.3,12.4 78.8,12.6 80.5,13.9 C82.9,15.3 79.3,14.2 78.7,14.2 C77.3,14 75.9,13.9 74.5,13.5 L74.5,13.5 Z M83.8,7.3 C83.8,7.1 83.9,7.1 83.9,7.4 C83.9,7.7 84.2,14.5 84.2,14.8 C84.2,15.1 84,15.1 84,14.9 C84,14.7 83.8,7.6 83.8,7.3 L83.8,7.3 Z M45.3,15.3 C47.4,15 49.6,15.1 51.8,14.7 C59,14 66.2,14.2 73.3,14.9 C73.8,15.1 74.4,14.9 74.8,15.4 C76.9,15.2 79.1,15.9 81.1,16.1 C82,16.4 83.1,16.4 83.9,16.9 C84.1,17.3 83.6,17.5 83.7,17.9 C82.8,17.6 81.8,17.5 80.9,17.2 L80.8,17.3 C71.7,15 62.5,14.9 53.5,15.1 C53.5,15.1 46.4,15.6 43,16.2 C43.3,15.3 44.4,15.5 45.3,15.3 L45.3,15.3 Z M53.3,15.5 C54.3,15.4 55.5,15.4 56.3,15.4 C65.5,15.2 74.9,16 83.6,18.3 C83.7,18.7 84.1,18.9 84.4,19 C84.8,19.1 85.1,18.9 85.4,19.2 C83.9,19.1 80.2,19.1 79.9,19.1 C76,19.2 71.9,19.2 68.1,19.8 C68,19.7 68,19.6 67.9,19.6 C65.9,19.7 63.9,20 61.8,20.3 C61.7,20 61.5,19.8 61.2,19.7 C60.4,19.9 59.8,20.4 59.1,20.8 C59,20.6 58.7,20.4 58.5,20.7 C57.8,21.3 57.6,22 57,22.5 C55.8,22.8 54.6,23.3 53.4,23.8 C52.3,25 51.7,26.9 52,28.4 C50.9,29.4 49.6,30.5 48.6,31.7 C47.2,31.5 45.7,31.2 44.7,30 C40.8,28.6 36.6,28.1 32.4,27.6 C30.5,27.3 26.9,27.2 25.7,27.4 C22.4,27.4 19.3,27.8 15.9,28.5 C15.5,28.8 15.2,29.5 14.8,29.7 C14.6,29.8 14,29.7 13.9,29.6 C17.5,25.3 22.2,22.8 26.8,20.6 C28.1,20.2 29.3,19.9 30.6,19.4 C30.5,19.5 30.7,19.6 30.5,19.6 C28.3,20.6 25.9,21.5 24.1,23.1 C24,23.2 23.9,23.4 24,23.5 C25.9,21.9 28.4,20.7 30.8,19.8 C31.4,20.1 32,20.2 32.6,20.4 C32.8,20.7 32.5,20.9 32.7,21.1 C35.1,20.5 37.9,20.4 40.5,20.1 C41,20 41.6,20.2 41.5,19.6 C41.3,19.2 40.7,19.5 40.5,19.4 C39.6,19.4 38.6,19.1 37.7,19.2 C39.3,18.6 40.9,18 42.4,17.4 C42.5,17.3 42.4,17.2 42.3,17.1 C40.7,17.4 38.9,17.4 37.1,17.7 C42.3,16.4 47.9,15.6 53.3,15.5 L53.3,15.5 Z M67.9,20.2 C65.3,20.7 62.4,21.5 59.6,22.2 C58.9,22.2 59.5,21.2 60,21.5 C60.1,21.6 59.5,21.9 59.8,22.1 C60.9,21.9 62,21.4 63.1,21.2 C64,20.8 65.2,20.8 66.1,20.4 C66,20.4 66,20.3 66,20.3 C64.2,20.4 62.4,21.2 60.8,21.5 C60.7,21.4 61,21.3 61,21.3 C61.6,21.2 61.8,20.4 62.5,20.5 C64.3,20.1 66.1,20 67.9,19.9 C68,19.9 67.9,20.1 67.9,20.2 L67.9,20.2 Z M59.8,20.7 C60.3,20.4 60.8,20 61.3,19.9 C61.9,20.1 61.5,20.7 61.1,20.8 C60.6,20.9 60,21.1 59.5,21.2 C59.2,21 59.7,20.9 59.8,20.7 L59.8,20.7 Z M60.2,26 C60,25.9 59.7,25.9 59.5,26 C59.5,26.2 59.5,26.1 59.4,26 C59.2,25.8 59.2,26.3 59.1,26.1 C58.7,26.2 59.3,26.4 59.3,26.7 C59.6,26.8 59.2,27.7 59.7,27.9 C59.9,28.2 59.5,28.5 60,28.6 C60,29 60.2,29.1 60.3,29.4 C60.6,29.3 60.7,29.7 61,29.6 C60.6,31.1 59.7,32.8 57.9,33.1 C56.8,33.1 55.5,33 54.7,32.1 C55.7,32.7 57.1,32.4 58,31.8 C58.9,31.2 59.2,30.2 59.6,29.4 C59.8,27.3 58.5,24.6 56.1,23.7 C53.8,23.7 56.4,23.2 56.8,23 C57.2,23 57.8,22.9 58.1,23.2 C57.7,23.7 57,23.2 56.5,23.6 C56.6,23.9 57,23.5 57.3,23.7 C57.1,23.7 56.9,24.1 57.2,24.2 C57.8,24.2 58.4,24.5 59.1,24.3 L59.2,24.1 C58.8,23.9 58.6,23.5 58.3,23.2 C59.8,23.6 60.5,25.2 60.9,26.5 C60.7,26.4 60.4,25.7 60.2,26 L60.2,26 Z M60.8,27.3 C60.9,27.2 60.9,27.1 60.9,27.1 C61,27.4 61,27.9 61,28.3 C61,28.4 60.9,28.5 60.8,28.4 L60.7,28.3 C60.6,28 60.1,28.3 60.1,27.9 C59.9,28.1 60,27.7 59.9,27.7 C59.8,27.5 59.7,27.4 59.7,27.1 C59.9,27 60.2,27.1 60.2,26.9 C60.3,27.3 60.4,27.2 60.8,27.3 L60.8,27.3 Z M52.8,26.8 C53.2,25.4 54.1,24.3 55.5,24.1 C56,23.9 56.6,23.8 57,24.2 C58.1,25.1 56.5,24.1 56.2,24.3 C55.1,24.2 54,24.8 53.4,25.9 C52.9,27.1 52.4,28.8 53.2,30 C53.7,30.8 54.5,31.5 55.4,31.8 C56.6,31.9 57.8,31.5 58.5,30.5 C58.8,30.2 58.9,29.8 59,29.4 C59.1,29.2 59.1,29.2 59.1,29.4 C58.9,30.1 58.5,30.8 57.9,31.3 C57.1,31.9 56,32.3 55,31.9 C51.5,30.5 51.7,25.1 54.2,23.6 C54.5,23.5 55,23.4 55.3,23.6 C53.8,23.5 53.3,25.1 52.8,26.1 C52.7,26.4 52.3,26.7 52.8,26.8 L52.8,26.8 Z M57.1,29.2 C57.5,29 57.7,28.5 57.8,28 C57.8,27.9 57.7,27.8 57.6,27.8 C57.2,27.8 57.6,28.6 57,28.5 C56.9,28.6 57,28.8 56.9,28.9 C56.6,29 56.2,28.9 55.9,29.1 C56,29.4 55.7,29.6 55.6,29.8 C55.5,29.8 55.1,29.5 54.8,29.7 C54.8,30.1 54.4,29.2 54.3,29.8 C54.2,29.7 54.1,29.4 53.9,29.6 C53.8,29.9 53.4,29 53.2,29.2 C53.3,29.4 53.1,29.6 53.1,29.3 C53.1,29 52.8,28.5 53.2,28.4 C53.3,28.4 53.6,28.6 53.6,28.3 C53.5,28.2 53.5,27.5 54.1,28.2 C54.4,28.1 54.4,27.6 54.8,27.7 C54.9,27.2 55.2,27.1 55,27.6 C55.1,27.9 55.3,27.5 55.4,27.7 C55.6,27.3 55.9,27.8 56,27.6 C56.2,27.8 56.2,27.3 56.3,27.5 C56.6,28 56.7,27 56.9,27.5 C57.1,27.1 57.6,27.8 57.5,27.3 C57.4,26.9 56.9,27 56.8,26.6 C56.7,26.7 56.6,26.8 56.7,26.6 C56.6,26.5 56.5,26.5 56.5,26.5 C56.3,26.4 56.6,26.2 56.4,26.2 C56.2,26.6 55.9,25.8 55.8,26.4 C55.3,26.5 55.6,25.6 55.1,26 C54.8,26.1 55.1,25.6 54.8,25.7 C54.7,26.3 54.4,25.5 54.3,26 C54.3,25.9 54,26 54.1,25.9 C54.1,25.8 54.1,25.7 54,25.7 C53.5,26 54.2,25.2 54.4,25.1 C55.3,24.9 56.3,25.2 56.8,25.9 C57.1,25.5 57.6,25.6 57.9,25.3 C58.6,26.3 59.4,27.7 58.8,29 C58.6,30 57.8,31 56.8,31.4 C56.3,31.5 55.6,31.7 55,31.4 C54.8,31.2 54.2,30.6 54.9,31.1 C55.2,31.2 55.2,30.9 55.4,30.9 C56,30.6 56,30.3 56.5,29.9 C56.6,29.6 56.9,29.4 57.1,29.2 L57.1,29.2 Z M57.7,22.5 C57.8,21.8 58.4,21.2 58.9,20.8 C59.3,21.1 59,21.5 59,21.8 C58.7,22.1 58.2,22.5 57.7,22.5 L57.7,22.5 Z M65,40.4 C65.4,40.5 65.3,40.3 65.4,40 C65.5,39.2 66.2,38.7 66.3,38 C66.4,38 66.4,37.9 66.5,37.9 C66.4,38.9 65.9,39.9 65.5,40.8 C64.7,40.3 61.8,41.3 63.3,39.5 C63.9,38.9 64.5,38.2 65.3,37.9 C64.7,38.7 63.7,39.2 63.6,40.2 C63.9,40.6 64.5,40.1 65,40.4 L65,40.4 Z M66.4,41.2 C66.8,41.5 66.4,42 66.3,42.3 C66.3,42.4 66.1,42.5 66.1,42.3 C66,42 66.6,41.5 66.1,41.5 C65.9,41.8 65.9,42.3 65.6,42.5 C65.6,42.2 65.9,41.9 65.8,41.5 C65.3,41.2 64.7,41.7 64.2,41.5 C63.7,41.7 63.6,42.8 63.2,42.4 C63.2,42 63.2,41.7 63.4,41.4 C63.3,41 62.9,41.2 62.7,41.2 C62.8,41.7 62.2,41.8 62.4,42.3 C62.1,42.3 62,42.6 62,42.9 C61.1,43.9 59.7,43.4 58.5,43.4 C58.4,43.3 58.5,42.9 58.2,43.1 C57.6,43.4 56.9,43.3 56.3,43.5 C56.1,43.3 56.2,42.8 56,42.4 C56.1,42.1 56.2,41.8 56.4,41.5 C56.7,41.6 56.9,41.1 57.2,41.3 C57.4,41.9 56.5,41.6 56.5,41.9 C56.1,42.1 56.4,42.4 56.7,42.4 C56.8,42.4 56.9,42.4 56.9,42.3 C56.8,42 57.1,42.2 57.2,42.2 C57.4,42 58,42.1 57.8,41.6 C57.7,41.6 57.7,41.4 57.8,41.4 C58,41.1 58.6,41.7 58.3,41 C58.1,40.8 57.9,40.7 57.7,40.6 C57.6,40.5 57.6,40.5 57.7,40.5 C58,40.5 58.2,40.5 58.2,40.2 C61,40.6 63.9,40.9 66.4,41.2 L66.4,41.2 Z M64.5,43.6 C64.5,43.7 64.4,43.8 64.2,43.8 C64,43.8 63.9,43.7 63.9,43.6 C63.9,43.5 64,43.3 64.2,43.3 C64.3,43.3 64.5,43.5 64.5,43.6 L64.5,43.6 Z M55.4,42.7 C55.3,43 55.6,43.4 55.3,43.6 C53.6,43.3 51.8,43.7 50.2,43.3 C49.4,43.3 49.9,44.7 48.8,44.2 C48.4,44.2 48.1,44 48,43.7 C48,43.6 48,43.4 48.1,43.4 C48.3,43.3 48,43.1 47.9,43.1 C45.2,42.7 41.9,42.7 39.2,42.3 C38.5,42.6 39,41.6 39.1,41.4 C39.4,40.6 39.6,39.8 40,39 C40.1,38.9 40.1,38.9 40.2,38.9 C43.6,39.1 47,39.4 50.5,39.7 C50.5,39.8 50.6,40 50.7,39.9 C51.7,40.1 52.9,40.4 53.9,40.3 C53.9,40.8 54.5,40.2 54.4,40.7 C53.7,40.5 52.9,40.6 52.2,40.2 C51.9,40.5 51.4,40.5 51,40.4 C50.7,40.2 50.4,40.7 50,40.6 C49.5,40.6 48.9,40.1 48.6,40.6 C48.5,40.4 48.3,40.6 48.2,40.7 C48.1,40.5 47.7,40.7 47.6,40.5 C47.3,40.6 47.7,40.7 47.7,40.9 C48.1,41 48.7,41.3 49.1,40.8 C49.3,40.9 49.5,41 49.7,41 C49.8,41 49.9,41.1 49.8,41.1 L49.6,41.2 C50.2,41.5 51.1,41.1 51.8,41.1 C52.2,40.9 52.6,40.7 53,41 C52.6,41.6 51.6,41.3 51,41.5 C50.9,41.6 50.4,41.4 50.5,41.7 C51.3,41.7 52.2,41.7 53.1,41.5 C53.6,41.3 53.2,40.6 53.9,40.9 C54,41 54.1,41 54.1,41.1 C53.9,41.2 53.8,41 53.6,41.2 C54.2,41.6 53.1,41.8 53.7,41.9 C53.9,42 54.1,41.8 54.2,41.6 C54.1,41.3 54.4,41.1 54.5,40.9 C54.6,41 55,40.9 54.9,41.2 C54.9,41.5 54.6,41.7 54.3,41.8 C54.1,41.8 53.8,42.2 53.9,42.3 C54.1,42.2 54.5,42.4 54.6,42.1 C54.5,42.2 54.7,42.3 54.8,42.4 C54.9,42.5 55.1,42.3 55,42.2 C54.6,41.7 55.6,41.7 55.1,41.2 C55.1,41.1 55,41.1 55.1,41 C55.4,40.9 55.5,40.8 55.8,40.9 C55.7,41 55.5,41 55.4,41.1 C55.8,41.7 55.5,42.2 55.4,42.7 L55.4,42.7 Z M38.7,45.6 C37.9,46.4 36.6,46.6 35.4,46.7 C35,46.6 34.6,46.1 34.5,45.7 C34.5,43 34.7,40.3 35.1,37.7 C35,37.1 34.9,36.4 35,35.9 C35.7,34.9 37.1,35.6 38,35.3 C38.7,36.2 39.7,37.3 39.7,38.4 C39.6,38.5 39.6,38.6 39.6,38.7 C38.8,40.2 38.3,42 38.3,43.6 C38.4,44.2 38.6,44.7 39,45.1 C39.2,45.5 38.7,45.6 38.7,45.6 L38.7,45.6 Z M39.2,45.7 C43.7,45.5 49,45.8 53.5,46.1 L53.5,46.2 C48,47.2 42.2,46.9 36.2,47 C36.1,47 36,47 36.2,46.9 C37.3,46.8 38.3,46.3 39.2,45.7 L39.2,45.7 Z M34.2,38.1 C27.5,37.5 21.5,37.2 14.7,36.6 C14.6,36.3 14.3,36.2 14.3,35.9 C21.2,37.1 27.7,37.3 34.7,37.9 C34.5,39.2 34.4,40.8 34.3,41.9 C33.9,42.1 33.2,41.6 33.3,42.3 C33.1,42.8 33,42.5 33.1,42.3 C33.2,42.1 33.2,41.9 33,41.9 C32.9,41.7 32.5,41.7 32.3,41.8 C32,42 31.9,42.4 32,42.6 C31.9,42.6 31.8,42.5 31.8,42.4 C31.8,42.2 32.1,42.1 31.9,41.9 C30.8,41.8 29.7,41.5 28.5,41.6 C28.5,41.5 28.5,41.5 28.6,41.5 C29.3,41.3 29.8,41.7 30.4,41.5 C30.4,41.4 30.3,41.4 30.2,41.3 C28.5,41.1 26.8,41.3 25.3,41.4 C25,41.6 25.7,42.1 25,42.1 C25.1,41.9 25.1,41.7 25,41.5 C24.8,41.3 24.6,41.2 24.4,41.4 C23.9,41.6 24.7,42.8 24,41.9 C23.9,41.7 24.3,41.4 23.9,41.3 C22.9,41.6 21.7,40.9 20.8,41.2 C20.8,41.3 20.8,41.3 20.9,41.4 C20.8,41.6 20.7,41.6 20.6,41.8 C20.7,41.7 20.7,41.2 20.4,41.1 C20.1,41 19.8,41.2 19.7,41.5 C19.6,41.6 19.9,42 19.6,41.8 C19.4,41.7 19.4,41.2 19.7,41.2 C19.4,40.9 19.1,41.2 18.7,41 C17.9,40.9 17,40.6 16.2,40.7 C15.7,40.6 15.4,41 15,40.6 C14.8,40.7 15.3,41 14.9,41.1 C14.9,41 14.8,40.7 14.6,40.6 C14.4,40.7 14.7,41.1 14.5,41.3 C14.4,41.3 14.2,41.3 14.2,41.2 C14.1,41 14.7,40.7 14.2,40.7 C14,40.8 14,41 14,41.1 C14,41.4 13.8,41 13.8,40.9 C13.7,40.4 14.7,40.7 14.2,40.3 C13.8,40.4 13.5,40.4 13,40.4 C13.4,39.3 14.1,38.3 14.6,37.3 C18.8,37.6 23.5,38.1 28,38.2 C30.4,38.4 32.2,38.7 34.6,38.8 C34.6,38.7 34.9,38.8 34.8,38.7 C34.6,38.1 34.3,38.2 34.2,38.1 L34.2,38.1 Z M10.3,31.8 C10.4,31.6 10.6,31.1 10.2,31 C8.9,31.1 7.5,31.8 6,31.3 C8.4,30.9 10.7,30.5 12.9,30.3 C12.5,31.3 11.9,32.1 11.6,33.1 C11.2,33.3 10.5,33.2 10.1,33.5 C10.1,33 11.3,32.2 10.3,31.8 L10.3,31.8 Z M9.5,34.9 C8.1,35.1 6.7,35 5.3,35 C5.3,34.2 5.5,33.2 6.2,32.8 C7.5,32.8 9,32.2 10.2,32.7 C10.1,33.5 9.5,34.1 9.5,34.9 L9.5,34.9 Z M13.7,29.9 C14.1,29.9 14.4,29.7 14.7,29.9 C13.8,31 12.9,32.1 12.1,33.2 C12.6,32.1 13,31 13.7,29.9 L13.7,29.9 Z M24.9,30.1 C24.1,29.9 23.4,30.4 22.7,29.9 C20.5,30.1 18.5,30.1 16.2,30.3 C16.2,29.8 16.6,29.4 17,29.1 C17.2,29.1 17.3,29 17.4,28.9 C17.4,28.6 17,28.6 16.8,28.7 C16,29 16.1,29.9 15.5,30.2 C15.7,29.9 15.9,29.5 15.9,29.2 C15.7,28.9 15.8,28.7 16.2,28.6 C19.4,27.8 22.5,27.7 25.8,27.5 C25.8,27.5 26.8,27.4 27.2,27.4 C32.9,27.5 38.6,28.4 43.8,29.8 C44.7,30 45.5,30.8 46.2,31.3 C47,31.5 47.8,31.6 48.6,31.9 C47.6,33.4 46.3,35.1 45.7,36.9 C45.4,37.6 45,38.3 44.9,39 C43.3,38.9 41.5,38.7 39.9,38.6 C39.8,38.5 39.9,38.4 39.9,38.4 C41.1,38 42.9,39.1 43.6,37.5 C43.9,36.3 42.2,34.5 41.8,34.3 C36.6,33.1 31.4,32.2 25.9,32.1 C23.4,32.2 20.7,32.1 18.2,32.2 C16.8,32.2 15.3,32.4 13.8,32.4 C13.5,32.4 13.4,32.8 13.1,32.8 C13.2,32.6 13.3,32.4 13.5,32.3 C13.9,32.1 14.5,32.2 14.3,31.5 C14.6,31.1 14.8,30.5 15.5,30.7 C17.7,30.3 20,30.4 22.2,30.4 C22.5,30.4 24.3,30.2 24.9,30.4 C25.3,30.3 25,30.1 24.9,30.1 L24.9,30.1 Z M41,37.1 C41.8,37.2 42.8,37.4 43.5,37.2 C42.9,38.7 41.1,37.7 39.9,37.9 C39.3,37.2 40.3,37.5 40.6,37.5 C40.7,37.4 41.1,37.6 41.1,37.4 C41.2,37.2 41.1,37.2 41,37.1 L41,37.1 Z M25.6,32.7 L25.6,32.7 C25.7,32.5 26.1,32.3 26.1,32.5 C25.2,32.7 26.2,33.9 25.4,34.1 C25.1,34.2 24.9,34.4 24.7,34.2 C24.8,33.9 25.3,34 25.5,33.6 C25.6,33.2 25.2,33 25.6,32.7 L25.6,32.7 Z M25.3,35 C29,34.9 33.5,34.7 37.5,34.5 C37.8,34.4 38.1,34.3 38.4,34.2 C38.1,34.9 37.2,34.7 36.6,35.1 C32.9,35.7 29,36 25.2,36.3 C22.4,35.6 19.6,35 17.1,33.5 C17.1,33.2 17.2,33.3 17.4,33.4 C18.8,33.9 22.6,34.4 25.3,35 L25.3,35 Z M14.1,32.6 C14.1,32.8 13.5,33.5 13.9,33.9 C14.4,33.8 15,33.5 15.4,33.7 C15.3,34.2 13.6,33.9 14.4,34.8 C15.1,35 15.7,34.3 16.2,34.9 C15.9,35.3 15.2,35.1 15,35.5 C15.3,35.7 15.5,35.4 15.8,35.6 C17.1,35.8 18.7,35.9 20.1,36.1 C23.6,37 26.8,36.6 30.7,37 C32.1,37.1 33.4,37 34.7,37.3 C34.7,37.4 34.8,37.5 34.8,37.6 C27.7,37 21.2,36.9 14.2,35.6 C13.8,35 13.8,34 13.2,33.5 C13.2,32.9 13.8,32.8 14.1,32.6 L14.1,32.6 Z M32.9,42.2 C32.9,42.3 32.8,42.4 32.6,42.4 C32.4,42.4 32.3,42.3 32.3,42.2 C32.3,42.1 32.4,42 32.6,42 C32.8,42 32.9,42.1 32.9,42.2 L32.9,42.2 Z M24.9,41.6 C24.9,41.7 24.8,41.8 24.6,41.8 C24.4,41.8 24.3,41.7 24.3,41.6 C24.3,41.5 24.4,41.4 24.6,41.4 C24.8,41.4 24.9,41.5 24.9,41.6 L24.9,41.6 Z M20.4,41.3 C20.4,41.4 20.3,41.5 20.1,41.5 C19.9,41.5 19.8,41.4 19.8,41.3 C19.8,41.2 19.9,41.1 20.1,41.1 C20.2,41.1 20.4,41.2 20.4,41.3 L20.4,41.3 Z M26.9,46.3 C23.7,46.4 20.4,45.6 17.4,45.2 C15.8,44.8 14.2,44.5 12.7,44.1 C12.9,43.8 13.1,43.5 13.2,43.2 C17.9,43.4 22,44.9 26.8,45 C26.8,45.5 26.7,46 26.9,46.3 L26.9,46.3 Z M15,43.3 C14.3,43.2 13.6,43.1 12.9,43 C12.9,42.7 12.9,42.4 13,42.4 C13.1,42.4 13.2,42.3 13.3,42.3 C15.4,42.2 17.6,42.9 19.8,42.9 C20.9,42.4 22.1,42.8 23.1,43.1 C23.8,43 24.6,43.1 25.3,43.3 C25.8,43.2 26.2,43.1 26.7,43.3 C28.5,42.9 29.9,43.9 31.5,43.5 C32.2,44.2 34.7,42.8 34.1,44.6 C27.5,44.2 21.4,44.2 15,43.3 L15,43.3 Z M27.4,44.5 L27.8,44.5 C27.5,45.1 27.7,46 27.1,46.3 C27.1,45.6 27,45 27.4,44.5 L27.4,44.5 Z M28.8,44.6 C28.7,45.3 28.1,46 27.5,46.4 C28.1,45.8 27.7,44.1 28.8,44.6 L28.8,44.6 Z M28.9,45.3 C30.6,45.4 32.5,45.4 34.2,45.7 C34,46.3 34.7,46.7 35,47 C32.5,46.8 30.4,46.8 27.9,46.5 C28.2,46.1 28.6,45.7 28.9,45.3 L28.9,45.3 Z M60.9,36.5 C60.8,36.4 60.8,36.3 60.7,36.2 C60.3,36.6 59.6,37.1 59.8,37.7 C58.7,38.2 59.4,39.6 58.3,40 C53.7,39.6 49.8,39.3 45.3,38.9 C46.1,36.9 46.8,34.9 48.1,33.1 C48.5,32.9 48.8,33.2 49,33.3 C48.9,33.6 48.1,33.9 48.7,34.1 C48.9,34.2 49.1,34 49.2,34.1 C49.1,34.3 49.1,34.5 49.3,34.6 C49.9,34.5 50.2,33.8 50.6,33.4 C50.3,33 49.3,34.3 49.6,33.4 C49.9,33.3 49.7,33 49.6,32.9 C49.3,32.7 48.9,32.6 48.6,32.5 C48.5,32.4 48.7,32.3 48.7,32.2 C51.7,32.8 54.6,33.1 57.4,34.1 C58.6,34.4 59.9,34.7 60.6,35.8 C61.3,36.4 61.6,37.3 62.2,37.8 C61.8,37.8 61.2,37.1 60.9,36.5 L60.9,36.5 Z M33.3,18.8 C33.4,19.1 33.7,19.1 33.9,19.1 C36,19.2 40.9,19.4 40.9,19.6 C38.3,19.4 35.3,19.6 32.8,19.5 C32.7,19.6 32.7,19.6 32.7,19.7 C32.9,20 33.3,19.5 33.4,19.9 C34.1,19.8 34.8,20.2 35.5,20 C37,19.8 40,19.6 40.4,19.9 C38.1,20.2 35.6,20.2 33.2,20.8 C33.2,19.7 31.9,20.1 31.2,19.6 C31.7,19.1 32.6,19.1 33,18.5 C35.3,18.1 39.1,17.5 39.7,17.6 C37.4,18 35.4,18.2 33.3,18.8 L33.3,18.8 Z M40,17.8 C40.3,17.7 41,17.5 41.1,17.6 C39.3,18 37.7,19.5 35.7,18.9 C37.1,19 38.4,17.9 40,17.8 L40,17.8 Z M11.3,19.6 C12,19.1 12.8,18.9 13.4,18.4 C13.6,18.6 13.7,18.9 13.7,19.2 C13.1,19.3 12.7,19.4 12.2,19.6 C12.4,19.2 13.1,19.2 13,18.7 C12.4,19 11.9,19.6 11.3,19.8 C11.3,19.8 11.3,19.7 11.3,19.6 L11.3,19.6 Z M11.4,20.2 C11.8,20 12.1,20.2 12.5,20 C13.6,19.3 15.3,20 16.4,19.1 C16.8,19.1 17.1,19.1 17.3,18.9 C17.3,18.9 17.3,18.8 17.2,18.8 C16.1,18.8 15.1,19.4 14,19.3 C13.9,19.1 14.1,19.2 14.2,19.1 C16.4,18.2 18.3,18.3 20.3,18.4 C20.4,18.5 20.5,18.8 20.4,18.8 C17.6,19.2 14.4,20 11.5,20.7 C11.1,20.6 11.4,20.4 11.4,20.2 L11.4,20.2 Z M11.5,20.9 C14.6,20.2 17.7,19.5 20.8,19 C20.9,18.9 20.8,18.8 20.9,18.7 C22.9,18.5 24.4,18.3 26.4,18 C29.7,17.8 33.4,17.5 36.5,17.5 C35.3,17.9 34.1,18 32.8,18.1 C31.8,19.2 30,19 28.6,19.6 C26.5,20.1 24.7,21.4 22.7,22.2 C19.2,24.1 15.6,26.9 13.1,30 C10.7,30.2 8.3,30.5 6,30.9 C6.3,30.6 5.7,28.5 6.6,30 C7.2,30.6 8,30.5 8.7,30.3 C10.3,29.9 11.4,28.2 11.7,26.7 C12.1,24.5 11.6,22 9.6,21 C10.2,21 10.9,20.7 11.5,20.9 L11.5,20.9 Z M10.8,19.6 C11,19.6 11,19.8 11.1,19.9 C11,20.1 10.8,19.9 10.6,19.9 C10.2,20 10.1,20.4 9.8,20.6 C10.2,20.7 10.6,20.3 11.1,20.4 C10.8,21.1 9.8,20.7 9.3,20.9 C9.6,20.2 10.1,19.6 10.8,19.6 L10.8,19.6 Z M9.1,21.1 C9.3,21.2 9.4,21.3 9.6,21.4 C9,21.3 8.7,21.8 8.1,21.6 C7.9,21.5 7.7,21.7 7.9,21.8 C8.2,21.8 8.4,22.4 8.6,22.2 C8.5,22.3 8.6,22.5 8.7,22.5 C8.8,22.8 9.4,22.4 9.2,22.8 C9.4,23 9.7,22.9 9.9,23.1 C10.2,23 10.7,23 10.7,23.3 C11.2,23.2 10.7,22.8 10.8,22.5 C10.3,21.9 9.5,22.7 9,22 C9.1,21.9 9.3,21.8 9.4,21.9 C9.5,21.7 9.8,21.8 10,21.9 C10.4,22.2 10.9,22.5 11.1,23 C11.6,23.6 10.8,23.5 10.6,23.8 C10.4,23.8 10.1,23.8 10,23.6 C9.9,23.8 9.9,23.8 9.9,24.1 C10.2,24.3 10,24.4 10.3,24.5 C10.9,24.3 10.8,24.7 11.1,24.5 C11.2,24.7 11.4,24.6 11.5,24.6 C11.8,26.7 11,28.9 9.2,30 C8.5,30.3 7.3,30.6 6.9,30 C7,30 7.5,30 7.4,30.1 C7.9,30.3 8.3,30.1 8.7,30 C9.2,29.8 9.7,29.4 10,28.9 C9.2,28.6 8.6,30.2 8.1,29.8 C9.5,29.1 10,27.6 10.1,26.2 C10.2,24.7 9.1,22.8 7.6,22 C7.3,21.9 7,21.7 6.6,21.7 C7.5,21.6 8.3,21.4 9.1,21.1 L9.1,21.1 Z M5.8,22.2 C5,23.2 4.5,24 4.4,25.3 C4.5,25.4 4.6,25.4 4.7,25.4 C5,24.1 5.9,22.8 7.2,22.5 C8.5,22.5 9.2,23.7 9.6,24.8 C10.2,26.4 9.9,27.9 8.9,29.1 C8.3,29.7 7.6,30 6.8,29.8 C3.7,28.5 3.1,23.7 5.8,22.2 L5.8,22.2 Z M6.2,32.3 C7.5,32.2 8.7,32.1 9.9,32 C10,32.5 10.8,31.8 10.4,32.5 C10.3,32.3 10,32.4 9.8,32.2 C8.5,32.3 7.1,32.5 5.8,32.6 C5.3,33.3 4.8,34.2 4.9,35.2 C6.2,35.3 7.7,35.1 9,35.2 C9,35.3 8.8,35.3 8.8,35.4 C7.4,35.4 5.9,35.5 4.5,35.4 C4.5,35.4 4.3,35.2 4.3,35.1 C5,34.2 5,32.7 6.2,32.3 L6.2,32.3 Z M5.5,31.8 C5.5,32 5.6,32.1 5.7,32.2 C4.9,32.9 4.6,34 4.1,34.9 C4,35.3 4.4,35.5 4.7,35.5 C6,35.5 7.5,35.6 8.9,35.5 C9.3,35.5 9.8,34.6 9.7,35.6 C9.8,35.9 9.4,35.9 9.6,36.2 C7.6,36.2 5.5,36 3.5,36 C3.9,34.4 4.7,33.1 5.5,31.8 L5.5,31.8 Z M8.3,42.4 C6.6,42.3 4.7,41.9 3,41.6 C2,41.2 0.6,40.3 1.1,39 C1,39.6 1.4,40.2 1.9,40.5 C3.3,41 5,40.8 6.2,41.2 C6.6,40.9 6.5,41.4 6.7,41.6 C7.2,41.6 7.7,41.8 8.3,41.8 C8.4,42 8.4,42.2 8.3,42.4 L8.3,42.4 Z M4.1,39.5 C4.1,39.4 4.2,39.3 4.4,39.3 C4.6,39.3 4.7,39.4 4.7,39.5 C4.7,39.6 4.6,39.7 4.4,39.7 C4.2,39.7 4.1,39.6 4.1,39.5 L4.1,39.5 Z M8.2,39.3 C7.1,39.3 6.1,39.6 5,39.6 C4.8,39.9 4.8,39.8 4.9,39.5 C4.9,39.1 4.3,38.9 4.1,39.2 C4,39.4 4,39.5 4,39.7 C4.1,39.9 3.9,39.8 3.8,39.7 C3.2,39.3 2.4,39.3 1.7,39.1 C1.3,39 1.5,38.5 1.5,38.3 C1.9,37.7 2.2,37 2.7,36.3 C5.2,36.3 7.2,36.5 9.5,36.6 C9.4,37.6 9,38.5 8.9,39.5 C8.6,39.4 8.2,39.8 8.2,39.3 L8.2,39.3 Z M12,44.4 C11,44.4 10,44.3 9.2,44.1 C8.6,43.9 8.7,43.2 8.6,42.8 C8.9,40.6 9.4,38.5 9.9,36.3 C10.2,36 9.7,35.4 10.3,35.3 C10.3,35.6 10.1,35.8 10.4,36 C10.7,35.8 10.9,35.7 11,35.3 C11.3,34.7 10.7,34.5 11.1,34 C10.9,33.9 11.1,33.7 10.9,33.6 C11.7,33.7 12.4,33 13.1,33.6 C13.4,34 13.7,34.5 13.6,34.9 C13.3,34.7 13.4,34.4 13.2,34.2 C12.6,34.3 12,34.4 11.6,34.9 C11.5,34.8 11.3,34.8 11.3,34.9 C11.6,36.9 10.6,38.4 10.6,40.3 C10.1,41.2 10.6,42.7 9.2,43.1 C9.1,43.1 9,43.3 9.1,43.4 C9.9,44.1 10.9,44.2 11.9,43.8 C13.1,43.1 12.3,41.8 12.4,40.8 C12.3,40.4 12.4,39.9 12.3,39.5 C11.9,39.2 11.4,39.7 11.1,39.3 C11.2,38.2 11.5,37.2 11.8,36.1 C12.4,35.9 13,35.7 13.6,35.8 C13.7,35.8 13.6,35.7 13.7,35.6 C13.5,34.4 14.1,35.8 14.2,36.2 C14.2,36.3 14.3,36.4 14.4,36.4 C13.8,37.6 12.9,38.7 12.5,40 C12.6,41.1 12.6,42.3 12.8,43.2 C12.8,43.8 12.2,44 12,44.4 L12,44.4 Z M46.5,47.5 C39.5,47.8 32.9,47.6 25.9,46.9 C24.7,46.8 22.6,46.6 22.1,46.5 C18.8,46 15.4,45.4 12.1,44.6 C12.2,44.5 12.2,44.5 12.3,44.5 C17.8,45.8 23.5,46.7 29.2,46.8 C31.6,47.2 34.2,47.1 36.6,47.3 C41.8,47.4 47.9,47.5 53.2,46.6 C53.7,46.5 54.3,46 54.8,46.3 C52.5,47.3 49.3,47.2 46.5,47.5 L46.5,47.5 Z M39.4,45.1 C38.9,44.9 38.7,44.4 38.7,43.9 C40,43.8 41.3,44.3 42.6,44.2 C42.9,44.8 43.9,44.5 44.5,44.6 C44.8,44.6 45.3,44.8 45.5,44.5 C47.5,44.5 49.7,45.1 51.7,44.7 C53,45.1 54.3,44.9 55.6,44.8 C56.7,44.8 57.9,45.6 59,44.9 C60.6,45.2 62.1,44.6 63.6,45 C64.9,45 65.5,43.7 66.2,42.8 C66,43.9 65.1,45.4 63.8,45.6 C55.6,46.6 47.7,45.3 39.4,45.1 L39.4,45.1 Z M57.2,47.5 C56.8,47.4 56.2,47.7 55.8,47.5 C56.9,47.2 58.2,47.1 59.3,46.8 C59.7,46.7 60,46.1 60.5,46.2 C59.8,47.2 58.3,47 57.2,47.5 L57.2,47.5 Z M66.9,55.9 C65.3,54.5 63.9,51.7 63.3,49.6 C62.9,48.5 62.8,47.2 62.5,45.9 C62.5,45.8 62.7,45.9 62.7,45.8 C63.3,49.3 64.3,52.6 66.6,55.3 C67.2,55.8 67.8,56.3 68.5,56.6 C68.1,56.8 67.4,56.3 66.9,55.9 L66.9,55.9 Z M74.1,52.5 C73.3,53.7 72.4,54.9 70.9,55.1 C69.7,55.1 68.8,53.9 68.2,53 C66.8,50.3 66.1,47 66.1,44 C66.4,43.4 66.5,42.6 66.8,42 C66.6,45.1 66.8,48.1 68.6,50.6 C69.2,51.1 69.7,52 70.5,51.7 C73,51.1 73.6,48 74.2,45.7 C74.8,42.1 74.7,38.3 72.6,35.3 C72.2,34.8 71.5,34.1 70.6,34.3 C69.3,34.7 68.9,35.8 68.2,36.8 C67.5,38.2 67.2,39.9 66.9,41.4 C66.9,41.4 66.7,41.1 66.6,41.1 C66.2,41 66.5,40.5 66.5,40.1 C66.4,38.6 67.2,37.2 67.5,35.8 C68.4,33.8 69.6,31.9 71.7,30.7 C74.2,31.5 74.8,34.4 75.7,36.5 C77,41.7 76.5,47.5 74.1,52.5 L74.1,52.5 Z M71.1,42.2 C70.3,42.2 69.6,41.8 68.9,41.7 L68.9,41.6 C69.5,41.9 70.4,41.8 71.1,42.1 C71.3,41.7 71.8,41.1 71.4,40.6 C70.7,39.5 69.6,39 69,37.8 C69,37.7 68.9,37.8 68.9,37.7 C68.5,38.2 68.5,38.8 68.2,39.4 C68,38.5 69,36.7 70,36.2 C70.1,36.2 70.1,36.3 70.2,36.3 C69.9,36.5 69.5,36.7 69.5,37.1 C69.6,37.5 69.8,38 70.1,38.2 C70.5,38.1 70,37.9 70.1,37.7 C70.6,38.4 71.3,39.1 71.5,39.9 C72,40.1 72,41 72.6,40.5 C72.4,39.3 71.5,38.5 71.4,37.3 C72.2,37.3 72.3,38.2 72.6,38.7 C72.8,39.6 72.9,40.3 72.9,41.2 C72.7,41.1 72.5,41 72.3,41.1 C71.6,41.6 71.5,42.4 71.4,43.2 C70.2,42.9 69,43.3 67.8,43.1 L67.8,43 C68.9,43.1 70.2,42.9 71.2,43 C71.2,42.7 71.3,42.3 71.1,42.2 L71.1,42.2 Z M71.7,44 C72,43.7 72,43.2 72.5,43.1 L73.2,43.1 C73.1,43.8 73.1,44.7 72.4,45.1 C72,45.3 71.8,44.7 71.6,44.5 C71.4,43.4 71.4,42.1 72.3,41.4 C72.7,41.3 73,41.8 73.1,42.1 C73.1,42.4 73.4,42.9 73.1,42.9 C73,42.4 73,41.8 72.5,41.6 C71.4,41.8 71.7,43.9 71.7,44 L71.7,44 Z M69.3,49.8 C69.5,49.9 69.9,49.9 70,49.7 C70.1,49.5 70.4,49.8 70.5,49.6 C70.9,49.3 71.1,48.1 71.7,48.9 C72,48.8 72,48.5 72,48.2 C72.1,48.1 71.9,48 71.8,47.9 C71.6,48 71.4,47.8 71.6,47.7 C71.8,47.4 72,47 71.8,46.7 C71.4,47 71.5,47.4 71.1,47.8 C70.8,48.2 70.5,48.4 70.1,48.7 C70.9,47.5 71.7,46.4 72.4,45.1 C72.5,45.9 72.1,46.4 72,47.2 C72.3,47.5 72.4,47 72.7,46.8 C72.9,46.6 73.1,46.1 73.3,45.8 C73.3,45.7 73.4,45.7 73.4,45.9 C73.1,47.4 72.2,49.1 71.1,50.3 C70.7,50.6 70.3,50.8 69.9,50.9 C69.9,51 70,51 70,51.1 C72.7,50.1 73.4,47.2 73.9,44.7 C74.2,42.2 74,38.6 72.5,36.2 C71.9,35.6 71.4,34.8 70.4,34.9 C69.2,35.3 68.8,36.5 68.1,37.4 C68.1,36.6 68.8,36.1 69,35.6 C69.5,35.1 70,34.4 70.8,34.4 C72.8,34.7 73.3,36.9 73.8,38.5 C74.8,42.5 74.2,47 71.8,50.3 C71.4,50.9 70.5,51.6 69.9,51.2 C68,49.9 66.9,46.6 67.1,45.7 C67.5,47.3 67.8,49 69.3,49.8 L69.3,49.8 Z M104.3,41.1 C96.3,43.5 88,44.9 79.8,46.6 C80,45.9 80.5,45.5 80.8,44.8 C82.5,41.3 81.5,36.9 80.4,33.2 C79.7,31.5 78.3,29.6 76.4,29.5 C73.2,28.8 70.3,31 68.4,33.5 C67.6,34.8 67.2,36.2 66.7,37.6 C65.2,37.5 63.9,38 62.3,37.6 C61.3,36.2 60.3,34.4 58.3,34.2 C56.6,33.7 55.1,33.3 53.4,32.9 C52.8,32.9 50.3,32.3 49,32.1 C48.9,32.1 48.9,31.9 49,31.8 C49.9,30.8 51,29.6 52.2,28.7 C52.4,30 53.3,31.2 54.3,32.2 C55.1,32.9 57.1,34 58.8,33.1 C60.8,32 61.2,29.8 61.3,27.8 C61.2,25.8 60.3,23.5 58.3,22.8 C58.7,22.8 59.3,22.1 59.8,22.6 C62.6,21.8 65.8,21.1 68.6,20.5 C68.5,20.4 68.6,20.3 68.5,20.2 C72.5,19.4 76.5,19.5 80.8,19.4 C80.8,19.4 85.1,19.5 87.3,19.7 C88,20.2 88.4,21.1 88.4,22 C88.4,22.5 88.8,22.7 89,23.1 C86.4,23.4 83.5,23.3 80.9,23.6 C75,24 69.5,24.8 63.9,26 C63.5,26.1 63,26.3 62.7,26.7 C62.6,26.9 62.6,27.1 62.8,27.3 C63.4,27.5 64.1,27.7 64.7,27.5 C72.7,25.8 80.9,25.1 89.2,24.7 C89.2,24.9 89.3,25.2 89.3,25.4 C88.4,25.5 87.2,25.3 86.5,25.6 C87.4,25.9 88.5,25.5 89.3,25.7 C89.9,31.3 89.6,37.4 88.8,43 L88.9,43.1 C94.5,42.1 99.9,40.8 105.4,39.4 C105.1,40 104.9,40.7 104.3,41.1 L104.3,41.1 Z M110.1,42.1 C109.9,41.3 109.9,40.4 109.8,39.6 L109.9,39.5 C110.3,41.5 110.7,44 112.6,45.2 C111.2,44.8 110.6,43.3 110.1,42.1 L110.1,42.1 Z M116,43.5 C115.6,44 115.1,44.6 114.4,44.3 C112,43 111.7,40.3 111.5,37.8 C111.7,37.6 111.9,37.1 112.1,36.9 C112.2,38.4 112.3,40.4 113.1,41.8 C113.6,42.2 114.2,42.3 114.7,41.9 C116.1,40.4 116.2,38.2 116.4,36.3 C116.4,34.3 116.6,31.7 115.3,29.9 C115,29.7 114.7,29.5 114.3,29.5 C114.5,28.9 115,28.4 115.7,28.3 C116.2,28.3 116.4,28.7 116.5,29.1 C117.7,33.6 117.8,39.3 116,43.5 L116,43.5 Z M114.9,36.1 C115,36.1 115,36.2 115,36.1 C115,35.9 115.1,35.8 115.3,35.8 C115.3,35.5 115.3,35.1 115.2,34.9 C114.9,35 114.9,35.3 114.8,35.6 C114.7,35.5 114.9,34.7 115.2,34.3 C115.6,34.8 115.5,35.2 115.7,35.8 C115.7,36.3 115.6,37.1 115.2,37.7 C114.9,37.3 115,36.7 114.9,36.1 L114.9,36.1 Z M114.7,38.8 C114.5,39.5 114,40.2 113.3,40.4 C114,39.6 114.7,38.7 115,37.7 C115.1,38.1 114.8,38.5 114.7,38.8 L114.7,38.8 Z M115.8,35.6 C115.7,34.2 115.7,32.8 115.4,31.4 C115.1,31 115,30.2 114.3,30.1 C114.1,30.2 113.8,30 114.1,29.9 C114.2,29.7 114.5,29.8 114.7,29.8 C115.5,30.4 115.6,31.5 115.8,32.4 C115.9,35.6 116.3,40.1 114.5,41.7 C114.2,41.8 113.9,42 113.6,41.8 C114.1,41.8 114.7,41.6 114.9,41 C115.5,39.8 115.6,38.3 115.7,36.9 C115.8,36.7 115.8,35.8 115.8,35.6 L115.8,35.6 Z M114.7,30.5 C115.4,31.6 115.6,32.9 115.6,34.3 C114.9,33.6 115.4,32.7 114.9,31.9 C114.7,31.4 114.6,30.5 113.8,30.5 C114.2,30.3 114.4,30.4 114.7,30.5 L114.7,30.5 Z M115,34.2 C114.8,34.8 114.7,35.3 114.7,35.9 C114,35.3 114.9,34.1 113.8,33.7 C113.5,33.8 113.7,34.4 113.2,33.9 C113.3,33.3 113.5,32.7 113.8,32.2 C114.1,32.9 114.6,33.5 115,34.2 L115,34.2 Z M113.7,41 C114.4,40.6 114.4,39.8 114.8,39.3 C114.8,39.5 115,39.3 115.3,39.1 C115,39.9 115,40.9 114.2,41.5 C113.9,41.7 113.5,41.7 113.2,41.4 C113.1,41.3 113,41.1 113,40.9 C113.1,40.9 113.4,41.2 113.7,41 L113.7,41 Z M122.7,33.2 C121.2,34.4 119.7,35.3 118.1,35.9 C118,35.3 118.7,35.2 118.8,34.7 C119.6,32.8 119.8,30.2 118.8,28.5 C118.1,27.4 116.7,27.9 115.7,28 C112.7,29.3 113.4,33 112.4,35.5 C111.7,37.3 110.5,39.4 108.5,39.8 C107.4,40.3 106,40.5 104.8,40.9 C105.8,39.6 105.6,37.6 106,36.2 C106.1,33.1 106.4,31 106.2,27.9 C111.8,27 118,26.7 123.8,26 C123.9,26.7 123.7,27.3 123.7,28.1 C124.2,28.2 123.6,28.7 123.6,28.9 C123.5,28.9 123.4,29 123.4,29.1 C123.2,30.5 123.1,32.1 122.7,33.2 L122.7,33.2 Z M124.4,32.4 C124,32.5 123.7,33.4 123.4,32.9 C123.9,31.4 123.6,30.1 124.1,28.6 C124.3,28.5 124.5,28.4 124.6,28.2 C124.6,28 124.4,27.8 124.2,27.8 C124.4,27.7 125,27.9 125.1,28.2 C125.3,28.5 124.9,28.4 124.8,28.5 C124.6,28.9 124.1,28.6 124.1,29.1 C124.3,29.6 123.9,30.2 124.1,30.7 C124.5,30.6 124.3,30 124.4,29.8 C124.5,29.4 124.9,29 125.1,28.7 C125.2,29.9 125.5,31.4 124.4,32.4 L124.4,32.4 Z" id="Shape"></path>
                            <path d="M2.7,37 C2.4,37.5 1.8,38.1 1.8,38.8 C2,38.9 2.3,39.2 2.6,39 C2.4,38.6 2.6,38.2 2.6,37.7 C2.7,37.5 3.1,37.4 3,37.1 C2.9,37.1 2.8,37 2.7,37 L2.7,37 Z" id="Shape"></path>
                            <path d="M9.5,27.5 C10,26.1 9.7,24.3 8.6,23.2 C8.1,22.9 7.6,22.6 7,22.8 C6.5,23 6,23.3 5.7,23.7 C4.7,25.2 4.8,27.2 5.6,28.3 C6,28.9 6.6,29.3 7.4,29.4 C8.4,29.3 9.2,28.4 9.5,27.5 L9.5,27.5 Z M6.3,28.8 C6.2,28.4 6.9,28.6 6.7,28.2 C7.3,28.3 7.4,27.7 7.7,27.4 C8.1,27.1 8.2,26.7 8.6,26.4 C8.5,26 8.2,26.5 8,26.5 C7.9,26.9 7.3,26.7 7.3,27.1 C7,27 6.9,27.5 6.7,27.3 C6.5,27.2 6.5,27.6 6.3,27.4 C6.1,27.8 5.9,27.3 5.7,27.5 C5.5,27.4 5.6,26.9 5.4,27 C5.3,26.8 5.3,26.6 5.3,26.3 C5.5,26.2 5.6,26 5.8,25.8 C5.9,26.4 6.3,25.4 6.4,25.9 C6.6,25.9 6.7,25.8 6.8,25.7 C7.1,25.8 7.5,25.6 7.8,25.6 C7.9,25 7.2,25 6.9,24.8 C6.3,25.2 6.6,24.3 6,24.6 C5.4,24.4 5.9,24 6.1,23.7 C6.6,24.4 7.3,23.2 7.6,24.1 C7.7,24 7.8,24 7.9,24 C7.9,24.2 8,24.2 8.2,24.2 C8.5,24.6 8.8,25.1 9.3,25 C9.4,25.1 9.4,25.4 9.6,25.4 C9.7,26.6 9.4,28.2 8.1,29 C7.3,29.2 6.8,29.2 6.3,28.8 L6.3,28.8 Z" id="Shape"></path>
                            <path d="M6,38 C5.6,38.4 5.1,38.7 5.1,39.3 C5.9,39.3 6.6,38.8 7.4,39 C7.7,39 8.3,39.2 8.4,38.8 C7.9,38.6 7.4,38.4 6.8,38.3 C6.6,38.1 6.3,37.9 6,38 L6,38 Z" id="Shape"></path>
                            <path d="M10.3,40.1 C10.2,39.6 10.9,39 10.2,38.7 C10.5,38.2 10.4,37.8 10.6,37.3 C10.6,37 10.9,36.5 10.5,36.4 C10.4,37 10.2,37.5 9.9,38 C9.7,39.4 9.6,41 9.1,42.3 C9.1,42.6 8.6,42.8 9,43.1 C9.8,42.2 10.3,41.2 10.3,40.1 L10.3,40.1 Z" id="Shape"></path>
                            <path d="M21.4,39.9 C20.8,40.4 20.2,39.5 19.6,39.9 C19.2,38.9 18.1,39.6 17.5,39.3 C16.6,38.7 16.1,40 15.3,40.1 L15.3,40.2 C16.6,40 17.6,40.2 18.7,40.4 C19.1,40.6 19.5,40.4 19.9,40.2 C20.3,40.3 20.7,40.2 20.9,40.6 C21.5,40.8 21.8,40.3 22.3,40.2 C22.4,39.7 21.6,40 21.4,39.9 L21.4,39.9 Z" id="Shape"></path>
                            <path id="Shape" d="M30.6,31.3 L30.6,31.3 C30.5,31.2 30.4,31.2 30.4,31.2 L30.2,31.2 C30.2,31.2 30.1,31.2 30.1,31.3 L30.1,31.5 L30.5,31.5 L30.6,31.3 L30.6,31.3 Z"></path>
                            <path d="M21.4,30.6 C19.7,30.7 17.7,30.6 16,30.8 L15.3,30.8 L15.1,30.9 L14.7,31.5 L14.7,31.9 L16.3,31.9 L16.3,31 L17,31 C16.8,31.3 17.1,31.5 17.1,31.7 L17.1,31.9 L18.5,31.8 L18.5,31.2 C18.5,30.7 18.9,30.9 19.1,30.9 C19,31.1 19.1,31.2 19,31.4 L19,31.9 L20.8,31.9 L20.8,30.9 C21.2,31 22,30.5 21.5,31.3 L21.5,31.8 L23.3,31.8 L23.4,30.8 C23.7,30.8 23.5,30.7 23.8,30.8 C23.8,31.1 23.8,31.3 23.9,31.6 L23.9,31.8 L25.9,31.8 L25.9,30.8 L26.5,30.8 C26.4,31.3 26.8,31.8 26.8,31.8 L28.4,31.8 C28.9,31.7 28.2,31 28.5,30.8 C29.1,30.9 29,30.7 29.6,30.9 C29.5,31.2 29.3,31.6 29.3,31.8 C29.7,31.9 31,32 31.3,31.9 C31.4,31.6 31.4,31.2 31.4,31 C32.1,31 31.4,31 32,31.1 C32.9,31 32.2,31.9 32.4,32.2 C32.8,32.1 33.8,32.5 34.2,32.4 C34.3,32.2 34.4,31.5 34.4,31.3 C34.6,31.2 34.8,31.5 35.5,31.4 C35.4,31.6 35.4,32.5 35.4,32.5 L36.9,32.8 C36.9,32.8 37.2,32 37.2,31.6 C37.9,31.7 37.8,31.7 38.4,32 C38.3,32.4 38.1,32.6 38.3,33 C38.5,33 39.8,33.4 40,33.4 C40.2,33 40.4,32.8 40.3,32.3 C40.9,32.5 41.9,32.4 42.2,33.2 C42.4,34.4 44,35.1 44.1,36.4 C44.3,36.9 43.9,37.6 43.5,38.1 C43.4,38.2 43.4,38.3 43.6,38.2 C43.8,38.1 44.2,37.8 44.2,37.5 C44.6,36 43.6,34.8 42.6,33.8 C42.5,33.3 42.4,32.8 42,32.6 C38.5,31.5 34.7,31.1 31.2,30.8 C29.3,30.7 24.2,30.3 21.4,30.6 L21.4,30.6 Z M15.9,31.8 C15.8,31.8 15.7,31.9 15.6,31.9 L15.4,31.9 L15.1,31.9 C15,31.9 15,31.8 15,31.8 L15.2,31.8 L15.2,31.8 L15.3,31.8 L15.4,31.8 L15.6,31.8 C15.6,31.8 15.6,31.8 15.6,31.7 C15.6,31.7 15.6,31.7 15.5,31.6 L15.1,31.4 C15,31.4 15,31.3 15,31.3 L15,31.3 C15,31.3 15,31.2 15.1,31.2 C15.2,31.2 15.3,31.1 15.4,31.1 L15.6,31.1 C15.9,31.1 16,31.1 16,31.2 L15.8,31.2 C15.8,31.1 15.7,31.1 15.6,31.1 L15.4,31.1 C15.4,31.1 15.3,31.1 15.3,31.2 C15.3,31.2 15.3,31.2 15.4,31.3 L15.8,31.5 C15.9,31.5 15.9,31.6 15.9,31.6 L15.9,31.6 C16,31.7 16,31.8 15.9,31.8 L15.9,31.8 Z M18.4,31.1 L18,31.1 L18,31.7 L17.6,31.7 L17.6,31.1 L17.2,31.1 L17.2,31 L18.4,31.1 L18.4,31.1 Z M20.5,31.6 C20.5,31.6 20.5,31.7 20.4,31.7 L20.1,31.7 L19.7,31.7 C19.6,31.7 19.5,31.7 19.4,31.6 C19.3,31.6 19.3,31.5 19.3,31.5 L19.3,30.9 L19.7,30.9 L19.7,31.5 C19.7,31.5 19.7,31.5 19.8,31.6 L19.9,31.6 L20.1,31.6 C20.1,31.6 20.2,31.6 20.2,31.5 L20.2,30.9 L20.6,30.9 L20.5,31.6 L20.5,31.6 Z M23.1,31.5 C23.1,31.5 23.1,31.6 23,31.6 L22.7,31.6 L21.8,31.6 L21.8,30.9 L22.7,30.9 C22.8,30.9 22.9,30.9 23,31 C23.1,31 23.1,31.1 23.1,31.1 L23.1,31.5 L23.1,31.5 Z M38.6,32.2 L39.5,32.3 C39.6,32.3 39.7,32.3 39.8,32.4 C39.9,32.4 39.9,32.5 39.9,32.5 L39.9,32.5 C39.9,32.5 39.9,32.6 39.8,32.6 L39.4,32.6 L39.8,32.8 L39.8,33 L39.7,33.2 L39.3,33.1 L39.3,32.8 C39.3,32.8 39.3,32.8 39.2,32.7 L39,32.7 L38.8,32.7 L39,33 L38.5,32.9 L38.6,32.2 L38.6,32.2 Z M35.7,31.7 L36.8,31.8 L36.8,31.9 L36.1,31.8 L36.1,32.1 L36.6,32.1 L36.6,32.2 L36.1,32.2 L36.1,32.5 L36.8,32.6 L36.8,32.7 L35.7,32.6 L35.7,31.7 L35.7,31.7 Z M32.6,31.3 L33,31.3 L33,31.6 L33.8,31.3 L34.2,31.3 L33.3,31.6 L34.2,32.1 L33.7,32.1 L33.1,31.7 L33.1,32 L32.7,32 L32.6,31.3 L32.6,31.3 Z M29.7,31.3 C29.7,31.3 29.7,31.2 29.8,31.2 L30.1,31.2 L30.5,31.2 C30.6,31.2 30.7,31.2 30.8,31.3 C30.9,31.3 30.9,31.4 30.9,31.4 L30.9,32 L30.5,32 L30.5,31.7 L30.1,31.7 L30.1,32 L29.7,32 L29.7,31.3 L29.7,31.3 Z M27,31 L27.9,31 C28,31 28,31 28.1,31.1 C28.2,31.1 28.2,31.2 28.2,31.2 L28.2,31.2 C28.2,31.2 28.2,31.3 28.1,31.3 L27.9,31.3 C28,31.3 28,31.3 28.1,31.4 C28.2,31.4 28.2,31.5 28.2,31.5 L28.2,31.5 C28.2,31.5 28.2,31.6 28.1,31.6 L27.9,31.6 L27,31.6 L27,31 L27,31 Z M24.4,30.9 L25.5,30.9 L25.5,31 L24.9,31 L24.9,31.3 L25.3,31.3 L25.3,31.4 L24.9,31.4 L24.9,31.7 L25.5,31.7 L25.5,31.8 L24.4,31.8 L24.4,30.9 L24.4,30.9 Z" id="Shape"></path>
                            <path d="M22.6,31 L22.5,31 L22.3,31 L22.3,31.6 L22.5,31.6 L22.7,31.6 C22.8,31.6 22.8,31.6 22.8,31.5 L22.6,31 C22.7,31.1 22.7,31.1 22.6,31 L22.6,31 Z" id="Shape"></path>
                            <path id="Shape" d="M27.8,31.3 L27.8,31.3 L27.9,31.2 C27.9,31.2 27.9,31.2 27.8,31.1 L27.6,31.1 L27.4,31.1 L27.4,31.4 L27.6,31.4 C27.7,31.4 27.7,31.3 27.8,31.3 L27.8,31.3 Z"></path>
                            <path id="Shape" d="M27.8,31.5 C27.8,31.4 27.7,31.4 27.6,31.4 L27.4,31.4 L27.4,31.7 L27.6,31.7 L27.8,31.7 L27.8,31.5 L27.8,31.5 L27.8,31.5 Z"></path>
                            <path id="Shape" d="M39.5,32.6 L39.5,32.6 L39.6,32.5 C39.6,32.5 39.6,32.5 39.5,32.4 L39.3,32.4 L39.1,32.4 L39.1,32.7 L39.3,32.7 C39.4,32.6 39.4,32.6 39.5,32.6 L39.5,32.6 Z"></path>
                            <path d="M23.9,35.5 C24.2,35.6 24.6,35.6 24.6,36 C24.7,36 24.8,35.9 24.9,35.9 C25,35.7 25.2,35.5 25,35.4 C22.6,35.1 20.3,34.5 18,33.8 C18,33.8 17.9,33.9 18,33.9 C19.9,34.4 21.9,35 23.9,35.5 L23.9,35.5 Z" id="Shape"></path>
                            <path d="M28.1,28.1 C24.5,28.2 21.3,28.1 18.1,28.8 L18.1,28.9 C19,28.9 20.1,28.4 21.1,28.8 C23.4,28.4 25.9,28.4 28.1,28.1 C28.1,28.2 28.1,28.2 28.1,28.1 L28.1,28.1 Z" id="Shape"></path>
                            <path d="M27,29.9 C27,29.9 26.9,29.9 27,29.9 C27.3,30.3 27.8,29.8 28.2,29.9 C28.2,30.1 28,30.3 28.2,30.3 C29,30.1 29.8,29.7 30.6,29.8 C31,29.5 31.5,29.8 31.8,30.1 C32.2,29.8 32.7,29.5 32.9,30.2 C34,30.5 35.1,29.9 36.2,29.8 C36.8,29.8 37.4,30.1 37.8,29.9 C36.2,29.3 34.5,29.6 32.7,29.7 C32.3,29 31.8,29.6 31.3,29.6 C30.5,29.1 29.6,29.5 28.8,29.6 C28.2,29.1 27.6,30.2 27,29.9 L27,29.9 Z" id="Shape"></path>
                            <path d="M32.7,28.7 C33.4,28.9 34.1,28.8 34.8,28.9 C34.4,29 34.1,29.1 33.7,29 C33.4,29.1 33,28.8 32.8,29.2 C34.2,29.3 36,29.2 37.4,29.3 C37.7,29.5 38,29.5 38.4,29.5 C38.8,29.9 39.5,29.6 40,29.5 C40.2,29.3 40.4,29.7 40.5,29.4 C38.8,28.8 37.4,29 35.6,28.6 C35.2,28.5 34.7,28.8 34.4,28.4 C34,28.7 33.5,28.6 33,28.6 C32.7,28.4 32.2,28.4 32.7,28.7 L32.7,28.7 Z" id="Shape"></path>
                            <path d="M38.2,41.9 C38.2,41.6 38.8,41.3 38.5,40.9 C38.3,40.6 37.8,40 37.5,40.5 C37.4,40.2 37.8,39.9 37.9,39.5 C37.8,39.3 37.3,39.2 37.7,39 C38.2,38.9 38.7,38.9 39.1,38.8 C39.2,38.7 39.2,38.4 39.1,38.4 C38.9,38 38.6,38.5 38.3,38.4 C38.1,38.2 37.6,38.6 37.7,38.1 C36.8,38.3 36.8,37.3 36.4,36.8 C36.5,36.6 36.8,36.7 37,36.7 C36.9,36.4 36.6,36.1 36.7,35.8 C36.3,35.8 36.2,36.2 35.9,36.4 C35.7,36.2 35.3,36.1 35.2,35.9 C35.1,36.1 35.1,36.5 35.2,36.8 C35.3,38.2 35.8,37.9 36.2,38.6 C36.3,39.9 36.1,41.4 35.9,42.7 C35.4,43.2 35.9,43.9 35.7,44.5 C35.6,45.2 34.5,44.5 34.6,45.2 C34.7,45.7 34.7,46.3 35.3,46.4 C36.5,46.3 37.6,45.9 38.5,45.4 C38,44.5 37.8,43 38.2,41.9 L38.2,41.9 Z" id="Shape"></path>
                            <path d="M38.7,30.2 C38.2,30.6 37.6,30 37,30.3 C36.5,30.5 35.6,29.8 35.3,30.6 C35.5,30.8 35.8,30.5 36.1,30.5 C36.2,30.7 36.4,30.9 36.6,30.9 C37.6,30.7 38.3,31.3 39.2,31.3 L39.2,31.2 C38.5,31 37.7,30.8 37.1,30.5 C37.5,30.6 38,30.5 38.4,30.6 C38.9,31 39.5,31 40,30.9 C40.1,30.5 40.5,30.8 40.7,30.9 C40.8,30.8 41.1,31 41.3,30.9 C40.7,30.4 41.7,30.4 41.7,30.1 C41.7,30 41.5,29.9 41.3,29.9 C40.3,30.1 39.6,30.3 38.7,30.2 L38.7,30.2 Z" id="Shape"></path>
                            <path d="M42.4,31.4 C42.1,31.5 41.8,31.5 41.5,31.6 C41.1,31.8 40.6,31.5 40.3,31.8 C40.8,32 41.6,32 42.2,32.2 C43.5,32.2 42.5,33.9 43.6,34.3 C43.9,33.5 44,32.6 44.4,31.8 C44.5,31.4 45,31.1 44.9,30.7 C44.5,30.1 43.7,30.4 43.2,30.3 C43.1,30.7 42.9,31.2 42.4,31.1 C42.3,31.1 42.5,31.2 42.4,31.4 L42.4,31.4 Z" id="Shape"></path>
                            <path d="M44.9,35.1 C44.9,35.5 44,35.9 44.7,36.1 C45,35.9 45.3,35.6 45.4,35.2 C45.3,34.1 45.2,33 46.2,32.3 C45.5,33.6 46.1,35.3 45,36.5 C44.4,36.4 44.8,37.1 44.6,37.4 C45.1,37.2 45.5,36.7 45.8,36.3 C45.9,35.3 46.7,34.9 46.9,33.9 C47.3,33.4 46.5,33.7 46.4,33.8 C46.1,34 46.4,33.5 46.4,33.4 C46.7,33 47.1,32.4 47.7,32.6 C47.8,32.4 48.2,32.2 48,31.9 C47.3,31.7 46.7,31.6 46,31.5 C45.8,31.4 45.6,30.9 45.3,31 C45.1,31.4 45.6,31.6 45.8,31.9 C44.8,32.8 45.3,34 44.9,35.1 L44.9,35.1 Z" id="Shape"></path>
                            <path d="M47.9,37.4 C47.8,36.8 46.8,37.4 47,36.7 C46.6,37 46.3,37.6 46.1,38.1 C46.5,37.9 47,38.1 47.5,38 C47.6,37.9 47.5,37.8 47.5,37.7 C47.8,37.6 48.6,37.8 48.5,37.3 C48.2,37.4 48,37.2 47.9,37.4 L47.9,37.4 Z" id="Shape"></path>
                            <path d="M48.7,36.2 C48.2,36.1 47.7,36.2 47.4,35.8 C47.3,35.8 47,35.6 47.1,35.9 C47.2,36.1 47.5,36.3 47.8,36.2 C48.1,36.4 48.6,36.6 48.5,36.9 C48.8,36.7 49,36.4 49.1,36 C49,35.8 48.8,36.2 48.7,36.2 L48.7,36.2 Z" id="Shape"></path>
                            <path d="M58.7,35.3 C57.1,34.9 55.5,34.5 53.9,34.2 C53,34.2 52.2,33.8 51.2,34 C50,34.7 49.6,36.1 48.8,37.2 C48.8,37.6 48.8,38.1 49.2,38.3 C51.7,38.7 54.2,38.9 56.7,39.3 C58.1,39 59,37.5 59.3,36.2 C59.3,35.9 59,35.5 58.7,35.3 L58.7,35.3 Z M57.4,38.7 C57.2,38.9 56.8,39 56.6,39 C54.1,38.6 51.9,38.5 49.3,38.1 C49.1,37.9 48.8,37.6 49,37.2 C49.6,36.2 50.1,35.1 51,34.2 C53.6,34 56.1,35 58.5,35.5 C58.7,35.6 58.8,35.7 59,35.8 C59,36.9 58.4,38.1 57.4,38.7 L57.4,38.7 Z" id="Shape"></path>
                            <path d="M57.6,35.8 C56.2,35.4 54.7,35.2 53.4,34.8 C52.9,34.8 52.4,34.7 51.9,34.6 C50.5,34.3 50.5,36 49.8,36.8 C49.5,37 49.4,37.6 49.7,37.8 C52.1,38.2 54.1,38.1 56.5,38.7 C57.5,38.4 57.9,37.3 58.1,36.4 C58.3,36.1 57.8,36.1 57.6,35.8 L57.6,35.8 Z M58,36.6 C57.8,37.3 57.4,38.2 56.7,38.6 C54.4,38.2 52.2,38.1 49.9,37.7 C49.8,37.2 50.3,37 50.4,36.6 C50.7,36 50.9,35 51.7,35 C53.7,35 55.7,35.7 57.5,36.1 C57.7,36.1 58,36.3 58,36.6 L58,36.6 Z" id="Shape"></path>
                            <path d="M53.4,33.8 C54.3,33.9 55.2,34.6 56.1,34.5 C55.3,34.1 54.2,34.1 53.4,33.5 C53.1,33.7 52.8,33.3 52.6,33.4 C52.4,33.5 52.2,33.5 52.2,33.8 C52.6,33.8 53,33.8 53.4,33.8 L53.4,33.8 Z" id="Shape"></path>
                            <path d="M55.2,35 C55.4,35.1 55.8,35.2 55.8,35 C54.9,34.8 54,34.4 53.1,34.5 C53,34.4 52.7,34.4 52.7,34.6 C53.5,34.7 54.6,34.7 55.2,35 L55.2,35 Z" id="Shape"></path>
                            <path d="M85.2,30.4 C85.2,33.1 84.8,35.2 85.2,37.8 C85.4,38 85.7,38.2 86,38 C86.4,37.9 86.5,37.6 86.7,37.3 C86.9,35.6 86.9,33.9 87,32.3 C87.1,31.5 87.1,30.5 86.6,29.9 C86.2,30.2 85.5,29.8 85.2,30.4 L85.2,30.4 Z M86.6,36.9 C86.5,37.2 86.4,37.6 86.1,37.8 C85.9,37.8 85.4,38 85.4,37.6 C85,36.1 85.5,34.3 85.4,32.7 C85.4,32 85.4,31.3 85.5,30.5 C85.8,30.1 86.2,30.2 86.6,30.2 C87,30.6 86.8,31.3 86.9,31.9 C86.9,33.4 86.5,35.4 86.6,36.9 L86.6,36.9 Z" id="Shape"></path>
                            <path d="M104.4,30.8 C104.6,30.8 104.5,30.5 104.7,30.3 C104.9,28.9 103.9,27.6 102.7,26.9 C102.4,26.9 102,26.4 101.7,26.8 C102,26.8 102.5,26.9 102.8,27.1 C104,28 104.8,29.3 104.4,30.8 L104.4,30.8 Z" id="Shape"></path>
                            <path d="M103.6,24.5 L103.6,24.6 C104.3,24.6 105.1,25 105.6,25.6 C105.6,25.2 105.5,24.9 105.5,24.5 L103.6,24.5 L103.6,24.5 Z" id="Shape"></path>
                            <path d="M106.5,24.6 C106.2,24.6 106.1,26.3 106.7,26.3 C106.8,26.2 106.8,26.1 106.8,26 C107,25.5 107.2,25.4 107.7,25.3 C108,25.2 108,25.3 108.2,25.2 C110.3,25.3 112.3,25.3 114.4,25.5 C114.7,25.6 115.1,26 115.3,26 C115.2,25.6 115.1,25.2 114.8,24.9 C114.2,24.8 113.8,24.7 113.2,24.8 C112.9,24.6 107.5,24.5 106.5,24.6 L106.5,24.6 Z" id="Shape"></path>
                            <path d="M111.1,21.1 C110.9,21 110.8,21.2 110.7,21.3 C110.4,21.5 110.4,21 110.2,21.1 C109.5,22.1 109.6,20.4 108.8,20.7 C108.3,21.1 108.6,21.9 109,22.4 C109.9,22.4 110.7,22.4 111.6,22.5 C111.7,21.9 111.1,21.7 111.1,21.1 L111.1,21.1 Z M108.8,21.2 L108.9,21.3 C109,21.3 109.1,21.3 109.1,21.2 C109.2,21.1 109,21.1 109,21 C108.9,21 108.7,20.8 109,20.7 C109.1,20.7 109.3,20.9 109.3,21 C109.3,21.1 108.9,21.4 109.2,21.5 C109.8,21.4 110.4,21.7 111,21.3 C111,21.5 111,21.7 111.1,21.8 C110.6,21.9 109.6,21.7 108.9,21.8 C108.8,21.7 108.8,21.5 108.8,21.2 L108.8,21.2 Z M110.9,22.2 C110.3,22.3 109.5,22.1 109.3,22.1 C109.1,22.1 109.1,22 109.2,22 L110.9,22 C111.1,22.1 111.4,22.2 110.9,22.2 L110.9,22.2 Z" id="Shape"></path>
                            <path d="M118.3,20.1 L118.3,20.1 C115.5,19.7 111.6,19.2 108.8,18.9 C108.7,18.9 108.5,19 108.7,19.1 C111.5,19.5 115.4,19.8 118.3,20.1 L118.3,20.1 Z" id="Shape"></path>
                            <path d="M117.5,25.7 C118,25.9 120.6,25.4 121.4,25.5 C121.9,25.3 122.6,25.4 123,25.2 C121.2,25.2 119,25.1 117.4,25.1 C117.7,25.1 118,25.5 117.5,25.7 L117.5,25.7 Z" id="Shape"></path>
                            <path d="M48.9,43.2 C48.7,43.2 48.5,43.4 48.5,43.6 C48.5,43.8 48.7,43.9 48.9,43.9 C49.1,43.9 49.3,43.8 49.3,43.6 C49.3,43.4 49.1,43.2 48.9,43.2 L48.9,43.2 Z M48.9,43.7 C48.7,43.7 48.6,43.6 48.6,43.5 C48.6,43.4 48.7,43.2 48.9,43.2 C49.1,43.2 49.2,43.4 49.2,43.5 C49.2,43.6 49,43.7 48.9,43.7 L48.9,43.7 Z" id="Shape"></path>
                            <path d="M58.6,21.4 C58.5,21.5 58.4,21.6 58.3,21.8 C58.2,22 58.6,21.9 58.6,21.8 C58.6,21.7 58.7,21.5 58.8,21.4 C58.8,21.4 58.9,21.3 58.6,21.4 L58.6,21.4 Z" id="Shape"></path>
                            <path d="M116.5,25.7 C116.7,25.5 117,25 116.5,25 C116,24.9 116.1,25.1 115.8,25 C115.6,24.9 115.8,25.5 116,25.8 C116.2,26.1 116.3,25.9 116.5,25.7 L116.5,25.7 Z" id="Shape"></path>
                        </g>
                    </g>
                </g>
            </g>
        </g>
    </g>
</svg>