<?xml version="1.0" encoding="UTF-8" standalone="no"?>
<svg width="63px" height="64px" viewBox="0 0 63 64" version="1.1" xmlns="http://www.w3.org/2000/svg" xmlns:xlink="http://www.w3.org/1999/xlink" xmlns:sketch="http://www.bohemiancoding.com/sketch/ns">
    <!-- Generator: Sketch 3.3 (11970) - http://www.bohemiancoding.com/sketch -->
    <title>garden</title>
    <desc>Created with Sketch.</desc>
    <defs></defs>
    <g id="Page-1" stroke="none" stroke-width="1" fill="none" fill-rule="evenodd" sketch:type="MSPage">
        <g id="summer-offer-page-copy-4" sketch:type="MSArtboardGroup" transform="translate(-247.000000, -2402.000000)" stroke-width="0.4167" stroke="#010202">
            <g id="Group-Copy" sketch:type="MSLayerGroup" transform="translate(63.125000, 2232.000000)">
                <g id="garden" transform="translate(184.000000, 170.000000)" sketch:type="MSShapeGroup">
                    <g id="Group">
                        <path d="M1.1,11 C1.7,14.9 4.3,18.1 7.4,20.4 C10.9,23 14.9,24.6 18.5,26.9 C24.9,31 30.5,37.1 31.8,44.9 C32.2,47.1 32.2,49.4 31.8,51.6 L31.8,51.4 L31.8,51 C31.8,51 31.8,51 31.8,50.9 C32,48.9 31.9,46.8 31.5,44.9 C30.7,41.6 28.9,38.5 26,36.5 C23.3,34.6 19.9,33.8 16.7,34.4 C16.4,34.5 16.5,34.9 16.8,34.8 C18.6,34.4 20.4,34.5 22.2,35.1 C24.8,35.9 27.1,37.6 28.7,39.8 C26.7,37.6 23.7,36.3 20.7,37 C19.9,37.2 19.1,37.5 18.8,38.3 C18.6,38.9 18.8,39.7 19.5,39.8 C20.1,39.9 20.7,39.5 20.8,38.9 C20.8,38.3 20.3,37.8 19.7,37.8 C20.3,37.4 21.3,37.3 22,37.3 C23.7,37.3 25.5,37.8 26.9,38.8 C29.7,40.7 31,44.1 31,47.3 C30.6,46.1 29.9,44.9 29.1,43.9 C28.6,43.3 27.4,41.8 26.6,42.8 C25.8,43.7 27.3,44.5 27.8,44.9 C29.8,46.7 31.1,49.3 31.1,52 C31.1,54.2 30.3,56.4 28.9,58.1 C29.3,57 29.5,55.7 29.3,54.5 C28.5,50.4 24.1,47.9 20.2,49.3 C18,50.1 16.5,51.8 15.8,53.8 C15.1,55.5 15.2,57.6 16,59.2 C16.2,59.6 16.6,59.4 16.4,59 C15.8,57.7 15.7,56.2 16,54.8 C16.2,54.1 16.5,53.4 16.9,52.8 C18.1,51 20.3,50.1 22.4,50.3 C24.6,50.4 26.4,51.7 27.4,53.6 C28.4,55.5 28.5,57.8 27.4,59.7 C26.9,60.5 26.2,61.3 25.5,61.8 C25.3,61.9 25.2,62 25,62 C24.1,62.4 23,62.6 22,62.4 L21.9,62.3 C19.7,62 18,59.8 18.7,57.6 C19,56.5 20.1,55.6 21.2,55.6 C22.2,55.6 23,56.2 23.3,57.1 L23.2,57 C22.1,56 20.8,57.2 21.2,58.5 C21.4,59.1 22,59.4 22.6,59.3 C22.9,59.2 23.2,59.1 23.4,58.8 C23.4,58.8 23.5,58.8 23.5,58.7 C23.5,58.7 23.5,58.7 23.5,58.6 C23.7,58.3 23.8,58 23.9,57.7 C24.3,56.2 22.9,54.8 21.5,54.5 C19.8,54.1 18.3,55.1 17.7,56.6 C17,58.2 17.5,60.1 18.8,61.3 C19.2,61.7 19.6,61.9 20.1,62.2 C18.5,61.9 17,61.1 15.8,60 C15.3,59.5 14.8,59 14.2,58.7 C13.6,58.4 12.7,58.5 12.3,59 C12.2,59.1 12.2,59.2 12.2,59.3 C12,59.9 12.4,60.7 12.9,61.2 C13.7,62 14.8,62.5 15.9,62.8 C17.9,63.4 20.1,63.5 22.2,63.2 C22.9,63.1 23.5,63 24.2,62.7 C24.7,62.5 25.2,62.4 25.7,62.1 C27,61.6 28.2,60.9 29.3,60.1 C34.6,56.4 38,50.6 41.6,45.4 C42.5,44 43.4,42.4 44.6,41.2 C45.7,40.1 47.5,39.2 48.8,40.4 C49.2,40.8 49.5,41.3 49.4,41.9 C49.4,41.9 49.4,41.9 49.4,41.8 C49.3,41.1 48.5,40.5 47.8,40.6 C47.1,40.7 46.5,41.4 46.6,42.1 C46.7,42.8 47.2,43.3 47.9,43.4 C49.3,43.7 50.2,42.2 49.8,41 C49.4,39.5 47.6,39 46.3,39.4 C44.5,40 43.5,41.6 42.5,43.1 C41.2,45 39.9,46.9 38.7,48.7 C36.4,52.1 33.7,55.9 30.3,58.6 C33.4,55.4 36,51.6 37.9,47.6 C38.9,45.5 39.7,43.3 40.4,41 C41,38.7 41.3,36.3 42.1,34 C42.4,33.1 42.8,32.1 43.3,31.3 C42.7,33.2 42.8,35.3 43.6,37.2 C43.8,37.9 44.2,37.6 44,37 C43.9,35.4 46.4,34.4 47.2,33.3 C48.2,31.9 47.5,30.3 47.4,28.8 C47.3,27.2 48.1,25.7 49.3,24.7 C51.7,22.8 54.9,23.2 57.3,24.8 C56.1,24.3 54.6,24.2 53.4,24.6 C52.6,24.9 51.9,25.6 51.7,26.4 C51.5,27.2 51.8,28 52.5,28.4 C53.1,28.8 53.9,28.7 54.3,28.1 C54.7,27.6 54.7,26.8 54.1,26.4 C53.1,25.7 52,26.7 52.2,27.6 C51.9,27 52.1,26.2 52.5,25.7 C53.1,25 54.1,24.8 54.9,24.8 C58.4,24.7 61,28.1 60.2,31.4 L60.2,31.5 C59.8,33.5 58.5,35.4 56.7,36.4 C56.4,36.5 56.3,36.9 56.9,36.7 C61.3,36 63.8,30.7 62,26.7 C60.2,22.7 55.3,20.9 51.1,22 C48.9,22.6 46.9,24 45.4,25.7 C43.7,27.6 42.8,29.9 42.1,32.4 C40.9,36.8 40.3,41.2 38.5,45.5 C36.7,49.8 34.1,53.2 31.4,56.9 C33.7,53.7 35.2,50.1 35.8,46.2 C36,45.2 36.1,44.2 36.3,43.3 C36.9,40.9 38.1,39 38.1,36.4 C38.2,32.9 36.8,30.2 34.7,27.6 C34,26.7 33.1,25.6 32.9,24.4 C32.7,23.5 33.1,22.5 33.8,21.8 C35.3,20.4 37.7,21 38.5,22.9 C38.6,23 38.6,23.3 38.8,23.2 C38.9,23.2 39,23.1 39,22.7 C39,20.5 37.1,18.6 34.9,18.9 C33.1,19.2 31.8,20.7 31.8,22.5 C31.3,20.7 30.9,18.8 31,16.9 C31,16.6 30.6,16.6 30.6,16.9 C30.5,20 31.5,22.9 32.5,25.8 C33.6,28.7 34.8,31.6 35.4,34.7 C36.5,40.2 36,46.2 34,51.4 C33.3,53.1 32.5,54.7 31.4,56.1 C32.8,53 33.6,49.7 33.7,46.3 C33.9,39.4 31.2,32.5 26.3,27.7 C24.9,26.3 23.4,25.2 21.9,24 L21.9,24 C19.4,21.9 16.9,19.4 16,16.2 C15.8,15.4 15.7,14.5 15.7,13.7 C15.7,12.8 16,12.1 16.2,11.3 C16.3,11 16.3,10.5 16,10.2 C14.6,9.2 14.4,12.4 14.4,13 C14.4,14 14.6,14.9 14.8,15.8 C15.4,17.6 16.4,19.3 17.7,20.7 C20.1,23.4 23.3,25.4 25.9,27.9 C28.4,30.4 30.4,33.4 31.7,36.7 C33.5,41.3 33.8,46.3 32.8,51 C33.3,47.7 33,44.3 32,41.1 C30.7,37.2 28.3,33.7 25.4,30.8 C23.7,29.1 21.8,27.7 19.8,26.4 C18.1,25.3 16,24.3 14.5,23 C13.5,22.1 12.5,20.3 12.2,19.5 C12.2,19.5 11.4,19.4 11,19.3 C9.8,18.9 8.6,18.3 8,17.1 C7.3,15.8 7.7,13.7 9.6,13.5 C10,13.5 9.6,13.2 9.4,13.2 C8.5,12.9 7.6,13.2 7,13.9 C6.3,14.6 6.2,15.8 6.5,16.7 C6.7,17.2 6.9,17.7 7.3,18 C6.8,17.7 6.3,17.3 5.9,16.9 C4.2,15.2 3,12.5 4.4,10.3 C4.9,9.5 5.8,8.8 6.9,8.8 C7.6,8.8 8.5,9.1 8.9,9.7 C9,9.8 9.2,10.5 9.4,10.4 C9.5,10.4 9.6,10 9.6,9.9 C9.8,8.8 9.1,7.7 8,7.2 C6.7,6.6 5.1,7.2 4.2,8.3 C3.1,9.6 2.8,11.3 3.1,13 C2.1,10.5 2.2,7.7 3.8,5.3 C5,3.6 6.9,2.6 9,2.5 C10.9,2.5 13.7,3.6 13.9,5.8 C13.9,6.4 14.4,6.3 14.3,5.8 C14.2,5.1 14,4.4 13.6,3.8 C11.9,1.1 8.3,0.2 5.6,1.7 C2,4 0.6,7.6 1.1,11 L1.1,11 Z M35.3,34.7 C34.7,32.1 33.8,29.6 32.8,27 C36.2,31 37.4,36.7 36,41.8 C36,39.4 35.8,37 35.3,34.7 L35.3,34.7 Z M44.8,30.3 C45.4,28.9 46.3,27.6 47.3,26.5 C47.1,26.8 47,27.2 46.8,27.5 C46.1,28.3 45.4,29.3 44.8,30.3 L44.8,30.3 Z M47.3,43.1 C46.7,42.5 46.9,41.3 47.9,41.3 C48.1,41.3 48.4,41.4 48.6,41.6 C49.3,42.5 48.2,44 47.3,43.1 L47.3,43.1 Z M18.3,57 C17.8,58 17.8,59.1 18.2,60 C17.9,59.5 17.8,58.8 17.8,58.2 C17.9,56.4 19.4,54.7 21.3,55.1 C21.9,55.2 22.5,55.5 22.9,55.9 C22.5,55.5 21.9,55.3 21.4,55.2 C20.1,55.2 18.9,55.9 18.3,57 L18.3,57 Z" id="Shape"></path>
                        <g transform="translate(17.000000, 0.000000)" id="Shape">
                            <path d="M10.7,5.8 C11.1,5.6 11.7,5.5 12.1,5.7 C12.3,5.8 12.4,6 12.2,6.2 L12,6.4 C11.8,6.5 11.6,6.6 11.4,6.7 C11,6.8 10.6,6.9 10.3,7.1 C9.6,7.3 8.9,7.6 8.3,8 C8.1,8.1 7.9,8 7.9,7.8 L7.9,7.8 C8,6.8 8.8,6 9.7,5.6 C10.2,5.3 10.7,5.2 11.3,5.1 C11.8,5 12.4,4.9 12.9,5 C13.4,5.1 14.1,5.5 13.8,6.1 C13.6,6.6 13,6.8 12.5,6.9 C12.3,6.9 12.1,7 11.8,7 C11.9,7 12,6.9 12.1,6.9 C12.5,6.7 13.2,6.1 12.6,5.7 C12.1,5.3 11.2,5.6 10.7,5.8 C10.5,5.8 10.6,5.9 10.7,5.8 L10.7,5.8 Z"></path>
                            <g>
                                <path d="M0.6,18.9 C0.9,19.3 1.5,19.3 2,19.2 C2.7,19.1 3.4,19 4.1,19.1 C4.8,19.2 5.5,19.4 6.1,19.7 C6.7,20 7.3,20.4 7.9,20.6 C8.9,21 10.1,20.5 10.7,19.6 C11,20 11.3,20.3 11.6,20.6 C11.7,20.7 11.7,20.6 11.8,20.6 L11.8,20.6 C13.1,19.6 14.9,20 16.4,19.9 C17.6,19.9 18.8,19.5 19.6,18.5 C20.3,17.6 20.4,16.4 20.4,15.3 C20.4,14 20.1,12.7 20.2,11.3 C20.3,10.2 20.8,9 21.7,8.4 C22.1,8.3 22.4,8.3 22.8,8.2 C23.2,8.2 23.7,8.1 24,7.8 C24.6,7.1 23.8,6.3 23.2,6 C22.5,5.7 21.8,5.6 21.2,5.7 C21.8,5 21.8,3.9 21.1,3.1 C20.1,2.1 18.9,2.5 17.7,2.8 C16.3,3.2 14.9,3.1 13.5,2.6 C12.8,2.4 12.3,2 11.7,1.6 C11.2,1.2 10.7,0.9 10,0.8 C9.4,0.8 8.9,1.1 8.6,1.7 C8.3,2.3 8.5,3 8.7,3.6 L8.7,3.6 C8.4,3.8 8.1,3.9 7.9,4.1 C6.4,2.7 4.3,4.8 2.6,4.6 C2.4,4.5 2.4,4.6 2.3,4.8 C2.1,6.1 0.9,6.8 0.3,7.8 C-0.2,8.7 8.51207993e-13,9.8 0.6,10.6 C1.1,11.3 1.8,11.8 2.5,12.3 C2.3,12.3 2.1,12.4 1.9,12.5 C1.3,12.9 1,13.5 0.9,14.2 C0.7,14.9 0.7,15.7 0.6,16.5 C0.5,17.5 0.3,18.4 0.6,18.9 L0.6,18.9 Z M11.9,3.6 C12.6,3.7 13.2,4 13.6,4.5 C13.7,4.6 13.8,4.8 13.8,5 C13.3,4.4 12.2,4.5 11.5,4.6 C10.5,4.8 9.4,5.1 8.6,5.8 L8.3,6.1 C7.8,5.6 7.1,5.5 6.4,5.7 C5.4,6 4.6,6.9 3.5,7 C3.3,7 3.2,7.2 3.5,7.1 C4.3,7 5.1,6.7 5.8,6.3 C6.3,6 7,5.8 7.6,6 C7.9,6.1 8,6.5 7.9,6.7 C7.7,7.1 7.5,7.6 7.6,8.1 C7.7,10 9.8,10.6 11.3,11 C11.9,11.2 12.6,11.5 13.1,11.9 C13.5,12.2 13.1,12.8 12.6,12.6 C12.3,12.5 12,12.3 11.6,12.3 C10.6,12.1 9.6,12.4 8.6,12 C7.6,11.6 6.9,10.8 6.3,10 C6,9.6 5.7,9.1 5.4,8.6 C5.2,8.1 5.1,7.1 5.7,6.9 C5.9,6.8 5.9,6.7 5.7,6.8 C5.3,7 5,7.3 5,7.8 C4.9,8.3 5.2,8.8 5.4,9.2 C5.6,9.6 5.8,9.9 6.1,10.3 C6.3,10.6 6.5,10.9 6.8,11.2 C7.1,11.5 7.3,11.8 7.4,12.2 L7.4,12.2 C7.5,12.4 7.2,12.6 7,12.4 L7,12.4 C6.5,11.9 5.8,11.9 5.2,11.6 C4.5,11.3 3.9,10.8 3.4,10.3 C2.9,9.7 2.3,8.7 2.9,8 C3,7.8 3,7.7 2.8,7.9 C1.7,9.1 3,10.7 4,11.4 C4.6,11.8 5.3,12.1 6,12.3 C6.5,12.4 6.8,12.6 7.1,13.1 C7.4,13.8 7.3,14.5 7.6,15.2 C7.7,15.3 7.7,15.4 7.8,15.6 C8,16 7.6,16.4 7.2,16.2 C6.5,15.8 6,15 5.5,14.5 C4.8,13.7 3.9,13.2 3,12.6 C2,12 1,11.4 0.5,10.3 C0.3,9.8 0.2,9.3 0.3,8.8 C0.4,8.3 0.8,7.8 1.1,7.4 C1.7,6.8 2.3,6.1 2.4,5.2 C3.3,5.3 4,4.9 4.8,4.6 C5.6,4.3 6.8,3.9 7.5,4.7 L7.5,4.7 C7.6,4.8 7.6,4.8 7.8,4.6 C9.1,3.9 10.6,3.4 11.9,3.6 L11.9,3.6 Z M7.9,14.2 C7.9,13.6 8,12.8 7.9,12.1 C8.2,12.3 8.6,12.5 9,12.6 C9.6,12.7 10.2,12.7 10.7,12.7 C11.8,12.7 12.8,13.1 13.7,13.9 C13.5,14.1 13.3,14.4 13.1,14.6 C12.6,15.1 11.9,15.5 11.4,16 C10.3,16.9 8.6,16.5 8.1,15.1 C7.9,14.8 7.9,14.5 7.9,14.2 L7.9,14.2 Z M12,11.1 C11,10.7 9.7,10.6 8.9,9.9 C8.6,9.7 8.3,9.4 8.4,9 C8.5,8.7 8.7,8.5 8.9,8.3 C9.3,7.9 9.9,7.7 10.4,7.6 C11.1,7.4 11.7,7.4 12.4,7.3 L12.4,7.3 L12.5,7.3 C13,7.2 13.5,7.1 14,6.9 C14.9,6.5 15.6,5.8 16,4.9 C16.8,5.7 16.3,7 15.9,7.9 C15.6,8.7 15.3,9.7 15.8,10.5 C15.2,11.5 14.7,12.5 14.1,13.4 C14,12.2 13,11.4 12,11.1 L12,11.1 Z M10.7,5.8 C11.1,5.6 11.7,5.5 12.1,5.7 C12.3,5.8 12.4,6 12.2,6.2 L12,6.4 C11.8,6.5 11.6,6.6 11.4,6.7 C11,6.8 10.6,6.9 10.3,7.1 C9.6,7.3 8.9,7.6 8.3,8 C8.1,8.1 7.9,8 7.9,7.8 L7.9,7.8 C8,6.8 8.8,6 9.7,5.6 C10.2,5.3 10.7,5.2 11.3,5.1 C11.8,5 12.4,4.9 12.9,5 C13.4,5.1 14.1,5.5 13.8,6.1 C13.6,6.6 13,6.8 12.5,6.9 C12.3,6.9 12.1,7 11.8,7 C11.9,7 12,6.9 12.1,6.9 C12.5,6.7 13.2,6.1 12.6,5.7 C12.1,5.3 11.2,5.6 10.7,5.8 C10.5,5.8 10.6,5.9 10.7,5.8 L10.7,5.8 Z M20.6,6 C19.4,6.4 18.3,7.3 17.5,8.2 L17.3,8.4 C16.9,8.9 16.1,8.4 16.3,7.8 C16.4,7.5 16.6,7.2 16.6,6.9 C16.9,6 16.9,5 16.1,4.4 C16,4.3 15.8,4.3 15.8,4.4 C15.6,5 15.2,5.6 14.6,6 L14.6,6 C14.4,6.1 14.2,6 14.2,5.8 C14.4,4.7 13.5,3.7 12.5,3.4 C11.4,3 10.1,3.3 9,3.8 C8.8,3.1 8.6,2.2 9.2,1.7 C9.8,1.2 10.7,1.7 11.3,2 C12.2,2.6 13.1,3.1 14.2,3.4 C15.2,3.7 16.3,3.7 17.4,3.5 C18.5,3.3 19.7,2.6 20.7,3.4 C21.5,4 21.4,5.4 20.6,6 L20.6,6 Z M10.4,18.3 C10.3,17.6 10.7,16.9 11.3,16.4 C11.8,15.9 12.4,15.6 13,15.1 C13.4,14.7 13.8,14.3 14.1,13.9 C14.8,13 15.4,12 15.9,11 C16.5,9.9 17.2,8.9 18.1,8 C19.4,6.8 21.5,5.4 23.3,6.4 C23.6,6.6 24.1,7 23.9,7.5 C23.6,8.2 22.5,8 21.9,8.1 C21.4,8.2 20.9,8.4 20.4,8.6 C19.6,9 19,9.5 18.4,10.2 C18.1,10.5 18.3,10.7 18.6,10.4 C18.7,10.2 18.9,10.1 19,10 C19.5,9.6 20.2,10 20,10.6 C20,10.7 19.9,10.9 19.9,11 C19.6,13.4 20.9,16.3 19.3,18.4 C18.4,19.6 16.9,19.6 15.5,19.6 C14.2,19.6 12.9,19.5 11.8,20.2 C11.1,19.8 10.5,19.1 10.4,18.3 L10.4,18.3 Z M0.9,17 C1,16.4 1.1,15.7 1.1,15.1 C1.2,14.5 1.3,13.9 1.7,13.5 C1.9,13.2 2.3,13.1 2.7,13.1 C3.1,13.1 3.5,13.4 3.8,13.6 C4.2,13.8 4.5,14 4.9,14.3 C5.4,14.7 5.8,15.3 6.2,15.8 C6.8,16.5 7.5,17.4 8.8,16.6 C9.2,16.9 9.8,17.1 10.3,17.1 C10.3,17.2 10.2,17.3 10.2,17.4 C9.9,18.2 10.1,18.8 10.4,19.4 L10.4,19.4 C10.1,20 9.6,20.4 8.9,20.5 C8.3,20.6 7.7,20.3 7.2,20 C6.2,19.5 5.3,19 4.2,18.9 C3.7,18.8 3.2,18.8 2.6,18.9 C2.2,18.9 1.6,19.2 1.1,19 C0.5,18.7 0.9,17.5 0.9,17 L0.9,17 Z"></path>
                                <path d="M11.9,3.6 C12.6,3.7 13.2,4 13.6,4.5 C13.7,4.6 13.8,4.8 13.8,5 C13.3,4.4 12.2,4.5 11.5,4.6 C10.5,4.8 9.4,5.1 8.6,5.8 L8.3,6.1 C7.8,5.6 7.1,5.5 6.4,5.7 C5.4,6 4.6,6.9 3.5,7 C3.3,7 3.2,7.2 3.5,7.1 C4.3,7 5.1,6.7 5.8,6.3 C6.3,6 7,5.8 7.6,6 C7.9,6.1 8,6.5 7.9,6.7 C7.7,7.1 7.5,7.6 7.6,8.1 C7.7,10 9.8,10.6 11.3,11 C11.9,11.2 12.6,11.5 13.1,11.9 C13.5,12.2 13.1,12.8 12.6,12.6 C12.3,12.5 12,12.3 11.6,12.3 C10.6,12.1 9.6,12.4 8.6,12 C7.6,11.6 6.9,10.8 6.3,10 C6,9.6 5.7,9.1 5.4,8.6 C5.2,8.1 5.1,7.1 5.7,6.9 C5.9,6.8 5.9,6.7 5.7,6.8 C5.3,7 5,7.3 5,7.8 C4.9,8.3 5.2,8.8 5.4,9.2 C5.6,9.6 5.8,9.9 6.1,10.3 C6.3,10.6 6.5,10.9 6.8,11.2 C7.1,11.5 7.3,11.8 7.4,12.2 L7.4,12.2 C7.5,12.4 7.2,12.6 7,12.4 L7,12.4 C6.5,11.9 5.8,11.9 5.2,11.6 C4.5,11.3 3.9,10.8 3.4,10.3 C2.9,9.7 2.3,8.7 2.9,8 C3,7.8 3,7.7 2.8,7.9 C1.7,9.1 3,10.7 4,11.4 C4.6,11.8 5.3,12.1 6,12.3 C6.5,12.4 6.8,12.6 7.1,13.1 C7.4,13.8 7.3,14.5 7.6,15.2 C7.7,15.3 7.7,15.4 7.8,15.6 C8,16 7.6,16.4 7.2,16.2 C6.5,15.8 6,15 5.5,14.5 C4.8,13.7 3.9,13.2 3,12.6 C2,12 1,11.4 0.5,10.3 C0.3,9.8 0.2,9.3 0.3,8.8 C0.4,8.3 0.8,7.8 1.1,7.4 C1.7,6.8 2.3,6.1 2.4,5.2 C3.3,5.3 4,4.9 4.8,4.6 C5.6,4.3 6.8,3.9 7.5,4.7 L7.5,4.7 C7.6,4.8 7.6,4.8 7.8,4.6 C9.1,3.9 10.6,3.4 11.9,3.6 L11.9,3.6 Z"></path>
                                <path d="M7.9,12.2 C8.2,12.4 8.6,12.6 9,12.7 C9.6,12.8 10.2,12.8 10.7,12.8 C11.8,12.8 12.8,13.2 13.7,14 C13.5,14.2 13.3,14.5 13.1,14.7 C12.6,15.2 11.9,15.6 11.4,16.1 C10.3,17 8.6,16.6 8.1,15.2 C8,14.9 8,14.7 7.9,14.4 C7.9,13.6 8,12.8 7.9,12.2 L7.9,12.2 Z"></path>
                                <path d="M14.1,13.3 C14.7,12.4 15.3,11.4 15.8,10.4 C15.3,9.6 15.6,8.6 15.9,7.8 C16.2,6.9 16.8,5.6 16,4.8 C15.6,5.7 14.9,6.4 14,6.8 C13.5,7 13,7.1 12.5,7.2 C12.5,7.2 12.5,7.2 12.4,7.2 L12.4,7.2 C11.7,7.3 11,7.4 10.4,7.5 C9.9,7.6 9.3,7.9 8.9,8.2 C8.7,8.4 8.4,8.6 8.4,8.9 C8.3,9.3 8.6,9.6 8.9,9.8 C9.8,10.5 11,10.6 12,11 C13,11.4 14,12.2 14.1,13.3 L14.1,13.3 Z M9.9,8.3 C9.7,8.1 9.8,8.1 9.9,8.3 C10.9,9.1 12.2,10.2 13.4,9.2 C14.3,8.4 14.5,7.1 15.5,6.4 C15.7,6.3 15.7,6.3 15.5,6.4 C14.4,7.2 14.4,9.2 13.1,9.8 C11.9,10.4 10.8,9.1 9.9,8.3 L9.9,8.3 Z"></path>
                                <path d="M9.9,8.3 C9.7,8.1 9.8,8.1 9.9,8.3 C10.9,9.1 12.2,10.2 13.4,9.2 C14.3,8.4 14.5,7.1 15.5,6.4 C15.7,6.3 15.7,6.3 15.5,6.4 C14.4,7.2 14.4,9.2 13.1,9.8 C11.9,10.4 10.8,9.1 9.9,8.3 L9.9,8.3 Z"></path>
                                <path d="M17.4,8.2 L17.2,8.4 C16.8,8.9 16,8.4 16.2,7.8 C16.3,7.5 16.5,7.2 16.5,6.9 C16.8,6 16.8,5 16,4.4 C15.9,4.3 15.7,4.3 15.7,4.4 C15.5,5 15.1,5.6 14.5,6 L14.5,6 C14.3,6.1 14.1,6 14.1,5.8 C14.3,4.7 13.4,3.7 12.4,3.4 C11.3,3 10,3.3 8.9,3.8 C8.7,3.1 8.5,2.2 9.1,1.7 C9.7,1.2 10.6,1.7 11.2,2 C12.1,2.6 13,3.1 14.1,3.4 C15.1,3.7 16.2,3.7 17.3,3.5 C18.4,3.3 19.6,2.6 20.6,3.4 C21.5,4.1 21.4,5.4 20.5,6.1 C19.3,6.4 18.2,7.3 17.4,8.2 L17.4,8.2 Z"></path>
                                <path d="M10.4,18.3 C10.5,19.1 11.1,19.7 11.7,20.2 C12.8,19.5 14.2,19.5 15.4,19.6 C16.8,19.6 18.3,19.6 19.2,18.4 C20.8,16.3 19.5,13.4 19.8,11 C19.8,10.9 19.8,10.7 19.9,10.6 C20,10 19.3,9.6 18.9,10 C18.7,10.1 18.6,10.3 18.5,10.4 C18.3,10.7 18,10.5 18.3,10.2 C18.9,9.6 19.5,9 20.3,8.6 C20.8,8.4 21.3,8.2 21.8,8.1 C22.4,8 23.5,8.2 23.8,7.5 C24,7.1 23.5,6.6 23.2,6.4 C21.4,5.4 19.3,6.7 18,8 C17.1,8.9 16.4,9.9 15.8,11 C15.2,12 14.7,13 14,13.9 C13.7,14.3 13.3,14.7 12.9,15.1 C12.4,15.6 11.7,15.9 11.2,16.4 C10.7,16.9 10.3,17.6 10.4,18.3 L10.4,18.3 Z M11.1,18.1 C11.2,17.2 12.1,16.7 13,16.7 C13.8,16.7 14.7,16.9 15.5,16.8 C16.4,16.7 17.2,16.2 17.5,15.4 C17.7,14.8 17.6,14.3 17.5,13.7 C17.3,12.8 17,11.9 17.7,11.1 C17.8,10.9 18,11 17.8,11.2 C17.4,11.7 17.5,12.3 17.6,12.9 C17.8,13.7 18.1,14.5 18,15.3 C17.9,17.5 15.7,17.3 14.2,17.1 C13.3,17 11.5,16.9 11.4,18.2 C11.2,18.4 11,18.3 11.1,18.1 L11.1,18.1 Z"></path>
                                <path d="M1.2,15.1 C1.3,14.5 1.4,13.9 1.8,13.5 C2,13.2 2.4,13.1 2.8,13.1 C3.2,13.1 3.6,13.4 3.9,13.6 C4.3,13.8 4.6,14 5,14.3 C5.5,14.7 5.9,15.3 6.3,15.8 C6.9,16.5 7.6,17.4 8.9,16.6 C9.3,16.9 9.9,17.1 10.4,17.1 C10.4,17.2 10.3,17.3 10.3,17.4 C10,18.2 10.2,18.8 10.5,19.4 L10.5,19.4 C10.2,20 9.7,20.4 9,20.5 C8.4,20.6 7.8,20.3 7.3,20 C6.3,19.5 5.4,19 4.3,18.9 C3.8,18.8 3.3,18.8 2.7,18.9 C2.3,18.9 1.7,19.2 1.2,19 C0.5,18.8 0.9,17.6 1,17.1 C1,16.4 1.1,15.7 1.2,15.1 L1.2,15.1 Z"></path>
                                <path d="M12.9,16.7 C13.7,16.7 14.6,16.9 15.4,16.8 C16.3,16.7 17.1,16.2 17.4,15.4 C17.6,14.8 17.5,14.3 17.4,13.7 C17.2,12.8 16.9,11.9 17.6,11.1 C17.7,10.9 17.9,11 17.7,11.2 C17.3,11.7 17.4,12.3 17.5,12.9 C17.7,13.7 18,14.5 17.9,15.3 C17.8,17.5 15.6,17.3 14.1,17.1 C13.2,17 11.4,16.9 11.3,18.2 C11.3,18.4 11.1,18.4 11.1,18.2 C11.2,17.2 12.1,16.7 12.9,16.7 L12.9,16.7 Z"></path>
                            </g>
                        </g>
                        <g transform="translate(0.000000, 22.000000)" id="Shape">
                            <path d="M10.5,0.5 C8.7,1.3 7.6,3.2 8,5.1 C7.3,5.1 6.2,5 6.1,4.1 C6.1,3.7 5.7,4.1 5.6,4.3 C5.4,4.6 5.2,5 5,5.4 C4.9,5.6 4.4,7 4.5,8.2 C3.8,8.2 3.3,8.6 2.8,9 C2.5,9.2 2.2,9.5 1.8,9.7 C1.4,9.8 1.1,9.7 0.8,9.6 C0.7,9.6 0.6,9.5 0.6,9.5 C0.5,9.5 0.5,9.6 0.5,9.7 C0.3,11.7 1.3,13.8 3,14.8 C2.3,16 1.8,17.4 0.7,18.2 C0.5,18.3 0.6,18.7 0.9,18.6 C2.8,17.8 4.6,19.4 6.4,19.9 C6.5,19.9 6.7,20 6.8,20 C7,21.4 8.1,22.5 9.4,22.8 C11,23.2 13.1,22.4 14.2,23.8 C14.2,23.8 14.7,24.5 14.7,23.7 C14.7,21.7 16.9,20.5 17.8,18.8 C18,18.4 18.2,17.9 18.2,17.4 C20.5,15.9 19.4,12.6 20.3,10.4 C20.5,10.4 20.6,10.2 20.4,10.1 C20.4,10 20.3,10 20.2,10 C19,9.4 18.8,7.9 18.2,6.8 C17.7,5.8 16.7,4.9 15.6,5.1 C15.4,4.9 15.2,4.6 15,4.4 C14.2,3.7 13.3,3.5 12.3,3.2 C11.4,2.9 10.1,2.1 10.7,0.9 C10.9,0.6 10.9,0.3 10.5,0.5 L10.5,0.5 Z"></path>
                            <g transform="translate(0.000000, 1.000000)">
                                <g>
                                    <path d="M5.9,3.6 C6.4,4.8 8.2,4.3 9.2,4.6 C10.2,4.9 11.1,5.8 11.4,6.8 C11.5,7.3 11.6,7.9 11.5,8.4 C12.3,8.8 12.9,8.7 13.5,8.4 C13.6,9 13.7,9.7 13.8,10.3 C12.8,10.4 11.8,10.8 11,11.3 C10.3,11.3 9.6,11 9.2,10.5 C8.6,9.8 8.8,8.9 8.7,8.1 C8.6,7.5 8.4,6.8 7.7,6.6 C7.2,6.4 6.5,6.7 6.4,7.2 C6.3,7.4 6.5,7.5 6.5,7.3 C6.6,6.9 7.2,6.8 7.6,6.9 C7.7,6.9 7.8,7 7.9,7.1 C8.3,7.4 8.1,8.1 7.6,8.2 C6.7,8.5 6,9.1 5.5,9.9 C4.6,7.9 4.7,5.5 5.9,3.6 L5.9,3.6 Z"></path>
                                    <path d="M12.2,5.5 L12.2,5.5 C12.7,5.9 12.9,6.5 13.1,7 L13.1,7 C13.3,7.7 12.6,8.4 11.9,8.1 L11.9,8.1 C12,7.4 11.8,6.7 11.5,6 C11.2,5.6 11.7,5.2 12.2,5.5 L12.2,5.5 Z"></path>
                                    <path d="M7.2,12.6 C8,12.3 8.3,11.3 7.8,10.6 C7.6,10.3 7.2,10.1 6.8,10.1 C7.2,9.7 7.8,9.5 8.3,9.6 C8.3,9.8 8.4,9.9 8.4,10.1 C8.6,10.6 8.9,11 9.4,11.3 C9.8,11.6 9.8,12.1 9.5,12.4 L9.5,12.4 C9,12.9 8.6,13.4 8.3,14 C7.3,13.9 6.4,13.4 5.9,12.5 C6.2,12.8 6.7,12.8 7.2,12.6 L7.2,12.6 Z"></path>
                                    <path d="M5.9,11 C6,10.6 6.6,10.4 7,10.5 C7.4,10.6 7.6,11.1 7.5,11.5 C7.4,12.6 5.8,12.6 5.5,11.6 C5.3,10.8 5.7,9.9 6.2,9.4 C6.7,8.8 7.4,8.5 8.2,8.4 L8.2,9.2 C7.1,9.2 6.2,9.8 5.8,10.8 C5.7,11.1 5.9,11.2 5.9,11 L5.9,11 Z"></path>
                                    <path d="M0.9,8.9 C1.3,9.1 1.9,9.1 2.3,8.8 C3,8.4 3.6,7.5 4.5,7.5 L4.5,7.5 C4.5,8.1 4.6,8.7 4.8,9.3 C5,9.9 5.1,10.5 5.1,11.1 L5.1,11.5 C5.1,11.5 5.2,11.7 5.1,11.7 C4.2,12 3.6,12.6 3.2,13.3 C1.7,12.4 0.8,10.7 0.9,8.9 L0.9,8.9 Z"></path>
                                    <path d="M5.5,18 C4.2,17.4 2.9,16.7 1.5,17 C2.1,16.3 2.6,15.5 3,14.6 C3.5,13.6 4.2,12.5 5.3,12.1 C5.6,13 6.3,13.6 7.1,14 C7.6,14.2 7.6,14.9 7.1,15.2 C7,15.2 6.9,15.3 6.8,15.3 C6.3,15.5 5.5,15.3 5.3,14.7 C5.2,14.5 5.1,14.6 5.2,14.8 C5.4,15.6 6.3,15.9 7,15.6 C7.9,15.2 8.3,14.2 8.9,13.5 C9.5,12.6 10.5,11.9 11.5,11.4 C12.1,11.1 12.8,11.7 12.7,12.4 C12.5,13.2 12.5,14.1 12.6,14.9 C12.7,15.7 12.7,16.6 12.2,17.2 C11.8,17.7 10.5,18.1 10.4,17.3 C10.4,17 10,17 10,17.3 C9.9,18.1 9,18.5 8.3,18.6 C7.3,18.8 6.3,18.4 5.5,18 L5.5,18 Z"></path>
                                    <path d="M18,16 L18,16 L18,16.2 C17.9,17 17.5,17.8 17,18.5 C16,19.7 14.8,20.8 14.5,22.4 C13.4,21.5 11.9,21.6 10.5,21.5 C9.7,21.4 8.9,21.3 8.3,20.7 C8.2,20.6 8,20.5 7.9,20.3 C7.5,19.8 7.8,19 8.4,18.9 C9.2,18.8 9.9,18.4 10.2,17.7 C10.6,18.1 11.1,18.2 11.7,18.1 C12.4,17.9 12.8,17.2 13,16.5 C13.2,15.5 12.9,14.6 12.9,13.6 C12.9,13.3 12.9,13 13,12.7 C13.1,12.1 14.1,12 14.2,12.7 C14.6,14.1 15.1,15.4 16.2,16.4 C16.5,16.7 16.6,16.6 16.4,16.3 C16.1,15.6 16.6,14.8 17,14.2 C17.6,14.5 18,15.2 18,16 L18,16 Z"></path>
                                    <path d="M18.4,6.6 C18.8,7.5 19.2,8.5 20.1,9 C19.6,10.1 19.7,11.4 19.6,12.6 C19.5,13.7 19.3,15 18.4,15.7 C18.4,14.9 18,14.2 17.3,13.8 C17.8,13.2 18.2,12.7 18.3,11.9 C18.7,9.3 16.5,8 16.5,8 C16.9,6.7 16.7,5.3 16,4.1 C17.2,4.1 17.9,5.6 18.4,6.6 L18.4,6.6 Z"></path>
                                    <path d="M10.9,1.7 C11.7,2.4 12.8,2.5 13.7,2.9 C15.7,3.8 16.7,6.1 16,8.2 C15.9,8.4 16.1,8.4 16.3,8.5 C17.7,9.3 18.3,11.5 17.5,12.9 C17,13.8 15.9,14.7 16,15.8 C14.5,14 14.3,11.4 13.9,9.2 C13.8,8.5 13.7,7.9 13.5,7.2 C13.3,6.7 13.2,6.1 12.8,5.7 C12.4,5.2 11.8,5 11.3,5.1 C10.9,5.2 10.6,5.1 10.3,4.9 L10.3,4.9 C9.7,4.5 9.1,4.4 8.5,4.3 C8.1,2.6 8.9,0.9 10.5,0.2 C10.2,0.6 10.4,1.2 10.9,1.7 L10.9,1.7 Z"></path>
                                </g>
                                <path d="M9,17.1 C9.8,16.1 9.8,14.3 11,13.6 C11.2,13.5 11,13.4 10.8,13.5 C9.9,14 9.5,15 9.1,15.9 C8.9,16.4 8.6,17 8.1,17.3 C7.5,17.7 6.7,17.9 6.1,17.5 C5.9,17.4 5.7,17.5 5.9,17.6 C7.1,18.3 8.3,18.1 9,17.1 L9,17.1 Z"></path>
                            </g>
                        </g>
                    </g>
                </g>
            </g>
        </g>
    </g>
</svg>