<?xml version="1.0" encoding="UTF-8" standalone="no"?>
<svg width="96px" height="60px" viewBox="0 0 96 60" version="1.1" xmlns="http://www.w3.org/2000/svg" xmlns:xlink="http://www.w3.org/1999/xlink" xmlns:sketch="http://www.bohemiancoding.com/sketch/ns">
    <!-- Generator: Sketch 3.3 (11970) - http://www.bohemiancoding.com/sketch -->
    <title>Paddle</title>
    <desc>Created with Sketch.</desc>
    <defs></defs>
    <g id="Page-1" stroke="none" stroke-width="1" fill="none" fill-rule="evenodd" sketch:type="MSPage">
        <g id="summer-offer-page-copy-4" sketch:type="MSArtboardGroup" transform="translate(-555.000000, -2403.000000)" fill="#000000">
            <g id="Group-Copy" sketch:type="MSLayerGroup" transform="translate(63.125000, 2232.000000)">
                <g id="Paddle" transform="translate(491.000000, 171.000000)" sketch:type="MSShapeGroup">
                    <path d="M59.9,36.8 C59.4,36.6 59,36.7 58.6,36.3 C58.5,36.1 58.3,36 58.1,35.9 C57.7,35.7 57.2,35.7 57,35.4 C56.9,35.3 56.8,35.1 56.7,35.1 C56.3,34.9 56,34.8 55.7,34.5 C55.5,34.4 55.2,34.2 55,34.1 C54.8,34 54.4,33.8 54.1,33.6 C54,33.4 53.7,33.3 53.6,33.1 C51.4,32.1 49.3,30.7 47.2,29.4 C47,29.3 46.7,29.3 46.5,29.1 C46.3,29 46,28.8 45.9,28.7 C45.7,28.6 45.3,28.4 45,28.2 C44.1,27.4 43.2,26.8 42.1,26.2 C41.8,26.2 41.4,26.1 41.2,25.8 C40.3,25 39.1,24.6 38.2,24.1 C37.9,23.9 37.6,23.7 37.1,23.6 C36.9,23.6 36.5,23.4 36.4,23.3 C35.9,23 35.5,22.5 35,22.2 C34.7,22.2 34.3,22.1 34.2,21.8 C34.1,21.6 33.8,21.5 33.7,21.4 C32.6,20.9 31.7,20.3 30.6,19.8 C30,19.5 29.4,19.2 29,18.8 C28.7,18.5 28.9,18 28.7,17.7 C28.6,17.5 28.4,17.4 28.2,17.3 C28.1,17.3 28,17.3 27.9,17.4 C27.9,17.4 27.8,17.4 27.8,17.5 C27.7,17.6 27.8,17.7 27.7,17.8 C27.6,17.8 27.6,17.8 27.5,17.9 C27.4,17.8 27.3,17.9 27.2,17.8 L26.7,17.8 C26.6,17.8 26.5,17.9 26.4,18 C26.3,18.2 26.3,18.4 26.4,18.7 L26.4,18.7 C26.6,18.8 27,19 27.3,19.2 C27.7,19.4 27.9,19.5 28.3,19.8 C29.4,20.4 30.4,21.1 31.5,21.7 C32.6,22.2 33.6,22.9 34.6,23.4 C35.5,23.9 36.3,24.4 37.2,24.9 C38.2,25.5 39.2,26 40.2,26.5 C40.6,26.7 40.9,26.9 41.3,27.1 C41.9,27.4 42.5,27.7 43,28.1 L43.1,28.2 C43.2,28.2 43.2,28.3 43.2,28.4 C43.8,28.7 44.5,29.2 45.2,29.6 C45.3,29.7 45.5,29.7 45.7,29.8 C45.9,29.9 46.2,30.1 46.5,30.3 C46.5,30.4 46.6,30.4 46.6,30.5 C46.6,30.5 46.7,30.5 46.7,30.6 L46.6,30.6 C46.6,30.6 46.6,30.7 46.7,30.7 C46.8,30.8 46.9,30.8 47.2,30.9 C47.7,31.1 48,31.3 48.4,31.6 L48.5,31.6 C48.9,31.5 49,32 49.3,32.1 C50.4,32.6 51.5,33.3 52.4,33.8 C53.2,34.3 54,34.7 54.8,35.2 C55.1,35.4 55.4,35.5 55.7,35.8 C56.2,36.1 56.7,36.2 57.2,36.5 C58.4,37.1 59.5,37.6 60.6,38.3 C60.8,38.2 61,38.1 61.1,37.9 C60.6,37.1 60.3,36.8 59.9,36.8 L59.9,36.8 L59.9,36.8 Z" id="Shape"></path>
                    <path d="M82.5,43.1 L82.3,43.1 C81.4,42.5 80.6,42.4 79.5,42.4 C78.6,42.3 77.7,42.7 76.7,42.8 C75,43.2 74.4,43 72.9,42.1 C71.9,41.4 70.9,40.9 69.8,40.3 C69.2,40 68.5,39.5 67.8,39.2 C67.5,39.1 67.2,38.9 66.9,38.7 C66.5,38.5 66.2,38.3 65.8,38 C65.1,37.6 64.3,37.1 63.5,36.7 C63.4,36.5 63.3,36.2 63.1,36.2 C63,36.1 62.8,36.1 62.6,36.1 C62.1,36.3 61.7,36 61.3,36.5 C61.3,37 61.9,37.1 62.2,37.4 C64.2,38.5 66,39.7 68,40.8 C68.4,41 68.8,41.2 69.1,41.6 C69.3,41.9 69.4,42.1 69.8,42.1 C70.1,42.1 70.2,41.8 70.5,41.6 C70.4,41.9 70.6,42.1 70.9,42.2 C71.1,42.3 71.3,42.4 71.5,42.5 C72,42.7 72.4,42.9 72.8,43.2 C75.3,44.7 77.7,46.1 80.2,47.6 C80.6,47.8 80.9,48 81.3,47.9 C81.4,47.9 81.5,47.8 81.5,47.6 C81.4,47 80.8,46.9 80.5,46.5 C79,45.7 77.8,44.5 76.2,43.9 L76.1,43.9 C76.2,44.1 76,43.7 76.2,43.8 C77.3,44 78.2,43.3 79.3,43.2 C80.5,43.1 81.5,43.6 82.6,43.6 C82.8,43.5 82.9,43.5 83,43.4 C82.7,43.4 82.6,43.2 82.5,43.1 L82.5,43.1 L82.5,43.1 Z" id="Shape_1_"></path>
                    <path d="M25.2,18.2 C24.6,18.3 24.2,17.6 23.7,17.6 C23.1,17.4 22.6,17.3 22.1,17.2 C20.7,17.4 19.5,18.1 18.1,18.1 C17.3,18.1 15.7,17.7 15,17.4 C13.2,16.6 11.6,15.2 9.8,14.4 C8.7,13.3 7.1,12.8 5.7,11.9 C4.8,11.3 3.7,10.8 2.8,10.1 C2.6,10 2.3,9.7 2,9.6 C1.7,9.3 1.6,8.8 1.2,8.6 C1.3,8.3 1,8 0.9,7.8 C0.9,7.7 0.9,7.6 1,7.5 C1.1,7.3 1.4,7.2 1.7,7.3 C2.7,9 4.2,10 6,10.9 C7.6,11.9 9.3,13 11,13.8 C11.5,14.2 12.1,14.5 12.7,14.8 C13.1,15.1 13.5,15.4 14,15.5 C14.5,15.8 14.8,16.2 15.4,16.5 C15.8,16.7 16.1,16.9 16.5,17 C16.9,17.1 17.4,17.2 17.8,17.2 L18.6,17.2 C19,17.2 19.3,17.1 19.7,17 C20,16.9 20.3,16.8 20.7,16.7 C20.9,16.6 21.1,16.6 21.3,16.5 C21.4,16.5 21.5,16.4 21.6,16.5 C21.5,16.3 21.4,16.4 21.2,16.3 C21,16.2 20.7,16 20.6,15.6 C20.7,15.5 20.7,15.4 20.8,15.3 C22.4,15.3 23.5,16.3 24.9,17 C25.1,17.3 25.9,17.6 25.2,18.2 L25.2,18.2 L25.2,18.2 Z" id="Shape_2_"></path>
                    <path d="M76.7,46.7 C75.3,45.6 73.9,44.6 72.4,43.7 C71.7,43.5 71.5,42.9 71.2,42.4 C71.3,42.1 70.9,42.2 70.8,42 C70.7,42 70.6,42.1 70.6,42.1 L70.6,42.3 L70.5,42.3 C70.4,42.3 70.4,42.2 70.3,42.3 C70.2,42.2 70,42.1 69.8,42 L69.4,41.9 L69.5,41.5 C69.1,41.3 68.9,41.6 68.6,41.6 C68.4,41.7 68.3,41.5 68.1,41.3 C67.7,41 67.2,40.8 66.9,40.5 C66.7,40.4 66.3,40.2 66,40 C64.7,39.4 63.8,38.3 62.4,37.8 C62.2,37.7 61.9,37.6 61.7,37.6 C61.3,37.6 60.9,37.7 60.7,38.2 C61.2,38.6 61.8,38.9 62.3,39.3 C62.8,39.6 63.2,39.9 63.7,40.2 C64.5,40.6 65.3,41.2 66.1,41.6 C67.2,42.1 68.1,42.9 69.2,43.2 C69.3,43.7 70,43.4 70.3,43.9 C70.5,44.3 71,44.3 71.4,44.5 C72,44.8 72.4,45.2 73,45.7 C73.4,46.1 73.4,46.6 73.6,47.1 C73.8,47.5 73.7,48 74,48.4 C74.1,48.8 74,49.3 74.5,49.5 C74.8,49.8 75,49.8 75.3,49.6 C75.4,49.5 75.4,49.4 75.4,49.3 C75.4,48.6 75.1,47.9 75,47.4 C74.9,47.2 74.8,47 75.1,46.9 C75.4,46.8 75.5,47 75.8,47 C76,47.1 76.3,47.4 76.6,47.3 C76.4,47.1 76.9,47.1 76.7,46.7 L76.7,46.7 L76.7,46.7 Z" id="Shape_3_"></path>
                    <path d="M74.2,49.5 C74.5,49.7 74.7,49.4 75,49.4 C75.4,49.3 75.5,49.7 75.8,49.9 C76,50.2 76.1,50.4 76.4,50.6 C76.5,50.8 76.7,51 76.9,51.2 C77,51.4 77.4,51.5 77.6,51.5 C78,51.7 78.4,51.9 78.8,52.1 C79.3,52.5 79.8,52.8 80.5,52.9 C80.9,53.3 81.5,53.6 82,53.8 C82.6,54.2 83.3,54.7 84,54.9 C85.3,55.6 86.6,56.4 87.9,56.9 C89.4,57.8 90.9,58.4 92.7,58 C93,58 93.2,58.2 93.2,58.5 C93.1,59.2 92.4,59.3 91.9,59.4 C91.3,59.5 90.5,59.6 89.9,59.3 C88.8,58.8 87.6,58.3 86.6,57.6 C85.4,56.8 84,56.1 82.8,55.4 C81.6,54.7 80.3,54.1 79,53.3 C78.4,52.9 77.7,52.6 77.1,52.3 C75.7,51.8 74.8,50.9 74.2,49.5 L74.2,49.5 L74.2,49.5 Z" id="Shape_4_"></path>
                    <path d="M18.6,6.5 C18.2,6.5 18.1,6 17.7,6 C17,5.9 16.6,5.5 16,5.2 C15,4.6 14.2,3.9 13.1,3.6 C12.8,3 12.2,3.1 11.7,2.9 C10.8,2.4 10.1,1.9 9.2,1.6 C8.6,1.4 8.1,1.3 7.8,0.9 C7.1,0.4 6.5,0.5 5.7,0.5 C5,0.5 4.6,0.8 4.1,1.3 C4,1.4 3.9,1.7 3.8,1.8 C3.7,1.9 3.6,1.9 3.6,2.1 C3.5,2.2 3.5,2.3 3.4,2.5 C3.3,2.6 3.3,2.7 3.2,2.8 C3,3.2 2.9,3.5 2.6,3.8 C2.5,4 2.3,4.2 2,4.4 C1.9,4.7 1.8,5.1 1.6,5.3 C1.2,5.9 1.2,6.5 1,7.1 C0.9,7.2 1.1,7.3 1.2,7.4 C1.4,7.3 1.6,7.3 1.8,7.2 C2.3,6.9 2.6,6.3 2.7,5.7 C3.1,4.6 3.8,3.6 4.5,2.6 C5.3,1.5 6.1,1.4 7.3,1.9 C8.9,2.6 10.6,3.4 12,4.3 C12.4,4.5 12.8,4.7 13.2,4.9 C13.3,5 13.5,5 13.7,5.1 C14,5.2 14.3,5.4 14.5,5.5 C15.9,5.9 17,7.1 18.5,7.3 C18.9,7.2 18.8,6.9 18.6,6.5 L18.6,6.5 L18.6,6.5 Z" id="Shape_5_"></path>
                    <path d="M93,58.7 C92.9,58.5 92.7,58.5 92.6,58.3 C92.5,57.7 92.9,57.4 93.2,57 C93.9,56.1 94.4,55 94.8,54 C95.3,52.8 95.2,52.1 94.2,51.4 C92.6,50.1 91,49 89.1,48.2 C88.7,48 88.4,47.7 88.2,47.4 C87.9,47.2 87.6,47 87.2,46.7 C86.9,46.6 86.6,46.4 86.3,46.2 C85.6,45.6 84.7,45.3 84.2,44.5 C84.1,44.2 84.4,44 84.6,44 C85.3,44.1 85.5,44.7 86.1,44.9 C87.2,45.4 88.2,46 89.2,46.6 C89.9,47 90.6,47.6 91.3,48 C92.5,48.8 93.7,49.5 94.8,50.3 C95.7,50.9 96.3,51.7 95.9,52.9 C95.8,53.1 96,53.4 96,53.6 C96,53.9 95.7,53.9 95.6,54.2 C95.5,55.2 94.9,56 94.4,56.9 C94,57.6 93.7,58.3 93,58.7 L93,58.7 L93,58.7 Z" id="Shape_6_"></path>
                    <path d="M18.6,7.4 C18.8,7.1 18.5,6.9 18.5,6.6 C18.6,6.7 18.8,6.6 19,6.8 C19.1,7.1 19.3,7 19.5,7.1 C19.9,7.4 20.4,7.7 20.8,8.1 C21.8,8.8 22.6,9.8 22.9,11 C22.8,11.2 22.5,11.5 22.2,11.4 C21.5,10.6 21,9.5 20,8.8 C19.8,8.7 19.6,8.4 19.3,8.3 C19.1,8 18.6,7.9 18.6,7.4 L18.6,7.4 L18.6,7.4 Z" id="Shape_7_"></path>
                    <path d="M25.4,18.2 C25.3,18.2 25.2,18.3 25.2,18.3 C25.1,18.4 25.3,18.5 25.3,18.6 C25.5,18.6 25.7,18.7 26,18.8 C26.1,18.8 26.1,18.9 26.2,18.8 C26.3,18.8 26.3,18.8 26.4,18.7 C26.4,18.5 26.1,18.2 26.3,17.9 C26.4,17.9 26.5,17.8 26.5,17.5 C26.5,17.4 26.4,17.2 26.3,17.1 C25.9,16.8 25.5,16.7 25,16.9 C24.9,17.6 25.3,17.7 25.4,18.2 L25.4,18.2 L25.4,18.2 Z" id="Shape_8_"></path>
                    <path d="M84.6,44.1 C84.4,44.2 84.4,44.4 84.2,44.5 C83.6,44.8 83.1,44.4 82.7,44 C82.7,43.7 82.6,43.4 83.1,43.6 C83.7,43.5 84.1,44.1 84.6,44.1 L84.6,44.1 L84.6,44.1 Z" id="Shape_9_"></path>
                    <path d="M60.7,38.3 C60.9,37.9 61.1,37.9 61.5,38 C61.6,37.2 61.2,37.2 60.6,37.5 C60.4,37.9 60.2,37.9 59.9,37.8 C60.1,37.9 60.4,38.1 60.7,38.3 L60.7,38.3 L60.7,38.3 Z" id="Shape_10_"></path>
                    <path d="M83.2,43.5 C82.9,43.4 83,43.8 82.8,43.9 C82.5,44 82.3,43.9 82.4,43.5 C82.5,43.6 82.6,43.5 82.7,43.4 C82.7,43.3 82.5,43.1 82.6,43 C82.7,43.3 83.1,43 83.2,43.5 L83.2,43.5 L83.2,43.5 Z" id="Shape_11_"></path>
                    <path d="M61.9,35.3 C60.5,34.6 58.9,33.9 57.5,33.1 C56.9,32.8 56.4,32.5 55.8,32.1 C55.1,31.9 54.4,31.6 53.8,31.1 C53.4,30.9 53.1,30.6 52.8,30.4 C52.8,30.4 52.8,30.4 52.7,30.4 C52.2,30.2 51.8,30 51.3,29.8 C50.5,29.5 49.7,29.1 49,28.6 C48.7,28.6 48.4,28.4 48.2,28.1 C47.5,28.1 47,27.4 46.4,27.4 C46.1,27.5 45.9,27.6 46.1,28 C46.3,28.5 46.8,28.5 47.2,28.8 C49.2,30.1 51.4,31 53.4,32.5 C54.3,32.8 55.1,33.3 55.9,33.9 C56.5,34.2 57,34.5 57.5,34.9 C57.9,35.2 58.3,35.5 58.7,35.7 C59.5,36.1 60.2,36.8 61.4,36.6 C61.8,36.7 62.3,37.1 62.7,36.4 C62.6,35.7 62.2,35.5 61.9,35.3 L61.9,35.3 L61.9,35.3 Z" id="Shape_12_"></path>
                    <path d="M46,26.7 C45.8,26.7 45.5,26.4 45.3,26.3 C44.5,25.8 43.7,25.4 42.9,24.9 C42.4,24.5 41.8,24.4 41.3,24 C40.8,23.6 40.2,23.4 39.7,23.1 C38.8,22.6 37.9,22.1 36.9,21.6 C36.5,21.4 36.2,21.3 35.9,21 C34.3,20.2 32.8,19.5 31.3,18.7 C30.9,18.5 30.5,18.2 30.2,18 C28.6,17.1 27.1,16.3 25.3,15.3 C25.3,14.8 24.6,14.9 24.2,14.5 C24,14.6 23.8,14.6 23.8,14.8 C23.8,15.2 24,15.5 24.2,15.7 C24.8,16.1 25.5,16.5 26.1,17.1 C26.2,17.2 26.2,17.3 26.4,17.3 C26.5,17.4 26.6,17.3 26.7,17.4 C26.8,17.5 26.9,17.4 27,17.5 C27.1,17.6 27.2,17.5 27.3,17.6 L27.6,17.6 L28.4,17.8 C28.8,18.6 29.7,18.8 30.4,19.3 C31.5,19.9 32.7,20.4 33.7,21.2 C35.4,22.1 37.1,23 38.6,23.9 C39.5,24.4 40.4,24.8 41.2,25.5 C42.1,26 42.9,26.6 43.9,27 C44.6,27.3 45.3,28 46.2,27.8 C46.4,27.7 46.4,27.5 46.6,27.4 C46.4,27 46.3,26.7 46,26.7 L46,26.7 L46,26.7 Z" id="Shape_13_"></path>
                    <path d="M24.3,14.4 C24.3,14.6 24.2,14.6 24,14.6 C23.4,14.7 23.2,14.2 22.8,13.9 C22.6,13 21.8,12.3 22.2,11.4 C22.3,11.2 22.5,11 22.8,11 C23.1,12.2 23.7,13.3 24.3,14.4 L24.3,14.4 L24.3,14.4 Z" id="Shape_14_"></path>
                    <path d="M58.6,36.4 C59,35.9 59.3,36.4 59.6,36.4 C59.6,36.4 59.6,36.5 59.7,36.5 C59.8,36.7 59.7,36.8 59.6,36.9 C59.3,36.9 59,36.6 58.8,36.9 C58.7,36.8 58.5,36.6 58.6,36.4 L58.6,36.4 L58.6,36.4 Z" id="Shape_23_"></path>
                    <path d="M57.6,35.3 C57.7,35.6 58.3,35.5 58.2,36 C57.9,36 57.6,35.7 57.4,36 C57.3,35.8 57.1,35.7 57.1,35.5 C57.1,35.4 57.3,35.3 57.6,35.3 L57.6,35.3 L57.6,35.3 Z" id="Shape_25_"></path>
                    <path d="M54,33.7 C54.2,33.7 54.5,33.9 54.6,33.6 C54.7,33.8 54.9,33.9 54.9,34.2 C54.7,34.2 54.5,34.1 54.2,34.1 C54.1,34 54,34 54,33.7 L54,33.7 L54,33.7 Z" id="Shape_28_"></path>
                    <path d="M81.1,47.6 C81.2,47.6 81.2,47.7 81.3,47.6 C82.3,47.4 82.8,48.1 83.4,48.8 C83.4,48.9 83.4,49.1 83.3,49.1 C83.1,49.2 82.9,49.1 82.7,48.9 C82.1,48.6 81.5,48.1 80.9,47.7 C81.1,47.8 81.1,47.7 81.1,47.6 L81.1,47.6 L81.1,47.6 Z" id="Shape_43_"></path>
                    <path d="M77.2,47.1 C76.8,47.3 76.5,47.2 76.2,47.1 C76.2,46.9 76.4,47 76.6,46.9 C76.7,46.9 76.8,46.8 76.9,46.7 C76.9,46.9 77.2,46.8 77.2,47.1 L77.2,47.1 L77.2,47.1 Z" id="Shape_63_"></path>
                    <path id="Shape_74_" d="M76.6,51.4 C76.8,51.4 76.9,51.5 77.2,51.3 C77.4,51.2 77.5,51.3 77.6,51.3 C77.4,51.4 77.4,51.6 77.2,51.7 C77.1,51.6 76.6,51.8 76.6,51.4 L76.6,51.4 L76.6,51.4 Z"></path>
                    <path id="Shape_83_" d="M26.6,17.7 C26.5,17.7 26.5,17.6 26.4,17.7 C26.4,17.6 26.5,17.6 26.4,17.5 C26.5,17.5 26.6,17.4 26.6,17.5 C26.5,17.6 26.6,17.7 26.6,17.7 L26.6,17.7 L26.6,17.7 Z"></path>
                    <path d="M17.5,11.5 C18.4,11.8 19.1,12.4 20,12.8 C20.1,12.9 20.1,13 20.3,13 C21.2,13.1 22,13.8 22.9,13.9 C23.4,14 23.6,14.4 23.9,14.6 C24,14.9 24.1,15.2 24.2,15.4 C21.7,14.2 19.4,12.8 17,11.5 C16.5,11.5 16.2,11 15.8,11 C15.7,10.8 15.7,10.6 15.9,10.6 C16.6,10.9 17.1,11.1 17.5,11.5 L17.5,11.5 L17.5,11.5 Z" id="Shape_84_"></path>
                    <path id="Shape_85_" d="M27.1,17.7 C27,17.7 27,17.6 26.9,17.7 C26.9,17.6 26.8,17.5 26.8,17.4 C26.9,17.3 26.9,17.3 27,17.3 C27.1,17.3 27.1,17.4 27.2,17.3 C27.3,17.3 27.2,17.5 27.1,17.7 L27.1,17.7 L27.1,17.7 Z"></path>
                    <path id="Shape_87_" d="M26.6,17.5 C26.5,17.5 26.5,17.4 26.4,17.5 C26.5,17.4 26.5,17.2 26.5,17.1 C26.6,17.1 26.6,17.2 26.7,17.1 C26.7,17.2 26.8,17.3 26.8,17.4 C26.7,17.4 26.7,17.5 26.6,17.5 L26.6,17.5 L26.6,17.5 Z"></path>
                    <path d="M79.8,49.1 C79.6,49.1 79.6,49 79.6,48.8 C80.4,48.9 81,49.5 81.9,49.6 C81.9,49.6 81.9,49.7 82,49.8 C82.1,49.9 82,49.9 82.1,50 C82.1,50 82,50.1 82,50 C81.7,49.9 81.3,49.9 81,49.8 L81.1,49.7 C80.4,49.6 80.2,49.1 79.8,49.1 L79.8,49.1 L79.8,49.1 Z" id="Shape_91_"></path>
                    <path d="M81.8,50.1 C81.8,50 81.9,50 81.8,49.9 C82.1,50 82.5,50 82.8,50.1 C82.8,50.3 82.9,50.4 83.1,50.4 C83.3,50.4 83.5,50.4 83.5,50.7 C83.5,50.9 83.4,50.9 83.1,50.9 C82.9,50.9 82.7,50.8 82.4,50.8 C82.5,50.5 82.2,50.5 82,50.5 C81.9,50.4 81.7,50.3 81.8,50.1 L81.8,50.1 L81.8,50.1 Z" id="Shape_92_"></path>
                    <path d="M78.8,48 C78.3,48.2 78,48 77.5,47.9 C77.6,47.8 77.5,47.7 77.4,47.6 C77,47.5 77.2,47.2 77.2,47 C77.5,47.3 78.6,47.8 78.8,48 L78.8,48 L78.8,48 Z" id="Shape_93_"></path>
                    <path d="M84.7,49.8 C84.7,49.8 84.7,49.9 84.6,49.9 C84.5,49.9 84.4,50 84.4,50 L83.2,49.2 C83.2,49.1 83.3,49.1 83.2,49 C83.6,49.1 84,49.6 84.5,49.7 C84.7,49.6 84.7,49.7 84.7,49.8 L84.7,49.8 L84.7,49.8 Z" id="Shape_94_"></path>
                    <path d="M16.2,13 C16,13 15.8,12.9 15.7,12.7 C15.6,12.5 15.5,12.6 15.2,12.5 C15,12.5 15,12.4 15,12.2 C15.3,11.6 15.5,11.9 15.8,12.1 C15.7,12.4 16.1,12.3 16.2,12.5 C16.4,12.6 16.5,12.9 16.9,12.9 C17,12.9 17,13.1 17,13.2 C16.9,13.3 16.8,13.3 16.7,13.4 C16.6,13.3 16.6,12.8 16.2,13 L16.2,13 L16.2,13 Z" id="Shape_95_"></path>
                    <path d="M16.1,10.5 C16,10.6 16,10.8 16,10.9 C15.5,10.5 14.9,10.1 14.3,9.9 C14.2,9.7 14.3,9.5 14.3,9.4 C15,9.5 15.5,10 16.2,10.2 C16,10.4 16.1,10.5 16.1,10.5 L16.1,10.5 L16.1,10.5 Z" id="Shape_96_"></path>
                    <path d="M13.7,11.8 C13.6,11.7 13.5,11.7 13.5,11.5 C13.6,11.1 13.3,11.1 13.1,11.1 C13.1,10.9 13.2,10.8 13.4,10.9 C13.8,11 14.2,11.5 14.7,11.6 C14.7,11.6 14.7,11.7 14.8,11.8 C14.6,12.2 14.4,12 14.3,11.8 C14,11.6 13.8,11.4 13.7,11.8 L13.7,11.8 L13.7,11.8 Z" id="Shape_97_"></path>
                    <path d="M12.4,10.7 C11.8,10.5 11.5,10.1 11,9.8 C11.1,9.8 11.1,9.7 11.2,9.7 C11.6,9.7 12,9.9 12.4,10.5 C12.5,10.6 12.5,10.7 12.4,10.7 L12.4,10.7 L12.4,10.7 Z" id="Shape_98_"></path>
                    <path d="M12.1,8.8 C11.8,8.8 11.6,8.6 11.5,8.5 C11.4,8.4 11.1,8.5 11,8.2 C11,8.1 11,8 11.2,7.8 C11.5,8 11.9,8.1 12.1,8.6 C12.2,8.7 12.2,8.8 12.1,8.8 L12.1,8.8 L12.1,8.8 Z" id="Shape_99_"></path>
                    <path d="M9.5,8.9 C8.9,8.6 8.3,8.4 8,7.8 C8.7,7.9 9.1,8.3 9.6,8.7 C9.6,8.8 9.6,8.9 9.5,8.9 L9.5,8.9 L9.5,8.9 Z" id="Shape_100_"></path>
                    <path d="M10.2,7.5 C9.9,7.6 9.6,7.6 9.4,7.2 C9.2,6.9 8.9,7.1 8.8,6.8 C9.3,6.8 9.9,6.8 10.2,7.5 L10.2,7.5 L10.2,7.5 Z" id="Shape_101_"></path>
                    <path d="M9.5,8.9 C9.5,8.8 9.6,8.8 9.5,8.7 C9.9,8.8 10.4,9 10.5,9.4 C10.2,9.6 10,9 9.5,8.9 L9.5,8.9 L9.5,8.9 Z" id="Shape_104_"></path>
                    <path d="M12.1,8.8 C12.1,8.7 12.2,8.7 12.1,8.6 C12.4,8.7 12.8,8.7 13.1,8.8 C13.1,8.9 13,8.9 13.1,9 C13,9.3 12.7,9.2 12.6,9 C12.4,8.9 12.3,8.9 12.1,8.8 L12.1,8.8 L12.1,8.8 Z" id="Shape_105_"></path>
                    <path d="M12.4,10.7 C12.4,10.6 12.5,10.6 12.4,10.5 C12.6,10.5 12.8,10.6 13.1,10.6 C13.2,10.7 13.4,10.7 13.3,11 C13.2,10.9 13,11 13,11.2 C12.9,11.2 12.9,11.1 12.8,11.2 C12.9,10.7 12.6,10.7 12.4,10.7 L12.4,10.7 L12.4,10.7 Z" id="Shape_107_"></path>
                    <path d="M19.4,14.8 C19.1,14.9 19,14.5 18.8,14.4 C18.5,14.3 18.1,14.2 17.9,13.9 C17.9,13.7 18,13.6 18.2,13.7 C18.8,13.9 19.2,14 19.6,14.6 C19.4,14.5 19.4,14.6 19.4,14.8 L19.4,14.8 L19.4,14.8 Z" id="Shape_109_"></path>
                    <path d="M19.4,14.8 C19.4,14.7 19.5,14.7 19.4,14.6 C19.7,14.7 20.2,14.8 20.5,14.8 C20.7,15.1 20.5,15.2 20.5,15.3 C20.3,15.3 20.1,15.2 19.7,15.1 C19.6,15 19.3,15.1 19.4,14.8 L19.4,14.8 L19.4,14.8 Z" id="Shape_110_"></path>
                    <path d="M18.1,13.7 C18,13.6 17.8,13.7 17.8,13.9 C17.6,13.9 17.5,14 17.3,14 C17.2,13.8 17.2,13.6 17.2,13.5 C17.1,13.4 17,13.5 16.9,13.4 C16.9,13.2 17,13.2 17.2,13.2 C17.4,13.2 17.6,13.3 17.9,13.3 C18.1,13.4 18.2,13.4 18.1,13.7 L18.1,13.7 L18.1,13.7 Z" id="Shape_111_"></path>
                    <path d="M87.1,51.4 C86.7,51.3 86.4,50.9 85.9,50.9 C85.9,50.7 86,50.6 86.2,50.7 C86.4,50.7 86.6,50.8 87,50.9 C87.4,50.9 87.1,51.2 87.1,51.4 L87.1,51.4 L87.1,51.4 Z" id="Shape_117_"></path>
                    <path d="M89.1,52.4 C88.6,52.2 88.1,52.4 88.1,51.7 C88.4,51.8 89.1,52.2 89.1,52.4 L89.1,52.4 L89.1,52.4 Z" id="Shape_118_"></path>
                    <path d="M86.8,52.6 C87.4,52.8 87.8,52.9 88.2,53.5 C88,53.5 87.8,53.4 87.4,53.3 C87.3,53 86.8,53 86.8,52.6 L86.8,52.6 L86.8,52.6 Z" id="Shape_122_"></path>
                    <path d="M88.8,53.8 C89,53.8 89.2,53.9 89.5,53.9 C89.6,54 89.8,54 89.7,54.3 C89.5,54.3 89.4,54.4 89.3,54.4 C89.2,54.2 89,54.1 88.8,54 C88.6,54 88.6,53.9 88.6,53.6 C88.7,53.8 88.7,53.9 88.8,53.8 L88.8,53.8 L88.8,53.8 Z" id="Shape_123_"></path>
                    <path d="M83.6,50.8 C84.1,50.9 84.3,51.5 84.9,51.4 C85.1,51.7 84.9,51.8 84.9,51.9 C84.8,51.8 84.6,51.8 84.5,51.8 C84.6,51.7 84.5,51.6 84.4,51.5 C84.2,51.5 84,51.4 83.7,51.4 C83.5,51.1 83.7,50.9 83.6,50.8 L83.6,50.8 L83.6,50.8 Z" id="Shape_124_"></path>
                    <path d="M85,51.9 C85.2,52 85.4,51.6 85.6,51.7 C85.9,51.9 85.7,52.1 85.7,52.3 C85.5,52.7 85.2,52.7 84.9,52.6 C84.9,52.4 85.2,52.4 85.2,52.3 C85,52.2 84.9,52 85,51.9 L85,51.9 L85,51.9 Z" id="Shape_125_"></path>
                    <path d="M86.3,50.7 C86.2,50.6 86,50.7 86,50.9 C85.7,50.6 85.4,50.5 84.8,50.4 C84.8,50.2 84.9,50 85,49.8 C85.4,49.9 85.8,50.4 86.3,50.5 C86.2,50.5 86.3,50.6 86.3,50.7 L86.3,50.7 L86.3,50.7 Z" id="Shape_127_"></path>
                </g>
            </g>
        </g>
    </g>
</svg>