<?xml version="1.0" encoding="UTF-8" standalone="no"?>
<svg width="122px" height="46px" viewBox="0 0 122 46" version="1.1" xmlns="http://www.w3.org/2000/svg" xmlns:xlink="http://www.w3.org/1999/xlink" xmlns:sketch="http://www.bohemiancoding.com/sketch/ns">
    <!-- Generator: Sketch 3.3 (11970) - http://www.bohemiancoding.com/sketch -->
    <title>canal</title>
    <desc>Created with Sketch.</desc>
    <defs></defs>
    <g id="Page-1" stroke="none" stroke-width="1" fill="none" fill-rule="evenodd" sketch:type="MSPage">
        <g id="summer-offer-page-copy-4" sketch:type="MSArtboardGroup" transform="translate(-540.000000, -4568.000000)" fill="#000000">
            <g id="Group" sketch:type="MSLayerGroup" transform="translate(63.000000, 1936.000000)">
                <g id="Group-Copy-6" transform="translate(0.007812, 2448.000000)" sketch:type="MSShapeGroup">
                    <g id="Group" transform="translate(93.000000, 64.000000)">
                        <g id="canal" transform="translate(383.500000, 119.500000)">
                            <g id="day4-2canal">
                                <g id="Group">
                                    <path d="M118.8,24.9 L116.9,24.9 C116.4,24.9 115.8,24.8 115.3,25 C114.2,25.3 113,25.6 111.8,25.6 L108.9,25.6 C108.2,25.6 107.4,25.7 106.9,25.2 C106.1,23.3 105.3,21.5 104.6,19.6 C103.9,17.7 103.1,15.9 102.5,14 L102.5,14 C102.2,13.4 102,12.8 101.9,12.2 C101.5,11.4 101.1,10.5 100.7,9.6 C100.4,9.3 100.2,9 100.1,8.6 L100.1,8.6 L100.1,8.6 L100.1,8 C99.9,7.7 99.8,7.3 99.6,7 C98.9,6.6 99.1,5.6 98.6,5 C98,4.3 98.1,3.4 98.1,2.6 L97,1.5 C96.7,1.5 96.2,1.6 95.8,1.5 C95.4,1.4 95.2,2 94.7,1.6 C94.4,1.4 93.9,1.5 93.4,1.5 C93,1.9 92.5,2.1 92.5,2.7 C91.2,3 89.8,3.4 88.5,3.1 C87.2,2.8 86,3 84.7,2.8 C84,2.7 83.4,3.1 82.7,2.9 C82.1,2.7 81.3,2.9 80.6,2.9 L73.9,2.9 L71.6,2.9 C71.1,2.9 70.6,2.8 69.9,2.7 C69.4,3 68.7,3.1 68,2.7 C67.8,2.6 67.5,2.5 67.4,2.6 C66.5,3.2 65.5,2.9 64.6,2.9 C63.8,2.9 63.1,2.5 62.3,2.6 C61.6,2.6 60.8,2.9 60.1,2.4 C59.6,3 59.2,2.3 58.8,2.3 C58.3,2.3 57.7,2.2 57.2,2.3 C55.7,2.5 54.4,1.9 52.9,2 L48.6,2 L48.5,1.9 C46.8,1.9 45,1.7 43.3,1.6 C41.4,1.7 39.6,1.7 38,1.1 C37.8,1 37.5,1 37.2,1 C36.7,1 36.1,1.2 35.8,1 C35.3,0.6 35,1.2 34.6,1.1 C34.1,1 33.6,1.1 33.1,1.1 C32.4,1.1 31.7,1.6 31,1.5 C30.3,1.4 29.5,1.3 28.9,1.5 C27.5,2 26,1.7 24.6,1.8 C23.7,1.9 22.8,2.4 21.9,2.1 C21.4,2.4 21,2.6 20.7,2.8 C20.6,3.7 20.5,4.5 20.4,5.3 L17.2,5.3 C17,5.5 16.7,5.5 16.5,5.3 L12.8,5.3 C12.6,5 12.4,4.6 12.1,4.2 C12.2,4.2 11.9,3.7 12.1,3.6 C12.1,3.6 15,4 15.9,3.9 C16.2,3.9 16.2,3.6 16.3,3.5 C16.3,3.5 16.3,3.4 16.4,3.4 C14.8,2.8 12,1.8 10.6,2.6 C10.3,2.8 10.1,3.1 9.9,3.4 C10.1,3.9 10.4,4.3 10.6,4.8 C10.5,4.9 10.4,4.9 10.4,4.9 C10.4,5 10.5,5.1 10.5,5.1 C10.6,5.6 10.7,6.1 10.8,6.6 L11,6.6 C11.4,7.6 11.8,8.7 12.2,9.7 C11,10 9.9,10.3 8.7,10.5 C7.6,10.7 7,11.3 6.7,12.3 C6.6,12.6 6.4,12.9 6.4,13.1 L6.4,15.1 C6.6,15.5 6.8,15.9 7.1,16.3 C7,16.4 6.9,16.6 6.8,16.9 C7,17.3 7.2,17.9 7.4,18.5 C6.8,18.5 6.3,18.7 5.7,18.3 C5.2,18 4.4,18.4 3.9,17.9 C2.8,18 1.7,17.3 0.6,17.6 L0.6,18.3 C2.4,18.2 4.2,18.7 5.9,19.2 C6.6,19.4 7.2,19.7 7.9,20 C8.6,20.2 9.3,20.4 9.9,20.7 C10.5,21 11.1,21.3 11.8,21.3 C12,21.3 12.3,21.5 12.5,21.6 C13.5,22 14.5,22.3 15.3,23 C16.2,23.7 17.4,23.8 18.5,23.9 C19.9,24.1 21.2,24.4 22.6,25.1 C22.2,25.1 21.9,25.2 21.6,25.2 L17.9,25.2 C17.1,25.2 16.4,25 15.7,24.7 C13.8,23.9 11.9,23.1 10,22.5 C9.3,22.3 8.5,22.3 7.8,22 C5.8,21.3 3.6,21.7 1.5,21.6 C1.3,21.6 1,21.8 0.8,21.9 L0.8,22.2 C2.1,22.2 3.4,22.3 4.7,22.2 C6,22.1 7.2,22.8 8.4,22.5 C8.6,22.6 8.7,22.8 8.8,22.8 C10.9,23.4 12.7,24.6 14.8,25.1 C16.2,25.4 17.5,25.8 18.9,25.8 C21,25.8 23.1,25.5 25.1,26.1 C25.8,26.3 26.6,26.5 27.3,26.8 C29.1,27.6 30.9,28.4 32.7,29 C34.2,29.4 35.6,30.3 37.3,30.1 C38,30.6 38.9,30.2 39.6,30.5 C40.4,30.8 41.2,30.6 41.9,30.8 C43.7,31.4 45.5,32.1 47.6,32.9 C47.1,33 46.8,33.1 46.7,33 C45.5,32.7 44.3,32.3 43.1,31.9 C41.1,31.3 40.2,31.2 38.1,31.6 C36.8,31.8 35.5,31.9 34.2,31.4 C33.2,31.1 32.2,30.7 31.2,30.3 C29.2,29.5 27.1,29.7 25.1,29.4 C24.2,29.2 23.2,29.4 22.2,29.4 C21.8,29.4 21.4,29.4 21.1,29.5 L21.1,29.7 L22.4,29.7 L23.9,29.7 C24.3,29.7 24.6,29.7 25,29.8 L25,30 C24.2,30.2 23.3,30.4 22.3,30.6 C22.6,30.7 22.7,30.8 22.9,30.8 C23.8,30.8 24.8,30.7 25.7,30.5 C27.5,30.2 29.2,30.5 30.9,31.2 C31.7,31.5 32.6,31.8 33.3,32.1 C34.1,32.5 35,32.1 35.9,32.6 C36.4,32.9 37.1,32.4 37.7,32.4 C39.4,32.4 41.1,32.1 42.8,32.6 C43.6,32.8 44.5,32.9 45.3,33.2 C46.1,33.5 47,33.7 47.8,33.9 C49.2,34.3 50.6,34.8 52.1,34.6 C52.7,34.5 53.3,34.6 53.9,34.6 C54.2,34.6 54.6,34.8 54.8,34.9 C55.2,34.8 55.5,34.6 55.7,34.6 C56.5,34.6 57.3,34.7 58.2,34.9 C59.6,35.2 60.8,35.6 62.1,36.2 C64.3,37.3 66.6,38 69,37.9 C70.3,37.8 71.6,37.9 72.8,37.9 C73.7,38.6 74.5,39.1 75.4,39.9 C74.9,39.9 74.6,40 74.4,39.9 C73.1,39.3 71.7,39.2 70.3,39.3 C70.1,39.3 69.9,39.2 69.7,39.1 C67.8,38.5 66,38.5 63.7,39 C63.5,39 63.2,39.1 63.1,39 C62.6,38.5 62.1,38.8 61.6,38.7 C61,38.6 60.4,38.6 59.8,38.4 C58,37.9 56.3,37.4 54.4,37.7 L53.9,37.7 C52.5,37.4 51.2,37.1 49.8,37 C48.3,36.9 46.2,36.6 44.4,37 C45.2,37.1 46.1,36.9 46.9,37.1 C47.8,37.4 48.7,37.4 49.5,37.4 C50.4,37.4 51.3,37.4 52.4,38.1 L50.9,38.1 L49.4,38.1 C49,38.1 48.7,38.1 48.3,38.2 C49.7,38.6 51,38.3 52.4,38.7 C52.8,38.8 53.4,38.4 53.9,38.4 C54.4,38.4 54.9,38.6 55.4,38.7 C55.8,38.8 56.3,39 56.7,39 C58.4,39 60,39.6 61.6,39.3 C61.8,39.3 62,39.2 62.1,39.3 C63.1,40 64.3,39.7 65.4,39.5 C66.4,39.4 67.2,39.3 68.2,39.5 C70,39.9 71.9,39.9 73.7,40.5 C74.3,40.7 75.1,40.5 75.8,40.5 C76.5,40.6 77.1,40.8 77.8,40.8 C79.9,40.7 81.9,41 84,40.5 C85.4,40.1 86.9,40.7 88.4,40.8 C88.8,41.4 89.5,41 90,41.3 C91,41.8 92.1,42.2 93.2,42.6 C93.7,42.8 94.3,43 94.8,43.2 C94.5,43.4 94.1,43.5 93.9,43.4 C93.2,42.9 92.4,43.1 91.6,43.1 L89,43.1 C88.7,43.1 88.4,43.1 88.1,43 C87.1,42.7 85.9,42.8 84.7,43.1 C83.7,43.3 82.7,43.5 81.8,43.5 C80.9,43.5 79.9,43.2 79,42.8 C78.4,42.6 77.9,42.5 77.3,42.5 L75.2,42.5 C74.5,42.6 73.8,42.8 73.1,42.8 C72,42.9 70.8,42.9 69.7,42.8 C68.5,42.7 67.4,42.6 66.3,42.5 C66.1,42.5 66,42.5 65.8,42.4 C65,41.9 64.2,42.2 63.4,42.3 C64.1,42.5 64.9,42.7 65.6,42.8 C66.4,42.9 67.1,43 67.9,43.1 C68.6,43.2 69.3,43.4 70,43.4 C70.8,43.5 71.7,43.6 72.4,43.4 C73.2,43.1 74,43.2 74.7,43.1 C75.5,43 76.2,43 77.2,42.9 C78.3,43.6 79.9,43.5 81.3,44.1 C81.5,44.2 81.8,44.1 82.1,44.1 C83.7,44.1 85.3,44 86.9,43.8 C88.8,43.6 90.7,43.7 92.6,43.7 C93,43.7 93.3,43.8 93.6,43.9 C94.4,44.2 95.2,44.4 96,44.3 C96.5,44.2 97.2,44.2 97.6,44 C99,43.3 100.1,44 101.3,44.4 C101.8,44 102.3,44 102.9,44.2 C103.4,44.4 104.1,44.3 104.6,44.4 C105.1,44.5 105.6,44.7 106.1,44.9 C105.2,45.1 104.3,45.3 103.5,45 C102.5,44.6 101.6,44.8 100.7,44.7 C99.7,44.6 98.7,44.7 97.7,44.7 L97.7,45 L99.7,45 C100.2,45 100.9,44.8 101.3,45 C101.8,45.3 102.3,45.2 102.8,45.3 C103.4,45.4 103.9,45.6 104.5,45.6 L108.1,45.6 C108.3,45.6 108.5,45.4 108.6,45.4 C109.7,45.6 110.5,46.5 111.7,46.3 C112,45.9 112.3,45.5 112.6,45.1 C112.7,45.2 112.8,45.3 112.9,45.4 C113,45.3 113.2,45.1 113.3,45.1 C114.8,44.9 115.5,44.1 115.7,42.5 C115.8,42 115.8,41.4 116.1,40.9 C116.4,40.4 116.9,39.9 117.2,39.4 C117.7,38.7 118.3,38 118.7,37.2 L120.2,34.2 C120.4,33.7 120.5,33.2 120.7,32.5 C121,32.2 121.6,31.6 122,31.2 C122.2,30.6 122.3,30.2 122.5,29.7 C121.3,27.8 120.4,26.1 118.8,24.9 L118.8,24.9 Z M86.2,5.4 C87,5.1 87.8,5 88.6,5.5 L88.9,4.9 C89.1,4.8 89.4,4.7 89.8,4.5 C90.5,4.4 91.5,4.8 92.4,3.9 C92.4,4.4 92.5,4.8 92.4,5 C91.8,6 91.8,7.2 91.2,8.2 C91.1,8.4 91.2,8.7 91.4,9 C91.8,7.9 92.4,6.8 92.7,5.7 C93.1,4.5 93.5,3.4 94.6,2.5 C94.8,2.7 95.1,2.9 95.4,3.2 C95.7,2.9 96,2.7 96.3,2.3 C96.6,2.4 97,2.6 97.3,2.7 L97.3,4 C96.7,4.1 96.1,3.2 95.6,4 C95.4,3.9 95.3,3.8 95.1,3.7 C94.9,3.8 94.8,3.8 94.8,3.8 C93.9,4.7 93.8,6 93.4,7.1 C92.6,9.3 91.8,11.5 91,13.7 C90.8,14.4 90.5,15 90.3,15.7 C90.1,16.7 89.3,17.5 89.1,18.6 C88.9,19.6 88.5,20.6 88.1,21.6 C87.8,22.6 87.5,23.6 87.1,24.6 C86.7,25.7 86.6,26.9 85.9,27.9 C85.6,28.3 85.8,29.2 85.8,29.9 C85.2,29.9 84.6,30.2 84,29.6 C83.1,29.7 82.2,29.4 81.4,29.2 C79.5,28.8 77.6,28.4 75.8,27.8 C74.6,27.4 73.4,27.4 72.3,27 C71.8,26.8 71.2,26.7 70.6,26.6 C70.3,26.1 70.8,25.3 70.2,24.9 C70.7,24.3 70,23.8 70.2,23.2 C70.4,22.7 70.2,22 70.2,21.4 L70.2,13.6 C70.2,12.3 70.1,11 70.2,9.7 C70.3,8.4 70.5,7.2 70.6,5.9 L70.9,5.6 L72.4,5.6 L72.4,5.8 C72.2,5.8 71.9,5.8 71.7,5.9 C71.6,5.9 71.5,6 71.4,6.1 C71.5,6.2 71.5,6.3 71.6,6.3 C72.4,6.2 73.1,6.5 73.9,6 C74.4,5.7 75.2,5.8 75.9,5.6 C76.3,5.5 76.7,5.4 77.1,5.3 C77.2,5.4 77.4,5.5 77.6,5.6 C77.8,5.5 78,5.4 78.3,5.2 C78.4,5.3 78.6,5.4 78.8,5.6 C79.8,5.6 80.8,5.5 81.8,5.6 C82.6,5.7 83.2,5.2 83.9,5.2 C84.8,5.4 85.5,5.6 86.2,5.4 L86.2,5.4 Z M26.6,2.5 L28,2.5 C29.4,2.4 30.8,2.5 32.1,2.1 C33.2,1.8 34.2,1.9 35.2,1.8 C36.3,1.7 37.4,1.6 38.4,1.8 C39.7,2.2 41.1,1.8 42.3,2.1 C43.8,2.4 45.3,2.1 46.7,2.4 C48.7,2.8 50.7,2.6 52.8,2.7 C54.6,2.8 56.4,3.3 58.2,3 C60.5,3.7 62.8,3 65.1,3.3 C69.6,3.9 74,3.4 78.5,3.6 C80.5,4.2 82.5,3.8 84.5,4.2 C84.2,4.2 83.9,4.3 83.7,4.3 L80.9,4.3 C78.5,4.4 76.1,4.3 73.7,4.7 C71.7,5 69.8,4.9 67.8,4.9 C65.8,5 63.8,5.2 61.8,4.9 C59.7,4.6 57.5,4.9 55.4,4.6 C53,4.2 50.7,4.6 48.4,4.3 C46.9,4.1 45.3,4.3 43.8,4 C42.1,3.7 40.5,3.8 38.9,3.7 C38,3.1 36.9,3.7 36,3.3 C35,2.9 34.1,3.1 33.2,3 C32.1,2.9 30.9,3 29.8,3 C28.7,2.9 27.7,2.8 26.6,2.6 C26.6,2.6 26.6,2.6 26.6,2.5 L26.6,2.5 Z M21.3,11.2 C21.4,11 21.3,10.7 21.4,10.4 C21.7,9.8 20.7,9.3 21.2,8.6 C21.6,8.1 21.3,7.5 21.4,6.9 C21.5,6.3 21.4,5.6 21.4,4.9 C21.4,4.2 21.5,3.6 21.9,3 C22.4,3.2 23.4,3.4 23.8,3.4 C24.8,3.4 25.8,3 26.8,3.6 C27,3.7 27.2,3.7 27.4,3.6 C29,3.4 30.5,4 32.1,3.9 L36.8,3.9 C38.2,3.8 39.5,4.5 40.9,4.2 C41.8,4.8 42.9,4.4 43.9,4.5 C45.4,4.6 47,4.8 48.5,4.8 C50,4.9 51.6,4.6 53,4.9 C55.2,5.3 57.4,5 59.5,5.2 C60.5,5.3 61.5,5.5 62.5,5.5 C63.5,5.6 64.5,5.3 65.4,5.6 C66.9,6 68.3,5.7 69.8,5.9 C69.4,6.4 69.5,7 69.5,7.6 L69.5,24.7 L69.5,26.4 C68.6,26.3 67.8,26.4 67.1,26 C66,25.5 64.7,25.5 63.6,25.1 C62.7,24.8 61.7,24.8 60.8,24.4 C60,24.1 59.1,24.1 58.3,23.8 C57.7,23.6 57.1,23.6 56.5,23.4 C55.8,23.3 55.2,22.9 54.5,23.1 C54.1,22.4 53.2,23.1 52.8,22.4 C51.1,22.4 49.5,21.6 47.8,21.4 C46.2,21.1 44.5,20.9 43,20.2 C41.8,20.3 40.8,19.8 39.7,19.5 C38.4,19.2 37.1,19.2 35.9,18.5 L35.7,18.5 C34.9,18.5 34,18.5 33.2,18.2 C32.5,17.9 31.7,17.8 31,17.6 C30.2,17.3 29.4,17.1 28.7,17 C27.5,16.8 26.3,16.4 25.1,16.2 C24.2,16.1 23.2,15.9 22.3,15.6 C21.8,15.5 21.3,15.3 20.8,15.1 C20.7,14 20.7,12.6 21.3,11.2 L21.3,11.2 Z M14,6.2 C14.1,6.2 14.2,6.1 14.3,6.1 C16.1,6.1 18,5.5 19.7,6 C20,6.1 20.3,6.5 20.2,6.8 C20.2,6.9 20.1,7 20.1,7.1 L20.1,8 L20.1,8 L20.1,10.2 C18.2,10 16.3,9.8 14.4,9.5 C14.4,9.4 14.4,9.4 14.3,9.3 C14.1,9.2 14,9.2 13.8,9 C13.1,8.5 13.2,7.6 13,6.9 C12.9,6.3 13.5,6 14,6.2 L14,6.2 Z M12.8,10.5 C12.9,11 12.9,11.4 12.9,11.8 C13.2,11.9 13.5,12.1 14,12.3 C14.3,11.9 14.7,11.5 15.1,10.9 C16,11.1 17,10.7 18.1,11.2 C18.6,11.5 19.4,11.2 19.9,11.2 L20.4,11.7 C20.3,12.8 20.7,14 19.9,15.1 C18.5,14.8 17.2,14.4 15.8,14.1 C13.5,13.6 11.2,13.2 9,12.2 C8.8,12.1 8.6,11.9 8.2,11.6 C9.8,11.2 11.2,10.9 12.8,10.5 L12.8,10.5 Z M11.3,18.7 C10.8,18.6 10.4,18.4 9.9,18.2 L9.8,18.2 C8.9,18 8.3,17.7 8.3,16.8 C8.3,16.2 8.9,16.1 9.3,16.3 C11.3,16.8 13.2,17.2 15.1,17.8 C16.5,18.2 18.1,18.4 19.4,19.1 C19.5,19.2 19.6,19.4 19.9,19.7 C20.1,19.9 20.2,20.2 20.1,20.4 L20.2,20.4 C20,20.6 19.8,20.8 19.7,20.9 C16.8,20.3 14.1,19.3 11.3,18.7 L11.3,18.7 Z M116.8,35.7 C116.6,36 116.3,36.4 116.1,36.7 C116,37 116.2,37.4 116.2,37.9 C116,38.1 115.8,38.5 115.4,38.8 C114.4,39.6 113.5,40.6 112.6,41.5 C112.5,41.6 112.4,41.9 112.3,42.1 C111.5,42.4 110.6,42.7 109.6,43 C111.3,43.3 112.6,43 113.9,42.1 L113.9,43 C113.7,43.2 113.4,43.4 113.1,43.7 C111.9,43.9 110.6,44 109.1,44.2 C109.8,44.5 110.2,44.7 110.5,44.8 C110.4,45 110.2,45.2 110.1,45.4 C109.2,44.8 108.4,44.3 107.5,43.7 L106,43.7 C105.5,43.7 105,43.7 104.5,43.4 C103.7,43 102.8,42.9 101.9,43 C100.8,43.1 99.8,42.8 98.9,42.3 C98.5,42 98,42 97.6,42 L93.7,42 C92.1,41.1 90.6,40.3 89.1,39.4 C88.6,39.2 87.9,39.6 87.4,39.1 C87.3,39 87,39 86.8,39.1 C85.3,39.5 85.3,39.4 83.8,39.1 C83,39 82.1,38.7 81.4,39.4 C81,39.2 80.6,39 80.1,38.7 C78.7,38.9 77.3,38.2 76,37.7 C75.5,37.5 75,37.2 74.5,37.1 C74,37 73.5,36.5 73,36.5 C72.5,36.5 72,35.9 71.5,36.4 C71,35.8 70.4,36.2 69.8,36.1 C68.6,35.8 67.4,35.7 66.2,35.5 C65.1,35.3 64.1,35.1 63.1,34.8 C62.8,34.7 62.3,34.7 62.1,34.4 C61,33.3 59.5,33.1 58.1,33.2 C57.3,33.2 56.7,32.9 56,32.8 C55.3,32.8 54.6,33.1 54,32.5 C53.9,32.4 53.8,32.5 53.7,32.5 C51.1,32.5 48.8,31.7 46.6,30.5 C45.3,29.8 43.9,29.4 42.4,29.2 C41.1,29 39.8,29 38.5,29 C37.7,29 37,28.7 36.3,28.4 C35.6,28.2 35.1,27.8 34.3,27.6 C33.6,27.5 33,27.1 32.3,27 C31.6,26.9 31,26.8 30.3,26.7 C29.3,26.5 28.2,26.5 27.3,25.7 C27,25.4 26.6,25.4 26.2,25.2 C24.9,24.7 24,23.8 22.7,23.1 C21.1,23.3 19.4,23 17.8,22.4 C16.3,21.9 15,20.9 13.5,19.9 C14.9,19.6 15.9,20.5 17.1,20.6 C18.3,20.7 19.4,21.5 20.8,21.4 C20.6,21.2 20.5,21 20.4,20.8 C20.5,20.6 20.6,20.4 20.8,20.2 C20.7,19.9 20.5,19.7 20.4,19.4 C20.5,19.3 20.6,19.2 20.6,19.2 C21.6,19.1 22.4,19.5 23.3,19.7 C24.7,20 26.1,20.5 27.5,20.8 C29.4,21.3 31.3,21.7 33.3,22.2 C34.4,22.5 35.4,22.8 36.5,23.1 C38,23.5 39.5,23.8 40.9,24.2 C41.9,24.5 42.9,24.5 43.8,25 C44.3,25.2 44.9,25.2 45.4,25.3 C46,25.4 46.7,25.4 47.2,25.7 C47.7,26.1 48.4,25.6 48.8,26.2 C50.5,26.4 52.1,27.1 53.8,27.4 C55.9,27.8 58,28.3 60.1,28.8 C63,29.5 65.9,30.4 68.9,31 C70.3,31.9 72.1,31.7 73.6,32.3 C75.1,32.9 76.7,33.1 78.3,33.6 C80,34.1 81.8,34.4 83.5,34.9 C84.2,35.1 84.9,35.1 85.6,35.2 C87.2,35.5 88.8,35.9 90.5,36 C91.2,36 91.9,36.2 92.6,36.3 C93.3,36.4 93.9,36.6 94.6,36.6 C95.4,36.7 96.2,36.5 96.9,36.6 C98,36.9 99.1,37 100.2,36.8 C101.8,36.5 103.5,36.6 105.1,36.5 C105.8,36.4 106.5,36.1 107.2,36.2 C107.9,36.3 108.5,36 109.2,35.8 C110.5,35.5 111.8,35.2 113,34.8 C114.5,34.3 116,33.8 117.7,33.2 C117.6,34.5 117.2,35.1 116.8,35.7 L116.8,35.7 Z M120.6,30.5 C120.3,31.4 119,31.3 118.9,32.3 C116.8,33.4 114.7,34.2 112.5,34.8 C111.3,35.1 110.1,35.4 108.9,35.6 C108.4,35.7 107.9,35.8 107.4,35.9 C106.9,36 106.4,35.7 106.1,36.2 C106.1,36.3 105.9,36.2 105.8,36.2 C102.7,36.2 99.6,36.7 96.5,36.5 C95.7,36.4 95,36.3 94.2,36.2 C93.5,36.1 92.7,36.4 92,35.9 C91.8,35.8 91.5,35.9 91.2,35.9 C90.6,35.9 90,35.9 89.4,35.6 C88.9,35.3 88.2,35.7 87.6,35.3 C87,35 86.2,35.1 85.5,35 C84.6,34.8 83.7,34.7 82.8,34.4 C82,34.1 81,33.9 80.2,33.7 C78.8,33.4 77.4,33.1 76.1,32.7 C75.6,32.5 75,32.5 74.4,32.4 C73.8,32.3 73.1,32.3 72.6,32 C72.1,31.6 71.4,32.1 71,31.5 C69.3,31.4 67.8,30.6 66.1,30.3 C64.6,30.1 63.1,29.5 61.7,29.2 C60.2,28.9 58.7,28.7 57.3,27.9 C55.6,28 54.1,26.9 52.3,26.9 C51.7,26.9 51.1,26.6 50.6,26.4 C49.2,26 47.9,25.6 46.5,25.3 C44.9,24.9 43.3,24.4 41.7,24.1 C39.8,23.7 37.9,23.1 35.9,22.7 C34.5,22.4 33.2,22 31.8,21.6 C30.3,21.2 28.9,20.7 27.4,20.4 C25.9,20.1 24.5,19.6 23,19.2 C21.5,18.8 20,18.4 18.4,18.1 C16.6,17.7 14.9,17.2 13.1,16.8 C12.7,16.1 11.9,16.8 11.5,16.3 C10,16.2 8.8,15.1 7.4,14.8 L7.4,12.9 C8.6,12.7 9.7,13.3 10.8,13.6 C11.7,13.8 12.6,14 13.4,14.3 C14.2,14.5 15.1,14.7 15.9,14.9 C17.4,15.2 18.8,15.7 20.3,16 C22,16.4 23.6,16.9 25.3,17.2 C26.8,17.5 28.4,17.8 29.9,18.2 C31.1,18.6 32.3,18.7 33.5,19 C35.2,19.5 36.9,19.9 38.7,20.2 C40.5,20.5 42.1,21.2 44,21.3 C44.9,21.4 45.9,21.7 46.8,22 C48,22.4 49.3,22.5 50.5,22.9 C52.2,23.5 53.9,23.8 55.7,24.1 C57.5,24.4 59.1,25.1 61,25.2 C61.9,25.3 62.9,25.6 63.8,25.9 C64.6,26.1 65.4,26.2 66.2,26.4 C67.9,27 69.7,27.2 71.4,27.6 C72.5,27.9 73.6,28.1 74.7,28.3 C76.7,28.7 78.8,29.3 80.8,29.6 C81.2,30.1 81.8,29.8 82.3,30 C82.7,30.2 83.2,30.2 83.6,30.3 C85.3,30.8 87.1,30.6 88.7,31.2 C88.9,31.3 89.1,31.2 89.3,31.2 L97.9,31.2 C98.1,31.2 98.3,31.1 98.4,30.9 L97,30.9 C94.9,30.8 92.8,30.6 90.6,30.5 C92.3,29.9 93.9,29.1 95.4,28.1 C97.6,27.4 100,27.8 102.4,27.5 C101.6,27.2 100.5,27.6 99.8,26.7 C101.3,26.5 102.9,26.9 104.3,26.2 C101.7,25.8 99.7,25.8 98.7,26.9 C97.6,27.1 96.6,27.2 95.8,27.3 C93.7,28.2 92,29.3 90,29.9 C88.9,30.2 87.9,30.3 86.9,29.8 C86,28.7 86.5,27.7 86.8,26.6 C87.3,24.9 87.9,23.2 88.4,21.4 C88.5,21.4 88.7,21.3 88.8,21.3 C89.3,19.9 89.7,18.4 90.2,17 C90.6,15.6 90.9,14.1 91.6,12.8 C92.3,11.4 92.4,9.9 93.2,8.6 C93.9,7.4 93.9,5.8 95,4.4 C95.2,5.9 95.1,7 95.1,8.2 C95.9,8.8 95.7,9.8 95.9,10.6 C96,11.3 96.3,12 96.2,12.8 C96.6,11.5 96.4,10.2 96.2,8.9 C96,7.5 96.2,6.1 96.2,4.7 L96.7,4.7 C97,5.5 97.4,6.3 97.7,7.2 C97.6,7.3 97.5,7.4 97.4,7.6 C98.3,9.4 98.7,11.5 99.6,13.4 C100.4,15.2 101.3,17 102.4,18.8 C102.3,18.5 102.3,18.1 102.2,17.8 C101.3,15.6 100.3,13.5 99.3,11.3 C99.1,10.8 98.9,10.3 98.7,9.7 C99.1,9.9 99.4,10 99.6,10.1 C101.9,15 103.2,20.3 105.8,25.3 C105.2,25.1 105,25.1 104.5,24.9 C105,25.8 105.8,25.7 106.4,25.9 C107.2,26.1 108,26.2 108.9,26.2 C109.7,26.3 110.5,26.2 111.3,26.2 C112,26.2 112.6,26.3 113.3,25.9 C113.8,25.6 114.5,26 115.1,25.6 C115.5,25.3 116.2,25.6 116.9,25.6 C116.4,26.4 115.6,26.3 115,26.5 C114.3,26.7 113.5,26.6 112.9,26.9 C112.2,27.3 111.5,27.1 110.7,27.2 C110.8,27 110.9,26.8 111,26.7 C110.9,26.7 110.8,26.6 110.7,26.6 C110,26.8 109.4,27.1 108.7,27.3 C107.7,27.6 106.6,27.8 105.6,28.9 C106.5,28.6 107.3,28.5 107.8,28.1 C108.3,27.8 108.7,27.8 109.1,27.8 C109.9,27.8 110.7,27.9 111.4,27.8 C112.1,27.6 112.8,27.6 113.4,27.2 C113.7,27 114.3,27.2 114.8,27.3 C109.8,29.5 104.7,30.7 99.2,30.6 C99.4,30.7 99.6,30.7 99.8,30.8 C100.8,30.9 102.1,31.3 103.2,30.7 C104.4,30.9 105.5,30.5 106.6,30.4 C107.7,30.3 108.7,30.1 109.7,29.7 C110.8,29.3 111.9,29.1 113.1,28.8 C114.7,28.3 115.9,27.4 117.3,26.6 C118.5,27.1 119.1,28.4 120.1,29.7 C119.8,27.9 118.7,26.9 117.8,25.9 C119.2,26.3 119.7,27.5 120.3,28.7 L120.3,30.5 L120.6,30.5 Z" id="Shape"></path>
                                    <path d="M89,29.3 C89.3,29.1 89.6,28.9 89.8,28.8 C89.7,28.1 89.9,27.4 89.6,27 C89.3,26.4 89.6,25.9 89.3,25.1 C89.7,25.5 89.8,25.6 89.9,25.7 C90.1,26.7 90.3,27.7 90.4,28.7 C91.5,28.2 92.5,27.6 93.6,27.4 C94.7,27.1 95.5,26.4 96.4,26 C96.9,24.6 96.1,23.3 96.2,21.9 C96.4,21.7 96.7,21.6 97,21.3 C97.2,22.7 97.4,24 97.5,25.4 C99.2,25.2 100.9,25 102.6,24.7 L102.6,21.4 L102.8,21.4 C103,22.4 103.1,23.5 103.3,24.7 L104.9,24.7 L104.9,24.9 C104.1,25.1 103.4,25.2 102.6,25.4 C101.6,25.6 100.7,25.8 99.8,26.1 C99.2,26.3 98.6,26.4 98.1,26.7 C97.5,27.1 96.9,26.9 96.3,27 C96,27.2 95.8,27.6 95.5,27.6 C93.3,27.9 91.4,29 89.3,29.6 C89.3,29.5 89.2,29.4 89,29.3 L89,29.3 Z" id="Shape"></path>
                                    <path d="M94.4,20.3 C94.1,19.8 93.9,19.2 93.9,18.5 L93.9,15.8 C93.9,14.9 94.2,14 95,13.3 C95.2,13.6 95.4,13.8 95.8,14.4 C95.8,15.1 96,16.2 96.1,17.2 C96.2,18.2 95.8,19.3 95.5,20.3 C95.2,20.3 94.8,20.3 94.4,20.3 L94.4,20.3 Z" id="Shape"></path>
                                    <path d="M99.2,18.1 C98.9,18.7 98.7,19.2 98.3,19.8 C97.9,19.5 97.6,19.2 97.4,19 C96.8,17 96.7,15.2 97.4,13.1 C97.5,13 97.9,12.9 98.3,12.6 C99.3,14.5 99.2,16.4 99.2,18.1 L99.2,18.1 Z" id="Shape"></path>
                                    <path d="M90.3,21 L89.9,21 C90.1,19.5 90.7,18.3 91.5,17.1 C92.1,16.2 92.4,15.1 92.7,14 C93.3,12 93.9,10 94.6,7.6 C94.6,8.2 94.7,8.5 94.7,8.7 C94.3,9.7 94.3,10.9 93.9,11.9 C93.5,13 93.2,14.2 92.8,15.3 C92.4,16.3 92.2,17.3 91.5,18.2 C90.8,19.1 90.6,20.1 90.3,21 L90.3,21 Z" id="Shape"></path>
                                    <path d="M105.5,27 C106,26.7 106.6,27.1 107.1,26.5 C107.3,26.6 107.5,26.8 107.9,27.1 L105.9,27.1 C105.7,27.3 105.6,27.5 105.4,27.6 C105.5,27.7 105.6,27.8 105.8,28 L104,28 C103.1,28.4 102.4,28.8 101.7,29.1 C102.1,28.3 102.9,28.1 103.6,27.8 C104.1,27.5 104.8,27.3 105.5,27 L105.5,27 Z" id="Shape"></path>
                                    <path d="M103.4,38.7 C103.7,39.4 104.6,39.6 104.7,40.5 C103.6,39.8 103.4,39.6 102.7,38.5 C102.2,39 101.7,39.4 101.2,39.9 L100.7,39.4 C101.6,38.6 102.2,37.6 103.5,37.3 C103.8,37.6 104.1,38 104.6,38.4 C104.1,38.5 103.8,38.6 103.4,38.7 L103.4,38.7 Z" id="Shape"></path>
                                    <path d="M51.8,19.7 C51.5,19 51,18.3 51.7,17.5 L51.7,17.3 C51.8,15.7 51.9,14.1 52,12.6 C52.1,11.6 52.2,10.6 52.3,9.6 C52.3,9.3 52.2,9 52.1,8.7 C52.1,8.7 52.3,8.5 52.4,8.4 C55.7,9 59.1,9.1 62.5,9.7 C62.4,10.8 62.6,11.8 62.2,13 C61.9,14 62.4,15.2 61.8,16.3 C61.9,16.4 62,16.5 62,16.5 C61.6,17.8 61.9,19 61.7,20.3 C60.8,21.1 59.7,21.2 58.4,20.8 C57.4,20.5 56.4,20.2 55.3,20.3 C54.1,20.4 52.9,20 51.8,19.7 L51.8,19.7 Z M52.3,19 C53.3,19.3 54.1,19.6 54.9,19.7 C55.8,19.9 56.8,19.9 57.7,20 C58.6,20.1 59.4,20.3 60,20.4 C60.5,20 60.8,19.8 60.9,19.6 C61.3,17.7 61.4,16 61.4,14.3 C61.4,14.2 61.6,14.1 61.6,14 C61.4,13.8 61.3,13.7 61.2,13.5 C59.3,13.8 57.5,12.6 55.6,12.8 C54.6,12.2 53.6,12.6 52.6,12.6 C52.5,13.4 52.3,14.1 52.2,14.8 C52.1,15.5 52.2,16.2 52.2,16.9 C51.4,17.6 52.5,18.3 52.3,19 L52.3,19 Z M53.1,9.3 C53,10.3 52.9,11 52.8,11.8 C54.2,12.4 55.8,12.3 57.3,12.5 C58.8,12.7 60.3,13.4 61.8,13.2 L61.8,10 C59.8,10.2 57.9,9.5 55.9,9.7 C55.5,9.7 55,9.8 54.8,9.6 C54.2,9.1 53.6,9.4 53.1,9.3 L53.1,9.3 Z" id="Shape"></path>
                                    <path d="M31.6,17.1 C29.9,16.8 28.5,16.1 26.9,16.1 C26.1,15.4 25.2,16 24.3,15.6 C23.5,15.3 22.6,15.2 21.7,15 C21.7,14 21.5,12.9 21.7,11.8 C22,10.5 21.8,9.1 22,7.9 C22.3,6.7 22.2,5.6 22.3,4.3 C23.1,4.5 24,4 24.7,4.6 C24.8,4.7 24.9,4.6 25,4.6 C26.6,4.7 28.3,4.8 29.9,4.9 C30.6,5 31.2,5.2 32,5.3 C31.8,6.2 32.3,7.1 31.7,8 C31.6,8.1 31.7,8.3 31.7,8.5 C31.8,11.4 31.2,14.2 31.6,17.1 L31.6,17.1 Z M31,5.8 C29.5,5.7 27.9,5.2 26.3,5.4 C25.8,5.5 25.2,5.6 24.9,5.4 C24.3,4.9 23.7,5.2 23.1,5.1 C23.1,5.9 23.3,6.7 23.1,7.3 C22.5,8.5 23,9.9 22.6,11.1 C22.3,12.1 22.5,13.3 22.5,14.5 C23.5,14.7 24.5,14.9 25.4,15.2 C26.3,15.5 27.2,15.5 28.1,15.8 C29,16.1 30,16.1 31,16.2 C31.1,15 31,13.9 31.3,12.8 C31.6,11.8 31.3,10.6 31.6,9.5 C31.9,8.5 31.4,7.3 31.8,6.2 C31.5,6.1 31.2,5.9 31,5.8 L31,5.8 Z" id="Shape"></path>
                                    <path d="M49.4,8.2 C49.2,8.6 49.1,8.8 49.1,9.1 C49,10.2 49.3,11.3 48.8,12.4 C49,14.5 48.4,16.5 48.5,18.6 L48,19.1 C46.4,19.3 44.9,18.6 43.3,18.7 C42.9,18.7 42.4,18.3 41.9,18 C41.9,17.1 41.7,16.2 42.1,15.6 C42.5,14.8 41.9,14 42.6,13.3 C42.8,13.1 42.6,12.6 42.6,12.2 C42.7,10.6 42.9,9 43,7.2 C44,8.1 45.1,7.5 46.2,7.9 C47,8.3 48.2,7.8 49.4,8.2 L49.4,8.2 Z M47.8,17.9 C47.5,16.9 48.3,15.9 48.1,14.8 C47.9,13.7 48.9,12.7 48.3,11.6 C46.6,11.7 45,10.7 43.2,11 C43.4,12.5 42.7,13.8 42.9,15.3 L42.9,15.6 C42.7,16.7 42.8,17.3 43.4,18.1 C44.7,18.2 46,18.4 47.2,18.5 C47.4,18.3 47.6,18.1 47.8,17.9 L47.8,17.9 Z M48.1,9.5 C48.2,9.2 48.3,9 48.4,8.7 C46.7,8.5 45.2,8 43.5,8.4 L43.5,9.3 C43.5,9.6 43.4,9.9 43.3,10.2 C45,10.7 46.7,10.9 48.4,11.1 C48.3,10.6 48.7,9.9 48.1,9.5 L48.1,9.5 Z" id="Shape"></path>
                                    <path d="M34.1,17.3 L34.1,14.2 C34.1,13.5 34.3,12.9 34.4,12.2 C34.5,11.6 34.1,10.9 34.7,10.4 L34.7,6.8 C36.7,6.3 38.7,7.7 40.7,6.8 C40.8,7 40.9,7.3 41,7.4 C40.8,8.6 40.6,9.8 40.5,11 C40.3,12.2 40.6,13.4 40.2,14.6 C39.9,15.8 40.1,17.1 40.1,18.4 C39.3,18.5 38.5,18.5 37.7,18.1 C37.1,17.8 36.4,17.7 35.7,17.8 C35.2,17.9 34.7,17.6 34.1,17.3 L34.1,17.3 Z M40,10.4 C38.3,10.1 36.7,9.9 35.1,9.6 C35,10.9 35.1,12.2 34.8,13.4 C34.6,14.4 34.8,15.5 34.8,16.7 C36.4,17.3 38,17.5 39.6,17.3 C39.7,15.8 39.9,14.5 40,13.1 C40.1,12.6 39.9,12.1 40.3,11.6 C40.5,11.4 40.4,10.6 40,10.4 L40,10.4 Z M35.4,9.3 C36.3,9.3 37.1,9.3 37.8,9.6 C38.5,9.9 39.4,9.8 40.2,9.9 L40.2,7.6 C38.6,7.9 37,6.9 35.4,7.4 L35.4,9.3 L35.4,9.3 Z" id="Shape"></path>
                                    <path d="M82.6,25.6 C82.1,25.8 81.6,25.5 80.9,25.2 C78.4,25.4 75.7,24.6 72.9,24.9 C72.9,24.9 72.8,24.8 72.7,24.7 C73.3,23.7 73.5,22.5 73.8,21.4 C74.2,20.1 74.6,18.7 75,17.3 C75.5,15.3 75.8,13.3 76.6,11.4 C76.8,10.8 76.8,10.1 77,9.5 C77.1,9.2 77.3,8.9 77.4,8.6 C78.7,9.3 79.9,8.9 81.1,9 L84.8,9 C86,9 87.1,8.4 88.3,8.3 C87.2,10.8 86.2,13.2 85.3,15.6 C84.9,16.7 85,18.1 84,19 C83.9,20.9 82.8,22.7 83,24.7 C83.2,25.1 82.9,25.5 82.6,25.6 C82.7,24.1 82.7,23 83,22.1 C83.3,21 84,19.9 84.1,18.8 C84.3,17.6 84.9,16.5 85.1,15.3 C85.6,13.3 86.5,11.4 87.3,9.4 L86.3,9.4 C83.6,9.5 80.9,9.9 78.1,9.7 L77.6,9.7 C77.2,11.3 76.5,12.8 76.1,14.5 C75.8,16.2 75.2,17.8 74.7,19.5 C74.2,21.1 73.8,22.7 73.6,24.4 C75.9,24.1 78.1,24.9 80.4,24.7 C81.2,24.6 81.8,25 82.6,25.6 L82.6,25.6 Z" id="Shape"></path>
                                    <path d="M71.5,6.4 L71.5,9.5 C71.4,10.6 71.3,11.7 71.2,12.8 C71.1,13.9 71.2,15 71.2,16 L71.2,19.6 C70.8,18.5 70.7,12.2 70.9,6.5 C71.1,6.4 71.3,6.4 71.5,6.4 L71.5,6.4 Z" id="Shape"></path>
                                </g>
                            </g>
                        </g>
                    </g>
                </g>
            </g>
        </g>
    </g>
</svg>