<?xml version="1.0" encoding="UTF-8" standalone="no"?>
<svg width="107px" height="47px" viewBox="0 0 107 47" version="1.1" xmlns="http://www.w3.org/2000/svg" xmlns:xlink="http://www.w3.org/1999/xlink" xmlns:sketch="http://www.bohemiancoding.com/sketch/ns">
    <!-- Generator: Sketch 3.3 (11970) - http://www.bohemiancoding.com/sketch -->
    <title>mountain copy</title>
    <desc>Created with Sketch.</desc>
    <defs></defs>
    <g id="Page-1" stroke="none" stroke-width="1" fill="none" fill-rule="evenodd" sketch:type="MSPage">
        <g id="summer-offer-page-copy-4" sketch:type="MSArtboardGroup" transform="translate(-864.000000, -3520.000000)" fill="#000000">
            <g id="Group-Copy-6" sketch:type="MSLayerGroup" transform="translate(63.125000, 3341.000000)">
                <g id="Group" transform="translate(93.000000, 64.000000)" sketch:type="MSShapeGroup">
                    <g id="Group-Copy-5" transform="translate(1.000000, 115.000000)">
                        <g id="mountain-copy" transform="translate(707.000000, 0.000000)">
                            <g id="Group">
                                <path d="M0.5,37.5 C0.5,37.5 0.7,37.4 1.1,37.3 C1.5,37.1 2.1,36.8 2.8,36.4 C3.5,36 4.4,35.4 5.5,35 C6,34.8 6.7,34.6 7.3,34.4 C7.9,34.2 8.5,34 9.2,33.8 C9.8,33.5 10.3,33.2 11,32.7 C11.6,32.3 12.2,31.8 13,31.3 C13.3,31.1 13.7,30.9 14.1,30.7 L14.4,30.5 C14.5,30.5 14.5,30.5 14.6,30.4 L14.7,30.3 C14.9,30.2 15.1,30.1 15.3,30.1 C16.2,29.8 17,29.5 17.7,29.2 C18.5,28.9 19.1,28.5 19.8,27.9 C20.2,27.6 20.4,27.3 20.7,27 C21,26.7 21.3,26.4 21.6,26 C22.2,25.3 22.7,24.6 23.3,23.8 L24.2,22.6 L25.1,21.5 C26.4,20.1 28,18.8 29.1,17.5 C29.2,17.3 29.4,17.1 29.5,17 L29.8,16.5 C30,16.1 30.2,15.8 30.4,15.3 C30.8,14.5 31.2,13.6 31.8,12.8 C32,12.6 32.1,12.4 32.3,12.2 L32.5,12 L32.7,11.8 C33,11.5 33.2,11.2 33.5,10.9 C34.1,10.3 34.6,9.6 35.2,9 L36.1,8.1 C36.3,8 36.4,7.8 36.6,7.7 L36.9,7.5 L37,7.5 C37.1,7.4 37,7.5 37.1,7.5 L37.1,7.5 L37.2,7.4 C37.3,7.4 37.4,7.3 37.6,7.3 C37.7,7.3 37.9,7.3 38,7.2 C38.3,7.2 38.5,7.2 38.7,7.3 C39.2,7.4 39.5,7.7 39.8,7.9 C40.4,8.4 40.9,8.9 41.3,9.5 C41.7,10 42,10.5 42.4,11 C43,12 43.6,12.8 44.1,13.5 C44.6,14.2 45,14.6 45.4,14.9 C45.6,15 45.7,15.1 45.8,15.2 L45.9,15.3 C45.9,15.3 45.8,15.3 45.7,15.2 C45.6,15.2 45.4,15.1 45.2,15 C44.8,14.8 44.3,14.4 43.7,13.7 C43.1,13.1 42.5,12.3 41.7,11.4 C41.3,11 40.9,10.5 40.5,10 C40.1,9.5 39.6,9.1 39.1,8.7 C38.8,8.5 38.6,8.4 38.3,8.3 L37.9,8.3 L37.7,8.3 C37.7,8.3 37.6,8.3 37.5,8.4 C37,8.7 36.5,9.2 36,9.8 C35.5,10.4 35,11.1 34.5,11.7 C34.2,12 33.9,12.4 33.6,12.7 L33.4,12.9 L33.3,13 L33.2,13.1 L32.8,13.5 C32.4,14.1 32,14.9 31.7,15.7 C31.5,16.1 31.3,16.6 31.1,17 L30.7,17.7 C30.6,17.9 30.4,18.1 30.3,18.3 C28.9,19.9 27.5,21 26.3,22.4 L25.4,23.5 L24.6,24.6 C24,25.3 23.5,26.1 22.8,26.8 C22.5,27.2 22.2,27.5 21.8,27.9 C21.4,28.2 21,28.6 20.7,28.9 L20.4,29.1 L20.3,29.2 L20.1,29.3 C19.9,29.4 19.7,29.6 19.5,29.7 C19.1,29.9 18.6,30.1 18.2,30.3 C17.3,30.6 16.4,30.9 15.7,31.1 C15.5,31.2 15.3,31.2 15.1,31.3 L14.9,31.4 L14.8,31.5 L14.5,31.6 C14.1,31.8 13.8,31.9 13.5,32.1 C12.8,32.5 12.1,32.9 11.5,33.3 C11.2,33.5 10.9,33.7 10.5,33.9 C10.3,34 10.1,34.1 10,34.2 C9.8,34.3 9.6,34.3 9.5,34.4 C8.8,34.6 8.1,34.8 7.5,34.9 C6.9,35 6.3,35.1 5.7,35.3 C4.6,35.6 3.7,36 3,36.3 C2.2,36.6 1.6,36.8 1.2,36.9 C0.7,37.5 0.5,37.5 0.5,37.5 L0.5,37.5 Z" id="Shape"></path>
                                <path d="M18.9,45.2 C18.9,45.2 19,45.1 19.1,44.9 C19.2,44.8 19.3,44.7 19.3,44.6 C19.4,44.5 19.5,44.3 19.7,44.2 C20.3,43.5 21.3,42.7 22.6,41.7 C23.3,41.2 24,40.7 24.8,40.1 C25.6,39.5 26.4,38.8 27,37.9 C27.2,37.7 27.3,37.5 27.5,37.2 C27.7,36.9 27.8,36.7 28,36.4 C28.2,36.1 28.3,35.9 28.5,35.6 C28.7,35.3 28.9,35.1 29.1,34.8 C29.9,33.7 30.8,32.7 31.8,31.7 C32.3,31.2 32.8,30.7 33.3,30.1 C33.5,29.8 33.8,29.5 34,29.3 C34.3,29 34.5,28.7 34.8,28.5 C35.9,27.4 37.1,26.3 38,25.1 L38.3,24.6 L38.6,24.1 C38.8,23.8 39,23.4 39.3,23.1 C39.7,22.4 40.2,21.7 40.7,21 C41.7,19.6 42.7,18.2 43.7,16.8 C44.2,16.1 44.7,15.4 45.2,14.6 C45.5,14.2 45.7,13.9 46,13.5 C46.2,13.1 46.5,12.8 46.7,12.4 C47.2,11.6 47.7,10.9 48.2,10.1 C48.5,9.7 48.7,9.3 49,9 L49.4,8.4 C49.5,8.2 49.6,8 49.8,7.8 C51.1,6.2 52.6,5.1 53.7,3.7 C53.9,3.5 54,3.4 54.1,3.2 C54.2,3 54.3,2.9 54.5,2.7 C54.8,2.3 55,1.9 55.3,1.5 C55.5,1.3 55.6,1.1 55.8,0.9 C55.9,0.8 56,0.7 56.2,0.6 C56.4,0.5 56.5,0.4 56.7,0.3 C57.1,0.1 57.6,0.1 58,0.2 C58.2,0.3 58.4,0.3 58.5,0.4 C58.6,0.5 58.8,0.6 58.9,0.7 C59.8,1.5 60.3,2.3 60.9,3.1 C61.5,3.9 62,4.7 62.5,5.5 C63,6.3 63.5,7 64,7.7 C64.5,8.4 65.1,9 65.8,9.7 C66.1,10 66.4,10.4 66.8,10.8 C67.1,11.2 67.4,11.6 67.7,12 C68.3,12.8 68.7,13.7 69.1,14.6 C69.3,15 69.5,15.5 69.6,15.9 L69.8,16.5 L69.9,16.8 L70,17.1 C70.2,17.5 70.3,17.9 70.5,18.3 L70.8,18.8 C70.9,19 71,19.2 71.1,19.3 C72,20.7 73.1,21.9 74.4,23 C74.7,23.3 75,23.5 75.3,23.8 L75.4,23.9 L75.5,24 L75.6,24.1 L75.8,24.3 C75.9,24.4 76.1,24.6 76.3,24.8 C76.9,25.5 77.3,26.3 77.8,26.9 C78.2,27.5 78.7,28 79.3,28.3 C79.5,28.4 79.7,28.5 79.8,28.5 L80.3,28.6 C80.4,28.7 80.6,28.7 80.8,28.7 L81.3,28.8 C82.7,29.1 84.3,29.3 85.7,30.2 C86,30.4 86.3,30.6 86.6,30.8 C86.9,31 87.2,31.2 87.4,31.4 C87.9,31.8 88.4,32.3 88.9,32.7 C89.9,33.6 90.8,34.4 91.6,35.1 C93.3,36.6 94.9,37.8 96.3,38.6 C96.7,38.8 97,39 97.3,39.1 C97.6,39.2 97.9,39.4 98.2,39.5 C98.8,39.7 99.3,39.9 99.7,39.9 C100.1,40 100.5,40.1 100.7,40.1 C100.9,40.1 101,40 101,40 C101,40 100.9,40.1 100.7,40.1 C100.5,40.1 100.1,40 99.7,40 C99.3,40 98.7,39.8 98.1,39.7 C97.8,39.6 97.5,39.5 97.1,39.4 C96.8,39.3 96.4,39.1 96,38.9 C94.5,38.2 92.8,37 91,35.6 C90.1,34.9 89.1,34.1 88.1,33.3 C87.6,32.9 87.1,32.5 86.5,32.1 C86.2,31.9 86,31.7 85.7,31.5 C85.4,31.3 85.1,31.1 84.8,30.9 C83.7,30.2 82.3,30.1 80.8,29.8 C80.6,29.8 80.4,29.7 80.2,29.7 C80,29.7 79.8,29.6 79.6,29.6 C79.4,29.5 79.2,29.5 79,29.4 C78.8,29.3 78.6,29.2 78.5,29.2 L78.4,29.1 L78.3,29.1 C78.3,29.1 78.3,29.1 78.2,29.1 L77.9,28.9 C77.7,28.8 77.5,28.6 77.3,28.5 C77,28.2 76.7,27.8 76.4,27.5 C76.2,27.2 75.9,26.8 75.7,26.5 L75.4,26 C75.3,25.8 75.2,25.7 75.1,25.6 C75,25.5 74.8,25.3 74.7,25.2 L74.5,25 L74.4,24.9 L74.4,24.9 L74.4,24.9 L74.3,24.8 C74,24.5 73.6,24.3 73.3,24 C72,22.9 70.6,21.6 69.6,20 C69.5,19.8 69.3,19.6 69.2,19.4 L68.9,18.8 C68.7,18.4 68.5,18 68.3,17.6 L68.2,17.3 L68.1,17 L67.9,16.4 C67.7,16 67.6,15.6 67.4,15.2 C66.7,13.6 65.7,12.2 64.5,10.9 C63.9,10.3 63.2,9.5 62.6,8.8 C62,8 61.5,7.2 61,6.4 C60.5,5.6 60,4.8 59.5,4.1 C59,3.3 58.4,2.6 57.9,2.1 C57.8,2.1 57.8,2 57.7,2 C57.7,2 57.6,2 57.6,1.9 C57.5,1.9 57.6,1.9 57.5,1.9 C57.4,1.9 57.1,2.2 56.9,2.5 C56.7,2.8 56.4,3.2 56.2,3.6 C56.1,3.8 55.9,4 55.8,4.2 C55.6,4.4 55.5,4.6 55.3,4.8 C54.6,5.6 53.9,6.2 53.3,6.9 C52.6,7.5 52,8.2 51.5,8.8 C51.4,8.9 51.2,9.2 51.1,9.3 L50.9,9.6 L50.9,9.7 C50.9,9.6 50.9,9.7 50.9,9.7 L50.8,9.8 C50.5,10.2 50.3,10.6 50,11 C49.5,11.8 49,12.5 48.4,13.3 C48.1,13.7 47.9,14.1 47.6,14.4 C47.3,14.8 47.1,15.1 46.8,15.5 C46.3,16.2 45.7,16.9 45.2,17.7 C44.2,19.1 43.1,20.5 42.1,21.9 C41.6,22.6 41.1,23.2 40.7,23.9 C40.5,24.2 40.2,24.6 40,24.9 L39.6,25.4 L39.2,25.9 C38.1,27.2 36.9,28.2 35.8,29.3 C35.5,29.5 35.3,29.8 35,30.1 C34.7,30.4 34.5,30.6 34.2,30.9 C33.7,31.4 33.2,31.9 32.6,32.4 C31.6,33.4 30.6,34.3 29.8,35.3 C29.6,35.5 29.4,35.8 29.2,36 C29,36.2 28.8,36.5 28.7,36.8 C28.5,37.1 28.4,37.3 28.2,37.6 C28,37.9 27.8,38.1 27.6,38.3 C26.8,39.2 25.9,39.9 25.1,40.4 C24.3,41 23.5,41.4 22.8,41.9 C22.1,42.3 21.5,42.7 21,43.1 C20.5,43.5 20.1,43.8 19.8,44.1 L19.4,44.5 C19.3,44.6 19.2,44.7 19.1,44.8 L18.9,45.2 L18.9,45.2 Z" id="Shape"></path>
                                <path d="M70.2,17.1 C70.2,17.1 70.2,17.1 70.3,17 C70.3,16.9 70.4,16.8 70.5,16.6 C70.7,16.3 71,15.8 71.6,15.3 C72.2,14.8 72.9,14.4 73.7,13.8 C73.9,13.7 74.1,13.5 74.3,13.3 L74.4,13.2 L74.4,13.2 L74.5,13.1 L74.8,12.8 C75.1,12.4 75.4,12 75.6,11.5 C75.8,11 76.1,10.4 76.4,9.8 C76.5,9.6 76.5,9.5 76.6,9.3 C76.7,9.2 76.8,9 76.9,8.9 C77.1,8.6 77.3,8.3 77.6,8 C77.7,7.9 77.7,7.8 77.8,7.8 C77.9,7.7 78,7.6 78.1,7.6 C78.2,7.5 78.3,7.5 78.5,7.4 C78.6,7.4 78.6,7.3 78.7,7.3 L78.9,7.3 L79.4,7.3 C79.6,7.3 79.7,7.4 79.8,7.5 C79.9,7.6 80,7.7 80.1,7.7 L80.4,8 C81,8.7 81.3,9.4 81.6,10.1 C81.9,10.8 82.2,11.5 82.5,12.2 C82.8,12.8 83.2,13.4 83.6,13.9 C83.7,14 83.9,14.1 84,14.3 C84.1,14.4 84.2,14.5 84.4,14.6 L84.8,14.9 L85,15.1 L85.3,15.3 C85.9,15.7 86.7,16.1 87.4,16.7 C87.6,16.8 87.8,17 87.9,17.2 L88.1,17.5 L88.2,17.7 C88.2,17.7 88.2,17.6 88.3,17.8 L88.3,17.8 L88.3,17.9 L88.4,18 C88.4,18 88.4,18.1 88.5,18.2 C88.6,18.4 88.6,18.5 88.7,18.7 C88.8,19 88.8,19.2 88.8,19.4 C88.8,19.8 88.9,20.2 88.9,20.4 C88.9,20.4 88.9,20.4 88.9,20.5 L88.9,20.5 C88.9,20.5 88.9,20.4 88.9,20.5 L88.9,20.5 L89.1,20.7 L89.2,20.8 C89.2,20.8 89.3,20.9 89.4,21 C89.9,21.4 90.5,21.8 91.2,22.2 C91.8,22.6 92.5,23 93.2,23.4 C93.5,23.6 93.9,23.9 94.2,24.1 C94.5,24.3 94.8,24.6 95.1,24.8 C95.7,25.3 96.2,25.6 96.8,26 C97.9,26.8 99,27.5 100,28.2 C101,28.9 101.9,29.6 102.6,30.2 C103.4,30.8 104.1,31.3 104.7,31.6 C105.3,32 105.8,32.2 106.2,32.3 C106.4,32.4 106.5,32.4 106.6,32.4 L106.7,32.4 C106.7,32.4 106.7,32.4 106.6,32.4 L106.2,32.4 C105.8,32.4 105.3,32.2 104.6,32 C103.9,31.7 103.2,31.4 102.3,30.9 C101.4,30.4 100.5,29.8 99.5,29.2 C99,28.9 98.4,28.6 97.9,28.3 C97.3,28 96.7,27.6 96.1,27.3 C95.5,26.9 94.9,26.5 94.3,26.1 C93.7,25.7 93.1,25.2 92.5,24.9 C91.9,24.5 91.2,24.2 90.5,23.8 C89.8,23.4 89.1,23 88.4,22.4 C88.3,22.3 88.2,22.3 88.1,22.2 L87.8,21.9 L87.6,21.7 C87.6,21.7 87.5,21.6 87.6,21.6 L87.6,21.5 L87.5,21.4 L87.4,21.2 C87.2,20.6 87.2,20.2 87.1,19.8 C87.1,19.6 87,19.5 87,19.3 L87,19.2 L87,19.1 L86.9,19 L86.9,18.9 C87,19.1 86.9,18.9 86.9,19 L86.8,18.9 L86.7,18.7 L86.4,18.4 C85.9,18 85.2,17.6 84.5,17.1 L84.3,16.9 C84.2,16.8 84.1,16.8 84,16.7 L83.5,16.3 C83.3,16.2 83.2,16 83,15.9 L82.5,15.4 C81.9,14.7 81.5,13.9 81.1,13.2 C80.8,12.5 80.5,11.8 80.3,11 C80,10.3 79.7,9.7 79.4,9.2 L79.3,9.1 L79.2,9 C79.2,9 79.2,9 79.1,9 L79.1,9 C79.1,9 78.9,9.1 78.7,9.3 C78.5,9.5 78.3,9.7 78.1,10 C78,10.1 77.9,10.3 77.8,10.4 C77.7,10.5 77.6,10.7 77.6,10.8 C77.3,11.3 77,11.9 76.7,12.4 C76.4,12.9 76,13.5 75.6,13.9 C75.5,14 75.4,14.1 75.3,14.2 L75.2,14.3 L75.1,14.3 L74.9,14.4 C74.7,14.6 74.4,14.7 74.2,14.8 C73.3,15.3 72.5,15.6 72,16 C71.4,16.4 71,16.7 70.8,17 C70.2,16.9 70.2,17.1 70.2,17.1 L70.2,17.1 Z" id="Shape"></path>
                                <path d="M71.1,20.3 C71.7,18.6 73.6,18.2 74.7,17.1 C75,16.8 74.5,16 74.7,15.8 C74.9,15.5 75.5,15.3 75.7,15 C76.2,14.2 76.9,13.8 77.2,12.8 C78.2,15.2 76.2,17.4 76.7,19.8 C76.9,20.9 77.6,21.6 77.9,22.6 C78.2,23.6 77,24.2 78.8,25.2 C79.9,25.8 81.5,25.3 82.6,26.2 C83.1,26.6 82.8,27.2 83.3,27.6 C83.8,28.1 84.4,28.1 85,28.4 C87.1,29.7 87.5,31.4 89.2,33 C87.2,32.4 86.1,30.7 84.3,29.7 C83.3,29.2 82.3,29.2 81.4,28.6 C80.6,28.1 80.2,26.8 79.5,26.4 C78.6,25.8 77.7,26.3 76.8,25.9 C76,25.5 75.4,24.4 74.8,23.9 C73.4,22.8 71.8,22.1 70.7,20.7" id="Shape"></path>
                                <g transform="translate(30.000000, 5.000000)" id="Shape">
                                    <path d="M17.3,11.7 C16,13.8 14.9,15.5 14.3,16.2 C13.8,16.7 13.3,17.1 12.8,17.5 C12.1,18.1 11.4,18.6 10.9,19.3 C10.3,20.1 10,21 9.8,21.9 C9.6,22.6 9.4,23.3 9,24 C8.5,25 7.5,25.7 6.7,26.3 C6.3,26.6 5.9,26.8 5.6,27.1 C4.7,27.8 4.3,28.7 3.8,29.5 C3.4,30.2 3,31 2.4,31.7 C2,32.1 1.5,32.6 1,32.9 C1.7,32.8 2.4,32.5 3,32.3 C3.8,32 4.4,31.8 4.9,31.8 C5.2,31.8 5.4,31.9 5.5,32.1 C5.8,32.6 5.6,33.2 4.5,34.7 C3.1,36.5 1.6,38.9 0.2,41.5 C2.2,40.7 5.1,36.9 6.4,34.7 C6.5,34.5 6.7,34.2 6.8,33.8 C7.2,32.9 7.6,31.9 8.5,31.5 C9,31.3 9.5,31.5 9.9,31.7 C10.1,31.8 10.4,31.9 10.5,31.9 C10.5,31.9 10.6,31.7 10.5,31.1 L10.5,30.6 L11,30.6 C12.4,30.7 12.9,29.5 13.5,27.5 C14,26.1 14.4,24.6 15.6,23.8 L16,23.6 L16.2,24 C16.7,24.9 16.5,25.9 16.4,26.7 C16.3,27.2 16.2,27.7 16.3,28.2 C16.3,28.5 16.4,28.9 16.6,29.3 C16.7,29.7 16.9,30.2 16.9,30.7 C17,30.5 17.2,30.2 17.3,30 C17.4,29.7 17.6,29.5 17.7,29.2 L17.9,28.9 L18.2,29 C19.1,29.3 19.6,30 19.7,30.9 L19.9,30.9 C20.5,30.9 21,30.8 21.4,31 C21.5,31.1 22.3,31.5 22.7,31.9 C23,32 23.1,32.1 23.3,32.1 C23.4,31.9 23.4,31.7 23.6,31.4 C23.8,31 23.8,30.6 23.9,30.2 C24,29.7 24.1,29.2 24.3,28.7 C24.4,28.5 24.6,28.3 24.7,28 C24.9,27.8 25.1,27.4 25.1,27.3 C25.1,27.3 24.9,27.2 24.2,27.2 L24.2,27.2 L23.8,27.2 L23.7,26.8 C23.5,25.3 23.7,23.5 24.4,22.1 C24.9,21 25.4,20.6 25.9,20.1 C26.2,19.8 26.6,19.5 26.9,19 C27.2,18.7 27.3,18.2 27.4,17.7 C27.5,17.1 27.7,16.4 28.2,15.9 C28.5,15.5 28.9,15.2 29.3,15 C30,14.5 30.4,14.2 30.2,13.1 L30.1,12.6 L30.6,12.6 C31.7,12.5 31.8,12.3 31.8,12.3 C31.9,12.1 31.3,11.3 30.9,10.8 C30.5,10.3 30,9.7 29.8,9.2 C29.5,9.6 29.2,10.1 29,10.6 C28.6,11.4 28.2,12.2 27.4,12.9 C25.9,14.2 25.9,14.2 25.7,15.7 C25.7,16 25.6,16.4 25.6,16.8 C25.3,18.8 24.7,19.3 23.1,20.3 C21.5,21.3 21.3,21.6 20.3,23.1 C20.2,23.2 20.2,23.4 20.2,23.6 C20.2,23.9 20.1,24.3 19.8,24.5 C19.6,24.7 19.3,24.7 18.9,24.6 C17.6,24.3 17.8,21.3 17.8,21.2 C17.8,20.7 18,20.3 18.2,19.9 C18.3,19.5 18.5,19.2 18.5,18.8 C18.5,18.7 18.5,18.7 18.3,18.5 C18,18.2 17.6,17.8 17.9,16.8 C18.1,15.9 19.1,14.9 20,14.1 C20.2,13.9 20.4,13.7 20.6,13.5 C21.9,12.1 21.9,11.8 22.1,9.7 L22.1,9.4 L22.4,9.3 C23.2,9 23.9,8.6 24.6,8 C24.6,8 24.6,7.8 24.7,7.7 C24.8,7.4 24.8,7.1 25.1,6.8 C25.3,6.6 25.6,6.5 25.9,6.3 C26.1,6.2 26.3,6.1 26.3,6 C26.9,5.1 27,3.5 27.1,2 C27.1,1.5 27.2,1.1 27.2,0.7 C24.6,-0.1 20.1,7.3 17.3,11.7 L17.3,11.7 Z"></path>
                                    <path d="M27.1,0.7 L27.4,0.7 L27.2,0.5 L27.1,0.7 Z"></path>
                                </g>
                                <path d="M34.6,20.3 C34.2,20.2 33.9,20.1 33.7,19.8 C33.4,19.5 33.2,19 33.2,18.5 L33.2,18.2 L33.5,18.1 C34.8,17.5 36.1,15.2 36.6,13.8 C36.4,14 36.1,14.1 35.9,14.3 C35.5,14.6 35.1,14.8 34.8,15.1 C33.7,16.1 33,17.1 32.2,18.4 C31.2,19.9 30.2,21 29.1,22.2 C28.4,23 27.6,23.7 26.9,24.6 C26.3,25.3 25.8,26.1 25.2,26.8 C23.9,28.6 22.6,30.5 20.7,31.9 C18.9,33.4 16.6,34.4 14.4,35.3 L14.6,35.3 L15.1,35.4 L14.9,35.9 C14.5,37.2 13.6,38.1 12.5,38.8 C12.8,38.6 13.2,38.4 13.5,38.1 C14.3,37.5 15.1,36.9 16.2,36.9 L16.8,36.9 L16.7,37.5 C16.6,37.8 16.6,38.2 16.5,38.6 C17.4,37.7 18.3,36.7 19.6,35.7 C19.8,35.6 20,35.4 20.2,35.2 C21.4,34.1 22.9,32.6 24.3,32.7 L24.6,32.7 L24.7,32.9 C24.9,33.4 25,33.8 25.2,34.3 C25.3,34.5 25.3,34.7 25.4,34.9 C25.4,34.8 25.4,34.7 25.5,34.5 C25.6,33.7 25.7,33 26.3,32.1 C26.6,31.6 27.1,31.2 27.5,30.8 C27.9,30.4 28.3,30.1 28.5,29.7 C28.6,29.5 28.8,29.1 29,28.6 C29.4,27.4 29.9,26.1 30.9,25.9 C32,25.7 32.5,26.7 32.9,27.4 C33.1,27.7 33.3,28.1 33.5,28.3 C33.8,27 33.6,24.9 33.5,23.8 L33.5,23.6 C33.5,23 33.4,22.8 33.3,22.6 C33.2,22.1 33.2,22 33.5,21.2 C33.7,20.7 34.1,20.5 34.3,20.4 C34.4,20.4 34.5,20.3 34.6,20.3 L34.6,20.3 Z" id="Shape"></path>
                            </g>
                        </g>
                    </g>
                </g>
            </g>
        </g>
    </g>
</svg>